ISO-10303-21;
HEADER;
FILE_DESCRIPTION((''),'2;1');
FILE_NAME('KC-D-107R_R_COVER_1','2025-07-12T17:03:00',('Administrator'),(''),
'CREO PARAMETRIC BY PTC INC, 2022073','CREO PARAMETRIC BY PTC INC, 2022073','');
FILE_SCHEMA(('CONFIG_CONTROL_DESIGN'));
ENDSEC;
DATA;
#1=DIRECTION('',(-1.E0,1.220606836159E-11,0.E0));
#2=VECTOR('',#1,4.466044026024E0);
#3=CARTESIAN_POINT('',(-2.326697798694E1,-3.002943725161E1,-1.27E2));
#4=LINE('',#3,#2);
#5=CARTESIAN_POINT('',(-2.773302201297E1,-3.002943725155E1,-1.27E2));
#6=CARTESIAN_POINT('',(-2.793692486421E1,-3.015550756217E1,-1.27E2));
#7=CARTESIAN_POINT('',(-2.836705767864E1,-3.036003033889E1,-1.269961923660E2));
#8=CARTESIAN_POINT('',(-2.911445364033E1,-3.052785977005E1,-1.269896939298E2));
#9=CARTESIAN_POINT('',(-2.986787846012E1,-3.052982603341E1,-1.269896024425E2));
#10=CARTESIAN_POINT('',(-3.062176431128E1,-3.036427958722E1,-1.269960676810E2));
#11=CARTESIAN_POINT('',(-3.105914427735E1,-3.015793795750E1,-1.27E2));
#12=CARTESIAN_POINT('',(-3.126697798694E1,-3.002943725161E1,-1.27E2));
#14=DIRECTION('',(-1.E0,2.762747128707E-12,0.E0));
#15=VECTOR('',#14,3.173302201306E1);
#16=CARTESIAN_POINT('',(-3.126697798694E1,-3.002943725161E1,-1.27E2));
#17=LINE('',#16,#15);
#18=DIRECTION('',(1.E0,-3.135363314007E-12,2.573810170840E-12));
#19=VECTOR('',#18,4.75E1);
#20=CARTESIAN_POINT('',(-6.3E1,-3.851471862570E1,-1.234852813743E2));
#21=LINE('',#20,#19);
#22=DIRECTION('',(-1.E0,-7.770943749231E-12,0.E0));
#23=VECTOR('',#22,4.233022012966E0);
#24=CARTESIAN_POINT('',(-1.55E1,-3.002943725152E1,-1.27E2));
#25=LINE('',#24,#23);
#26=CARTESIAN_POINT('',(-1.973302201297E1,-3.002943725155E1,-1.27E2));
#27=CARTESIAN_POINT('',(-1.993692486421E1,-3.015550756216E1,-1.27E2));
#28=CARTESIAN_POINT('',(-2.036705767863E1,-3.036003033889E1,-1.269961923660E2));
#29=CARTESIAN_POINT('',(-2.111445364034E1,-3.052785977005E1,-1.269896939298E2));
#30=CARTESIAN_POINT('',(-2.186787846012E1,-3.052982603341E1,-1.269896024425E2));
#31=CARTESIAN_POINT('',(-2.262176431128E1,-3.036427958721E1,-1.269960676810E2));
#32=CARTESIAN_POINT('',(-2.305914427735E1,-3.015793795750E1,-1.27E2));
#33=CARTESIAN_POINT('',(-2.326697798694E1,-3.002943725161E1,-1.27E2));
#35=CARTESIAN_POINT('',(-2.95E1,-2.717157287525E1,-1.27E2));
#36=DIRECTION('',(0.E0,0.E0,-1.E0));
#37=DIRECTION('',(-5.258863056786E-1,-8.505548738910E-1,0.E0));
#38=AXIS2_PLACEMENT_3D('',#35,#36,#37);
#40=CARTESIAN_POINT('',(-2.95E1,-2.717157287525E1,-1.27E2));
#41=DIRECTION('',(0.E0,0.E0,-1.E0));
#42=DIRECTION('',(-9.999999958851E-1,9.071830519278E-5,0.E0));
#43=AXIS2_PLACEMENT_3D('',#40,#41,#42);
#45=CARTESIAN_POINT('',(-2.95E1,-2.717157287525E1,-1.27E2));
#46=DIRECTION('',(0.E0,0.E0,-1.E0));
#47=DIRECTION('',(1.E0,0.E0,0.E0));
#48=AXIS2_PLACEMENT_3D('',#45,#46,#47);
#50=CARTESIAN_POINT('',(-2.15E1,-2.717157287525E1,-1.27E2));
#51=DIRECTION('',(0.E0,0.E0,-1.E0));
#52=DIRECTION('',(-5.258863056787E-1,-8.505548738909E-1,0.E0));
#53=AXIS2_PLACEMENT_3D('',#50,#51,#52);
#55=CARTESIAN_POINT('',(-2.15E1,-2.717157287525E1,-1.27E2));
#56=DIRECTION('',(0.E0,0.E0,-1.E0));
#57=DIRECTION('',(-9.999999958851E-1,9.071830519278E-5,0.E0));
#58=AXIS2_PLACEMENT_3D('',#55,#56,#57);
#60=CARTESIAN_POINT('',(-2.15E1,-2.717157287525E1,-1.27E2));
#61=DIRECTION('',(0.E0,0.E0,-1.E0));
#62=DIRECTION('',(1.E0,0.E0,0.E0));
#63=AXIS2_PLACEMENT_3D('',#60,#61,#62);
#65=CARTESIAN_POINT('',(-2.95E1,-2.717157287525E1,-1.2524E2));
#66=DIRECTION('',(0.E0,0.E0,-1.E0));
#67=DIRECTION('',(1.E0,0.E0,0.E0));
#68=AXIS2_PLACEMENT_3D('',#65,#66,#67);
#70=DIRECTION('',(-7.071067811865E-1,0.E0,7.071067811865E-1));
#71=VECTOR('',#70,2.489015869777E0);
#72=CARTESIAN_POINT('',(-2.614E1,-2.717157287525E1,-1.27E2));
#73=LINE('',#72,#71);
#74=DIRECTION('',(2.742221239811E-9,1.352090808280E-4,-9.999999908593E-1));
#75=VECTOR('',#74,2.400000021938E-1);
#76=CARTESIAN_POINT('',(-3.11E1,-2.717157287525E1,-1.25E2));
#77=LINE('',#76,#75);
#78=DIRECTION('',(-1.480297366167E-14,-1.480297366167E-14,-1.E0));
#79=VECTOR('',#78,2.4E-1);
#80=CARTESIAN_POINT('',(-2.79E1,-2.717157287525E1,-1.25E2));
#81=LINE('',#80,#79);
#82=CARTESIAN_POINT('',(-2.95E1,-2.717157287525E1,-1.2524E2));
#83=DIRECTION('',(0.E0,0.E0,-1.E0));
#84=DIRECTION('',(-1.E0,0.E0,0.E0));
#85=AXIS2_PLACEMENT_3D('',#82,#83,#84);
#87=DIRECTION('',(7.071040852892E-1,-6.428814711385E-5,7.071094741511E-1));
#88=VECTOR('',#87,2.489006390577E0);
#89=CARTESIAN_POINT('',(-3.285998658643E1,-2.717138041146E1,-1.27E2));
#90=LINE('',#89,#88);
#91=DIRECTION('',(0.E0,1.E0,0.E0));
#92=VECTOR('',#91,6.834314575049E1);
#93=CARTESIAN_POINT('',(-6.3E1,-3.417157287525E1,-1.25E2));
#94=LINE('',#93,#92);
#95=DIRECTION('',(0.E0,-1.E0,0.E0));
#96=VECTOR('',#95,6.834314575049E1);
#97=CARTESIAN_POINT('',(-1.55E1,3.417157287525E1,-1.25E2));
#98=LINE('',#97,#96);
#99=DIRECTION('',(-1.E0,0.E0,0.E0));
#100=VECTOR('',#99,4.75E1);
#101=CARTESIAN_POINT('',(-1.55E1,-3.417157287525E1,-1.25E2));
#102=LINE('',#101,#100);
#103=CARTESIAN_POINT('',(-2.15E1,-2.717157287525E1,-1.25E2));
#104=DIRECTION('',(0.E0,0.E0,1.E0));
#105=DIRECTION('',(-1.E0,0.E0,0.E0));
#106=AXIS2_PLACEMENT_3D('',#103,#104,#105);
#108=CARTESIAN_POINT('',(-2.15E1,-2.717157287525E1,-1.25E2));
#109=DIRECTION('',(0.E0,0.E0,1.E0));
#110=DIRECTION('',(1.E0,0.E0,0.E0));
#111=AXIS2_PLACEMENT_3D('',#108,#109,#110);
#113=CARTESIAN_POINT('',(-2.95E1,-2.717157287525E1,-1.25E2));
#114=DIRECTION('',(0.E0,0.E0,1.E0));
#115=DIRECTION('',(-1.E0,0.E0,0.E0));
#116=AXIS2_PLACEMENT_3D('',#113,#114,#115);
#118=CARTESIAN_POINT('',(-2.95E1,-2.717157287525E1,-1.25E2));
#119=DIRECTION('',(0.E0,0.E0,1.E0));
#120=DIRECTION('',(1.E0,0.E0,0.E0));
#121=AXIS2_PLACEMENT_3D('',#118,#119,#120);
#123=DIRECTION('',(0.E0,-1.E0,0.E0));
#124=VECTOR('',#123,2.E0);
#125=CARTESIAN_POINT('',(-6.3E1,-6.1E1,-7.3E1));
#126=LINE('',#125,#124);
#127=DIRECTION('',(0.E0,0.E0,-1.E0));
#128=VECTOR('',#127,2.102943725152E1);
#129=CARTESIAN_POINT('',(-6.3E1,-6.3E1,-7.3E1));
#130=LINE('',#129,#128);
#131=CARTESIAN_POINT('',(-6.3E1,-5.1E1,-9.402943725152E1));
#132=DIRECTION('',(1.E0,0.E0,0.E0));
#133=DIRECTION('',(0.E0,-1.E0,7.105427357601E-14));
#134=AXIS2_PLACEMENT_3D('',#131,#132,#133);
#136=DIRECTION('',(0.E0,7.071067811865E-1,-7.071067811865E-1));
#137=VECTOR('',#136,2.965685424964E1);
#138=CARTESIAN_POINT('',(-6.3E1,-5.948528137428E1,-1.025147186257E2));
#139=LINE('',#138,#137);
#140=CARTESIAN_POINT('',(-6.3E1,-3.002943725152E1,-1.15E2));
#141=DIRECTION('',(1.E0,0.E0,0.E0));
#142=DIRECTION('',(0.E0,-7.071067811708E-1,-7.071067812023E-1));
#143=AXIS2_PLACEMENT_3D('',#140,#141,#142);
#145=DIRECTION('',(0.E0,1.E0,0.E0));
#146=VECTOR('',#145,6.005887450304E1);
#147=CARTESIAN_POINT('',(-6.3E1,-3.002943725152E1,-1.27E2));
#148=LINE('',#147,#146);
#149=CARTESIAN_POINT('',(-6.3E1,3.002943725152E1,-1.15E2));
#150=DIRECTION('',(1.E0,0.E0,0.E0));
#151=DIRECTION('',(0.E0,7.075821410278E-14,-1.E0));
#152=AXIS2_PLACEMENT_3D('',#149,#150,#151);
#154=DIRECTION('',(0.E0,7.071067811865E-1,7.071067811865E-1));
#155=VECTOR('',#154,2.965685424925E1);
#156=CARTESIAN_POINT('',(-6.3E1,3.851471862585E1,-1.234852813742E2));
#157=LINE('',#156,#155);
#158=CARTESIAN_POINT('',(-6.3E1,5.1E1,-9.402943725152E1));
#159=DIRECTION('',(1.E0,0.E0,0.E0));
#160=DIRECTION('',(0.E0,7.071067811684E-1,-7.071067812047E-1));
#161=AXIS2_PLACEMENT_3D('',#158,#159,#160);
#163=DIRECTION('',(0.E0,-1.E0,0.E0));
#164=VECTOR('',#163,2.E0);
#165=CARTESIAN_POINT('',(-6.3E1,6.3E1,-7.3E1));
#166=LINE('',#165,#164);
#167=DIRECTION('',(0.E0,-1.326715209504E-13,-1.E0));
#168=VECTOR('',#167,2.517157287525E1);
#169=CARTESIAN_POINT('',(-6.3E1,6.1E1,-7.3E1));
#170=LINE('',#169,#168);
#171=DIRECTION('',(0.E0,-7.071067811865E-1,-7.071067811865E-1));
#172=VECTOR('',#171,3.794112549696E1);
#173=CARTESIAN_POINT('',(-6.3E1,6.1E1,-9.817157287525E1));
#174=LINE('',#173,#172);
#175=DIRECTION('',(0.E0,-7.071067811865E-1,7.071067811865E-1));
#176=VECTOR('',#175,3.794112549696E1);
#177=CARTESIAN_POINT('',(-6.3E1,-3.417157287525E1,-1.25E2));
#178=LINE('',#177,#176);
#179=DIRECTION('',(-1.E0,0.E0,0.E0));
#180=VECTOR('',#179,4.75E1);
#181=CARTESIAN_POINT('',(-1.55E1,-6.1E1,-7.3E1));
#182=LINE('',#181,#180);
#183=DIRECTION('',(0.E0,1.326715209504E-13,-1.E0));
#184=VECTOR('',#183,2.517157287525E1);
#185=CARTESIAN_POINT('',(-6.3E1,-6.1E1,-7.3E1));
#186=LINE('',#185,#184);
#187=DIRECTION('',(0.E0,-1.326715209504E-13,1.E0));
#188=VECTOR('',#187,2.517157287525E1);
#189=CARTESIAN_POINT('',(-1.55E1,-6.1E1,-9.817157287525E1));
#190=LINE('',#189,#188);
#191=CARTESIAN_POINT('',(-2.95E1,-6.1E1,-9.017157287525E1));
#192=DIRECTION('',(0.E0,1.E0,0.E0));
#193=DIRECTION('',(0.E0,0.E0,1.E0));
#194=AXIS2_PLACEMENT_3D('',#191,#192,#193);
#196=CARTESIAN_POINT('',(-2.95E1,-6.1E1,-9.017157287525E1));
#197=DIRECTION('',(0.E0,1.E0,0.E0));
#198=DIRECTION('',(0.E0,0.E0,-1.E0));
#199=AXIS2_PLACEMENT_3D('',#196,#197,#198);
#201=CARTESIAN_POINT('',(-2.15E1,-6.1E1,-9.017157287525E1));
#202=DIRECTION('',(0.E0,1.E0,0.E0));
#203=DIRECTION('',(0.E0,0.E0,1.E0));
#204=AXIS2_PLACEMENT_3D('',#201,#202,#203);
#206=CARTESIAN_POINT('',(-2.15E1,-6.1E1,-9.017157287525E1));
#207=DIRECTION('',(0.E0,1.E0,0.E0));
#208=DIRECTION('',(0.E0,0.E0,-1.E0));
#209=AXIS2_PLACEMENT_3D('',#206,#207,#208);
#211=DIRECTION('',(0.E0,-1.E0,0.E0));
#212=VECTOR('',#211,2.E0);
#213=CARTESIAN_POINT('',(-1.55E1,-6.1E1,-7.3E1));
#214=LINE('',#213,#212);
#215=DIRECTION('',(0.E0,7.071067811865E-1,7.071067811865E-1));
#216=VECTOR('',#215,3.794112549696E1);
#217=CARTESIAN_POINT('',(-1.55E1,3.417157287525E1,-1.25E2));
#218=LINE('',#217,#216);
#219=DIRECTION('',(0.E0,1.326715209504E-13,1.E0));
#220=VECTOR('',#219,2.517157287525E1);
#221=CARTESIAN_POINT('',(-1.55E1,6.1E1,-9.817157287525E1));
#222=LINE('',#221,#220);
#223=DIRECTION('',(0.E0,0.E0,-1.E0));
#224=VECTOR('',#223,2.102943725152E1);
#225=CARTESIAN_POINT('',(-1.55E1,6.3E1,-7.3E1));
#226=LINE('',#225,#224);
#227=CARTESIAN_POINT('',(-1.55E1,5.1E1,-9.402943725152E1));
#228=DIRECTION('',(-1.E0,0.E0,0.E0));
#229=DIRECTION('',(0.E0,1.E0,7.105427357601E-14));
#230=AXIS2_PLACEMENT_3D('',#227,#228,#229);
#232=DIRECTION('',(0.E0,-7.071067811865E-1,-7.071067811865E-1));
#233=VECTOR('',#232,2.965685424964E1);
#234=CARTESIAN_POINT('',(-1.55E1,5.948528137428E1,-1.025147186257E2));
#235=LINE('',#234,#233);
#236=CARTESIAN_POINT('',(-1.55E1,3.002943725152E1,-1.15E2));
#237=DIRECTION('',(-1.E0,0.E0,0.E0));
#238=DIRECTION('',(0.E0,7.071067811708E-1,-7.071067812023E-1));
#239=AXIS2_PLACEMENT_3D('',#236,#237,#238);
#241=DIRECTION('',(0.E0,-1.E0,0.E0));
#242=VECTOR('',#241,6.005887450304E1);
#243=CARTESIAN_POINT('',(-1.55E1,3.002943725152E1,-1.27E2));
#244=LINE('',#243,#242);
#245=CARTESIAN_POINT('',(-1.55E1,-3.002943725152E1,-1.15E2));
#246=DIRECTION('',(-1.E0,0.E0,0.E0));
#247=DIRECTION('',(0.E0,-7.105427357601E-14,-1.E0));
#248=AXIS2_PLACEMENT_3D('',#245,#246,#247);
#250=DIRECTION('',(0.E0,-7.071067811865E-1,7.071067811865E-1));
#251=VECTOR('',#250,2.965685424925E1);
#252=CARTESIAN_POINT('',(-1.55E1,-3.851471862585E1,-1.234852813742E2));
#253=LINE('',#252,#251);
#254=CARTESIAN_POINT('',(-1.55E1,-5.1E1,-9.402943725152E1));
#255=DIRECTION('',(-1.E0,0.E0,0.E0));
#256=DIRECTION('',(0.E0,-7.071067811684E-1,-7.071067812047E-1));
#257=AXIS2_PLACEMENT_3D('',#254,#255,#256);
#259=DIRECTION('',(0.E0,7.071067811865E-1,-7.071067811865E-1));
#260=VECTOR('',#259,3.794112549696E1);
#261=CARTESIAN_POINT('',(-1.55E1,-6.1E1,-9.817157287525E1));
#262=LINE('',#261,#260);
#263=DIRECTION('',(-1.E0,0.E0,0.E0));
#264=VECTOR('',#263,4.75E1);
#265=CARTESIAN_POINT('',(-1.55E1,3.417157287525E1,-1.25E2));
#266=LINE('',#265,#264);
#267=DIRECTION('',(-1.E0,0.E0,0.E0));
#268=VECTOR('',#267,4.75E1);
#269=CARTESIAN_POINT('',(-1.55E1,6.1E1,-9.817157287525E1));
#270=LINE('',#269,#268);
#271=CARTESIAN_POINT('',(-2.15E1,6.1E1,-9.017157287525E1));
#272=DIRECTION('',(0.E0,-1.E0,0.E0));
#273=DIRECTION('',(0.E0,0.E0,1.E0));
#274=AXIS2_PLACEMENT_3D('',#271,#272,#273);
#276=CARTESIAN_POINT('',(-2.15E1,6.1E1,-9.017157287525E1));
#277=DIRECTION('',(0.E0,-1.E0,0.E0));
#278=DIRECTION('',(0.E0,0.E0,-1.E0));
#279=AXIS2_PLACEMENT_3D('',#276,#277,#278);
#281=CARTESIAN_POINT('',(-2.95E1,6.1E1,-9.017157287525E1));
#282=DIRECTION('',(0.E0,-1.E0,0.E0));
#283=DIRECTION('',(0.E0,0.E0,1.E0));
#284=AXIS2_PLACEMENT_3D('',#281,#282,#283);
#286=CARTESIAN_POINT('',(-2.95E1,6.1E1,-9.017157287525E1));
#287=DIRECTION('',(0.E0,-1.E0,0.E0));
#288=DIRECTION('',(0.E0,0.E0,-1.E0));
#289=AXIS2_PLACEMENT_3D('',#286,#287,#288);
#291=DIRECTION('',(0.E0,-1.E0,0.E0));
#292=VECTOR('',#291,2.E0);
#293=CARTESIAN_POINT('',(-1.55E1,6.3E1,-7.3E1));
#294=LINE('',#293,#292);
#295=DIRECTION('',(-1.E0,0.E0,0.E0));
#296=VECTOR('',#295,4.75E1);
#297=CARTESIAN_POINT('',(-1.55E1,6.1E1,-7.3E1));
#298=LINE('',#297,#296);
#299=DIRECTION('',(1.E0,0.E0,0.E0));
#300=VECTOR('',#299,4.75E1);
#301=CARTESIAN_POINT('',(-6.3E1,6.3E1,-7.3E1));
#302=LINE('',#301,#300);
#303=DIRECTION('',(0.E0,0.E0,-1.E0));
#304=VECTOR('',#303,2.102943725152E1);
#305=CARTESIAN_POINT('',(-6.3E1,6.3E1,-7.3E1));
#306=LINE('',#305,#304);
#307=CARTESIAN_POINT('',(-2.15E1,6.3E1,-9.017157287525E1));
#308=DIRECTION('',(0.E0,1.E0,0.E0));
#309=DIRECTION('',(0.E0,0.E0,1.E0));
#310=AXIS2_PLACEMENT_3D('',#307,#308,#309);
#312=CARTESIAN_POINT('',(-2.15E1,6.3E1,-9.017157287525E1));
#313=DIRECTION('',(0.E0,1.E0,0.E0));
#314=DIRECTION('',(0.E0,0.E0,-1.E0));
#315=AXIS2_PLACEMENT_3D('',#312,#313,#314);
#317=CARTESIAN_POINT('',(-2.95E1,6.3E1,-9.017157287525E1));
#318=DIRECTION('',(0.E0,1.E0,0.E0));
#319=DIRECTION('',(0.E0,0.E0,1.E0));
#320=AXIS2_PLACEMENT_3D('',#317,#318,#319);
#322=CARTESIAN_POINT('',(-2.95E1,6.3E1,-9.017157287525E1));
#323=DIRECTION('',(0.E0,1.E0,0.E0));
#324=DIRECTION('',(0.E0,0.E0,-1.E0));
#325=AXIS2_PLACEMENT_3D('',#322,#323,#324);
#327=DIRECTION('',(1.E0,2.573810170840E-12,3.134764962229E-12));
#328=VECTOR('',#327,4.75E1);
#329=CARTESIAN_POINT('',(-6.3E1,5.948528137416E1,-1.025147186259E2));
#330=LINE('',#329,#328);
#331=DIRECTION('',(-1.E0,0.E0,0.E0));
#332=VECTOR('',#331,4.75E1);
#333=CARTESIAN_POINT('',(-1.55E1,6.3E1,-9.402943725152E1));
#334=LINE('',#333,#332);
#335=DIRECTION('',(1.E0,0.E0,0.E0));
#336=VECTOR('',#335,4.75E1);
#337=CARTESIAN_POINT('',(-6.3E1,3.002943725152E1,-1.27E2));
#338=LINE('',#337,#336);
#339=DIRECTION('',(-1.E0,3.135213726062E-12,2.573810170840E-12));
#340=VECTOR('',#339,4.75E1);
#341=CARTESIAN_POINT('',(-1.55E1,3.851471862570E1,-1.234852813743E2));
#342=LINE('',#341,#340);
#343=CARTESIAN_POINT('',(-2.15E1,6.124E1,-9.017157287525E1));
#344=DIRECTION('',(0.E0,1.E0,0.E0));
#345=DIRECTION('',(0.E0,0.E0,1.E0));
#346=AXIS2_PLACEMENT_3D('',#343,#344,#345);
#348=DIRECTION('',(0.E0,-7.071067811865E-1,-7.071067811866E-1));
#349=VECTOR('',#348,2.489015869777E0);
#350=CARTESIAN_POINT('',(-2.15E1,6.3E1,-8.681157287525E1));
#351=LINE('',#350,#349);
#352=DIRECTION('',(0.E0,1.E0,0.E0));
#353=VECTOR('',#352,2.4E-1);
#354=CARTESIAN_POINT('',(-2.15E1,6.1E1,-9.177157287525E1));
#355=LINE('',#354,#353);
#356=DIRECTION('',(0.E0,1.E0,0.E0));
#357=VECTOR('',#356,2.4E-1);
#358=CARTESIAN_POINT('',(-2.15E1,6.1E1,-8.857157287525E1));
#359=LINE('',#358,#357);
#360=CARTESIAN_POINT('',(-2.15E1,6.124E1,-9.017157287525E1));
#361=DIRECTION('',(0.E0,1.E0,0.E0));
#362=DIRECTION('',(0.E0,0.E0,-1.E0));
#363=AXIS2_PLACEMENT_3D('',#360,#361,#362);
#365=DIRECTION('',(0.E0,-7.071067811865E-1,7.071067811865E-1));
#366=VECTOR('',#365,2.489015869777E0);
#367=CARTESIAN_POINT('',(-2.15E1,6.3E1,-9.353157287525E1));
#368=LINE('',#367,#366);
#369=CARTESIAN_POINT('',(-2.95E1,6.124E1,-9.017157287525E1));
#370=DIRECTION('',(0.E0,1.E0,0.E0));
#371=DIRECTION('',(0.E0,0.E0,1.E0));
#372=AXIS2_PLACEMENT_3D('',#369,#370,#371);
#374=DIRECTION('',(0.E0,-7.071067811865E-1,-7.071067811866E-1));
#375=VECTOR('',#374,2.489015869777E0);
#376=CARTESIAN_POINT('',(-2.95E1,6.3E1,-8.681157287525E1));
#377=LINE('',#376,#375);
#378=DIRECTION('',(0.E0,1.E0,0.E0));
#379=VECTOR('',#378,2.4E-1);
#380=CARTESIAN_POINT('',(-2.95E1,6.1E1,-9.177157287525E1));
#381=LINE('',#380,#379);
#382=DIRECTION('',(0.E0,1.E0,0.E0));
#383=VECTOR('',#382,2.4E-1);
#384=CARTESIAN_POINT('',(-2.95E1,6.1E1,-8.857157287525E1));
#385=LINE('',#384,#383);
#386=CARTESIAN_POINT('',(-2.95E1,6.124E1,-9.017157287525E1));
#387=DIRECTION('',(0.E0,1.E0,0.E0));
#388=DIRECTION('',(0.E0,0.E0,-1.E0));
#389=AXIS2_PLACEMENT_3D('',#386,#387,#388);
#391=DIRECTION('',(0.E0,-7.071067811865E-1,7.071067811865E-1));
#392=VECTOR('',#391,2.489015869777E0);
#393=CARTESIAN_POINT('',(-2.95E1,6.3E1,-9.353157287525E1));
#394=LINE('',#393,#392);
#395=DIRECTION('',(1.E0,0.E0,0.E0));
#396=VECTOR('',#395,4.75E1);
#397=CARTESIAN_POINT('',(-6.3E1,-6.3E1,-9.402943725152E1));
#398=LINE('',#397,#396);
#399=DIRECTION('',(-1.E0,-2.574408522617E-12,3.135662489895E-12));
#400=VECTOR('',#399,4.75E1);
#401=CARTESIAN_POINT('',(-1.55E1,-5.948528137416E1,-1.025147186259E2));
#402=LINE('',#401,#400);
#403=DIRECTION('',(1.E0,0.E0,0.E0));
#404=VECTOR('',#403,4.75E1);
#405=CARTESIAN_POINT('',(-6.3E1,-6.3E1,-7.3E1));
#406=LINE('',#405,#404);
#407=DIRECTION('',(0.E0,0.E0,-1.E0));
#408=VECTOR('',#407,2.102943725152E1);
#409=CARTESIAN_POINT('',(-1.55E1,-6.3E1,-7.3E1));
#410=LINE('',#409,#408);
#411=CARTESIAN_POINT('',(-2.95E1,-6.3E1,-9.017157287525E1));
#412=DIRECTION('',(0.E0,-1.E0,0.E0));
#413=DIRECTION('',(0.E0,0.E0,-1.E0));
#414=AXIS2_PLACEMENT_3D('',#411,#412,#413);
#416=CARTESIAN_POINT('',(-2.95E1,-6.3E1,-9.017157287525E1));
#417=DIRECTION('',(0.E0,-1.E0,0.E0));
#418=DIRECTION('',(0.E0,0.E0,1.E0));
#419=AXIS2_PLACEMENT_3D('',#416,#417,#418);
#421=CARTESIAN_POINT('',(-2.15E1,-6.3E1,-9.017157287525E1));
#422=DIRECTION('',(0.E0,-1.E0,0.E0));
#423=DIRECTION('',(0.E0,0.E0,-1.E0));
#424=AXIS2_PLACEMENT_3D('',#421,#422,#423);
#426=CARTESIAN_POINT('',(-2.15E1,-6.3E1,-9.017157287525E1));
#427=DIRECTION('',(0.E0,-1.E0,0.E0));
#428=DIRECTION('',(0.E0,0.E0,1.E0));
#429=AXIS2_PLACEMENT_3D('',#426,#427,#428);
#431=CARTESIAN_POINT('',(-2.95E1,-6.124E1,-9.017157287525E1));
#432=DIRECTION('',(0.E0,-1.E0,0.E0));
#433=DIRECTION('',(0.E0,0.E0,-1.E0));
#434=AXIS2_PLACEMENT_3D('',#431,#432,#433);
#436=DIRECTION('',(0.E0,7.071067811865E-1,7.071067811865E-1));
#437=VECTOR('',#436,2.489015869777E0);
#438=CARTESIAN_POINT('',(-2.95E1,-6.3E1,-9.353157287525E1));
#439=LINE('',#438,#437);
#440=DIRECTION('',(0.E0,-1.E0,0.E0));
#441=VECTOR('',#440,2.4E-1);
#442=CARTESIAN_POINT('',(-2.95E1,-6.1E1,-8.857157287525E1));
#443=LINE('',#442,#441);
#444=DIRECTION('',(0.E0,-1.E0,0.E0));
#445=VECTOR('',#444,2.4E-1);
#446=CARTESIAN_POINT('',(-2.95E1,-6.1E1,-9.177157287525E1));
#447=LINE('',#446,#445);
#448=CARTESIAN_POINT('',(-2.95E1,-6.124E1,-9.017157287525E1));
#449=DIRECTION('',(0.E0,-1.E0,0.E0));
#450=DIRECTION('',(0.E0,0.E0,1.E0));
#451=AXIS2_PLACEMENT_3D('',#448,#449,#450);
#453=DIRECTION('',(0.E0,7.071067811865E-1,-7.071067811866E-1));
#454=VECTOR('',#453,2.489015869777E0);
#455=CARTESIAN_POINT('',(-2.95E1,-6.3E1,-8.681157287525E1));
#456=LINE('',#455,#454);
#457=CARTESIAN_POINT('',(-2.15E1,-6.124E1,-9.017157287525E1));
#458=DIRECTION('',(0.E0,-1.E0,0.E0));
#459=DIRECTION('',(0.E0,0.E0,-1.E0));
#460=AXIS2_PLACEMENT_3D('',#457,#458,#459);
#462=DIRECTION('',(0.E0,7.071067811865E-1,7.071067811865E-1));
#463=VECTOR('',#462,2.489015869777E0);
#464=CARTESIAN_POINT('',(-2.15E1,-6.3E1,-9.353157287525E1));
#465=LINE('',#464,#463);
#466=DIRECTION('',(0.E0,-1.E0,0.E0));
#467=VECTOR('',#466,2.4E-1);
#468=CARTESIAN_POINT('',(-2.15E1,-6.1E1,-8.857157287525E1));
#469=LINE('',#468,#467);
#470=DIRECTION('',(0.E0,-1.E0,0.E0));
#471=VECTOR('',#470,2.4E-1);
#472=CARTESIAN_POINT('',(-2.15E1,-6.1E1,-9.177157287525E1));
#473=LINE('',#472,#471);
#474=CARTESIAN_POINT('',(-2.15E1,-6.124E1,-9.017157287525E1));
#475=DIRECTION('',(0.E0,-1.E0,0.E0));
#476=DIRECTION('',(0.E0,0.E0,1.E0));
#477=AXIS2_PLACEMENT_3D('',#474,#475,#476);
#479=DIRECTION('',(0.E0,7.071067811865E-1,-7.071067811866E-1));
#480=VECTOR('',#479,2.489015869777E0);
#481=CARTESIAN_POINT('',(-2.15E1,-6.3E1,-8.681157287525E1));
#482=LINE('',#481,#480);
#483=DIRECTION('',(-1.E0,0.E0,0.E0));
#484=VECTOR('',#483,4.75E1);
#485=CARTESIAN_POINT('',(-1.55E1,-6.1E1,-9.817157287525E1));
#486=LINE('',#485,#484);
#487=DIRECTION('',(2.742221239811E-9,1.352090808428E-4,-9.999999908593E-1));
#488=VECTOR('',#487,2.400000021938E-1);
#489=CARTESIAN_POINT('',(-2.31E1,-2.717157287525E1,-1.25E2));
#490=LINE('',#489,#488);
#491=CARTESIAN_POINT('',(-2.15E1,-2.717157287525E1,-1.2524E2));
#492=DIRECTION('',(0.E0,0.E0,-1.E0));
#493=DIRECTION('',(1.E0,0.E0,0.E0));
#494=AXIS2_PLACEMENT_3D('',#491,#492,#493);
#496=DIRECTION('',(-7.071067811865E-1,0.E0,7.071067811865E-1));
#497=VECTOR('',#496,2.489015869777E0);
#498=CARTESIAN_POINT('',(-1.814E1,-2.717157287525E1,-1.27E2));
#499=LINE('',#498,#497);
#500=CARTESIAN_POINT('',(-2.15E1,-2.717157287525E1,-1.2524E2));
#501=DIRECTION('',(0.E0,0.E0,-1.E0));
#502=DIRECTION('',(-1.E0,0.E0,0.E0));
#503=AXIS2_PLACEMENT_3D('',#500,#501,#502);
#505=DIRECTION('',(7.071040852892E-1,-6.428814711385E-5,7.071094741511E-1));
#506=VECTOR('',#505,2.489006390577E0);
#507=CARTESIAN_POINT('',(-2.485998658643E1,-2.717138041146E1,-1.27E2));
#508=LINE('',#507,#506);
#509=DIRECTION('',(-1.480297366167E-14,-1.480297366167E-14,-1.E0));
#510=VECTOR('',#509,2.4E-1);
#511=CARTESIAN_POINT('',(-1.99E1,-2.717157287525E1,-1.25E2));
#512=LINE('',#511,#510);
#513=CARTESIAN_POINT('',(-2.326697798694E1,-3.002943725161E1,-1.27E2));
#514=CARTESIAN_POINT('',(-2.773302201297E1,-3.002943725155E1,-1.27E2));
#515=VERTEX_POINT('',#513);
#516=VERTEX_POINT('',#514);
#517=VERTEX_POINT('',#12);
#518=CARTESIAN_POINT('',(-6.3E1,-3.002943725152E1,-1.27E2));
#519=VERTEX_POINT('',#518);
#520=CARTESIAN_POINT('',(-6.3E1,-3.851471862557E1,-1.234852813744E2));
#521=VERTEX_POINT('',#520);
#522=CARTESIAN_POINT('',(-1.55E1,-3.851471862585E1,-1.234852813742E2));
#523=VERTEX_POINT('',#522);
#524=CARTESIAN_POINT('',(-1.55E1,-3.002943725152E1,-1.27E2));
#525=VERTEX_POINT('',#524);
#526=CARTESIAN_POINT('',(-1.973302201297E1,-3.002943725155E1,-1.27E2));
#527=VERTEX_POINT('',#526);
#528=CARTESIAN_POINT('',(-3.285999998617E1,-2.717126806174E1,-1.27E2));
#529=VERTEX_POINT('',#528);
#530=CARTESIAN_POINT('',(-2.614E1,-2.717157287525E1,-1.27E2));
#531=VERTEX_POINT('',#530);
#532=CARTESIAN_POINT('',(-2.485999998617E1,-2.717126806174E1,-1.27E2));
#533=VERTEX_POINT('',#532);
#534=CARTESIAN_POINT('',(-1.814E1,-2.717157287525E1,-1.27E2));
#535=VERTEX_POINT('',#534);
#536=CARTESIAN_POINT('',(-1.55E1,3.002943725152E1,-1.27E2));
#537=VERTEX_POINT('',#536);
#538=CARTESIAN_POINT('',(-6.3E1,3.002943725152E1,-1.27E2));
#539=VERTEX_POINT('',#538);
#540=CARTESIAN_POINT('',(-2.79E1,-2.717157287525E1,-1.2524E2));
#541=CARTESIAN_POINT('',(-3.11E1,-2.717157287525E1,-1.2524E2));
#542=VERTEX_POINT('',#540);
#543=VERTEX_POINT('',#541);
#544=CARTESIAN_POINT('',(-2.79E1,-2.717157287525E1,-1.25E2));
#545=VERTEX_POINT('',#544);
#546=CARTESIAN_POINT('',(-3.11E1,-2.717157287525E1,-1.25E2));
#547=VERTEX_POINT('',#546);
#548=CARTESIAN_POINT('',(-6.3E1,-3.417157287525E1,-1.25E2));
#549=CARTESIAN_POINT('',(-6.3E1,3.417157287525E1,-1.25E2));
#550=VERTEX_POINT('',#548);
#551=VERTEX_POINT('',#549);
#552=CARTESIAN_POINT('',(-1.55E1,3.417157287525E1,-1.25E2));
#553=VERTEX_POINT('',#552);
#554=CARTESIAN_POINT('',(-1.55E1,-3.417157287525E1,-1.25E2));
#555=VERTEX_POINT('',#554);
#556=CARTESIAN_POINT('',(-2.31E1,-2.717157287525E1,-1.25E2));
#557=CARTESIAN_POINT('',(-1.99E1,-2.717157287525E1,-1.25E2));
#558=VERTEX_POINT('',#556);
#559=VERTEX_POINT('',#557);
#560=CARTESIAN_POINT('',(-1.99E1,-2.717157287525E1,-1.2524E2));
#561=CARTESIAN_POINT('',(-2.31E1,-2.717157287525E1,-1.2524E2));
#562=VERTEX_POINT('',#560);
#563=VERTEX_POINT('',#561);
#564=CARTESIAN_POINT('',(-6.3E1,-6.1E1,-7.3E1));
#565=CARTESIAN_POINT('',(-6.3E1,-6.1E1,-9.817157287525E1));
#566=VERTEX_POINT('',#564);
#567=VERTEX_POINT('',#565);
#568=CARTESIAN_POINT('',(-6.3E1,-6.3E1,-7.3E1));
#569=VERTEX_POINT('',#568);
#570=CARTESIAN_POINT('',(-6.3E1,-6.3E1,-9.402943725152E1));
#571=VERTEX_POINT('',#570);
#572=CARTESIAN_POINT('',(-6.3E1,-5.948528137443E1,-1.025147186256E2));
#573=VERTEX_POINT('',#572);
#574=CARTESIAN_POINT('',(-6.3E1,3.851471862598E1,-1.234852813740E2));
#575=VERTEX_POINT('',#574);
#576=CARTESIAN_POINT('',(-6.3E1,5.948528137416E1,-1.025147186259E2));
#577=VERTEX_POINT('',#576);
#578=CARTESIAN_POINT('',(-6.3E1,6.3E1,-9.402943725152E1));
#579=VERTEX_POINT('',#578);
#580=CARTESIAN_POINT('',(-6.3E1,6.3E1,-7.3E1));
#581=VERTEX_POINT('',#580);
#582=CARTESIAN_POINT('',(-6.3E1,6.1E1,-7.3E1));
#583=VERTEX_POINT('',#582);
#584=CARTESIAN_POINT('',(-6.3E1,6.1E1,-9.817157287525E1));
#585=VERTEX_POINT('',#584);
#586=CARTESIAN_POINT('',(-1.55E1,-6.1E1,-7.3E1));
#587=VERTEX_POINT('',#586);
#588=CARTESIAN_POINT('',(-1.55E1,-6.1E1,-9.817157287525E1));
#589=VERTEX_POINT('',#588);
#590=CARTESIAN_POINT('',(-2.95E1,-6.1E1,-8.857157287525E1));
#591=CARTESIAN_POINT('',(-2.95E1,-6.1E1,-9.177157287525E1));
#592=VERTEX_POINT('',#590);
#593=VERTEX_POINT('',#591);
#594=CARTESIAN_POINT('',(-2.15E1,-6.1E1,-8.857157287525E1));
#595=CARTESIAN_POINT('',(-2.15E1,-6.1E1,-9.177157287525E1));
#596=VERTEX_POINT('',#594);
#597=VERTEX_POINT('',#595);
#598=CARTESIAN_POINT('',(-2.15E1,-6.124E1,-9.177157287525E1));
#599=CARTESIAN_POINT('',(-2.15E1,-6.124E1,-8.857157287525E1));
#600=VERTEX_POINT('',#598);
#601=VERTEX_POINT('',#599);
#602=CARTESIAN_POINT('',(-2.15E1,-6.3E1,-8.681157287525E1));
#603=VERTEX_POINT('',#602);
#604=CARTESIAN_POINT('',(-2.15E1,-6.3E1,-9.353157287525E1));
#605=VERTEX_POINT('',#604);
#606=CARTESIAN_POINT('',(-1.55E1,-6.3E1,-7.3E1));
#607=VERTEX_POINT('',#606);
#608=CARTESIAN_POINT('',(-1.55E1,-6.3E1,-9.402943725152E1));
#609=VERTEX_POINT('',#608);
#610=CARTESIAN_POINT('',(-2.95E1,-6.3E1,-9.353157287525E1));
#611=CARTESIAN_POINT('',(-2.95E1,-6.3E1,-8.681157287525E1));
#612=VERTEX_POINT('',#610);
#613=VERTEX_POINT('',#611);
#614=CARTESIAN_POINT('',(-2.95E1,-6.124E1,-9.177157287525E1));
#615=CARTESIAN_POINT('',(-2.95E1,-6.124E1,-8.857157287525E1));
#616=VERTEX_POINT('',#614);
#617=VERTEX_POINT('',#615);
#618=CARTESIAN_POINT('',(-1.55E1,6.1E1,-9.817157287525E1));
#619=VERTEX_POINT('',#618);
#620=CARTESIAN_POINT('',(-1.55E1,6.1E1,-7.3E1));
#621=VERTEX_POINT('',#620);
#622=CARTESIAN_POINT('',(-1.55E1,6.3E1,-7.3E1));
#623=VERTEX_POINT('',#622);
#624=CARTESIAN_POINT('',(-1.55E1,6.3E1,-9.402943725152E1));
#625=VERTEX_POINT('',#624);
#626=CARTESIAN_POINT('',(-1.55E1,5.948528137443E1,-1.025147186256E2));
#627=VERTEX_POINT('',#626);
#628=CARTESIAN_POINT('',(-1.55E1,3.851471862570E1,-1.234852813743E2));
#629=VERTEX_POINT('',#628);
#630=CARTESIAN_POINT('',(-1.55E1,-5.948528137416E1,-1.025147186259E2));
#631=VERTEX_POINT('',#630);
#632=CARTESIAN_POINT('',(-2.15E1,6.1E1,-8.857157287525E1));
#633=CARTESIAN_POINT('',(-2.15E1,6.1E1,-9.177157287525E1));
#634=VERTEX_POINT('',#632);
#635=VERTEX_POINT('',#633);
#636=CARTESIAN_POINT('',(-2.95E1,6.1E1,-8.857157287525E1));
#637=CARTESIAN_POINT('',(-2.95E1,6.1E1,-9.177157287525E1));
#638=VERTEX_POINT('',#636);
#639=VERTEX_POINT('',#637);
#640=CARTESIAN_POINT('',(-2.95E1,6.124E1,-8.857157287525E1));
#641=VERTEX_POINT('',#640);
#642=CARTESIAN_POINT('',(-2.95E1,6.124E1,-9.177157287525E1));
#643=VERTEX_POINT('',#642);
#644=CARTESIAN_POINT('',(-2.95E1,6.3E1,-9.353157287525E1));
#645=VERTEX_POINT('',#644);
#646=CARTESIAN_POINT('',(-2.95E1,6.3E1,-8.681157287525E1));
#647=VERTEX_POINT('',#646);
#648=CARTESIAN_POINT('',(-2.15E1,6.3E1,-8.681157287525E1));
#649=CARTESIAN_POINT('',(-2.15E1,6.3E1,-9.353157287525E1));
#650=VERTEX_POINT('',#648);
#651=VERTEX_POINT('',#649);
#652=CARTESIAN_POINT('',(-2.15E1,6.124E1,-8.857157287525E1));
#653=CARTESIAN_POINT('',(-2.15E1,6.124E1,-9.177157287525E1));
#654=VERTEX_POINT('',#652);
#655=VERTEX_POINT('',#653);
#656=CARTESIAN_POINT('',(-6.3002E1,-3.002943725152E1,-1.15E2));
#657=DIRECTION('',(-1.E0,0.E0,0.E0));
#658=DIRECTION('',(0.E0,0.E0,-1.E0));
#659=AXIS2_PLACEMENT_3D('',#656,#657,#658);
#660=CYLINDRICAL_SURFACE('',#659,1.2E1);
#662=ORIENTED_EDGE('',*,*,#661,.T.);
#664=ORIENTED_EDGE('',*,*,#663,.T.);
#666=ORIENTED_EDGE('',*,*,#665,.T.);
#668=ORIENTED_EDGE('',*,*,#667,.F.);
#670=ORIENTED_EDGE('',*,*,#669,.T.);
#672=ORIENTED_EDGE('',*,*,#671,.F.);
#674=ORIENTED_EDGE('',*,*,#673,.T.);
#676=ORIENTED_EDGE('',*,*,#675,.T.);
#677=EDGE_LOOP('',(#662,#664,#666,#668,#670,#672,#674,#676));
#678=FACE_OUTER_BOUND('',#677,.F.);
#679=ADVANCED_FACE('',(#678),#660,.T.);
#680=CARTESIAN_POINT('',(-6.3002E1,-3.15E1,-1.27E2));
#681=DIRECTION('',(0.E0,0.E0,1.E0));
#682=DIRECTION('',(-1.E0,0.E0,0.E0));
#683=AXIS2_PLACEMENT_3D('',#680,#681,#682);
#684=PLANE('',#683);
#686=ORIENTED_EDGE('',*,*,#685,.T.);
#688=ORIENTED_EDGE('',*,*,#687,.T.);
#690=ORIENTED_EDGE('',*,*,#689,.T.);
#691=ORIENTED_EDGE('',*,*,#661,.F.);
#693=ORIENTED_EDGE('',*,*,#692,.T.);
#695=ORIENTED_EDGE('',*,*,#694,.T.);
#697=ORIENTED_EDGE('',*,*,#696,.T.);
#698=ORIENTED_EDGE('',*,*,#673,.F.);
#700=ORIENTED_EDGE('',*,*,#699,.F.);
#702=ORIENTED_EDGE('',*,*,#701,.F.);
#704=ORIENTED_EDGE('',*,*,#703,.F.);
#705=ORIENTED_EDGE('',*,*,#665,.F.);
#706=EDGE_LOOP('',(#686,#688,#690,#691,#693,#695,#697,#698,#700,#702,#704,
#705));
#707=FACE_OUTER_BOUND('',#706,.F.);
#708=ADVANCED_FACE('',(#707),#684,.F.);
#709=CARTESIAN_POINT('',(-2.95E1,-2.717157287525E1,-1.2612E2));
#710=DIRECTION('',(0.E0,0.E0,-1.E0));
#711=DIRECTION('',(1.E0,0.E0,0.E0));
#712=AXIS2_PLACEMENT_3D('',#709,#710,#711);
#713=CONICAL_SURFACE('',#712,2.48E0,4.5E1);
#715=ORIENTED_EDGE('',*,*,#714,.T.);
#717=ORIENTED_EDGE('',*,*,#716,.F.);
#718=ORIENTED_EDGE('',*,*,#685,.F.);
#719=ORIENTED_EDGE('',*,*,#663,.F.);
#720=ORIENTED_EDGE('',*,*,#689,.F.);
#722=ORIENTED_EDGE('',*,*,#721,.T.);
#723=EDGE_LOOP('',(#715,#717,#718,#719,#720,#722));
#724=FACE_OUTER_BOUND('',#723,.F.);
#725=ADVANCED_FACE('',(#724),#713,.F.);
#726=CARTESIAN_POINT('',(-2.95E1,-2.717157287525E1,-1.27E2));
#727=DIRECTION('',(0.E0,0.E0,1.E0));
#728=DIRECTION('',(-1.E0,0.E0,0.E0));
#729=AXIS2_PLACEMENT_3D('',#726,#727,#728);
#730=CYLINDRICAL_SURFACE('',#729,1.6E0);
#731=ORIENTED_EDGE('',*,*,#714,.F.);
#733=ORIENTED_EDGE('',*,*,#732,.F.);
#735=ORIENTED_EDGE('',*,*,#734,.F.);
#737=ORIENTED_EDGE('',*,*,#736,.T.);
#738=EDGE_LOOP('',(#731,#733,#735,#737));
#739=FACE_OUTER_BOUND('',#738,.F.);
#740=ADVANCED_FACE('',(#739),#730,.F.);
#741=CARTESIAN_POINT('',(-2.95E1,-2.717157287525E1,-1.27E2));
#742=DIRECTION('',(0.E0,0.E0,1.E0));
#743=DIRECTION('',(-1.E0,0.E0,0.E0));
#744=AXIS2_PLACEMENT_3D('',#741,#742,#743);
#745=CYLINDRICAL_SURFACE('',#744,1.6E0);
#747=ORIENTED_EDGE('',*,*,#746,.F.);
#748=ORIENTED_EDGE('',*,*,#736,.F.);
#750=ORIENTED_EDGE('',*,*,#749,.F.);
#751=ORIENTED_EDGE('',*,*,#732,.T.);
#752=EDGE_LOOP('',(#747,#748,#750,#751));
#753=FACE_OUTER_BOUND('',#752,.F.);
#754=ADVANCED_FACE('',(#753),#745,.F.);
#755=CARTESIAN_POINT('',(-2.95E1,-2.717157287525E1,-1.2612E2));
#756=DIRECTION('',(0.E0,0.E0,-1.E0));
#757=DIRECTION('',(1.E0,0.E0,0.E0));
#758=AXIS2_PLACEMENT_3D('',#755,#756,#757);
#759=CONICAL_SURFACE('',#758,2.48E0,4.5E1);
#760=ORIENTED_EDGE('',*,*,#746,.T.);
#761=ORIENTED_EDGE('',*,*,#721,.F.);
#762=ORIENTED_EDGE('',*,*,#687,.F.);
#763=ORIENTED_EDGE('',*,*,#716,.T.);
#764=EDGE_LOOP('',(#760,#761,#762,#763));
#765=FACE_OUTER_BOUND('',#764,.F.);
#766=ADVANCED_FACE('',(#765),#759,.F.);
#767=CARTESIAN_POINT('',(-1.5498E1,0.E0,-1.25E2));
#768=DIRECTION('',(0.E0,0.E0,-1.E0));
#769=DIRECTION('',(1.E0,0.E0,0.E0));
#770=AXIS2_PLACEMENT_3D('',#767,#768,#769);
#771=PLANE('',#770);
#773=ORIENTED_EDGE('',*,*,#772,.T.);
#775=ORIENTED_EDGE('',*,*,#774,.F.);
#777=ORIENTED_EDGE('',*,*,#776,.T.);
#779=ORIENTED_EDGE('',*,*,#778,.T.);
#780=EDGE_LOOP('',(#773,#775,#777,#779));
#781=FACE_OUTER_BOUND('',#780,.F.);
#783=ORIENTED_EDGE('',*,*,#782,.T.);
#785=ORIENTED_EDGE('',*,*,#784,.T.);
#786=EDGE_LOOP('',(#783,#785));
#787=FACE_BOUND('',#786,.F.);
#788=ORIENTED_EDGE('',*,*,#734,.T.);
#789=ORIENTED_EDGE('',*,*,#749,.T.);
#790=EDGE_LOOP('',(#788,#789));
#791=FACE_BOUND('',#790,.F.);
#792=ADVANCED_FACE('',(#781,#787,#791),#771,.F.);
#793=CARTESIAN_POINT('',(-6.3E1,0.E0,-6.4E1));
#794=DIRECTION('',(-1.E0,0.E0,0.E0));
#795=DIRECTION('',(0.E0,1.E0,0.E0));
#796=AXIS2_PLACEMENT_3D('',#793,#794,#795);
#797=PLANE('',#796);
#799=ORIENTED_EDGE('',*,*,#798,.F.);
#801=ORIENTED_EDGE('',*,*,#800,.T.);
#803=ORIENTED_EDGE('',*,*,#802,.T.);
#805=ORIENTED_EDGE('',*,*,#804,.T.);
#807=ORIENTED_EDGE('',*,*,#806,.T.);
#808=ORIENTED_EDGE('',*,*,#667,.T.);
#809=ORIENTED_EDGE('',*,*,#703,.T.);
#811=ORIENTED_EDGE('',*,*,#810,.T.);
#813=ORIENTED_EDGE('',*,*,#812,.T.);
#815=ORIENTED_EDGE('',*,*,#814,.T.);
#817=ORIENTED_EDGE('',*,*,#816,.F.);
#819=ORIENTED_EDGE('',*,*,#818,.T.);
#821=ORIENTED_EDGE('',*,*,#820,.T.);
#823=ORIENTED_EDGE('',*,*,#822,.T.);
#824=ORIENTED_EDGE('',*,*,#772,.F.);
#826=ORIENTED_EDGE('',*,*,#825,.T.);
#827=EDGE_LOOP('',(#799,#801,#803,#805,#807,#808,#809,#811,#813,#815,#817,#819,
#821,#823,#824,#826));
#828=FACE_OUTER_BOUND('',#827,.F.);
#829=ADVANCED_FACE('',(#828),#797,.T.);
#830=CARTESIAN_POINT('',(-1.5498E1,-6.1E1,-8.558578643763E1));
#831=DIRECTION('',(0.E0,-1.E0,0.E0));
#832=DIRECTION('',(0.E0,0.E0,-1.E0));
#833=AXIS2_PLACEMENT_3D('',#830,#831,#832);
#834=PLANE('',#833);
#836=ORIENTED_EDGE('',*,*,#835,.T.);
#837=ORIENTED_EDGE('',*,*,#798,.T.);
#839=ORIENTED_EDGE('',*,*,#838,.F.);
#841=ORIENTED_EDGE('',*,*,#840,.T.);
#842=EDGE_LOOP('',(#836,#837,#839,#841));
#843=FACE_OUTER_BOUND('',#842,.F.);
#845=ORIENTED_EDGE('',*,*,#844,.T.);
#847=ORIENTED_EDGE('',*,*,#846,.T.);
#848=EDGE_LOOP('',(#845,#847));
#849=FACE_BOUND('',#848,.F.);
#851=ORIENTED_EDGE('',*,*,#850,.T.);
#853=ORIENTED_EDGE('',*,*,#852,.T.);
#854=EDGE_LOOP('',(#851,#853));
#855=FACE_BOUND('',#854,.F.);
#856=ADVANCED_FACE('',(#843,#849,#855),#834,.F.);
#857=CARTESIAN_POINT('',(-1.621471783578E1,6.3002E1,-7.3E1));
#858=DIRECTION('',(0.E0,0.E0,1.E0));
#859=DIRECTION('',(-1.E0,0.E0,0.E0));
#860=AXIS2_PLACEMENT_3D('',#857,#858,#859);
#861=PLANE('',#860);
#862=ORIENTED_EDGE('',*,*,#835,.F.);
#864=ORIENTED_EDGE('',*,*,#863,.T.);
#866=ORIENTED_EDGE('',*,*,#865,.F.);
#867=ORIENTED_EDGE('',*,*,#800,.F.);
#868=EDGE_LOOP('',(#862,#864,#866,#867));
#869=FACE_OUTER_BOUND('',#868,.F.);
#870=ADVANCED_FACE('',(#869),#861,.T.);
#871=CARTESIAN_POINT('',(-1.55E1,6.3002E1,-9.044316747260E1));
#872=DIRECTION('',(1.E0,0.E0,0.E0));
#873=DIRECTION('',(0.E0,0.E0,1.E0));
#874=AXIS2_PLACEMENT_3D('',#871,#872,#873);
#875=PLANE('',#874);
#877=ORIENTED_EDGE('',*,*,#876,.T.);
#879=ORIENTED_EDGE('',*,*,#878,.T.);
#881=ORIENTED_EDGE('',*,*,#880,.F.);
#883=ORIENTED_EDGE('',*,*,#882,.T.);
#885=ORIENTED_EDGE('',*,*,#884,.T.);
#887=ORIENTED_EDGE('',*,*,#886,.T.);
#889=ORIENTED_EDGE('',*,*,#888,.T.);
#890=ORIENTED_EDGE('',*,*,#699,.T.);
#891=ORIENTED_EDGE('',*,*,#671,.T.);
#893=ORIENTED_EDGE('',*,*,#892,.T.);
#895=ORIENTED_EDGE('',*,*,#894,.T.);
#897=ORIENTED_EDGE('',*,*,#896,.F.);
#898=ORIENTED_EDGE('',*,*,#863,.F.);
#899=ORIENTED_EDGE('',*,*,#840,.F.);
#901=ORIENTED_EDGE('',*,*,#900,.T.);
#902=ORIENTED_EDGE('',*,*,#776,.F.);
#903=EDGE_LOOP('',(#877,#879,#881,#883,#885,#887,#889,#890,#891,#893,#895,#897,
#898,#899,#901,#902));
#904=FACE_OUTER_BOUND('',#903,.F.);
#905=ADVANCED_FACE('',(#904),#875,.T.);
#906=CARTESIAN_POINT('',(-1.5498E1,4.758578643763E1,-1.115857864376E2));
#907=DIRECTION('',(0.E0,7.071067811865E-1,-7.071067811865E-1));
#908=DIRECTION('',(0.E0,7.071067811865E-1,7.071067811865E-1));
#909=AXIS2_PLACEMENT_3D('',#906,#907,#908);
#910=PLANE('',#909);
#911=ORIENTED_EDGE('',*,*,#876,.F.);
#912=ORIENTED_EDGE('',*,*,#774,.T.);
#913=ORIENTED_EDGE('',*,*,#822,.F.);
#915=ORIENTED_EDGE('',*,*,#914,.F.);
#916=EDGE_LOOP('',(#911,#912,#913,#915));
#917=FACE_OUTER_BOUND('',#916,.F.);
#918=ADVANCED_FACE('',(#917),#910,.F.);
#919=CARTESIAN_POINT('',(-1.5498E1,6.1E1,-8.558578643763E1));
#920=DIRECTION('',(0.E0,-1.E0,0.E0));
#921=DIRECTION('',(0.E0,0.E0,-1.E0));
#922=AXIS2_PLACEMENT_3D('',#919,#920,#921);
#923=PLANE('',#922);
#924=ORIENTED_EDGE('',*,*,#878,.F.);
#925=ORIENTED_EDGE('',*,*,#914,.T.);
#926=ORIENTED_EDGE('',*,*,#820,.F.);
#928=ORIENTED_EDGE('',*,*,#927,.F.);
#929=EDGE_LOOP('',(#924,#925,#926,#928));
#930=FACE_OUTER_BOUND('',#929,.F.);
#932=ORIENTED_EDGE('',*,*,#931,.T.);
#934=ORIENTED_EDGE('',*,*,#933,.T.);
#935=EDGE_LOOP('',(#932,#934));
#936=FACE_BOUND('',#935,.F.);
#938=ORIENTED_EDGE('',*,*,#937,.T.);
#940=ORIENTED_EDGE('',*,*,#939,.T.);
#941=EDGE_LOOP('',(#938,#940));
#942=FACE_BOUND('',#941,.F.);
#943=ADVANCED_FACE('',(#930,#936,#942),#923,.T.);
#944=CARTESIAN_POINT('',(-1.621471783578E1,6.3002E1,-7.3E1));
#945=DIRECTION('',(0.E0,0.E0,1.E0));
#946=DIRECTION('',(-1.E0,0.E0,0.E0));
#947=AXIS2_PLACEMENT_3D('',#944,#945,#946);
#948=PLANE('',#947);
#949=ORIENTED_EDGE('',*,*,#880,.T.);
#950=ORIENTED_EDGE('',*,*,#927,.T.);
#951=ORIENTED_EDGE('',*,*,#818,.F.);
#953=ORIENTED_EDGE('',*,*,#952,.T.);
#954=EDGE_LOOP('',(#949,#950,#951,#953));
#955=FACE_OUTER_BOUND('',#954,.F.);
#956=ADVANCED_FACE('',(#955),#948,.T.);
#957=CARTESIAN_POINT('',(-6.3002E1,6.3E1,-8.85E1));
#958=DIRECTION('',(0.E0,1.E0,0.E0));
#959=DIRECTION('',(0.E0,0.E0,1.E0));
#960=AXIS2_PLACEMENT_3D('',#957,#958,#959);
#961=PLANE('',#960);
#962=ORIENTED_EDGE('',*,*,#882,.F.);
#963=ORIENTED_EDGE('',*,*,#952,.F.);
#964=ORIENTED_EDGE('',*,*,#816,.T.);
#966=ORIENTED_EDGE('',*,*,#965,.F.);
#967=EDGE_LOOP('',(#962,#963,#964,#966));
#968=FACE_OUTER_BOUND('',#967,.F.);
#970=ORIENTED_EDGE('',*,*,#969,.T.);
#972=ORIENTED_EDGE('',*,*,#971,.T.);
#973=EDGE_LOOP('',(#970,#972));
#974=FACE_BOUND('',#973,.F.);
#976=ORIENTED_EDGE('',*,*,#975,.T.);
#978=ORIENTED_EDGE('',*,*,#977,.T.);
#979=EDGE_LOOP('',(#976,#978));
#980=FACE_BOUND('',#979,.F.);
#981=ADVANCED_FACE('',(#968,#974,#980),#961,.T.);
#982=CARTESIAN_POINT('',(-6.3002E1,5.1E1,-9.402943725152E1));
#983=DIRECTION('',(1.E0,0.E0,0.E0));
#984=DIRECTION('',(0.E0,0.E0,1.E0));
#985=AXIS2_PLACEMENT_3D('',#982,#983,#984);
#986=CYLINDRICAL_SURFACE('',#985,1.2E1);
#988=ORIENTED_EDGE('',*,*,#987,.T.);
#989=ORIENTED_EDGE('',*,*,#884,.F.);
#990=ORIENTED_EDGE('',*,*,#965,.T.);
#991=ORIENTED_EDGE('',*,*,#814,.F.);
#992=EDGE_LOOP('',(#988,#989,#990,#991));
#993=FACE_OUTER_BOUND('',#992,.F.);
#994=ADVANCED_FACE('',(#993),#986,.T.);
#995=CARTESIAN_POINT('',(-1.285712569798E3,4.9E1,-1.13E2));
#996=DIRECTION('',(0.E0,7.071067811865E-1,-7.071067811865E-1));
#997=DIRECTION('',(0.E0,7.071067811865E-1,7.071067811865E-1));
#998=AXIS2_PLACEMENT_3D('',#995,#996,#997);
#999=PLANE('',#998);
#1001=ORIENTED_EDGE('',*,*,#1000,.F.);
#1002=ORIENTED_EDGE('',*,*,#886,.F.);
#1003=ORIENTED_EDGE('',*,*,#987,.F.);
#1004=ORIENTED_EDGE('',*,*,#812,.F.);
#1005=EDGE_LOOP('',(#1001,#1002,#1003,#1004));
#1006=FACE_OUTER_BOUND('',#1005,.F.);
#1007=ADVANCED_FACE('',(#1006),#999,.T.);
#1008=CARTESIAN_POINT('',(-1.285712569798E3,3.002943725152E1,-1.15E2));
#1009=DIRECTION('',(-1.E0,0.E0,0.E0));
#1010=DIRECTION('',(0.E0,0.E0,-1.E0));
#1011=AXIS2_PLACEMENT_3D('',#1008,#1009,#1010);
#1012=CYLINDRICAL_SURFACE('',#1011,1.2E1);
#1013=ORIENTED_EDGE('',*,*,#701,.T.);
#1014=ORIENTED_EDGE('',*,*,#888,.F.);
#1015=ORIENTED_EDGE('',*,*,#1000,.T.);
#1016=ORIENTED_EDGE('',*,*,#810,.F.);
#1017=EDGE_LOOP('',(#1013,#1014,#1015,#1016));
#1018=FACE_OUTER_BOUND('',#1017,.F.);
#1019=ADVANCED_FACE('',(#1018),#1012,.T.);
#1020=CARTESIAN_POINT('',(-2.15E1,6.212E1,-9.017157287525E1));
#1021=DIRECTION('',(0.E0,1.E0,0.E0));
#1022=DIRECTION('',(0.E0,0.E0,1.E0));
#1023=AXIS2_PLACEMENT_3D('',#1020,#1021,#1022);
#1024=CONICAL_SURFACE('',#1023,2.48E0,4.5E1);
#1026=ORIENTED_EDGE('',*,*,#1025,.T.);
#1028=ORIENTED_EDGE('',*,*,#1027,.F.);
#1029=ORIENTED_EDGE('',*,*,#969,.F.);
#1031=ORIENTED_EDGE('',*,*,#1030,.T.);
#1032=EDGE_LOOP('',(#1026,#1028,#1029,#1031));
#1033=FACE_OUTER_BOUND('',#1032,.F.);
#1034=ADVANCED_FACE('',(#1033),#1024,.F.);
#1035=CARTESIAN_POINT('',(-2.15E1,6.3E1,-9.017157287525E1));
#1036=DIRECTION('',(0.E0,-1.E0,0.E0));
#1037=DIRECTION('',(0.E0,0.E0,-1.E0));
#1038=AXIS2_PLACEMENT_3D('',#1035,#1036,#1037);
#1039=CYLINDRICAL_SURFACE('',#1038,1.6E0);
#1040=ORIENTED_EDGE('',*,*,#933,.F.);
#1042=ORIENTED_EDGE('',*,*,#1041,.T.);
#1043=ORIENTED_EDGE('',*,*,#1025,.F.);
#1045=ORIENTED_EDGE('',*,*,#1044,.F.);
#1046=EDGE_LOOP('',(#1040,#1042,#1043,#1045));
#1047=FACE_OUTER_BOUND('',#1046,.F.);
#1048=ADVANCED_FACE('',(#1047),#1039,.F.);
#1049=CARTESIAN_POINT('',(-2.15E1,6.3E1,-9.017157287525E1));
#1050=DIRECTION('',(0.E0,-1.E0,0.E0));
#1051=DIRECTION('',(0.E0,0.E0,-1.E0));
#1052=AXIS2_PLACEMENT_3D('',#1049,#1050,#1051);
#1053=CYLINDRICAL_SURFACE('',#1052,1.6E0);
#1054=ORIENTED_EDGE('',*,*,#931,.F.);
#1055=ORIENTED_EDGE('',*,*,#1044,.T.);
#1057=ORIENTED_EDGE('',*,*,#1056,.F.);
#1058=ORIENTED_EDGE('',*,*,#1041,.F.);
#1059=EDGE_LOOP('',(#1054,#1055,#1057,#1058));
#1060=FACE_OUTER_BOUND('',#1059,.F.);
#1061=ADVANCED_FACE('',(#1060),#1053,.F.);
#1062=CARTESIAN_POINT('',(-2.15E1,6.212E1,-9.017157287525E1));
#1063=DIRECTION('',(0.E0,1.E0,0.E0));
#1064=DIRECTION('',(0.E0,0.E0,1.E0));
#1065=AXIS2_PLACEMENT_3D('',#1062,#1063,#1064);
#1066=CONICAL_SURFACE('',#1065,2.48E0,4.5E1);
#1067=ORIENTED_EDGE('',*,*,#1056,.T.);
#1068=ORIENTED_EDGE('',*,*,#1030,.F.);
#1069=ORIENTED_EDGE('',*,*,#971,.F.);
#1070=ORIENTED_EDGE('',*,*,#1027,.T.);
#1071=EDGE_LOOP('',(#1067,#1068,#1069,#1070));
#1072=FACE_OUTER_BOUND('',#1071,.F.);
#1073=ADVANCED_FACE('',(#1072),#1066,.F.);
#1074=CARTESIAN_POINT('',(-2.95E1,6.212E1,-9.017157287525E1));
#1075=DIRECTION('',(0.E0,1.E0,0.E0));
#1076=DIRECTION('',(0.E0,0.E0,1.E0));
#1077=AXIS2_PLACEMENT_3D('',#1074,#1075,#1076);
#1078=CONICAL_SURFACE('',#1077,2.48E0,4.5E1);
#1080=ORIENTED_EDGE('',*,*,#1079,.T.);
#1082=ORIENTED_EDGE('',*,*,#1081,.F.);
#1083=ORIENTED_EDGE('',*,*,#975,.F.);
#1085=ORIENTED_EDGE('',*,*,#1084,.T.);
#1086=EDGE_LOOP('',(#1080,#1082,#1083,#1085));
#1087=FACE_OUTER_BOUND('',#1086,.F.);
#1088=ADVANCED_FACE('',(#1087),#1078,.F.);
#1089=CARTESIAN_POINT('',(-2.95E1,6.3E1,-9.017157287525E1));
#1090=DIRECTION('',(0.E0,-1.E0,0.E0));
#1091=DIRECTION('',(0.E0,0.E0,-1.E0));
#1092=AXIS2_PLACEMENT_3D('',#1089,#1090,#1091);
#1093=CYLINDRICAL_SURFACE('',#1092,1.6E0);
#1094=ORIENTED_EDGE('',*,*,#939,.F.);
#1096=ORIENTED_EDGE('',*,*,#1095,.T.);
#1097=ORIENTED_EDGE('',*,*,#1079,.F.);
#1099=ORIENTED_EDGE('',*,*,#1098,.F.);
#1100=EDGE_LOOP('',(#1094,#1096,#1097,#1099));
#1101=FACE_OUTER_BOUND('',#1100,.F.);
#1102=ADVANCED_FACE('',(#1101),#1093,.F.);
#1103=CARTESIAN_POINT('',(-2.95E1,6.3E1,-9.017157287525E1));
#1104=DIRECTION('',(0.E0,-1.E0,0.E0));
#1105=DIRECTION('',(0.E0,0.E0,-1.E0));
#1106=AXIS2_PLACEMENT_3D('',#1103,#1104,#1105);
#1107=CYLINDRICAL_SURFACE('',#1106,1.6E0);
#1108=ORIENTED_EDGE('',*,*,#937,.F.);
#1109=ORIENTED_EDGE('',*,*,#1098,.T.);
#1111=ORIENTED_EDGE('',*,*,#1110,.F.);
#1112=ORIENTED_EDGE('',*,*,#1095,.F.);
#1113=EDGE_LOOP('',(#1108,#1109,#1111,#1112));
#1114=FACE_OUTER_BOUND('',#1113,.F.);
#1115=ADVANCED_FACE('',(#1114),#1107,.F.);
#1116=CARTESIAN_POINT('',(-2.95E1,6.212E1,-9.017157287525E1));
#1117=DIRECTION('',(0.E0,1.E0,0.E0));
#1118=DIRECTION('',(0.E0,0.E0,1.E0));
#1119=AXIS2_PLACEMENT_3D('',#1116,#1117,#1118);
#1120=CONICAL_SURFACE('',#1119,2.48E0,4.5E1);
#1121=ORIENTED_EDGE('',*,*,#1110,.T.);
#1122=ORIENTED_EDGE('',*,*,#1084,.F.);
#1123=ORIENTED_EDGE('',*,*,#977,.F.);
#1124=ORIENTED_EDGE('',*,*,#1081,.T.);
#1125=EDGE_LOOP('',(#1121,#1122,#1123,#1124));
#1126=FACE_OUTER_BOUND('',#1125,.F.);
#1127=ADVANCED_FACE('',(#1126),#1120,.F.);
#1128=CARTESIAN_POINT('',(-1.285712569798E3,-4.9E1,-1.13E2));
#1129=DIRECTION('',(0.E0,-7.071067811865E-1,-7.071067811865E-1));
#1130=DIRECTION('',(0.E0,7.071067811865E-1,-7.071067811865E-1));
#1131=AXIS2_PLACEMENT_3D('',#1128,#1129,#1130);
#1132=PLANE('',#1131);
#1134=ORIENTED_EDGE('',*,*,#1133,.F.);
#1135=ORIENTED_EDGE('',*,*,#892,.F.);
#1136=ORIENTED_EDGE('',*,*,#669,.F.);
#1137=ORIENTED_EDGE('',*,*,#806,.F.);
#1138=EDGE_LOOP('',(#1134,#1135,#1136,#1137));
#1139=FACE_OUTER_BOUND('',#1138,.F.);
#1140=ADVANCED_FACE('',(#1139),#1132,.T.);
#1141=CARTESIAN_POINT('',(-1.285712569798E3,-5.1E1,-9.402943725152E1));
#1142=DIRECTION('',(-1.E0,0.E0,0.E0));
#1143=DIRECTION('',(0.E0,0.E0,-1.E0));
#1144=AXIS2_PLACEMENT_3D('',#1141,#1142,#1143);
#1145=CYLINDRICAL_SURFACE('',#1144,1.2E1);
#1147=ORIENTED_EDGE('',*,*,#1146,.T.);
#1148=ORIENTED_EDGE('',*,*,#894,.F.);
#1149=ORIENTED_EDGE('',*,*,#1133,.T.);
#1150=ORIENTED_EDGE('',*,*,#804,.F.);
#1151=EDGE_LOOP('',(#1147,#1148,#1149,#1150));
#1152=FACE_OUTER_BOUND('',#1151,.F.);
#1153=ADVANCED_FACE('',(#1152),#1145,.T.);
#1154=CARTESIAN_POINT('',(-6.3002E1,-6.3E1,-8.85E1));
#1155=DIRECTION('',(0.E0,1.E0,0.E0));
#1156=DIRECTION('',(0.E0,0.E0,1.E0));
#1157=AXIS2_PLACEMENT_3D('',#1154,#1155,#1156);
#1158=PLANE('',#1157);
#1159=ORIENTED_EDGE('',*,*,#865,.T.);
#1160=ORIENTED_EDGE('',*,*,#896,.T.);
#1161=ORIENTED_EDGE('',*,*,#1146,.F.);
#1162=ORIENTED_EDGE('',*,*,#802,.F.);
#1163=EDGE_LOOP('',(#1159,#1160,#1161,#1162));
#1164=FACE_OUTER_BOUND('',#1163,.F.);
#1166=ORIENTED_EDGE('',*,*,#1165,.T.);
#1168=ORIENTED_EDGE('',*,*,#1167,.T.);
#1169=EDGE_LOOP('',(#1166,#1168));
#1170=FACE_BOUND('',#1169,.F.);
#1172=ORIENTED_EDGE('',*,*,#1171,.T.);
#1174=ORIENTED_EDGE('',*,*,#1173,.T.);
#1175=EDGE_LOOP('',(#1172,#1174));
#1176=FACE_BOUND('',#1175,.F.);
#1177=ADVANCED_FACE('',(#1164,#1170,#1176),#1158,.F.);
#1178=CARTESIAN_POINT('',(-2.95E1,-6.212E1,-9.017157287525E1));
#1179=DIRECTION('',(0.E0,-1.E0,0.E0));
#1180=DIRECTION('',(0.E0,0.E0,-1.E0));
#1181=AXIS2_PLACEMENT_3D('',#1178,#1179,#1180);
#1182=CONICAL_SURFACE('',#1181,2.48E0,4.5E1);
#1184=ORIENTED_EDGE('',*,*,#1183,.T.);
#1186=ORIENTED_EDGE('',*,*,#1185,.F.);
#1187=ORIENTED_EDGE('',*,*,#1165,.F.);
#1189=ORIENTED_EDGE('',*,*,#1188,.T.);
#1190=EDGE_LOOP('',(#1184,#1186,#1187,#1189));
#1191=FACE_OUTER_BOUND('',#1190,.F.);
#1192=ADVANCED_FACE('',(#1191),#1182,.F.);
#1193=CARTESIAN_POINT('',(-2.95E1,-6.3E1,-9.017157287525E1));
#1194=DIRECTION('',(0.E0,1.E0,0.E0));
#1195=DIRECTION('',(0.E0,0.E0,1.E0));
#1196=AXIS2_PLACEMENT_3D('',#1193,#1194,#1195);
#1197=CYLINDRICAL_SURFACE('',#1196,1.6E0);
#1198=ORIENTED_EDGE('',*,*,#1183,.F.);
#1200=ORIENTED_EDGE('',*,*,#1199,.F.);
#1201=ORIENTED_EDGE('',*,*,#844,.F.);
#1203=ORIENTED_EDGE('',*,*,#1202,.T.);
#1204=EDGE_LOOP('',(#1198,#1200,#1201,#1203));
#1205=FACE_OUTER_BOUND('',#1204,.F.);
#1206=ADVANCED_FACE('',(#1205),#1197,.F.);
#1207=CARTESIAN_POINT('',(-2.95E1,-6.3E1,-9.017157287525E1));
#1208=DIRECTION('',(0.E0,1.E0,0.E0));
#1209=DIRECTION('',(0.E0,0.E0,1.E0));
#1210=AXIS2_PLACEMENT_3D('',#1207,#1208,#1209);
#1211=CYLINDRICAL_SURFACE('',#1210,1.6E0);
#1213=ORIENTED_EDGE('',*,*,#1212,.F.);
#1214=ORIENTED_EDGE('',*,*,#1202,.F.);
#1215=ORIENTED_EDGE('',*,*,#846,.F.);
#1216=ORIENTED_EDGE('',*,*,#1199,.T.);
#1217=EDGE_LOOP('',(#1213,#1214,#1215,#1216));
#1218=FACE_OUTER_BOUND('',#1217,.F.);
#1219=ADVANCED_FACE('',(#1218),#1211,.F.);
#1220=CARTESIAN_POINT('',(-2.95E1,-6.212E1,-9.017157287525E1));
#1221=DIRECTION('',(0.E0,-1.E0,0.E0));
#1222=DIRECTION('',(0.E0,0.E0,-1.E0));
#1223=AXIS2_PLACEMENT_3D('',#1220,#1221,#1222);
#1224=CONICAL_SURFACE('',#1223,2.48E0,4.5E1);
#1225=ORIENTED_EDGE('',*,*,#1212,.T.);
#1226=ORIENTED_EDGE('',*,*,#1188,.F.);
#1227=ORIENTED_EDGE('',*,*,#1167,.F.);
#1228=ORIENTED_EDGE('',*,*,#1185,.T.);
#1229=EDGE_LOOP('',(#1225,#1226,#1227,#1228));
#1230=FACE_OUTER_BOUND('',#1229,.F.);
#1231=ADVANCED_FACE('',(#1230),#1224,.F.);
#1232=CARTESIAN_POINT('',(-2.15E1,-6.212E1,-9.017157287525E1));
#1233=DIRECTION('',(0.E0,-1.E0,0.E0));
#1234=DIRECTION('',(0.E0,0.E0,-1.E0));
#1235=AXIS2_PLACEMENT_3D('',#1232,#1233,#1234);
#1236=CONICAL_SURFACE('',#1235,2.48E0,4.5E1);
#1238=ORIENTED_EDGE('',*,*,#1237,.T.);
#1240=ORIENTED_EDGE('',*,*,#1239,.F.);
#1241=ORIENTED_EDGE('',*,*,#1171,.F.);
#1243=ORIENTED_EDGE('',*,*,#1242,.T.);
#1244=EDGE_LOOP('',(#1238,#1240,#1241,#1243));
#1245=FACE_OUTER_BOUND('',#1244,.F.);
#1246=ADVANCED_FACE('',(#1245),#1236,.F.);
#1247=CARTESIAN_POINT('',(-2.15E1,-6.3E1,-9.017157287525E1));
#1248=DIRECTION('',(0.E0,1.E0,0.E0));
#1249=DIRECTION('',(0.E0,0.E0,1.E0));
#1250=AXIS2_PLACEMENT_3D('',#1247,#1248,#1249);
#1251=CYLINDRICAL_SURFACE('',#1250,1.6E0);
#1252=ORIENTED_EDGE('',*,*,#1237,.F.);
#1254=ORIENTED_EDGE('',*,*,#1253,.F.);
#1255=ORIENTED_EDGE('',*,*,#850,.F.);
#1257=ORIENTED_EDGE('',*,*,#1256,.T.);
#1258=EDGE_LOOP('',(#1252,#1254,#1255,#1257));
#1259=FACE_OUTER_BOUND('',#1258,.F.);
#1260=ADVANCED_FACE('',(#1259),#1251,.F.);
#1261=CARTESIAN_POINT('',(-2.15E1,-6.3E1,-9.017157287525E1));
#1262=DIRECTION('',(0.E0,1.E0,0.E0));
#1263=DIRECTION('',(0.E0,0.E0,1.E0));
#1264=AXIS2_PLACEMENT_3D('',#1261,#1262,#1263);
#1265=CYLINDRICAL_SURFACE('',#1264,1.6E0);
#1267=ORIENTED_EDGE('',*,*,#1266,.F.);
#1268=ORIENTED_EDGE('',*,*,#1256,.F.);
#1269=ORIENTED_EDGE('',*,*,#852,.F.);
#1270=ORIENTED_EDGE('',*,*,#1253,.T.);
#1271=EDGE_LOOP('',(#1267,#1268,#1269,#1270));
#1272=FACE_OUTER_BOUND('',#1271,.F.);
#1273=ADVANCED_FACE('',(#1272),#1265,.F.);
#1274=CARTESIAN_POINT('',(-2.15E1,-6.212E1,-9.017157287525E1));
#1275=DIRECTION('',(0.E0,-1.E0,0.E0));
#1276=DIRECTION('',(0.E0,0.E0,-1.E0));
#1277=AXIS2_PLACEMENT_3D('',#1274,#1275,#1276);
#1278=CONICAL_SURFACE('',#1277,2.48E0,4.5E1);
#1279=ORIENTED_EDGE('',*,*,#1266,.T.);
#1280=ORIENTED_EDGE('',*,*,#1242,.F.);
#1281=ORIENTED_EDGE('',*,*,#1173,.F.);
#1282=ORIENTED_EDGE('',*,*,#1239,.T.);
#1283=EDGE_LOOP('',(#1279,#1280,#1281,#1282));
#1284=FACE_OUTER_BOUND('',#1283,.F.);
#1285=ADVANCED_FACE('',(#1284),#1278,.F.);
#1286=CARTESIAN_POINT('',(-1.5498E1,-4.758578643763E1,-1.115857864376E2));
#1287=DIRECTION('',(0.E0,-7.071067811865E-1,-7.071067811865E-1));
#1288=DIRECTION('',(0.E0,7.071067811865E-1,-7.071067811865E-1));
#1289=AXIS2_PLACEMENT_3D('',#1286,#1287,#1288);
#1290=PLANE('',#1289);
#1291=ORIENTED_EDGE('',*,*,#900,.F.);
#1292=ORIENTED_EDGE('',*,*,#838,.T.);
#1293=ORIENTED_EDGE('',*,*,#825,.F.);
#1294=ORIENTED_EDGE('',*,*,#778,.F.);
#1295=EDGE_LOOP('',(#1291,#1292,#1293,#1294));
#1296=FACE_OUTER_BOUND('',#1295,.F.);
#1297=ADVANCED_FACE('',(#1296),#1290,.F.);
#1298=CARTESIAN_POINT('',(-2.15E1,-2.717157287525E1,-1.27E2));
#1299=DIRECTION('',(0.E0,0.E0,1.E0));
#1300=DIRECTION('',(-1.E0,0.E0,0.E0));
#1301=AXIS2_PLACEMENT_3D('',#1298,#1299,#1300);
#1302=CYLINDRICAL_SURFACE('',#1301,1.6E0);
#1304=ORIENTED_EDGE('',*,*,#1303,.F.);
#1306=ORIENTED_EDGE('',*,*,#1305,.F.);
#1307=ORIENTED_EDGE('',*,*,#782,.F.);
#1309=ORIENTED_EDGE('',*,*,#1308,.T.);
#1310=EDGE_LOOP('',(#1304,#1306,#1307,#1309));
#1311=FACE_OUTER_BOUND('',#1310,.F.);
#1312=ADVANCED_FACE('',(#1311),#1302,.F.);
#1313=CARTESIAN_POINT('',(-2.15E1,-2.717157287525E1,-1.2612E2));
#1314=DIRECTION('',(0.E0,0.E0,-1.E0));
#1315=DIRECTION('',(1.E0,0.E0,0.E0));
#1316=AXIS2_PLACEMENT_3D('',#1313,#1314,#1315);
#1317=CONICAL_SURFACE('',#1316,2.48E0,4.5E1);
#1318=ORIENTED_EDGE('',*,*,#1303,.T.);
#1320=ORIENTED_EDGE('',*,*,#1319,.F.);
#1321=ORIENTED_EDGE('',*,*,#692,.F.);
#1322=ORIENTED_EDGE('',*,*,#675,.F.);
#1323=ORIENTED_EDGE('',*,*,#696,.F.);
#1325=ORIENTED_EDGE('',*,*,#1324,.T.);
#1326=EDGE_LOOP('',(#1318,#1320,#1321,#1322,#1323,#1325));
#1327=FACE_OUTER_BOUND('',#1326,.F.);
#1328=ADVANCED_FACE('',(#1327),#1317,.F.);
#1329=CARTESIAN_POINT('',(-2.15E1,-2.717157287525E1,-1.2612E2));
#1330=DIRECTION('',(0.E0,0.E0,-1.E0));
#1331=DIRECTION('',(1.E0,0.E0,0.E0));
#1332=AXIS2_PLACEMENT_3D('',#1329,#1330,#1331);
#1333=CONICAL_SURFACE('',#1332,2.48E0,4.5E1);
#1335=ORIENTED_EDGE('',*,*,#1334,.T.);
#1336=ORIENTED_EDGE('',*,*,#1324,.F.);
#1337=ORIENTED_EDGE('',*,*,#694,.F.);
#1338=ORIENTED_EDGE('',*,*,#1319,.T.);
#1339=EDGE_LOOP('',(#1335,#1336,#1337,#1338));
#1340=FACE_OUTER_BOUND('',#1339,.F.);
#1341=ADVANCED_FACE('',(#1340),#1333,.F.);
#1342=CARTESIAN_POINT('',(-2.15E1,-2.717157287525E1,-1.27E2));
#1343=DIRECTION('',(0.E0,0.E0,1.E0));
#1344=DIRECTION('',(-1.E0,0.E0,0.E0));
#1345=AXIS2_PLACEMENT_3D('',#1342,#1343,#1344);
#1346=CYLINDRICAL_SURFACE('',#1345,1.6E0);
#1347=ORIENTED_EDGE('',*,*,#1334,.F.);
#1348=ORIENTED_EDGE('',*,*,#1308,.F.);
#1349=ORIENTED_EDGE('',*,*,#784,.F.);
#1350=ORIENTED_EDGE('',*,*,#1305,.T.);
#1351=EDGE_LOOP('',(#1347,#1348,#1349,#1350));
#1352=FACE_OUTER_BOUND('',#1351,.F.);
#1353=ADVANCED_FACE('',(#1352),#1346,.F.);
#1357=DIMENSIONAL_EXPONENTS(0.E0,0.E0,0.E0,0.E0,0.E0,0.E0,0.E0);
#1359=PLANE_ANGLE_MEASURE_WITH_UNIT(PLANE_ANGLE_MEASURE(1.745329251994E-2),
#1358);
#1360=(CONVERSION_BASED_UNIT('DEGREE',#1359)NAMED_UNIT(*)PLANE_ANGLE_UNIT());
#1362=UNCERTAINTY_MEASURE_WITH_UNIT(LENGTH_MEASURE(1.450743472860E-2),#1356,
'closure',
'Maximum model space distance between geometric entities at asserted connectivities');
#1363=(GEOMETRIC_REPRESENTATION_CONTEXT(3)GLOBAL_UNCERTAINTY_ASSIGNED_CONTEXT((
#1362))GLOBAL_UNIT_ASSIGNED_CONTEXT((#1356,#1360,#1361))REPRESENTATION_CONTEXT(
'ID1','3'));
#1365=APPLICATION_CONTEXT(
'CONFIGURATION CONTROLLED 3D DESIGNS OF MECHANICAL PARTS AND ASSEMBLIES');
#1366=APPLICATION_PROTOCOL_DEFINITION('international standard',
'config_control_design',1994,#1365);
#1367=DESIGN_CONTEXT('',#1365,'design');
#1368=MECHANICAL_CONTEXT('',#1365,'mechanical');
#1369=PRODUCT('KC-D-107R_R_COVER_1','KC-D-107R_R_COVER_1','NOT SPECIFIED',
(#1368));
#1370=PRODUCT_DEFINITION_FORMATION_WITH_SPECIFIED_SOURCE('2','LAST_VERSION',
#1369,.MADE.);
#1374=PRODUCT_CATEGORY('part','');
#1375=PRODUCT_RELATED_PRODUCT_CATEGORY('detail','',(#1369));
#1376=PRODUCT_CATEGORY_RELATIONSHIP('','',#1374,#1375);
#1377=SECURITY_CLASSIFICATION_LEVEL('unclassified');
#1378=SECURITY_CLASSIFICATION('','',#1377);
#1379=CC_DESIGN_SECURITY_CLASSIFICATION(#1378,(#1370));
#1380=APPROVAL_STATUS('approved');
#1381=APPROVAL(#1380,'');
#1382=CC_DESIGN_APPROVAL(#1381,(#1378,#1370,#1371));
#1383=CALENDAR_DATE(125,12,7);
#1384=COORDINATED_UNIVERSAL_TIME_OFFSET(8,0,.AHEAD.);
#1385=LOCAL_TIME(17,3,0.E0,#1384);
#1386=DATE_AND_TIME(#1383,#1385);
#1387=APPROVAL_DATE_TIME(#1386,#1381);
#1388=DATE_TIME_ROLE('creation_date');
#1389=CC_DESIGN_DATE_AND_TIME_ASSIGNMENT(#1386,#1388,(#1371));
#1390=DATE_TIME_ROLE('classification_date');
#1391=CC_DESIGN_DATE_AND_TIME_ASSIGNMENT(#1386,#1390,(#1378));
#1392=PERSON('UNSPECIFIED','UNSPECIFIED',$,$,$,$);
#1393=ORGANIZATION('UNSPECIFIED','UNSPECIFIED','UNSPECIFIED');
#1394=PERSON_AND_ORGANIZATION(#1392,#1393);
#1395=APPROVAL_ROLE('approver');
#1396=APPROVAL_PERSON_ORGANIZATION(#1394,#1381,#1395);
#1397=PERSON_AND_ORGANIZATION_ROLE('creator');
#1398=CC_DESIGN_PERSON_AND_ORGANIZATION_ASSIGNMENT(#1394,#1397,(#1370,#1371));
#1399=PERSON_AND_ORGANIZATION_ROLE('design_supplier');
#1400=CC_DESIGN_PERSON_AND_ORGANIZATION_ASSIGNMENT(#1394,#1399,(#1370));
#1401=PERSON_AND_ORGANIZATION_ROLE('classification_officer');
#1402=CC_DESIGN_PERSON_AND_ORGANIZATION_ASSIGNMENT(#1394,#1401,(#1378));
#1403=PERSON_AND_ORGANIZATION_ROLE('design_owner');
#1404=CC_DESIGN_PERSON_AND_ORGANIZATION_ASSIGNMENT(#1394,#1403,(#1369));
#13=B_SPLINE_CURVE_WITH_KNOTS('',3,(#5,#6,#7,#8,#9,#10,#11,#12),.UNSPECIFIED.,
.F.,.F.,(4,1,1,1,1,4),(0.E0,2.E-1,4.E-1,6.E-1,8.E-1,1.E0),.UNSPECIFIED.);
#34=B_SPLINE_CURVE_WITH_KNOTS('',3,(#26,#27,#28,#29,#30,#31,#32,#33),
.UNSPECIFIED.,.F.,.F.,(4,1,1,1,1,4),(0.E0,2.E-1,4.E-1,6.E-1,8.E-1,1.E0),
.UNSPECIFIED.);
#39=CIRCLE('',#38,3.36E0);
#44=CIRCLE('',#43,3.36E0);
#49=CIRCLE('',#48,3.36E0);
#54=CIRCLE('',#53,3.36E0);
#59=CIRCLE('',#58,3.36E0);
#64=CIRCLE('',#63,3.36E0);
#69=CIRCLE('',#68,1.6E0);
#86=CIRCLE('',#85,1.6E0);
#107=CIRCLE('',#106,1.6E0);
#112=CIRCLE('',#111,1.6E0);
#117=CIRCLE('',#116,1.6E0);
#122=CIRCLE('',#121,1.6E0);
#135=CIRCLE('',#134,1.2E1);
#144=CIRCLE('',#143,1.2E1);
#153=CIRCLE('',#152,1.2E1);
#162=CIRCLE('',#161,1.2E1);
#195=CIRCLE('',#194,1.6E0);
#200=CIRCLE('',#199,1.6E0);
#205=CIRCLE('',#204,1.6E0);
#210=CIRCLE('',#209,1.6E0);
#231=CIRCLE('',#230,1.2E1);
#240=CIRCLE('',#239,1.2E1);
#249=CIRCLE('',#248,1.2E1);
#258=CIRCLE('',#257,1.2E1);
#275=CIRCLE('',#274,1.6E0);
#280=CIRCLE('',#279,1.6E0);
#285=CIRCLE('',#284,1.6E0);
#290=CIRCLE('',#289,1.6E0);
#311=CIRCLE('',#310,3.36E0);
#316=CIRCLE('',#315,3.36E0);
#321=CIRCLE('',#320,3.36E0);
#326=CIRCLE('',#325,3.36E0);
#347=CIRCLE('',#346,1.6E0);
#364=CIRCLE('',#363,1.6E0);
#373=CIRCLE('',#372,1.6E0);
#390=CIRCLE('',#389,1.6E0);
#415=CIRCLE('',#414,3.36E0);
#420=CIRCLE('',#419,3.36E0);
#425=CIRCLE('',#424,3.36E0);
#430=CIRCLE('',#429,3.36E0);
#435=CIRCLE('',#434,1.6E0);
#452=CIRCLE('',#451,1.6E0);
#461=CIRCLE('',#460,1.6E0);
#478=CIRCLE('',#477,1.6E0);
#495=CIRCLE('',#494,1.6E0);
#504=CIRCLE('',#503,1.6E0);
#661=EDGE_CURVE('',#515,#516,#4,.T.);
#663=EDGE_CURVE('',#516,#517,#13,.T.);
#665=EDGE_CURVE('',#517,#519,#17,.T.);
#667=EDGE_CURVE('',#521,#519,#144,.T.);
#669=EDGE_CURVE('',#521,#523,#21,.T.);
#671=EDGE_CURVE('',#525,#523,#249,.T.);
#673=EDGE_CURVE('',#525,#527,#25,.T.);
#675=EDGE_CURVE('',#527,#515,#34,.T.);
#685=EDGE_CURVE('',#517,#529,#39,.T.);
#687=EDGE_CURVE('',#529,#531,#44,.T.);
#689=EDGE_CURVE('',#531,#516,#49,.T.);
#692=EDGE_CURVE('',#515,#533,#54,.T.);
#694=EDGE_CURVE('',#533,#535,#59,.T.);
#696=EDGE_CURVE('',#535,#527,#64,.T.);
#699=EDGE_CURVE('',#537,#525,#244,.T.);
#701=EDGE_CURVE('',#539,#537,#338,.T.);
#703=EDGE_CURVE('',#519,#539,#148,.T.);
#714=EDGE_CURVE('',#542,#543,#69,.T.);
#716=EDGE_CURVE('',#529,#543,#90,.T.);
#721=EDGE_CURVE('',#531,#542,#73,.T.);
#732=EDGE_CURVE('',#545,#542,#81,.T.);
#734=EDGE_CURVE('',#547,#545,#117,.T.);
#736=EDGE_CURVE('',#547,#543,#77,.T.);
#746=EDGE_CURVE('',#543,#542,#86,.T.);
#749=EDGE_CURVE('',#545,#547,#122,.T.);
#772=EDGE_CURVE('',#550,#551,#94,.T.);
#774=EDGE_CURVE('',#553,#551,#266,.T.);
#776=EDGE_CURVE('',#553,#555,#98,.T.);
#778=EDGE_CURVE('',#555,#550,#102,.T.);
#782=EDGE_CURVE('',#558,#559,#107,.T.);
#784=EDGE_CURVE('',#559,#558,#112,.T.);
#798=EDGE_CURVE('',#566,#567,#186,.T.);
#800=EDGE_CURVE('',#566,#569,#126,.T.);
#802=EDGE_CURVE('',#569,#571,#130,.T.);
#804=EDGE_CURVE('',#571,#573,#135,.T.);
#806=EDGE_CURVE('',#573,#521,#139,.T.);
#810=EDGE_CURVE('',#539,#575,#153,.T.);
#812=EDGE_CURVE('',#575,#577,#157,.T.);
#814=EDGE_CURVE('',#577,#579,#162,.T.);
#816=EDGE_CURVE('',#581,#579,#306,.T.);
#818=EDGE_CURVE('',#581,#583,#166,.T.);
#820=EDGE_CURVE('',#583,#585,#170,.T.);
#822=EDGE_CURVE('',#585,#551,#174,.T.);
#825=EDGE_CURVE('',#550,#567,#178,.T.);
#835=EDGE_CURVE('',#587,#566,#182,.T.);
#838=EDGE_CURVE('',#589,#567,#486,.T.);
#840=EDGE_CURVE('',#589,#587,#190,.T.);
#844=EDGE_CURVE('',#592,#593,#195,.T.);
#846=EDGE_CURVE('',#593,#592,#200,.T.);
#850=EDGE_CURVE('',#596,#597,#205,.T.);
#852=EDGE_CURVE('',#597,#596,#210,.T.);
#863=EDGE_CURVE('',#587,#607,#214,.T.);
#865=EDGE_CURVE('',#569,#607,#406,.T.);
#876=EDGE_CURVE('',#553,#619,#218,.T.);
#878=EDGE_CURVE('',#619,#621,#222,.T.);
#880=EDGE_CURVE('',#623,#621,#294,.T.);
#882=EDGE_CURVE('',#623,#625,#226,.T.);
#884=EDGE_CURVE('',#625,#627,#231,.T.);
#886=EDGE_CURVE('',#627,#629,#235,.T.);
#888=EDGE_CURVE('',#629,#537,#240,.T.);
#892=EDGE_CURVE('',#523,#631,#253,.T.);
#894=EDGE_CURVE('',#631,#609,#258,.T.);
#896=EDGE_CURVE('',#607,#609,#410,.T.);
#900=EDGE_CURVE('',#589,#555,#262,.T.);
#914=EDGE_CURVE('',#619,#585,#270,.T.);
#927=EDGE_CURVE('',#621,#583,#298,.T.);
#931=EDGE_CURVE('',#634,#635,#275,.T.);
#933=EDGE_CURVE('',#635,#634,#280,.T.);
#937=EDGE_CURVE('',#638,#639,#285,.T.);
#939=EDGE_CURVE('',#639,#638,#290,.T.);
#952=EDGE_CURVE('',#581,#623,#302,.T.);
#965=EDGE_CURVE('',#625,#579,#334,.T.);
#969=EDGE_CURVE('',#650,#651,#311,.T.);
#971=EDGE_CURVE('',#651,#650,#316,.T.);
#975=EDGE_CURVE('',#647,#645,#321,.T.);
#977=EDGE_CURVE('',#645,#647,#326,.T.);
#987=EDGE_CURVE('',#577,#627,#330,.T.);
#1000=EDGE_CURVE('',#629,#575,#342,.T.);
#1025=EDGE_CURVE('',#654,#655,#347,.T.);
#1027=EDGE_CURVE('',#651,#655,#368,.T.);
#1030=EDGE_CURVE('',#650,#654,#351,.T.);
#1041=EDGE_CURVE('',#635,#655,#355,.T.);
#1044=EDGE_CURVE('',#634,#654,#359,.T.);
#1056=EDGE_CURVE('',#655,#654,#364,.T.);
#1079=EDGE_CURVE('',#641,#643,#373,.T.);
#1081=EDGE_CURVE('',#645,#643,#394,.T.);
#1084=EDGE_CURVE('',#647,#641,#377,.T.);
#1095=EDGE_CURVE('',#639,#643,#381,.T.);
#1098=EDGE_CURVE('',#638,#641,#385,.T.);
#1110=EDGE_CURVE('',#643,#641,#390,.T.);
#1133=EDGE_CURVE('',#631,#573,#402,.T.);
#1146=EDGE_CURVE('',#571,#609,#398,.T.);
#1165=EDGE_CURVE('',#612,#613,#415,.T.);
#1167=EDGE_CURVE('',#613,#612,#420,.T.);
#1171=EDGE_CURVE('',#605,#603,#425,.T.);
#1173=EDGE_CURVE('',#603,#605,#430,.T.);
#1183=EDGE_CURVE('',#616,#617,#435,.T.);
#1185=EDGE_CURVE('',#613,#617,#456,.T.);
#1188=EDGE_CURVE('',#612,#616,#439,.T.);
#1199=EDGE_CURVE('',#593,#616,#447,.T.);
#1202=EDGE_CURVE('',#592,#617,#443,.T.);
#1212=EDGE_CURVE('',#617,#616,#452,.T.);
#1237=EDGE_CURVE('',#600,#601,#461,.T.);
#1239=EDGE_CURVE('',#603,#601,#482,.T.);
#1242=EDGE_CURVE('',#605,#600,#465,.T.);
#1253=EDGE_CURVE('',#597,#600,#473,.T.);
#1256=EDGE_CURVE('',#596,#601,#469,.T.);
#1266=EDGE_CURVE('',#601,#600,#478,.T.);
#1303=EDGE_CURVE('',#562,#563,#495,.T.);
#1305=EDGE_CURVE('',#559,#562,#512,.T.);
#1308=EDGE_CURVE('',#558,#563,#490,.T.);
#1319=EDGE_CURVE('',#533,#563,#508,.T.);
#1324=EDGE_CURVE('',#535,#562,#499,.T.);
#1334=EDGE_CURVE('',#563,#562,#504,.T.);
#1354=CLOSED_SHELL('',(#679,#708,#725,#740,#754,#766,#792,#829,#856,#870,#905,
#918,#943,#956,#981,#994,#1007,#1019,#1034,#1048,#1061,#1073,#1088,#1102,#1115,
#1127,#1140,#1153,#1177,#1192,#1206,#1219,#1231,#1246,#1260,#1273,#1285,#1297,
#1312,#1328,#1341,#1353));
#1355=MANIFOLD_SOLID_BREP('',#1354);
#1356=(LENGTH_UNIT()NAMED_UNIT(*)SI_UNIT(.MILLI.,.METRE.));
#1358=(NAMED_UNIT(*)PLANE_ANGLE_UNIT()SI_UNIT($,.RADIAN.));
#1361=(NAMED_UNIT(*)SI_UNIT($,.STERADIAN.)SOLID_ANGLE_UNIT());
#1364=ADVANCED_BREP_SHAPE_REPRESENTATION('',(#1355),#1363);
#1371=PRODUCT_DEFINITION('design','',#1370,#1367);
#1372=PRODUCT_DEFINITION_SHAPE('','SHAPE FOR KC-D-107R_R_COVER_1.',#1371);
#1373=SHAPE_DEFINITION_REPRESENTATION(#1372,#1364);
ENDSEC;
END-ISO-10303-21;
