ISO-10303-21;
HEADER;
FILE_DESCRIPTION((''),'2;1');
FILE_NAME('KD-D-504X_ANKLESHOULDERBOLT','2025-07-12T16:42:28',('Administrator'),
(''),'CREO PARAMETRIC BY PTC INC, 2022073',
'CREO PARAMETRIC BY PTC INC, 2022073','');
FILE_SCHEMA(('CONFIG_CONTROL_DESIGN'));
ENDSEC;
DATA;
#1=DIRECTION('',(-1.E0,0.E0,0.E0));
#2=VECTOR('',#1,3.E0);
#3=CARTESIAN_POINT('',(1.535E2,-7.317822021129E2,5.E-1));
#4=LINE('',#3,#2);
#5=DIRECTION('',(-1.E0,7.579122514774E-14,-1.261953504657E-14));
#6=VECTOR('',#5,3.E0);
#7=CARTESIAN_POINT('',(1.535E2,-7.310241327314E2,8.478260869572E-1));
#8=LINE('',#7,#6);
#9=DIRECTION('',(1.E0,7.579122514774E-14,0.E0));
#10=VECTOR('',#9,3.E0);
#11=CARTESIAN_POINT('',(1.505E2,-7.310241327314E2,1.715217391304E1));
#12=LINE('',#11,#10);
#13=CARTESIAN_POINT('',(1.535E2,-7.317822021129E2,1.5E0));
#14=DIRECTION('',(1.E0,0.E0,0.E0));
#15=DIRECTION('',(0.E0,0.E0,-1.E0));
#16=AXIS2_PLACEMENT_3D('',#13,#14,#15);
#18=CARTESIAN_POINT('',(1.535E2,-7.492177978871E2,1.5E0));
#19=DIRECTION('',(1.E0,0.E0,0.E0));
#20=DIRECTION('',(0.E0,-7.580693814864E-1,-6.521739130422E-1));
#21=AXIS2_PLACEMENT_3D('',#18,#19,#20);
#23=CARTESIAN_POINT('',(1.535E2,-7.405E2,9.E0));
#24=DIRECTION('',(1.E0,0.E0,0.E0));
#25=DIRECTION('',(0.E0,-7.580693814854E-1,6.521739130434E-1));
#26=AXIS2_PLACEMENT_3D('',#23,#24,#25);
#28=CARTESIAN_POINT('',(1.535E2,-7.492177978871E2,1.65E1));
#29=DIRECTION('',(1.E0,0.E0,0.E0));
#30=DIRECTION('',(0.E0,1.136868377216E-13,1.E0));
#31=AXIS2_PLACEMENT_3D('',#28,#29,#30);
#33=DIRECTION('',(0.E0,-1.E0,0.E0));
#34=VECTOR('',#33,1.743559577416E1);
#35=CARTESIAN_POINT('',(1.535E2,-7.317822021129E2,1.75E1));
#36=LINE('',#35,#34);
#37=CARTESIAN_POINT('',(1.535E2,-7.317822021129E2,1.65E1));
#38=DIRECTION('',(1.E0,0.E0,0.E0));
#39=DIRECTION('',(0.E0,7.580693814862E-1,6.521739130425E-1));
#40=AXIS2_PLACEMENT_3D('',#37,#38,#39);
#42=CARTESIAN_POINT('',(1.535E2,-7.405E2,9.E0));
#43=DIRECTION('',(1.E0,0.E0,0.E0));
#44=DIRECTION('',(0.E0,7.580693814854E-1,-6.521739130434E-1));
#45=AXIS2_PLACEMENT_3D('',#42,#43,#44);
#47=DIRECTION('',(0.E0,-1.E0,0.E0));
#48=VECTOR('',#47,1.743559577416E1);
#49=CARTESIAN_POINT('',(1.535E2,-7.317822021129E2,5.E-1));
#50=LINE('',#49,#48);
#51=CARTESIAN_POINT('',(1.505E2,-7.405E2,9.E0));
#52=DIRECTION('',(1.E0,0.E0,0.E0));
#53=DIRECTION('',(0.E0,0.E0,-1.E0));
#54=AXIS2_PLACEMENT_3D('',#51,#52,#53);
#56=CARTESIAN_POINT('',(1.505E2,-7.405E2,9.E0));
#57=DIRECTION('',(1.E0,0.E0,0.E0));
#58=DIRECTION('',(0.E0,0.E0,1.E0));
#59=AXIS2_PLACEMENT_3D('',#56,#57,#58);
#61=CARTESIAN_POINT('',(1.505E2,-7.317822021129E2,1.5E0));
#62=DIRECTION('',(-1.E0,0.E0,0.E0));
#63=DIRECTION('',(0.E0,7.580693814861E-1,-6.521739130425E-1));
#64=AXIS2_PLACEMENT_3D('',#61,#62,#63);
#66=CARTESIAN_POINT('',(1.505E2,-7.405E2,9.E0));
#67=DIRECTION('',(-1.E0,0.E0,0.E0));
#68=DIRECTION('',(0.E0,7.580693814854E-1,6.521739130434E-1));
#69=AXIS2_PLACEMENT_3D('',#66,#67,#68);
#71=CARTESIAN_POINT('',(1.505E2,-7.317822021129E2,1.65E1));
#72=DIRECTION('',(-1.E0,0.E0,0.E0));
#73=DIRECTION('',(0.E0,0.E0,1.E0));
#74=AXIS2_PLACEMENT_3D('',#71,#72,#73);
#76=CARTESIAN_POINT('',(1.505E2,-7.492177978871E2,1.65E1));
#77=DIRECTION('',(-1.E0,0.E0,0.E0));
#78=DIRECTION('',(0.E0,-7.580693814864E-1,6.521739130422E-1));
#79=AXIS2_PLACEMENT_3D('',#76,#77,#78);
#81=CARTESIAN_POINT('',(1.505E2,-7.405E2,9.E0));
#82=DIRECTION('',(-1.E0,0.E0,0.E0));
#83=DIRECTION('',(0.E0,-7.580693814854E-1,-6.521739130434E-1));
#84=AXIS2_PLACEMENT_3D('',#81,#82,#83);
#86=CARTESIAN_POINT('',(1.505E2,-7.492177978871E2,1.5E0));
#87=DIRECTION('',(-1.E0,0.E0,0.E0));
#88=DIRECTION('',(0.E0,1.136868377216E-13,-1.E0));
#89=AXIS2_PLACEMENT_3D('',#86,#87,#88);
#91=DIRECTION('',(0.E0,-1.E0,0.E0));
#92=VECTOR('',#91,1.743559577416E1);
#93=CARTESIAN_POINT('',(1.505E2,-7.317822021129E2,5.E-1));
#94=LINE('',#93,#92);
#95=CARTESIAN_POINT('',(1.015E2,-7.405E2,9.E0));
#96=DIRECTION('',(-1.E0,0.E0,0.E0));
#97=DIRECTION('',(0.E0,0.E0,1.E0));
#98=AXIS2_PLACEMENT_3D('',#95,#96,#97);
#100=DIRECTION('',(1.E0,-4.881341589389E-11,-1.033117355826E-11));
#101=VECTOR('',#100,4.900000000051E1);
#102=CARTESIAN_POINT('',(1.014999999995E2,-7.404999999976E2,1.500000000506E0));
#103=LINE('',#102,#101);
#104=DIRECTION('',(1.E0,4.881341589389E-11,1.033121887348E-11));
#105=VECTOR('',#104,4.900000000051E1);
#106=CARTESIAN_POINT('',(1.014999999995E2,-7.405000000024E2,1.649999999949E1));
#107=LINE('',#106,#105);
#108=DIRECTION('',(7.071067811866E-1,8.267177390647E-10,7.071067811865E-1));
#109=VECTOR('',#108,7.071067813616E-1);
#110=CARTESIAN_POINT('',(1.009999999994E2,-7.405000000030E2,1.599999999937E1));
#111=LINE('',#110,#109);
#112=CARTESIAN_POINT('',(1.01E2,-7.405E2,9.E0));
#113=DIRECTION('',(1.E0,0.E0,0.E0));
#114=DIRECTION('',(0.E0,0.E0,1.E0));
#115=AXIS2_PLACEMENT_3D('',#112,#113,#114);
#117=CARTESIAN_POINT('',(1.01E2,-7.405E2,9.E0));
#118=DIRECTION('',(1.E0,0.E0,0.E0));
#119=DIRECTION('',(0.E0,0.E0,-1.E0));
#120=AXIS2_PLACEMENT_3D('',#117,#118,#119);
#122=CARTESIAN_POINT('',(1.01E2,-7.405E2,9.E0));
#123=DIRECTION('',(-1.E0,0.E0,0.E0));
#124=DIRECTION('',(0.E0,0.E0,-1.E0));
#125=AXIS2_PLACEMENT_3D('',#122,#123,#124);
#127=CARTESIAN_POINT('',(1.01E2,-7.405E2,9.E0));
#128=DIRECTION('',(-1.E0,0.E0,0.E0));
#129=DIRECTION('',(0.E0,0.E0,1.E0));
#130=AXIS2_PLACEMENT_3D('',#127,#128,#129);
#132=CARTESIAN_POINT('',(9.25E1,-7.405E2,9.E0));
#133=DIRECTION('',(-1.E0,0.E0,0.E0));
#134=DIRECTION('',(0.E0,0.E0,-1.E0));
#135=AXIS2_PLACEMENT_3D('',#132,#133,#134);
#137=DIRECTION('',(7.071067811866E-1,7.812177154323E-10,-7.071067811865E-1));
#138=VECTOR('',#137,7.071067816014E-1);
#139=CARTESIAN_POINT('',(9.199999999795E1,-7.405000000039E2,5.500000002053E0));
#140=LINE('',#139,#138);
#141=CARTESIAN_POINT('',(9.2E1,-7.405E2,9.E0));
#142=DIRECTION('',(-1.E0,0.E0,0.E0));
#143=DIRECTION('',(0.E0,0.E0,-1.E0));
#144=AXIS2_PLACEMENT_3D('',#141,#142,#143);
#146=CARTESIAN_POINT('',(9.2E1,-7.405E2,9.E0));
#147=DIRECTION('',(-1.E0,0.E0,0.E0));
#148=DIRECTION('',(0.E0,0.E0,1.E0));
#149=AXIS2_PLACEMENT_3D('',#146,#147,#148);
#151=DIRECTION('',(7.071067811866E-1,-7.813784929E-10,7.071067811865E-1));
#152=VECTOR('',#151,7.071067816014E-1);
#153=CARTESIAN_POINT('',(9.199999999795E1,-7.404999999961E2,1.249999999795E1));
#154=LINE('',#153,#152);
#155=CARTESIAN_POINT('',(9.25E1,-7.405E2,9.E0));
#156=DIRECTION('',(-1.E0,0.E0,0.E0));
#157=DIRECTION('',(0.E0,0.E0,1.E0));
#158=AXIS2_PLACEMENT_3D('',#155,#156,#157);
#160=DIRECTION('',(1.E0,3.899324783823E-10,-2.070577957029E-10));
#161=VECTOR('',#160,8.500000001760E0);
#162=CARTESIAN_POINT('',(9.249999999824E1,-7.405000000033E2,5.000000001760E0));
#163=LINE('',#162,#161);
#164=DIRECTION('',(1.E0,-3.899191034602E-10,2.070584226523E-10));
#165=VECTOR('',#164,8.500000001760E0);
#166=CARTESIAN_POINT('',(9.249999999824E1,-7.404999999967E2,1.299999999824E1));
#167=LINE('',#166,#165);
#168=DIRECTION('',(7.071067811866E-1,-8.270392940002E-10,-7.071067811865E-1));
#169=VECTOR('',#168,7.071067813616E-1);
#170=CARTESIAN_POINT('',(1.009999999994E2,-7.404999999970E2,2.000000000630E0));
#171=LINE('',#170,#169);
#172=CARTESIAN_POINT('',(1.015E2,-7.405E2,9.E0));
#173=DIRECTION('',(-1.E0,0.E0,0.E0));
#174=DIRECTION('',(0.E0,0.E0,-1.E0));
#175=AXIS2_PLACEMENT_3D('',#172,#173,#174);
#177=DIRECTION('',(1.E0,0.E0,0.E0));
#178=VECTOR('',#177,3.E0);
#179=CARTESIAN_POINT('',(1.505E2,-7.317822021129E2,1.75E1));
#180=LINE('',#179,#178);
#181=DIRECTION('',(0.E0,-1.E0,0.E0));
#182=VECTOR('',#181,1.743559577416E1);
#183=CARTESIAN_POINT('',(1.505E2,-7.317822021129E2,1.75E1));
#184=LINE('',#183,#182);
#185=DIRECTION('',(-1.E0,0.E0,0.E0));
#186=VECTOR('',#185,3.E0);
#187=CARTESIAN_POINT('',(1.535E2,-7.492177978871E2,1.75E1));
#188=LINE('',#187,#186);
#189=DIRECTION('',(-1.E0,-3.789561257387E-14,0.E0));
#190=VECTOR('',#189,3.E0);
#191=CARTESIAN_POINT('',(1.535E2,-7.499758672686E2,1.715217391304E1));
#192=LINE('',#191,#190);
#193=DIRECTION('',(1.E0,0.E0,0.E0));
#194=VECTOR('',#193,3.E0);
#195=CARTESIAN_POINT('',(1.505E2,-7.499758672686E2,8.478260869573E-1));
#196=LINE('',#195,#194);
#197=DIRECTION('',(1.E0,0.E0,0.E0));
#198=VECTOR('',#197,3.E0);
#199=CARTESIAN_POINT('',(1.505E2,-7.492177978871E2,5.E-1));
#200=LINE('',#199,#198);
#201=CARTESIAN_POINT('',(1.535E2,-7.310241327314E2,8.478260869572E-1));
#202=CARTESIAN_POINT('',(1.505E2,-7.310241327314E2,8.478260869572E-1));
#203=VERTEX_POINT('',#201);
#204=VERTEX_POINT('',#202);
#205=CARTESIAN_POINT('',(1.535E2,-7.317822021129E2,5.E-1));
#206=VERTEX_POINT('',#205);
#207=CARTESIAN_POINT('',(1.505E2,-7.317822021129E2,5.E-1));
#208=VERTEX_POINT('',#207);
#209=CARTESIAN_POINT('',(1.505E2,-7.317822021129E2,1.75E1));
#210=CARTESIAN_POINT('',(1.535E2,-7.317822021129E2,1.75E1));
#211=VERTEX_POINT('',#209);
#212=VERTEX_POINT('',#210);
#213=CARTESIAN_POINT('',(1.535E2,-7.310241327314E2,1.715217391304E1));
#214=VERTEX_POINT('',#213);
#215=CARTESIAN_POINT('',(1.505E2,-7.310241327314E2,1.715217391304E1));
#216=VERTEX_POINT('',#215);
#217=CARTESIAN_POINT('',(1.505E2,-7.492177978871E2,1.75E1));
#218=VERTEX_POINT('',#217);
#219=CARTESIAN_POINT('',(1.535E2,-7.492177978871E2,1.75E1));
#220=VERTEX_POINT('',#219);
#221=CARTESIAN_POINT('',(1.535E2,-7.499758672686E2,1.715217391304E1));
#222=CARTESIAN_POINT('',(1.505E2,-7.499758672686E2,1.715217391304E1));
#223=VERTEX_POINT('',#221);
#224=VERTEX_POINT('',#222);
#225=CARTESIAN_POINT('',(1.505E2,-7.499758672686E2,8.478260869576E-1));
#226=VERTEX_POINT('',#225);
#227=CARTESIAN_POINT('',(1.535E2,-7.499758672686E2,8.478260869573E-1));
#228=VERTEX_POINT('',#227);
#229=CARTESIAN_POINT('',(1.505E2,-7.492177978871E2,5.E-1));
#230=CARTESIAN_POINT('',(1.535E2,-7.492177978871E2,5.E-1));
#231=VERTEX_POINT('',#229);
#232=VERTEX_POINT('',#230);
#233=CARTESIAN_POINT('',(1.01E2,-7.405E2,1.3E1));
#234=CARTESIAN_POINT('',(1.01E2,-7.405E2,5.E0));
#235=VERTEX_POINT('',#233);
#236=VERTEX_POINT('',#234);
#237=CARTESIAN_POINT('',(1.505E2,-7.405E2,1.65E1));
#238=CARTESIAN_POINT('',(1.505E2,-7.405E2,1.5E0));
#239=VERTEX_POINT('',#237);
#240=VERTEX_POINT('',#238);
#241=CARTESIAN_POINT('',(9.2E1,-7.405E2,5.5E0));
#242=CARTESIAN_POINT('',(9.2E1,-7.405E2,1.25E1));
#243=VERTEX_POINT('',#241);
#244=VERTEX_POINT('',#242);
#245=CARTESIAN_POINT('',(9.25E1,-7.405E2,5.E0));
#246=CARTESIAN_POINT('',(9.25E1,-7.405E2,1.3E1));
#247=VERTEX_POINT('',#245);
#248=VERTEX_POINT('',#246);
#249=CARTESIAN_POINT('',(1.01E2,-7.405E2,2.E0));
#250=CARTESIAN_POINT('',(1.01E2,-7.405E2,1.6E1));
#251=VERTEX_POINT('',#249);
#252=VERTEX_POINT('',#250);
#253=CARTESIAN_POINT('',(1.015E2,-7.405E2,1.5E0));
#254=CARTESIAN_POINT('',(1.015E2,-7.405E2,1.65E1));
#255=VERTEX_POINT('',#253);
#256=VERTEX_POINT('',#254);
#257=CARTESIAN_POINT('',(1.505E2,-7.317822021129E2,1.5E0));
#258=DIRECTION('',(1.E0,0.E0,0.E0));
#259=DIRECTION('',(0.E0,0.E0,1.E0));
#260=AXIS2_PLACEMENT_3D('',#257,#258,#259);
#261=CYLINDRICAL_SURFACE('',#260,1.E0);
#263=ORIENTED_EDGE('',*,*,#262,.T.);
#265=ORIENTED_EDGE('',*,*,#264,.T.);
#267=ORIENTED_EDGE('',*,*,#266,.F.);
#269=ORIENTED_EDGE('',*,*,#268,.T.);
#270=EDGE_LOOP('',(#263,#265,#267,#269));
#271=FACE_OUTER_BOUND('',#270,.F.);
#272=ADVANCED_FACE('',(#271),#261,.T.);
#273=CARTESIAN_POINT('',(1.505E2,-7.405E2,9.E0));
#274=DIRECTION('',(1.E0,0.E0,0.E0));
#275=DIRECTION('',(0.E0,0.E0,1.E0));
#276=AXIS2_PLACEMENT_3D('',#273,#274,#275);
#277=CYLINDRICAL_SURFACE('',#276,1.25E1);
#278=ORIENTED_EDGE('',*,*,#262,.F.);
#280=ORIENTED_EDGE('',*,*,#279,.T.);
#282=ORIENTED_EDGE('',*,*,#281,.F.);
#284=ORIENTED_EDGE('',*,*,#283,.T.);
#285=EDGE_LOOP('',(#278,#280,#282,#284));
#286=FACE_OUTER_BOUND('',#285,.F.);
#287=ADVANCED_FACE('',(#286),#277,.T.);
#288=CARTESIAN_POINT('',(1.535E2,-7.405E2,9.E0));
#289=DIRECTION('',(-1.E0,0.E0,0.E0));
#290=DIRECTION('',(0.E0,0.E0,-1.E0));
#291=AXIS2_PLACEMENT_3D('',#288,#289,#290);
#292=PLANE('',#291);
#293=ORIENTED_EDGE('',*,*,#268,.F.);
#295=ORIENTED_EDGE('',*,*,#294,.T.);
#297=ORIENTED_EDGE('',*,*,#296,.F.);
#299=ORIENTED_EDGE('',*,*,#298,.F.);
#301=ORIENTED_EDGE('',*,*,#300,.F.);
#303=ORIENTED_EDGE('',*,*,#302,.F.);
#305=ORIENTED_EDGE('',*,*,#304,.F.);
#306=ORIENTED_EDGE('',*,*,#279,.F.);
#307=EDGE_LOOP('',(#293,#295,#297,#299,#301,#303,#305,#306));
#308=FACE_OUTER_BOUND('',#307,.F.);
#309=ADVANCED_FACE('',(#308),#292,.F.);
#310=CARTESIAN_POINT('',(1.505E2,-7.405E2,5.E-1));
#311=DIRECTION('',(0.E0,0.E0,1.E0));
#312=DIRECTION('',(-1.E0,0.E0,0.E0));
#313=AXIS2_PLACEMENT_3D('',#310,#311,#312);
#314=PLANE('',#313);
#315=ORIENTED_EDGE('',*,*,#266,.T.);
#317=ORIENTED_EDGE('',*,*,#316,.T.);
#319=ORIENTED_EDGE('',*,*,#318,.T.);
#320=ORIENTED_EDGE('',*,*,#294,.F.);
#321=EDGE_LOOP('',(#315,#317,#319,#320));
#322=FACE_OUTER_BOUND('',#321,.F.);
#323=ADVANCED_FACE('',(#322),#314,.F.);
#324=CARTESIAN_POINT('',(1.505E2,-7.405E2,9.E0));
#325=DIRECTION('',(-1.E0,0.E0,0.E0));
#326=DIRECTION('',(0.E0,0.E0,-1.E0));
#327=AXIS2_PLACEMENT_3D('',#324,#325,#326);
#328=PLANE('',#327);
#329=ORIENTED_EDGE('',*,*,#264,.F.);
#330=ORIENTED_EDGE('',*,*,#283,.F.);
#332=ORIENTED_EDGE('',*,*,#331,.F.);
#334=ORIENTED_EDGE('',*,*,#333,.T.);
#336=ORIENTED_EDGE('',*,*,#335,.F.);
#338=ORIENTED_EDGE('',*,*,#337,.F.);
#340=ORIENTED_EDGE('',*,*,#339,.F.);
#341=ORIENTED_EDGE('',*,*,#316,.F.);
#342=EDGE_LOOP('',(#329,#330,#332,#334,#336,#338,#340,#341));
#343=FACE_OUTER_BOUND('',#342,.F.);
#345=ORIENTED_EDGE('',*,*,#344,.F.);
#347=ORIENTED_EDGE('',*,*,#346,.F.);
#348=EDGE_LOOP('',(#345,#347));
#349=FACE_BOUND('',#348,.F.);
#350=ADVANCED_FACE('',(#343,#349),#328,.T.);
#351=CARTESIAN_POINT('',(7.928679656440E1,-7.405E2,9.E0));
#352=DIRECTION('',(1.E0,0.E0,0.E0));
#353=DIRECTION('',(0.E0,0.E0,1.E0));
#354=AXIS2_PLACEMENT_3D('',#351,#352,#353);
#355=CYLINDRICAL_SURFACE('',#354,7.5E0);
#357=ORIENTED_EDGE('',*,*,#356,.T.);
#359=ORIENTED_EDGE('',*,*,#358,.T.);
#360=ORIENTED_EDGE('',*,*,#344,.T.);
#362=ORIENTED_EDGE('',*,*,#361,.F.);
#363=EDGE_LOOP('',(#357,#359,#360,#362));
#364=FACE_OUTER_BOUND('',#363,.F.);
#365=ADVANCED_FACE('',(#364),#355,.T.);
#366=CARTESIAN_POINT('',(1.012499999995E2,-7.405E2,9.E0));
#367=DIRECTION('',(1.E0,0.E0,0.E0));
#368=DIRECTION('',(0.E0,0.E0,-1.E0));
#369=AXIS2_PLACEMENT_3D('',#366,#367,#368);
#370=CONICAL_SURFACE('',#369,7.249999999462E0,4.5E1);
#372=ORIENTED_EDGE('',*,*,#371,.T.);
#374=ORIENTED_EDGE('',*,*,#373,.T.);
#375=ORIENTED_EDGE('',*,*,#356,.F.);
#377=ORIENTED_EDGE('',*,*,#376,.F.);
#378=EDGE_LOOP('',(#372,#374,#375,#377));
#379=FACE_OUTER_BOUND('',#378,.F.);
#380=ADVANCED_FACE('',(#379),#370,.T.);
#381=CARTESIAN_POINT('',(1.01E2,-7.405E2,9.E0));
#382=DIRECTION('',(-1.E0,0.E0,0.E0));
#383=DIRECTION('',(0.E0,-1.E0,0.E0));
#384=AXIS2_PLACEMENT_3D('',#381,#382,#383);
#385=PLANE('',#384);
#387=ORIENTED_EDGE('',*,*,#386,.F.);
#388=ORIENTED_EDGE('',*,*,#371,.F.);
#389=EDGE_LOOP('',(#387,#388));
#390=FACE_OUTER_BOUND('',#389,.F.);
#392=ORIENTED_EDGE('',*,*,#391,.F.);
#394=ORIENTED_EDGE('',*,*,#393,.F.);
#395=EDGE_LOOP('',(#392,#394));
#396=FACE_BOUND('',#395,.F.);
#397=ADVANCED_FACE('',(#390,#396),#385,.T.);
#398=CARTESIAN_POINT('',(9.3E1,-7.405E2,9.E0));
#399=DIRECTION('',(1.E0,0.E0,0.E0));
#400=DIRECTION('',(0.E0,0.E0,1.E0));
#401=AXIS2_PLACEMENT_3D('',#398,#399,#400);
#402=CYLINDRICAL_SURFACE('',#401,4.E0);
#404=ORIENTED_EDGE('',*,*,#403,.T.);
#406=ORIENTED_EDGE('',*,*,#405,.T.);
#407=ORIENTED_EDGE('',*,*,#391,.T.);
#409=ORIENTED_EDGE('',*,*,#408,.F.);
#410=EDGE_LOOP('',(#404,#406,#407,#409));
#411=FACE_OUTER_BOUND('',#410,.F.);
#412=ADVANCED_FACE('',(#411),#402,.T.);
#413=CARTESIAN_POINT('',(9.224999999832E1,-7.405E2,9.E0));
#414=DIRECTION('',(1.E0,0.E0,0.E0));
#415=DIRECTION('',(0.E0,0.E0,-1.E0));
#416=AXIS2_PLACEMENT_3D('',#413,#414,#415);
#417=CONICAL_SURFACE('',#416,3.749999998317E0,4.5E1);
#419=ORIENTED_EDGE('',*,*,#418,.T.);
#421=ORIENTED_EDGE('',*,*,#420,.T.);
#422=ORIENTED_EDGE('',*,*,#403,.F.);
#424=ORIENTED_EDGE('',*,*,#423,.F.);
#425=EDGE_LOOP('',(#419,#421,#422,#424));
#426=FACE_OUTER_BOUND('',#425,.F.);
#427=ADVANCED_FACE('',(#426),#417,.T.);
#428=CARTESIAN_POINT('',(9.2E1,-7.405E2,9.E0));
#429=DIRECTION('',(-1.E0,0.E0,0.E0));
#430=DIRECTION('',(0.E0,0.E0,-1.E0));
#431=AXIS2_PLACEMENT_3D('',#428,#429,#430);
#432=PLANE('',#431);
#433=ORIENTED_EDGE('',*,*,#418,.F.);
#435=ORIENTED_EDGE('',*,*,#434,.F.);
#436=EDGE_LOOP('',(#433,#435));
#437=FACE_OUTER_BOUND('',#436,.F.);
#438=ADVANCED_FACE('',(#437),#432,.T.);
#439=CARTESIAN_POINT('',(9.224999999832E1,-7.405E2,9.E0));
#440=DIRECTION('',(1.E0,0.E0,0.E0));
#441=DIRECTION('',(0.E0,0.E0,-1.E0));
#442=AXIS2_PLACEMENT_3D('',#439,#440,#441);
#443=CONICAL_SURFACE('',#442,3.749999998317E0,4.5E1);
#444=ORIENTED_EDGE('',*,*,#434,.T.);
#445=ORIENTED_EDGE('',*,*,#423,.T.);
#447=ORIENTED_EDGE('',*,*,#446,.F.);
#448=ORIENTED_EDGE('',*,*,#420,.F.);
#449=EDGE_LOOP('',(#444,#445,#447,#448));
#450=FACE_OUTER_BOUND('',#449,.F.);
#451=ADVANCED_FACE('',(#450),#443,.T.);
#452=CARTESIAN_POINT('',(9.3E1,-7.405E2,9.E0));
#453=DIRECTION('',(1.E0,0.E0,0.E0));
#454=DIRECTION('',(0.E0,0.E0,1.E0));
#455=AXIS2_PLACEMENT_3D('',#452,#453,#454);
#456=CYLINDRICAL_SURFACE('',#455,4.E0);
#457=ORIENTED_EDGE('',*,*,#446,.T.);
#458=ORIENTED_EDGE('',*,*,#408,.T.);
#459=ORIENTED_EDGE('',*,*,#393,.T.);
#460=ORIENTED_EDGE('',*,*,#405,.F.);
#461=EDGE_LOOP('',(#457,#458,#459,#460));
#462=FACE_OUTER_BOUND('',#461,.F.);
#463=ADVANCED_FACE('',(#462),#456,.T.);
#464=CARTESIAN_POINT('',(1.012499999995E2,-7.405E2,9.E0));
#465=DIRECTION('',(1.E0,0.E0,0.E0));
#466=DIRECTION('',(0.E0,0.E0,-1.E0));
#467=AXIS2_PLACEMENT_3D('',#464,#465,#466);
#468=CONICAL_SURFACE('',#467,7.249999999462E0,4.5E1);
#469=ORIENTED_EDGE('',*,*,#386,.T.);
#470=ORIENTED_EDGE('',*,*,#376,.T.);
#472=ORIENTED_EDGE('',*,*,#471,.F.);
#473=ORIENTED_EDGE('',*,*,#373,.F.);
#474=EDGE_LOOP('',(#469,#470,#472,#473));
#475=FACE_OUTER_BOUND('',#474,.F.);
#476=ADVANCED_FACE('',(#475),#468,.T.);
#477=CARTESIAN_POINT('',(7.928679656440E1,-7.405E2,9.E0));
#478=DIRECTION('',(1.E0,0.E0,0.E0));
#479=DIRECTION('',(0.E0,0.E0,1.E0));
#480=AXIS2_PLACEMENT_3D('',#477,#478,#479);
#481=CYLINDRICAL_SURFACE('',#480,7.5E0);
#482=ORIENTED_EDGE('',*,*,#471,.T.);
#483=ORIENTED_EDGE('',*,*,#361,.T.);
#484=ORIENTED_EDGE('',*,*,#346,.T.);
#485=ORIENTED_EDGE('',*,*,#358,.F.);
#486=EDGE_LOOP('',(#482,#483,#484,#485));
#487=FACE_OUTER_BOUND('',#486,.F.);
#488=ADVANCED_FACE('',(#487),#481,.T.);
#489=CARTESIAN_POINT('',(1.505E2,-7.317822021129E2,1.65E1));
#490=DIRECTION('',(1.E0,0.E0,0.E0));
#491=DIRECTION('',(0.E0,0.E0,1.E0));
#492=AXIS2_PLACEMENT_3D('',#489,#490,#491);
#493=CYLINDRICAL_SURFACE('',#492,1.E0);
#495=ORIENTED_EDGE('',*,*,#494,.F.);
#496=ORIENTED_EDGE('',*,*,#331,.T.);
#497=ORIENTED_EDGE('',*,*,#281,.T.);
#498=ORIENTED_EDGE('',*,*,#304,.T.);
#499=EDGE_LOOP('',(#495,#496,#497,#498));
#500=FACE_OUTER_BOUND('',#499,.F.);
#501=ADVANCED_FACE('',(#500),#493,.T.);
#502=CARTESIAN_POINT('',(1.505E2,-7.405E2,1.75E1));
#503=DIRECTION('',(0.E0,0.E0,1.E0));
#504=DIRECTION('',(-1.E0,0.E0,0.E0));
#505=AXIS2_PLACEMENT_3D('',#502,#503,#504);
#506=PLANE('',#505);
#507=ORIENTED_EDGE('',*,*,#494,.T.);
#508=ORIENTED_EDGE('',*,*,#302,.T.);
#510=ORIENTED_EDGE('',*,*,#509,.T.);
#511=ORIENTED_EDGE('',*,*,#333,.F.);
#512=EDGE_LOOP('',(#507,#508,#510,#511));
#513=FACE_OUTER_BOUND('',#512,.F.);
#514=ADVANCED_FACE('',(#513),#506,.T.);
#515=CARTESIAN_POINT('',(1.505E2,-7.492177978871E2,1.65E1));
#516=DIRECTION('',(1.E0,0.E0,0.E0));
#517=DIRECTION('',(0.E0,0.E0,1.E0));
#518=AXIS2_PLACEMENT_3D('',#515,#516,#517);
#519=CYLINDRICAL_SURFACE('',#518,1.E0);
#521=ORIENTED_EDGE('',*,*,#520,.T.);
#522=ORIENTED_EDGE('',*,*,#335,.T.);
#523=ORIENTED_EDGE('',*,*,#509,.F.);
#524=ORIENTED_EDGE('',*,*,#300,.T.);
#525=EDGE_LOOP('',(#521,#522,#523,#524));
#526=FACE_OUTER_BOUND('',#525,.F.);
#527=ADVANCED_FACE('',(#526),#519,.T.);
#528=CARTESIAN_POINT('',(1.505E2,-7.405E2,9.E0));
#529=DIRECTION('',(1.E0,0.E0,0.E0));
#530=DIRECTION('',(0.E0,0.E0,1.E0));
#531=AXIS2_PLACEMENT_3D('',#528,#529,#530);
#532=CYLINDRICAL_SURFACE('',#531,1.25E1);
#533=ORIENTED_EDGE('',*,*,#520,.F.);
#534=ORIENTED_EDGE('',*,*,#298,.T.);
#536=ORIENTED_EDGE('',*,*,#535,.F.);
#537=ORIENTED_EDGE('',*,*,#337,.T.);
#538=EDGE_LOOP('',(#533,#534,#536,#537));
#539=FACE_OUTER_BOUND('',#538,.F.);
#540=ADVANCED_FACE('',(#539),#532,.T.);
#541=CARTESIAN_POINT('',(1.505E2,-7.492177978871E2,1.5E0));
#542=DIRECTION('',(1.E0,0.E0,0.E0));
#543=DIRECTION('',(0.E0,0.E0,1.E0));
#544=AXIS2_PLACEMENT_3D('',#541,#542,#543);
#545=CYLINDRICAL_SURFACE('',#544,1.E0);
#546=ORIENTED_EDGE('',*,*,#318,.F.);
#547=ORIENTED_EDGE('',*,*,#339,.T.);
#548=ORIENTED_EDGE('',*,*,#535,.T.);
#549=ORIENTED_EDGE('',*,*,#296,.T.);
#550=EDGE_LOOP('',(#546,#547,#548,#549));
#551=FACE_OUTER_BOUND('',#550,.F.);
#552=ADVANCED_FACE('',(#551),#545,.T.);
#556=DIMENSIONAL_EXPONENTS(0.E0,0.E0,0.E0,0.E0,0.E0,0.E0,0.E0);
#558=PLANE_ANGLE_MEASURE_WITH_UNIT(PLANE_ANGLE_MEASURE(1.745329251994E-2),#557);
#559=(CONVERSION_BASED_UNIT('DEGREE',#558)NAMED_UNIT(*)PLANE_ANGLE_UNIT());
#561=UNCERTAINTY_MEASURE_WITH_UNIT(LENGTH_MEASURE(6.763894226302E-3),#555,
'closure',
'Maximum model space distance between geometric entities at asserted connectivities');
#562=(GEOMETRIC_REPRESENTATION_CONTEXT(3)GLOBAL_UNCERTAINTY_ASSIGNED_CONTEXT((
#561))GLOBAL_UNIT_ASSIGNED_CONTEXT((#555,#559,#560))REPRESENTATION_CONTEXT
('ID1','3'));
#564=APPLICATION_CONTEXT(
'CONFIGURATION CONTROLLED 3D DESIGNS OF MECHANICAL PARTS AND ASSEMBLIES');
#565=APPLICATION_PROTOCOL_DEFINITION('international standard',
'config_control_design',1994,#564);
#566=DESIGN_CONTEXT('',#564,'design');
#567=MECHANICAL_CONTEXT('',#564,'mechanical');
#568=PRODUCT('KD-D-504X_ANKLESHOULDERBOLT','KD-D-504X_ANKLESHOULDERBOLT',
'NOT SPECIFIED',(#567));
#569=PRODUCT_DEFINITION_FORMATION_WITH_SPECIFIED_SOURCE('1','LAST_VERSION',#568,
.MADE.);
#573=PRODUCT_CATEGORY('part','');
#574=PRODUCT_RELATED_PRODUCT_CATEGORY('detail','',(#568));
#575=PRODUCT_CATEGORY_RELATIONSHIP('','',#573,#574);
#576=SECURITY_CLASSIFICATION_LEVEL('unclassified');
#577=SECURITY_CLASSIFICATION('','',#576);
#578=CC_DESIGN_SECURITY_CLASSIFICATION(#577,(#569));
#579=APPROVAL_STATUS('approved');
#580=APPROVAL(#579,'');
#581=CC_DESIGN_APPROVAL(#580,(#577,#569,#570));
#582=CALENDAR_DATE(125,12,7);
#583=COORDINATED_UNIVERSAL_TIME_OFFSET(8,0,.AHEAD.);
#584=LOCAL_TIME(16,42,2.8E1,#583);
#585=DATE_AND_TIME(#582,#584);
#586=APPROVAL_DATE_TIME(#585,#580);
#587=DATE_TIME_ROLE('creation_date');
#588=CC_DESIGN_DATE_AND_TIME_ASSIGNMENT(#585,#587,(#570));
#589=DATE_TIME_ROLE('classification_date');
#590=CC_DESIGN_DATE_AND_TIME_ASSIGNMENT(#585,#589,(#577));
#591=PERSON('UNSPECIFIED','UNSPECIFIED',$,$,$,$);
#592=ORGANIZATION('UNSPECIFIED','UNSPECIFIED','UNSPECIFIED');
#593=PERSON_AND_ORGANIZATION(#591,#592);
#594=APPROVAL_ROLE('approver');
#595=APPROVAL_PERSON_ORGANIZATION(#593,#580,#594);
#596=PERSON_AND_ORGANIZATION_ROLE('creator');
#597=CC_DESIGN_PERSON_AND_ORGANIZATION_ASSIGNMENT(#593,#596,(#569,#570));
#598=PERSON_AND_ORGANIZATION_ROLE('design_supplier');
#599=CC_DESIGN_PERSON_AND_ORGANIZATION_ASSIGNMENT(#593,#598,(#569));
#600=PERSON_AND_ORGANIZATION_ROLE('classification_officer');
#601=CC_DESIGN_PERSON_AND_ORGANIZATION_ASSIGNMENT(#593,#600,(#577));
#602=PERSON_AND_ORGANIZATION_ROLE('design_owner');
#603=CC_DESIGN_PERSON_AND_ORGANIZATION_ASSIGNMENT(#593,#602,(#568));
#17=CIRCLE('',#16,1.E0);
#22=CIRCLE('',#21,1.E0);
#27=CIRCLE('',#26,1.25E1);
#32=CIRCLE('',#31,1.E0);
#41=CIRCLE('',#40,1.E0);
#46=CIRCLE('',#45,1.25E1);
#55=CIRCLE('',#54,7.5E0);
#60=CIRCLE('',#59,7.5E0);
#65=CIRCLE('',#64,1.E0);
#70=CIRCLE('',#69,1.25E1);
#75=CIRCLE('',#74,1.E0);
#80=CIRCLE('',#79,1.E0);
#85=CIRCLE('',#84,1.25E1);
#90=CIRCLE('',#89,1.E0);
#99=CIRCLE('',#98,7.5E0);
#116=CIRCLE('',#115,4.E0);
#121=CIRCLE('',#120,4.E0);
#126=CIRCLE('',#125,7.E0);
#131=CIRCLE('',#130,7.E0);
#136=CIRCLE('',#135,4.E0);
#145=CIRCLE('',#144,3.5E0);
#150=CIRCLE('',#149,3.5E0);
#159=CIRCLE('',#158,4.E0);
#176=CIRCLE('',#175,7.5E0);
#262=EDGE_CURVE('',#203,#204,#8,.T.);
#264=EDGE_CURVE('',#204,#208,#65,.T.);
#266=EDGE_CURVE('',#206,#208,#4,.T.);
#268=EDGE_CURVE('',#206,#203,#17,.T.);
#279=EDGE_CURVE('',#203,#214,#46,.T.);
#281=EDGE_CURVE('',#216,#214,#12,.T.);
#283=EDGE_CURVE('',#216,#204,#70,.T.);
#294=EDGE_CURVE('',#206,#232,#50,.T.);
#296=EDGE_CURVE('',#228,#232,#22,.T.);
#298=EDGE_CURVE('',#223,#228,#27,.T.);
#300=EDGE_CURVE('',#220,#223,#32,.T.);
#302=EDGE_CURVE('',#212,#220,#36,.T.);
#304=EDGE_CURVE('',#214,#212,#41,.T.);
#316=EDGE_CURVE('',#208,#231,#94,.T.);
#318=EDGE_CURVE('',#231,#232,#200,.T.);
#331=EDGE_CURVE('',#211,#216,#75,.T.);
#333=EDGE_CURVE('',#211,#218,#184,.T.);
#335=EDGE_CURVE('',#224,#218,#80,.T.);
#337=EDGE_CURVE('',#226,#224,#85,.T.);
#339=EDGE_CURVE('',#231,#226,#90,.T.);
#344=EDGE_CURVE('',#240,#239,#55,.T.);
#346=EDGE_CURVE('',#239,#240,#60,.T.);
#356=EDGE_CURVE('',#256,#255,#99,.T.);
#358=EDGE_CURVE('',#255,#240,#103,.T.);
#361=EDGE_CURVE('',#256,#239,#107,.T.);
#371=EDGE_CURVE('',#252,#251,#131,.T.);
#373=EDGE_CURVE('',#251,#255,#171,.T.);
#376=EDGE_CURVE('',#252,#256,#111,.T.);
#386=EDGE_CURVE('',#251,#252,#126,.T.);
#391=EDGE_CURVE('',#235,#236,#116,.T.);
#393=EDGE_CURVE('',#236,#235,#121,.T.);
#403=EDGE_CURVE('',#247,#248,#136,.T.);
#405=EDGE_CURVE('',#248,#235,#167,.T.);
#408=EDGE_CURVE('',#247,#236,#163,.T.);
#418=EDGE_CURVE('',#243,#244,#145,.T.);
#420=EDGE_CURVE('',#244,#248,#154,.T.);
#423=EDGE_CURVE('',#243,#247,#140,.T.);
#434=EDGE_CURVE('',#244,#243,#150,.T.);
#446=EDGE_CURVE('',#248,#247,#159,.T.);
#471=EDGE_CURVE('',#255,#256,#176,.T.);
#494=EDGE_CURVE('',#211,#212,#180,.T.);
#509=EDGE_CURVE('',#220,#218,#188,.T.);
#520=EDGE_CURVE('',#223,#224,#192,.T.);
#535=EDGE_CURVE('',#226,#228,#196,.T.);
#553=CLOSED_SHELL('',(#272,#287,#309,#323,#350,#365,#380,#397,#412,#427,#438,
#451,#463,#476,#488,#501,#514,#527,#540,#552));
#554=MANIFOLD_SOLID_BREP('',#553);
#555=(LENGTH_UNIT()NAMED_UNIT(*)SI_UNIT(.MILLI.,.METRE.));
#557=(NAMED_UNIT(*)PLANE_ANGLE_UNIT()SI_UNIT($,.RADIAN.));
#560=(NAMED_UNIT(*)SI_UNIT($,.STERADIAN.)SOLID_ANGLE_UNIT());
#563=ADVANCED_BREP_SHAPE_REPRESENTATION('',(#554),#562);
#570=PRODUCT_DEFINITION('design','',#569,#566);
#571=PRODUCT_DEFINITION_SHAPE('','SHAPE FOR KD-D-504X_ANKLESHOULDERBOLT.',#570);
#572=SHAPE_DEFINITION_REPRESENTATION(#571,#563);
ENDSEC;
END-ISO-10303-21;
