ISO-10303-21;
HEADER;
FILE_DESCRIPTION((''),'2;1');
FILE_NAME('KC-D-107L_L_COVER_1','2025-07-12T15:06:34',('Administrator'),(''),
'CREO PARAMETRIC BY PTC INC, 2022073','CREO PARAMETRIC BY PTC INC, 2022073','');
FILE_SCHEMA(('CONFIG_CONTROL_DESIGN'));
ENDSEC;
DATA;
#1=DIRECTION('',(-1.E0,-1.272473080758E-11,0.E0));
#2=VECTOR('',#1,4.466044026036E0);
#3=CARTESIAN_POINT('',(2.773302201297E1,-3.002943725156E1,-1.27E2));
#4=LINE('',#3,#2);
#5=DIRECTION('',(-1.E0,8.095747208667E-12,0.E0));
#6=VECTOR('',#5,4.233022012968E0);
#7=CARTESIAN_POINT('',(1.973302201297E1,-3.002943725155E1,-1.27E2));
#8=LINE('',#7,#6);
#9=DIRECTION('',(1.E0,-3.135213726062E-12,2.573810170840E-12));
#10=VECTOR('',#9,4.75E1);
#11=CARTESIAN_POINT('',(1.55E1,-3.851471862570E1,-1.234852813743E2));
#12=LINE('',#11,#10);
#13=DIRECTION('',(-1.E0,-2.861156770321E-12,0.E0));
#14=VECTOR('',#13,3.173302201307E1);
#15=CARTESIAN_POINT('',(6.3E1,-3.002943725152E1,-1.27E2));
#16=LINE('',#15,#14);
#17=CARTESIAN_POINT('',(2.95E1,-2.717157287525E1,-1.27E2));
#18=DIRECTION('',(0.E0,0.E0,-1.E0));
#19=DIRECTION('',(-1.E0,0.E0,0.E0));
#20=AXIS2_PLACEMENT_3D('',#17,#18,#19);
#22=CARTESIAN_POINT('',(2.95E1,-2.717157287525E1,-1.27E2));
#23=DIRECTION('',(0.E0,0.E0,-1.E0));
#24=DIRECTION('',(9.999999948818E-1,1.011746854634E-4,0.E0));
#25=AXIS2_PLACEMENT_3D('',#22,#23,#24);
#27=DIRECTION('',(0.E0,1.E0,0.E0));
#28=VECTOR('',#27,6.005887450304E1);
#29=CARTESIAN_POINT('',(6.3E1,-3.002943725152E1,-1.27E2));
#30=LINE('',#29,#28);
#31=DIRECTION('',(0.E0,-1.E0,0.E0));
#32=VECTOR('',#31,6.005887450304E1);
#33=CARTESIAN_POINT('',(1.55E1,3.002943725152E1,-1.27E2));
#34=LINE('',#33,#32);
#35=CARTESIAN_POINT('',(2.15E1,-2.717157287525E1,-1.27E2));
#36=DIRECTION('',(0.E0,0.E0,-1.E0));
#37=DIRECTION('',(-5.258863056804E-1,-8.505548738899E-1,0.E0));
#38=AXIS2_PLACEMENT_3D('',#35,#36,#37);
#40=CARTESIAN_POINT('',(2.15E1,-2.717157287525E1,-1.27E2));
#41=DIRECTION('',(0.E0,0.E0,-1.E0));
#42=DIRECTION('',(-1.E0,0.E0,0.E0));
#43=AXIS2_PLACEMENT_3D('',#40,#41,#42);
#45=CARTESIAN_POINT('',(2.15E1,-2.717157287525E1,-1.27E2));
#46=DIRECTION('',(0.E0,0.E0,-1.E0));
#47=DIRECTION('',(9.999999948818E-1,1.011746854634E-4,0.E0));
#48=AXIS2_PLACEMENT_3D('',#45,#46,#47);
#50=CARTESIAN_POINT('',(2.95E1,-2.717157287525E1,-1.27E2));
#51=DIRECTION('',(0.E0,0.E0,-1.E0));
#52=DIRECTION('',(-5.258863056778E-1,-8.505548738915E-1,0.E0));
#53=AXIS2_PLACEMENT_3D('',#50,#51,#52);
#55=CARTESIAN_POINT('',(2.95E1,-2.717157287525E1,-1.2524E2));
#56=DIRECTION('',(0.E0,0.E0,-1.E0));
#57=DIRECTION('',(-1.E0,0.E0,0.E0));
#58=AXIS2_PLACEMENT_3D('',#55,#56,#57);
#60=DIRECTION('',(7.071067811865E-1,0.E0,7.071067811865E-1));
#61=VECTOR('',#60,2.489015869777E0);
#62=CARTESIAN_POINT('',(2.614E1,-2.717157287525E1,-1.27E2));
#63=LINE('',#62,#61);
#64=DIRECTION('',(-3.187198619286E-9,1.457663629265E-4,-9.999999893761E-1));
#65=VECTOR('',#64,2.400000025497E-1);
#66=CARTESIAN_POINT('',(3.11E1,-2.717157287525E1,-1.25E2));
#67=LINE('',#66,#65);
#68=DIRECTION('',(1.480297366167E-14,-1.480297366167E-14,-1.E0));
#69=VECTOR('',#68,2.4E-1);
#70=CARTESIAN_POINT('',(2.79E1,-2.717157287525E1,-1.25E2));
#71=LINE('',#70,#69);
#72=CARTESIAN_POINT('',(2.95E1,-2.717157287525E1,-1.2524E2));
#73=DIRECTION('',(0.E0,0.E0,-1.E0));
#74=DIRECTION('',(1.E0,0.E0,0.E0));
#75=AXIS2_PLACEMENT_3D('',#72,#73,#74);
#77=CARTESIAN_POINT('',(2.773302201297E1,-3.002943725156E1,-1.27E2));
#78=CARTESIAN_POINT('',(2.793666358670E1,-3.015534601790E1,-1.27E2));
#79=CARTESIAN_POINT('',(2.836621223389E1,-3.035982242711E1,-1.269961991363E2));
#80=CARTESIAN_POINT('',(2.911448589435E1,-3.052783450991E1,-1.269896957333E2));
#81=CARTESIAN_POINT('',(2.986584416454E1,-3.053016864280E1,-1.269895871367E2));
#82=CARTESIAN_POINT('',(3.062140542921E1,-3.036471923175E1,-1.269960567510E2));
#83=CARTESIAN_POINT('',(3.105894537426E1,-3.015806093653E1,-1.27E2));
#84=CARTESIAN_POINT('',(3.126697798693E1,-3.002943725161E1,-1.27E2));
#86=DIRECTION('',(-7.071096886581E-1,-7.082616850960E-5,7.071038701559E-1));
#87=VECTOR('',#86,2.489026116647E0);
#88=CARTESIAN_POINT('',(3.286001448164E1,-2.717136160314E1,-1.27E2));
#89=LINE('',#88,#87);
#90=DIRECTION('',(1.E0,0.E0,0.E0));
#91=VECTOR('',#90,4.75E1);
#92=CARTESIAN_POINT('',(1.55E1,3.417157287525E1,-1.25E2));
#93=LINE('',#92,#91);
#94=CARTESIAN_POINT('',(2.15E1,-2.717157287525E1,-1.25E2));
#95=DIRECTION('',(0.E0,0.E0,1.E0));
#96=DIRECTION('',(1.E0,0.E0,0.E0));
#97=AXIS2_PLACEMENT_3D('',#94,#95,#96);
#99=CARTESIAN_POINT('',(2.15E1,-2.717157287525E1,-1.25E2));
#100=DIRECTION('',(0.E0,0.E0,1.E0));
#101=DIRECTION('',(-1.E0,0.E0,0.E0));
#102=AXIS2_PLACEMENT_3D('',#99,#100,#101);
#104=CARTESIAN_POINT('',(2.95E1,-2.717157287525E1,-1.25E2));
#105=DIRECTION('',(0.E0,0.E0,1.E0));
#106=DIRECTION('',(1.E0,0.E0,0.E0));
#107=AXIS2_PLACEMENT_3D('',#104,#105,#106);
#109=CARTESIAN_POINT('',(2.95E1,-2.717157287525E1,-1.25E2));
#110=DIRECTION('',(0.E0,0.E0,1.E0));
#111=DIRECTION('',(-1.E0,0.E0,0.E0));
#112=AXIS2_PLACEMENT_3D('',#109,#110,#111);
#114=DIRECTION('',(0.E0,1.326715209504E-13,-1.E0));
#115=VECTOR('',#114,2.517157287525E1);
#116=CARTESIAN_POINT('',(6.3E1,-6.1E1,-7.3E1));
#117=LINE('',#116,#115);
#118=DIRECTION('',(0.E0,7.071067811865E-1,-7.071067811865E-1));
#119=VECTOR('',#118,3.794112549696E1);
#120=CARTESIAN_POINT('',(6.3E1,-6.1E1,-9.817157287525E1));
#121=LINE('',#120,#119);
#122=DIRECTION('',(0.E0,1.E0,0.E0));
#123=VECTOR('',#122,6.834314575049E1);
#124=CARTESIAN_POINT('',(6.3E1,-3.417157287525E1,-1.25E2));
#125=LINE('',#124,#123);
#126=DIRECTION('',(0.E0,7.071067811865E-1,7.071067811865E-1));
#127=VECTOR('',#126,3.794112549696E1);
#128=CARTESIAN_POINT('',(6.3E1,3.417157287525E1,-1.25E2));
#129=LINE('',#128,#127);
#130=DIRECTION('',(0.E0,0.E0,-1.E0));
#131=VECTOR('',#130,2.102943725152E1);
#132=CARTESIAN_POINT('',(6.3E1,6.3E1,-7.3E1));
#133=LINE('',#132,#131);
#134=CARTESIAN_POINT('',(6.3E1,5.1E1,-9.402943725152E1));
#135=DIRECTION('',(-1.E0,0.E0,0.E0));
#136=DIRECTION('',(0.E0,1.E0,7.105427357601E-14));
#137=AXIS2_PLACEMENT_3D('',#134,#135,#136);
#139=DIRECTION('',(0.E0,-7.071067811865E-1,-7.071067811865E-1));
#140=VECTOR('',#139,2.965685424964E1);
#141=CARTESIAN_POINT('',(6.3E1,5.948528137428E1,-1.025147186257E2));
#142=LINE('',#141,#140);
#143=CARTESIAN_POINT('',(6.3E1,3.002943725152E1,-1.15E2));
#144=DIRECTION('',(-1.E0,0.E0,0.E0));
#145=DIRECTION('',(0.E0,7.071067811708E-1,-7.071067812023E-1));
#146=AXIS2_PLACEMENT_3D('',#143,#144,#145);
#148=CARTESIAN_POINT('',(6.3E1,-3.002943725152E1,-1.15E2));
#149=DIRECTION('',(-1.E0,0.E0,0.E0));
#150=DIRECTION('',(0.E0,-7.075821410278E-14,-1.E0));
#151=AXIS2_PLACEMENT_3D('',#148,#149,#150);
#153=DIRECTION('',(0.E0,-7.071067811865E-1,7.071067811865E-1));
#154=VECTOR('',#153,2.965685424925E1);
#155=CARTESIAN_POINT('',(6.3E1,-3.851471862585E1,-1.234852813742E2));
#156=LINE('',#155,#154);
#157=CARTESIAN_POINT('',(6.3E1,-5.1E1,-9.402943725152E1));
#158=DIRECTION('',(-1.E0,0.E0,0.E0));
#159=DIRECTION('',(0.E0,-7.071067811684E-1,-7.071067812047E-1));
#160=AXIS2_PLACEMENT_3D('',#157,#158,#159);
#162=DIRECTION('',(1.E0,0.E0,0.E0));
#163=VECTOR('',#162,4.75E1);
#164=CARTESIAN_POINT('',(1.55E1,-6.1E1,-9.817157287525E1));
#165=LINE('',#164,#163);
#166=CARTESIAN_POINT('',(2.95E1,-6.1E1,-9.017157287525E1));
#167=DIRECTION('',(0.E0,1.E0,0.E0));
#168=DIRECTION('',(0.E0,0.E0,1.E0));
#169=AXIS2_PLACEMENT_3D('',#166,#167,#168);
#171=CARTESIAN_POINT('',(2.95E1,-6.1E1,-9.017157287525E1));
#172=DIRECTION('',(0.E0,1.E0,0.E0));
#173=DIRECTION('',(0.E0,0.E0,-1.E0));
#174=AXIS2_PLACEMENT_3D('',#171,#172,#173);
#176=CARTESIAN_POINT('',(2.15E1,-6.1E1,-9.017157287525E1));
#177=DIRECTION('',(0.E0,1.E0,0.E0));
#178=DIRECTION('',(0.E0,0.E0,1.E0));
#179=AXIS2_PLACEMENT_3D('',#176,#177,#178);
#181=CARTESIAN_POINT('',(2.15E1,-6.1E1,-9.017157287525E1));
#182=DIRECTION('',(0.E0,1.E0,0.E0));
#183=DIRECTION('',(0.E0,0.E0,-1.E0));
#184=AXIS2_PLACEMENT_3D('',#181,#182,#183);
#186=DIRECTION('',(1.E0,0.E0,0.E0));
#187=VECTOR('',#186,4.75E1);
#188=CARTESIAN_POINT('',(1.55E1,-6.1E1,-7.3E1));
#189=LINE('',#188,#187);
#190=DIRECTION('',(0.E0,-1.E0,0.E0));
#191=VECTOR('',#190,2.E0);
#192=CARTESIAN_POINT('',(6.3E1,-6.1E1,-7.3E1));
#193=LINE('',#192,#191);
#194=DIRECTION('',(-1.E0,0.E0,0.E0));
#195=VECTOR('',#194,4.75E1);
#196=CARTESIAN_POINT('',(6.3E1,-6.3E1,-7.3E1));
#197=LINE('',#196,#195);
#198=DIRECTION('',(0.E0,0.E0,-1.E0));
#199=VECTOR('',#198,2.102943725152E1);
#200=CARTESIAN_POINT('',(6.3E1,-6.3E1,-7.3E1));
#201=LINE('',#200,#199);
#202=CARTESIAN_POINT('',(2.95E1,-6.3E1,-9.017157287525E1));
#203=DIRECTION('',(0.E0,-1.E0,0.E0));
#204=DIRECTION('',(0.E0,0.E0,-1.E0));
#205=AXIS2_PLACEMENT_3D('',#202,#203,#204);
#207=CARTESIAN_POINT('',(2.95E1,-6.3E1,-9.017157287525E1));
#208=DIRECTION('',(0.E0,-1.E0,0.E0));
#209=DIRECTION('',(0.E0,0.E0,1.E0));
#210=AXIS2_PLACEMENT_3D('',#207,#208,#209);
#212=CARTESIAN_POINT('',(2.15E1,-6.3E1,-9.017157287525E1));
#213=DIRECTION('',(0.E0,-1.E0,0.E0));
#214=DIRECTION('',(0.E0,0.E0,-1.E0));
#215=AXIS2_PLACEMENT_3D('',#212,#213,#214);
#217=CARTESIAN_POINT('',(2.15E1,-6.3E1,-9.017157287525E1));
#218=DIRECTION('',(0.E0,-1.E0,0.E0));
#219=DIRECTION('',(0.E0,0.E0,1.E0));
#220=AXIS2_PLACEMENT_3D('',#217,#218,#219);
#222=DIRECTION('',(1.E0,0.E0,0.E0));
#223=VECTOR('',#222,4.75E1);
#224=CARTESIAN_POINT('',(1.55E1,-6.3E1,-9.402943725152E1));
#225=LINE('',#224,#223);
#226=DIRECTION('',(-1.E0,-2.573660582895E-12,3.134764962229E-12));
#227=VECTOR('',#226,4.75E1);
#228=CARTESIAN_POINT('',(6.3E1,-5.948528137416E1,-1.025147186259E2));
#229=LINE('',#228,#227);
#230=DIRECTION('',(0.E0,-7.071067811865E-1,-7.071067811865E-1));
#231=VECTOR('',#230,3.794112549696E1);
#232=CARTESIAN_POINT('',(1.55E1,6.1E1,-9.817157287525E1));
#233=LINE('',#232,#231);
#234=DIRECTION('',(0.E0,-1.E0,0.E0));
#235=VECTOR('',#234,6.834314575049E1);
#236=CARTESIAN_POINT('',(1.55E1,3.417157287525E1,-1.25E2));
#237=LINE('',#236,#235);
#238=DIRECTION('',(0.E0,-7.071067811865E-1,7.071067811865E-1));
#239=VECTOR('',#238,3.794112549696E1);
#240=CARTESIAN_POINT('',(1.55E1,-3.417157287525E1,-1.25E2));
#241=LINE('',#240,#239);
#242=DIRECTION('',(0.E0,-1.326715209504E-13,1.E0));
#243=VECTOR('',#242,2.517157287525E1);
#244=CARTESIAN_POINT('',(1.55E1,-6.1E1,-9.817157287525E1));
#245=LINE('',#244,#243);
#246=DIRECTION('',(0.E0,-1.E0,0.E0));
#247=VECTOR('',#246,2.E0);
#248=CARTESIAN_POINT('',(1.55E1,-6.1E1,-7.3E1));
#249=LINE('',#248,#247);
#250=DIRECTION('',(0.E0,0.E0,-1.E0));
#251=VECTOR('',#250,2.102943725152E1);
#252=CARTESIAN_POINT('',(1.55E1,-6.3E1,-7.3E1));
#253=LINE('',#252,#251);
#254=CARTESIAN_POINT('',(1.55E1,-5.1E1,-9.402943725152E1));
#255=DIRECTION('',(1.E0,0.E0,0.E0));
#256=DIRECTION('',(0.E0,-1.E0,7.105427357601E-14));
#257=AXIS2_PLACEMENT_3D('',#254,#255,#256);
#259=DIRECTION('',(0.E0,7.071067811865E-1,-7.071067811865E-1));
#260=VECTOR('',#259,2.965685424964E1);
#261=CARTESIAN_POINT('',(1.55E1,-5.948528137428E1,-1.025147186257E2));
#262=LINE('',#261,#260);
#263=CARTESIAN_POINT('',(1.55E1,-3.002943725152E1,-1.15E2));
#264=DIRECTION('',(1.E0,0.E0,0.E0));
#265=DIRECTION('',(0.E0,-7.071067811708E-1,-7.071067812023E-1));
#266=AXIS2_PLACEMENT_3D('',#263,#264,#265);
#268=CARTESIAN_POINT('',(1.55E1,3.002943725152E1,-1.15E2));
#269=DIRECTION('',(1.E0,0.E0,0.E0));
#270=DIRECTION('',(0.E0,7.105427357601E-14,-1.E0));
#271=AXIS2_PLACEMENT_3D('',#268,#269,#270);
#273=DIRECTION('',(0.E0,7.071067811865E-1,7.071067811865E-1));
#274=VECTOR('',#273,2.965685424925E1);
#275=CARTESIAN_POINT('',(1.55E1,3.851471862585E1,-1.234852813742E2));
#276=LINE('',#275,#274);
#277=CARTESIAN_POINT('',(1.55E1,5.1E1,-9.402943725152E1));
#278=DIRECTION('',(1.E0,0.E0,0.E0));
#279=DIRECTION('',(0.E0,7.071067811684E-1,-7.071067812047E-1));
#280=AXIS2_PLACEMENT_3D('',#277,#278,#279);
#282=DIRECTION('',(0.E0,-1.E0,0.E0));
#283=VECTOR('',#282,2.E0);
#284=CARTESIAN_POINT('',(1.55E1,6.3E1,-7.3E1));
#285=LINE('',#284,#283);
#286=DIRECTION('',(1.E0,0.E0,0.E0));
#287=VECTOR('',#286,4.75E1);
#288=CARTESIAN_POINT('',(1.55E1,6.1E1,-9.817157287525E1));
#289=LINE('',#288,#287);
#290=DIRECTION('',(0.E0,1.326715209504E-13,1.E0));
#291=VECTOR('',#290,2.517157287525E1);
#292=CARTESIAN_POINT('',(1.55E1,6.1E1,-9.817157287525E1));
#293=LINE('',#292,#291);
#294=DIRECTION('',(1.E0,0.E0,0.E0));
#295=VECTOR('',#294,4.75E1);
#296=CARTESIAN_POINT('',(1.55E1,6.1E1,-7.3E1));
#297=LINE('',#296,#295);
#298=DIRECTION('',(0.E0,-1.326715209504E-13,-1.E0));
#299=VECTOR('',#298,2.517157287525E1);
#300=CARTESIAN_POINT('',(6.3E1,6.1E1,-7.3E1));
#301=LINE('',#300,#299);
#302=CARTESIAN_POINT('',(2.15E1,6.1E1,-9.017157287525E1));
#303=DIRECTION('',(0.E0,-1.E0,0.E0));
#304=DIRECTION('',(0.E0,0.E0,1.E0));
#305=AXIS2_PLACEMENT_3D('',#302,#303,#304);
#307=CARTESIAN_POINT('',(2.15E1,6.1E1,-9.017157287525E1));
#308=DIRECTION('',(0.E0,-1.E0,0.E0));
#309=DIRECTION('',(0.E0,0.E0,-1.E0));
#310=AXIS2_PLACEMENT_3D('',#307,#308,#309);
#312=CARTESIAN_POINT('',(2.95E1,6.1E1,-9.017157287525E1));
#313=DIRECTION('',(0.E0,-1.E0,0.E0));
#314=DIRECTION('',(0.E0,0.E0,1.E0));
#315=AXIS2_PLACEMENT_3D('',#312,#313,#314);
#317=CARTESIAN_POINT('',(2.95E1,6.1E1,-9.017157287525E1));
#318=DIRECTION('',(0.E0,-1.E0,0.E0));
#319=DIRECTION('',(0.E0,0.E0,-1.E0));
#320=AXIS2_PLACEMENT_3D('',#317,#318,#319);
#322=DIRECTION('',(0.E0,-1.E0,0.E0));
#323=VECTOR('',#322,2.E0);
#324=CARTESIAN_POINT('',(6.3E1,6.3E1,-7.3E1));
#325=LINE('',#324,#323);
#326=DIRECTION('',(0.E0,0.E0,-1.E0));
#327=VECTOR('',#326,2.102943725152E1);
#328=CARTESIAN_POINT('',(1.55E1,6.3E1,-7.3E1));
#329=LINE('',#328,#327);
#330=DIRECTION('',(-1.E0,0.E0,0.E0));
#331=VECTOR('',#330,4.75E1);
#332=CARTESIAN_POINT('',(6.3E1,6.3E1,-7.3E1));
#333=LINE('',#332,#331);
#334=CARTESIAN_POINT('',(2.15E1,6.3E1,-9.017157287525E1));
#335=DIRECTION('',(0.E0,1.E0,0.E0));
#336=DIRECTION('',(0.E0,0.E0,1.E0));
#337=AXIS2_PLACEMENT_3D('',#334,#335,#336);
#339=CARTESIAN_POINT('',(2.15E1,6.3E1,-9.017157287525E1));
#340=DIRECTION('',(0.E0,1.E0,0.E0));
#341=DIRECTION('',(0.E0,0.E0,-1.E0));
#342=AXIS2_PLACEMENT_3D('',#339,#340,#341);
#344=CARTESIAN_POINT('',(2.95E1,6.3E1,-9.017157287525E1));
#345=DIRECTION('',(0.E0,1.E0,0.E0));
#346=DIRECTION('',(0.E0,0.E0,1.E0));
#347=AXIS2_PLACEMENT_3D('',#344,#345,#346);
#349=CARTESIAN_POINT('',(2.95E1,6.3E1,-9.017157287525E1));
#350=DIRECTION('',(0.E0,1.E0,0.E0));
#351=DIRECTION('',(0.E0,0.E0,-1.E0));
#352=AXIS2_PLACEMENT_3D('',#349,#350,#351);
#354=DIRECTION('',(1.E0,2.573810170840E-12,3.134764962229E-12));
#355=VECTOR('',#354,4.75E1);
#356=CARTESIAN_POINT('',(1.55E1,5.948528137416E1,-1.025147186259E2));
#357=LINE('',#356,#355);
#358=DIRECTION('',(-1.E0,0.E0,0.E0));
#359=VECTOR('',#358,4.75E1);
#360=CARTESIAN_POINT('',(6.3E1,6.3E1,-9.402943725152E1));
#361=LINE('',#360,#359);
#362=DIRECTION('',(1.E0,0.E0,0.E0));
#363=VECTOR('',#362,4.75E1);
#364=CARTESIAN_POINT('',(1.55E1,3.002943725152E1,-1.27E2));
#365=LINE('',#364,#363);
#366=DIRECTION('',(-1.E0,3.135363314007E-12,2.573810170840E-12));
#367=VECTOR('',#366,4.75E1);
#368=CARTESIAN_POINT('',(6.3E1,3.851471862570E1,-1.234852813743E2));
#369=LINE('',#368,#367);
#370=CARTESIAN_POINT('',(2.15E1,6.124E1,-9.017157287525E1));
#371=DIRECTION('',(0.E0,1.E0,0.E0));
#372=DIRECTION('',(0.E0,0.E0,1.E0));
#373=AXIS2_PLACEMENT_3D('',#370,#371,#372);
#375=DIRECTION('',(0.E0,-7.071067811865E-1,-7.071067811866E-1));
#376=VECTOR('',#375,2.489015869777E0);
#377=CARTESIAN_POINT('',(2.15E1,6.3E1,-8.681157287525E1));
#378=LINE('',#377,#376);
#379=DIRECTION('',(0.E0,1.E0,0.E0));
#380=VECTOR('',#379,2.4E-1);
#381=CARTESIAN_POINT('',(2.15E1,6.1E1,-9.177157287525E1));
#382=LINE('',#381,#380);
#383=DIRECTION('',(0.E0,1.E0,0.E0));
#384=VECTOR('',#383,2.4E-1);
#385=CARTESIAN_POINT('',(2.15E1,6.1E1,-8.857157287525E1));
#386=LINE('',#385,#384);
#387=CARTESIAN_POINT('',(2.15E1,6.124E1,-9.017157287525E1));
#388=DIRECTION('',(0.E0,1.E0,0.E0));
#389=DIRECTION('',(0.E0,0.E0,-1.E0));
#390=AXIS2_PLACEMENT_3D('',#387,#388,#389);
#392=DIRECTION('',(0.E0,-7.071067811865E-1,7.071067811865E-1));
#393=VECTOR('',#392,2.489015869777E0);
#394=CARTESIAN_POINT('',(2.15E1,6.3E1,-9.353157287525E1));
#395=LINE('',#394,#393);
#396=CARTESIAN_POINT('',(2.95E1,6.124E1,-9.017157287525E1));
#397=DIRECTION('',(0.E0,1.E0,0.E0));
#398=DIRECTION('',(0.E0,0.E0,1.E0));
#399=AXIS2_PLACEMENT_3D('',#396,#397,#398);
#401=DIRECTION('',(0.E0,-7.071067811865E-1,-7.071067811866E-1));
#402=VECTOR('',#401,2.489015869777E0);
#403=CARTESIAN_POINT('',(2.95E1,6.3E1,-8.681157287525E1));
#404=LINE('',#403,#402);
#405=DIRECTION('',(0.E0,1.E0,0.E0));
#406=VECTOR('',#405,2.4E-1);
#407=CARTESIAN_POINT('',(2.95E1,6.1E1,-9.177157287525E1));
#408=LINE('',#407,#406);
#409=DIRECTION('',(0.E0,1.E0,0.E0));
#410=VECTOR('',#409,2.4E-1);
#411=CARTESIAN_POINT('',(2.95E1,6.1E1,-8.857157287525E1));
#412=LINE('',#411,#410);
#413=CARTESIAN_POINT('',(2.95E1,6.124E1,-9.017157287525E1));
#414=DIRECTION('',(0.E0,1.E0,0.E0));
#415=DIRECTION('',(0.E0,0.E0,-1.E0));
#416=AXIS2_PLACEMENT_3D('',#413,#414,#415);
#418=DIRECTION('',(0.E0,-7.071067811865E-1,7.071067811865E-1));
#419=VECTOR('',#418,2.489015869777E0);
#420=CARTESIAN_POINT('',(2.95E1,6.3E1,-9.353157287525E1));
#421=LINE('',#420,#419);
#422=DIRECTION('',(1.E0,0.E0,0.E0));
#423=VECTOR('',#422,4.75E1);
#424=CARTESIAN_POINT('',(1.55E1,-3.417157287525E1,-1.25E2));
#425=LINE('',#424,#423);
#426=CARTESIAN_POINT('',(2.95E1,-6.124E1,-9.017157287525E1));
#427=DIRECTION('',(0.E0,-1.E0,0.E0));
#428=DIRECTION('',(0.E0,0.E0,-1.E0));
#429=AXIS2_PLACEMENT_3D('',#426,#427,#428);
#431=DIRECTION('',(0.E0,7.071067811865E-1,7.071067811865E-1));
#432=VECTOR('',#431,2.489015869777E0);
#433=CARTESIAN_POINT('',(2.95E1,-6.3E1,-9.353157287525E1));
#434=LINE('',#433,#432);
#435=DIRECTION('',(0.E0,-1.E0,0.E0));
#436=VECTOR('',#435,2.4E-1);
#437=CARTESIAN_POINT('',(2.95E1,-6.1E1,-8.857157287525E1));
#438=LINE('',#437,#436);
#439=DIRECTION('',(0.E0,-1.E0,0.E0));
#440=VECTOR('',#439,2.4E-1);
#441=CARTESIAN_POINT('',(2.95E1,-6.1E1,-9.177157287525E1));
#442=LINE('',#441,#440);
#443=CARTESIAN_POINT('',(2.95E1,-6.124E1,-9.017157287525E1));
#444=DIRECTION('',(0.E0,-1.E0,0.E0));
#445=DIRECTION('',(0.E0,0.E0,1.E0));
#446=AXIS2_PLACEMENT_3D('',#443,#444,#445);
#448=DIRECTION('',(0.E0,7.071067811865E-1,-7.071067811866E-1));
#449=VECTOR('',#448,2.489015869777E0);
#450=CARTESIAN_POINT('',(2.95E1,-6.3E1,-8.681157287525E1));
#451=LINE('',#450,#449);
#452=CARTESIAN_POINT('',(2.15E1,-6.124E1,-9.017157287525E1));
#453=DIRECTION('',(0.E0,-1.E0,0.E0));
#454=DIRECTION('',(0.E0,0.E0,-1.E0));
#455=AXIS2_PLACEMENT_3D('',#452,#453,#454);
#457=DIRECTION('',(0.E0,7.071067811865E-1,7.071067811865E-1));
#458=VECTOR('',#457,2.489015869777E0);
#459=CARTESIAN_POINT('',(2.15E1,-6.3E1,-9.353157287525E1));
#460=LINE('',#459,#458);
#461=DIRECTION('',(0.E0,-1.E0,0.E0));
#462=VECTOR('',#461,2.4E-1);
#463=CARTESIAN_POINT('',(2.15E1,-6.1E1,-8.857157287525E1));
#464=LINE('',#463,#462);
#465=DIRECTION('',(0.E0,-1.E0,0.E0));
#466=VECTOR('',#465,2.4E-1);
#467=CARTESIAN_POINT('',(2.15E1,-6.1E1,-9.177157287525E1));
#468=LINE('',#467,#466);
#469=CARTESIAN_POINT('',(2.15E1,-6.124E1,-9.017157287525E1));
#470=DIRECTION('',(0.E0,-1.E0,0.E0));
#471=DIRECTION('',(0.E0,0.E0,1.E0));
#472=AXIS2_PLACEMENT_3D('',#469,#470,#471);
#474=DIRECTION('',(0.E0,7.071067811865E-1,-7.071067811866E-1));
#475=VECTOR('',#474,2.489015869777E0);
#476=CARTESIAN_POINT('',(2.15E1,-6.3E1,-8.681157287525E1));
#477=LINE('',#476,#475);
#478=DIRECTION('',(-3.187169013339E-9,1.457663629265E-4,-9.999999893761E-1));
#479=VECTOR('',#478,2.400000025497E-1);
#480=CARTESIAN_POINT('',(2.31E1,-2.717157287525E1,-1.25E2));
#481=LINE('',#480,#479);
#482=CARTESIAN_POINT('',(2.15E1,-2.717157287525E1,-1.2524E2));
#483=DIRECTION('',(0.E0,0.E0,-1.E0));
#484=DIRECTION('',(-1.E0,0.E0,0.E0));
#485=AXIS2_PLACEMENT_3D('',#482,#483,#484);
#487=DIRECTION('',(7.071067811865E-1,0.E0,7.071067811865E-1));
#488=VECTOR('',#487,2.489015869777E0);
#489=CARTESIAN_POINT('',(1.814E1,-2.717157287525E1,-1.27E2));
#490=LINE('',#489,#488);
#491=CARTESIAN_POINT('',(2.15E1,-2.717157287525E1,-1.2524E2));
#492=DIRECTION('',(0.E0,0.E0,-1.E0));
#493=DIRECTION('',(1.E0,0.E0,0.E0));
#494=AXIS2_PLACEMENT_3D('',#491,#492,#493);
#496=CARTESIAN_POINT('',(1.973302201297E1,-3.002943725155E1,-1.27E2));
#497=CARTESIAN_POINT('',(1.993666358670E1,-3.015534601790E1,-1.27E2));
#498=CARTESIAN_POINT('',(2.036621223390E1,-3.035982242711E1,-1.269961991363E2));
#499=CARTESIAN_POINT('',(2.111448589435E1,-3.052783450991E1,-1.269896957333E2));
#500=CARTESIAN_POINT('',(2.186584416454E1,-3.053016864280E1,-1.269895871367E2));
#501=CARTESIAN_POINT('',(2.262140542921E1,-3.036471923175E1,-1.269960567510E2));
#502=CARTESIAN_POINT('',(2.305894537426E1,-3.015806093653E1,-1.27E2));
#503=CARTESIAN_POINT('',(2.326697798693E1,-3.002943725161E1,-1.27E2));
#505=DIRECTION('',(-7.071096886581E-1,-7.082616850960E-5,7.071038701559E-1));
#506=VECTOR('',#505,2.489026116647E0);
#507=CARTESIAN_POINT('',(2.486001448164E1,-2.717136160314E1,-1.27E2));
#508=LINE('',#507,#506);
#509=DIRECTION('',(1.480297366167E-14,-1.480297366167E-14,-1.E0));
#510=VECTOR('',#509,2.4E-1);
#511=CARTESIAN_POINT('',(1.99E1,-2.717157287525E1,-1.25E2));
#512=LINE('',#511,#510);
#513=CARTESIAN_POINT('',(2.773302201297E1,-3.002943725156E1,-1.27E2));
#514=CARTESIAN_POINT('',(2.326697798693E1,-3.002943725161E1,-1.27E2));
#515=VERTEX_POINT('',#513);
#516=VERTEX_POINT('',#514);
#517=VERTEX_POINT('',#496);
#518=CARTESIAN_POINT('',(1.55E1,-3.002943725152E1,-1.27E2));
#519=VERTEX_POINT('',#518);
#520=CARTESIAN_POINT('',(1.55E1,-3.851471862557E1,-1.234852813744E2));
#521=VERTEX_POINT('',#520);
#522=CARTESIAN_POINT('',(6.3E1,-3.851471862585E1,-1.234852813742E2));
#523=VERTEX_POINT('',#522);
#524=CARTESIAN_POINT('',(6.3E1,-3.002943725152E1,-1.27E2));
#525=VERTEX_POINT('',#524);
#526=CARTESIAN_POINT('',(3.126697798693E1,-3.002943725161E1,-1.27E2));
#527=VERTEX_POINT('',#526);
#528=CARTESIAN_POINT('',(2.614E1,-2.717157287525E1,-1.27E2));
#529=CARTESIAN_POINT('',(3.285999998280E1,-2.717123292831E1,-1.27E2));
#530=VERTEX_POINT('',#528);
#531=VERTEX_POINT('',#529);
#532=CARTESIAN_POINT('',(6.3E1,3.002943725152E1,-1.27E2));
#533=VERTEX_POINT('',#532);
#534=CARTESIAN_POINT('',(1.55E1,3.002943725152E1,-1.27E2));
#535=VERTEX_POINT('',#534);
#536=CARTESIAN_POINT('',(1.814E1,-2.717157287525E1,-1.27E2));
#537=VERTEX_POINT('',#536);
#538=CARTESIAN_POINT('',(2.485999998280E1,-2.717123292831E1,-1.27E2));
#539=VERTEX_POINT('',#538);
#540=CARTESIAN_POINT('',(2.79E1,-2.717157287525E1,-1.2524E2));
#541=CARTESIAN_POINT('',(3.11E1,-2.717157287525E1,-1.2524E2));
#542=VERTEX_POINT('',#540);
#543=VERTEX_POINT('',#541);
#544=CARTESIAN_POINT('',(2.79E1,-2.717157287525E1,-1.25E2));
#545=VERTEX_POINT('',#544);
#546=CARTESIAN_POINT('',(3.11E1,-2.717157287525E1,-1.25E2));
#547=VERTEX_POINT('',#546);
#548=CARTESIAN_POINT('',(6.3E1,-3.417157287525E1,-1.25E2));
#549=CARTESIAN_POINT('',(6.3E1,3.417157287525E1,-1.25E2));
#550=VERTEX_POINT('',#548);
#551=VERTEX_POINT('',#549);
#552=CARTESIAN_POINT('',(1.55E1,-3.417157287525E1,-1.25E2));
#553=VERTEX_POINT('',#552);
#554=CARTESIAN_POINT('',(1.55E1,3.417157287525E1,-1.25E2));
#555=VERTEX_POINT('',#554);
#556=CARTESIAN_POINT('',(2.31E1,-2.717157287525E1,-1.25E2));
#557=CARTESIAN_POINT('',(1.99E1,-2.717157287525E1,-1.25E2));
#558=VERTEX_POINT('',#556);
#559=VERTEX_POINT('',#557);
#560=CARTESIAN_POINT('',(1.99E1,-2.717157287525E1,-1.2524E2));
#561=CARTESIAN_POINT('',(2.31E1,-2.717157287525E1,-1.2524E2));
#562=VERTEX_POINT('',#560);
#563=VERTEX_POINT('',#561);
#564=CARTESIAN_POINT('',(6.3E1,-6.1E1,-7.3E1));
#565=CARTESIAN_POINT('',(6.3E1,-6.1E1,-9.817157287525E1));
#566=VERTEX_POINT('',#564);
#567=VERTEX_POINT('',#565);
#568=CARTESIAN_POINT('',(6.3E1,6.1E1,-9.817157287525E1));
#569=VERTEX_POINT('',#568);
#570=CARTESIAN_POINT('',(6.3E1,6.1E1,-7.3E1));
#571=VERTEX_POINT('',#570);
#572=CARTESIAN_POINT('',(6.3E1,6.3E1,-7.3E1));
#573=VERTEX_POINT('',#572);
#574=CARTESIAN_POINT('',(6.3E1,6.3E1,-9.402943725152E1));
#575=VERTEX_POINT('',#574);
#576=CARTESIAN_POINT('',(6.3E1,5.948528137443E1,-1.025147186256E2));
#577=VERTEX_POINT('',#576);
#578=CARTESIAN_POINT('',(6.3E1,3.851471862570E1,-1.234852813743E2));
#579=VERTEX_POINT('',#578);
#580=CARTESIAN_POINT('',(6.3E1,-5.948528137416E1,-1.025147186259E2));
#581=VERTEX_POINT('',#580);
#582=CARTESIAN_POINT('',(6.3E1,-6.3E1,-9.402943725152E1));
#583=VERTEX_POINT('',#582);
#584=CARTESIAN_POINT('',(6.3E1,-6.3E1,-7.3E1));
#585=VERTEX_POINT('',#584);
#586=CARTESIAN_POINT('',(1.55E1,-6.1E1,-7.3E1));
#587=VERTEX_POINT('',#586);
#588=CARTESIAN_POINT('',(1.55E1,-6.1E1,-9.817157287525E1));
#589=VERTEX_POINT('',#588);
#590=CARTESIAN_POINT('',(2.95E1,-6.1E1,-8.857157287525E1));
#591=CARTESIAN_POINT('',(2.95E1,-6.1E1,-9.177157287525E1));
#592=VERTEX_POINT('',#590);
#593=VERTEX_POINT('',#591);
#594=CARTESIAN_POINT('',(2.15E1,-6.1E1,-8.857157287525E1));
#595=CARTESIAN_POINT('',(2.15E1,-6.1E1,-9.177157287525E1));
#596=VERTEX_POINT('',#594);
#597=VERTEX_POINT('',#595);
#598=CARTESIAN_POINT('',(2.15E1,-6.124E1,-9.177157287525E1));
#599=CARTESIAN_POINT('',(2.15E1,-6.124E1,-8.857157287525E1));
#600=VERTEX_POINT('',#598);
#601=VERTEX_POINT('',#599);
#602=CARTESIAN_POINT('',(2.15E1,-6.3E1,-8.681157287525E1));
#603=VERTEX_POINT('',#602);
#604=CARTESIAN_POINT('',(2.15E1,-6.3E1,-9.353157287525E1));
#605=VERTEX_POINT('',#604);
#606=CARTESIAN_POINT('',(1.55E1,-6.3E1,-7.3E1));
#607=VERTEX_POINT('',#606);
#608=CARTESIAN_POINT('',(1.55E1,-6.3E1,-9.402943725152E1));
#609=VERTEX_POINT('',#608);
#610=CARTESIAN_POINT('',(2.95E1,-6.3E1,-9.353157287525E1));
#611=CARTESIAN_POINT('',(2.95E1,-6.3E1,-8.681157287525E1));
#612=VERTEX_POINT('',#610);
#613=VERTEX_POINT('',#611);
#614=CARTESIAN_POINT('',(2.95E1,-6.124E1,-9.177157287525E1));
#615=CARTESIAN_POINT('',(2.95E1,-6.124E1,-8.857157287525E1));
#616=VERTEX_POINT('',#614);
#617=VERTEX_POINT('',#615);
#618=CARTESIAN_POINT('',(1.55E1,6.1E1,-9.817157287525E1));
#619=VERTEX_POINT('',#618);
#620=CARTESIAN_POINT('',(1.55E1,-5.948528137443E1,-1.025147186256E2));
#621=VERTEX_POINT('',#620);
#622=CARTESIAN_POINT('',(1.55E1,3.851471862598E1,-1.234852813740E2));
#623=VERTEX_POINT('',#622);
#624=CARTESIAN_POINT('',(1.55E1,5.948528137416E1,-1.025147186259E2));
#625=VERTEX_POINT('',#624);
#626=CARTESIAN_POINT('',(1.55E1,6.3E1,-9.402943725152E1));
#627=VERTEX_POINT('',#626);
#628=CARTESIAN_POINT('',(1.55E1,6.3E1,-7.3E1));
#629=VERTEX_POINT('',#628);
#630=CARTESIAN_POINT('',(1.55E1,6.1E1,-7.3E1));
#631=VERTEX_POINT('',#630);
#632=CARTESIAN_POINT('',(2.15E1,6.1E1,-8.857157287525E1));
#633=CARTESIAN_POINT('',(2.15E1,6.1E1,-9.177157287525E1));
#634=VERTEX_POINT('',#632);
#635=VERTEX_POINT('',#633);
#636=CARTESIAN_POINT('',(2.95E1,6.1E1,-8.857157287525E1));
#637=CARTESIAN_POINT('',(2.95E1,6.1E1,-9.177157287525E1));
#638=VERTEX_POINT('',#636);
#639=VERTEX_POINT('',#637);
#640=CARTESIAN_POINT('',(2.95E1,6.124E1,-8.857157287525E1));
#641=VERTEX_POINT('',#640);
#642=CARTESIAN_POINT('',(2.95E1,6.124E1,-9.177157287525E1));
#643=VERTEX_POINT('',#642);
#644=CARTESIAN_POINT('',(2.95E1,6.3E1,-9.353157287525E1));
#645=VERTEX_POINT('',#644);
#646=CARTESIAN_POINT('',(2.95E1,6.3E1,-8.681157287525E1));
#647=VERTEX_POINT('',#646);
#648=CARTESIAN_POINT('',(2.15E1,6.3E1,-8.681157287525E1));
#649=CARTESIAN_POINT('',(2.15E1,6.3E1,-9.353157287525E1));
#650=VERTEX_POINT('',#648);
#651=VERTEX_POINT('',#649);
#652=CARTESIAN_POINT('',(2.15E1,6.124E1,-8.857157287525E1));
#653=CARTESIAN_POINT('',(2.15E1,6.124E1,-9.177157287525E1));
#654=VERTEX_POINT('',#652);
#655=VERTEX_POINT('',#653);
#656=CARTESIAN_POINT('',(6.3002E1,-3.002943725152E1,-1.15E2));
#657=DIRECTION('',(1.E0,0.E0,0.E0));
#658=DIRECTION('',(0.E0,0.E0,-1.E0));
#659=AXIS2_PLACEMENT_3D('',#656,#657,#658);
#660=CYLINDRICAL_SURFACE('',#659,1.2E1);
#662=ORIENTED_EDGE('',*,*,#661,.T.);
#664=ORIENTED_EDGE('',*,*,#663,.F.);
#666=ORIENTED_EDGE('',*,*,#665,.T.);
#668=ORIENTED_EDGE('',*,*,#667,.F.);
#670=ORIENTED_EDGE('',*,*,#669,.T.);
#672=ORIENTED_EDGE('',*,*,#671,.F.);
#674=ORIENTED_EDGE('',*,*,#673,.T.);
#676=ORIENTED_EDGE('',*,*,#675,.F.);
#677=EDGE_LOOP('',(#662,#664,#666,#668,#670,#672,#674,#676));
#678=FACE_OUTER_BOUND('',#677,.F.);
#679=ADVANCED_FACE('',(#678),#660,.T.);
#680=CARTESIAN_POINT('',(6.3002E1,-3.15E1,-1.27E2));
#681=DIRECTION('',(0.E0,0.E0,1.E0));
#682=DIRECTION('',(1.E0,0.E0,0.E0));
#683=AXIS2_PLACEMENT_3D('',#680,#681,#682);
#684=PLANE('',#683);
#686=ORIENTED_EDGE('',*,*,#685,.T.);
#688=ORIENTED_EDGE('',*,*,#687,.T.);
#689=ORIENTED_EDGE('',*,*,#673,.F.);
#691=ORIENTED_EDGE('',*,*,#690,.T.);
#693=ORIENTED_EDGE('',*,*,#692,.F.);
#695=ORIENTED_EDGE('',*,*,#694,.T.);
#696=ORIENTED_EDGE('',*,*,#665,.F.);
#698=ORIENTED_EDGE('',*,*,#697,.T.);
#700=ORIENTED_EDGE('',*,*,#699,.T.);
#702=ORIENTED_EDGE('',*,*,#701,.T.);
#703=ORIENTED_EDGE('',*,*,#661,.F.);
#705=ORIENTED_EDGE('',*,*,#704,.T.);
#706=EDGE_LOOP('',(#686,#688,#689,#691,#693,#695,#696,#698,#700,#702,#703,
#705));
#707=FACE_OUTER_BOUND('',#706,.F.);
#708=ADVANCED_FACE('',(#707),#684,.F.);
#709=CARTESIAN_POINT('',(2.95E1,-2.717157287525E1,-1.2612E2));
#710=DIRECTION('',(0.E0,0.E0,-1.E0));
#711=DIRECTION('',(-1.E0,0.E0,0.E0));
#712=AXIS2_PLACEMENT_3D('',#709,#710,#711);
#713=CONICAL_SURFACE('',#712,2.48E0,4.5E1);
#715=ORIENTED_EDGE('',*,*,#714,.T.);
#717=ORIENTED_EDGE('',*,*,#716,.F.);
#718=ORIENTED_EDGE('',*,*,#685,.F.);
#720=ORIENTED_EDGE('',*,*,#719,.T.);
#721=EDGE_LOOP('',(#715,#717,#718,#720));
#722=FACE_OUTER_BOUND('',#721,.F.);
#723=ADVANCED_FACE('',(#722),#713,.F.);
#724=CARTESIAN_POINT('',(2.95E1,-2.717157287525E1,-1.27E2));
#725=DIRECTION('',(0.E0,0.E0,1.E0));
#726=DIRECTION('',(1.E0,0.E0,0.E0));
#727=AXIS2_PLACEMENT_3D('',#724,#725,#726);
#728=CYLINDRICAL_SURFACE('',#727,1.6E0);
#729=ORIENTED_EDGE('',*,*,#714,.F.);
#731=ORIENTED_EDGE('',*,*,#730,.F.);
#733=ORIENTED_EDGE('',*,*,#732,.F.);
#735=ORIENTED_EDGE('',*,*,#734,.T.);
#736=EDGE_LOOP('',(#729,#731,#733,#735));
#737=FACE_OUTER_BOUND('',#736,.F.);
#738=ADVANCED_FACE('',(#737),#728,.F.);
#739=CARTESIAN_POINT('',(2.95E1,-2.717157287525E1,-1.27E2));
#740=DIRECTION('',(0.E0,0.E0,1.E0));
#741=DIRECTION('',(1.E0,0.E0,0.E0));
#742=AXIS2_PLACEMENT_3D('',#739,#740,#741);
#743=CYLINDRICAL_SURFACE('',#742,1.6E0);
#745=ORIENTED_EDGE('',*,*,#744,.F.);
#746=ORIENTED_EDGE('',*,*,#734,.F.);
#748=ORIENTED_EDGE('',*,*,#747,.F.);
#749=ORIENTED_EDGE('',*,*,#730,.T.);
#750=EDGE_LOOP('',(#745,#746,#748,#749));
#751=FACE_OUTER_BOUND('',#750,.F.);
#752=ADVANCED_FACE('',(#751),#743,.F.);
#753=CARTESIAN_POINT('',(2.95E1,-2.717157287525E1,-1.2612E2));
#754=DIRECTION('',(0.E0,0.E0,-1.E0));
#755=DIRECTION('',(-1.E0,0.E0,0.E0));
#756=AXIS2_PLACEMENT_3D('',#753,#754,#755);
#757=CONICAL_SURFACE('',#756,2.48E0,4.5E1);
#758=ORIENTED_EDGE('',*,*,#744,.T.);
#759=ORIENTED_EDGE('',*,*,#719,.F.);
#760=ORIENTED_EDGE('',*,*,#704,.F.);
#761=ORIENTED_EDGE('',*,*,#675,.T.);
#762=ORIENTED_EDGE('',*,*,#687,.F.);
#763=ORIENTED_EDGE('',*,*,#716,.T.);
#764=EDGE_LOOP('',(#758,#759,#760,#761,#762,#763));
#765=FACE_OUTER_BOUND('',#764,.F.);
#766=ADVANCED_FACE('',(#765),#757,.F.);
#767=CARTESIAN_POINT('',(1.5498E1,0.E0,-1.25E2));
#768=DIRECTION('',(0.E0,0.E0,-1.E0));
#769=DIRECTION('',(-1.E0,0.E0,0.E0));
#770=AXIS2_PLACEMENT_3D('',#767,#768,#769);
#771=PLANE('',#770);
#773=ORIENTED_EDGE('',*,*,#772,.F.);
#775=ORIENTED_EDGE('',*,*,#774,.F.);
#777=ORIENTED_EDGE('',*,*,#776,.F.);
#779=ORIENTED_EDGE('',*,*,#778,.T.);
#780=EDGE_LOOP('',(#773,#775,#777,#779));
#781=FACE_OUTER_BOUND('',#780,.F.);
#783=ORIENTED_EDGE('',*,*,#782,.T.);
#785=ORIENTED_EDGE('',*,*,#784,.T.);
#786=EDGE_LOOP('',(#783,#785));
#787=FACE_BOUND('',#786,.F.);
#788=ORIENTED_EDGE('',*,*,#732,.T.);
#789=ORIENTED_EDGE('',*,*,#747,.T.);
#790=EDGE_LOOP('',(#788,#789));
#791=FACE_BOUND('',#790,.F.);
#792=ADVANCED_FACE('',(#781,#787,#791),#771,.F.);
#793=CARTESIAN_POINT('',(6.3E1,0.E0,-6.4E1));
#794=DIRECTION('',(1.E0,0.E0,0.E0));
#795=DIRECTION('',(0.E0,1.E0,0.E0));
#796=AXIS2_PLACEMENT_3D('',#793,#794,#795);
#797=PLANE('',#796);
#799=ORIENTED_EDGE('',*,*,#798,.T.);
#801=ORIENTED_EDGE('',*,*,#800,.T.);
#802=ORIENTED_EDGE('',*,*,#772,.T.);
#804=ORIENTED_EDGE('',*,*,#803,.T.);
#806=ORIENTED_EDGE('',*,*,#805,.F.);
#808=ORIENTED_EDGE('',*,*,#807,.F.);
#810=ORIENTED_EDGE('',*,*,#809,.T.);
#812=ORIENTED_EDGE('',*,*,#811,.T.);
#814=ORIENTED_EDGE('',*,*,#813,.T.);
#816=ORIENTED_EDGE('',*,*,#815,.T.);
#817=ORIENTED_EDGE('',*,*,#690,.F.);
#818=ORIENTED_EDGE('',*,*,#671,.T.);
#820=ORIENTED_EDGE('',*,*,#819,.T.);
#822=ORIENTED_EDGE('',*,*,#821,.T.);
#824=ORIENTED_EDGE('',*,*,#823,.F.);
#826=ORIENTED_EDGE('',*,*,#825,.F.);
#827=EDGE_LOOP('',(#799,#801,#802,#804,#806,#808,#810,#812,#814,#816,#817,#818,
#820,#822,#824,#826));
#828=FACE_OUTER_BOUND('',#827,.F.);
#829=ADVANCED_FACE('',(#828),#797,.T.);
#830=CARTESIAN_POINT('',(1.5498E1,-6.1E1,-8.558578643763E1));
#831=DIRECTION('',(0.E0,-1.E0,0.E0));
#832=DIRECTION('',(0.E0,0.E0,-1.E0));
#833=AXIS2_PLACEMENT_3D('',#830,#831,#832);
#834=PLANE('',#833);
#836=ORIENTED_EDGE('',*,*,#835,.F.);
#838=ORIENTED_EDGE('',*,*,#837,.F.);
#840=ORIENTED_EDGE('',*,*,#839,.T.);
#841=ORIENTED_EDGE('',*,*,#798,.F.);
#842=EDGE_LOOP('',(#836,#838,#840,#841));
#843=FACE_OUTER_BOUND('',#842,.F.);
#845=ORIENTED_EDGE('',*,*,#844,.T.);
#847=ORIENTED_EDGE('',*,*,#846,.T.);
#848=EDGE_LOOP('',(#845,#847));
#849=FACE_BOUND('',#848,.F.);
#851=ORIENTED_EDGE('',*,*,#850,.T.);
#853=ORIENTED_EDGE('',*,*,#852,.T.);
#854=EDGE_LOOP('',(#851,#853));
#855=FACE_BOUND('',#854,.F.);
#856=ADVANCED_FACE('',(#843,#849,#855),#834,.F.);
#857=CARTESIAN_POINT('',(1.621471783578E1,6.3002E1,-7.3E1));
#858=DIRECTION('',(0.E0,0.E0,1.E0));
#859=DIRECTION('',(1.E0,0.E0,0.E0));
#860=AXIS2_PLACEMENT_3D('',#857,#858,#859);
#861=PLANE('',#860);
#862=ORIENTED_EDGE('',*,*,#835,.T.);
#863=ORIENTED_EDGE('',*,*,#825,.T.);
#865=ORIENTED_EDGE('',*,*,#864,.T.);
#867=ORIENTED_EDGE('',*,*,#866,.F.);
#868=EDGE_LOOP('',(#862,#863,#865,#867));
#869=FACE_OUTER_BOUND('',#868,.F.);
#870=ADVANCED_FACE('',(#869),#861,.T.);
#871=CARTESIAN_POINT('',(6.3002E1,-6.3E1,-8.85E1));
#872=DIRECTION('',(0.E0,1.E0,0.E0));
#873=DIRECTION('',(0.E0,0.E0,1.E0));
#874=AXIS2_PLACEMENT_3D('',#871,#872,#873);
#875=PLANE('',#874);
#876=ORIENTED_EDGE('',*,*,#864,.F.);
#877=ORIENTED_EDGE('',*,*,#823,.T.);
#879=ORIENTED_EDGE('',*,*,#878,.F.);
#881=ORIENTED_EDGE('',*,*,#880,.F.);
#882=EDGE_LOOP('',(#876,#877,#879,#881));
#883=FACE_OUTER_BOUND('',#882,.F.);
#885=ORIENTED_EDGE('',*,*,#884,.T.);
#887=ORIENTED_EDGE('',*,*,#886,.T.);
#888=EDGE_LOOP('',(#885,#887));
#889=FACE_BOUND('',#888,.F.);
#891=ORIENTED_EDGE('',*,*,#890,.T.);
#893=ORIENTED_EDGE('',*,*,#892,.T.);
#894=EDGE_LOOP('',(#891,#893));
#895=FACE_BOUND('',#894,.F.);
#896=ADVANCED_FACE('',(#883,#889,#895),#875,.F.);
#897=CARTESIAN_POINT('',(1.285712569798E3,-5.1E1,-9.402943725152E1));
#898=DIRECTION('',(1.E0,0.E0,0.E0));
#899=DIRECTION('',(0.E0,0.E0,-1.E0));
#900=AXIS2_PLACEMENT_3D('',#897,#898,#899);
#901=CYLINDRICAL_SURFACE('',#900,1.2E1);
#902=ORIENTED_EDGE('',*,*,#878,.T.);
#903=ORIENTED_EDGE('',*,*,#821,.F.);
#905=ORIENTED_EDGE('',*,*,#904,.T.);
#907=ORIENTED_EDGE('',*,*,#906,.F.);
#908=EDGE_LOOP('',(#902,#903,#905,#907));
#909=FACE_OUTER_BOUND('',#908,.F.);
#910=ADVANCED_FACE('',(#909),#901,.T.);
#911=CARTESIAN_POINT('',(1.285712569798E3,-4.9E1,-1.13E2));
#912=DIRECTION('',(0.E0,-7.071067811865E-1,-7.071067811865E-1));
#913=DIRECTION('',(0.E0,7.071067811865E-1,-7.071067811865E-1));
#914=AXIS2_PLACEMENT_3D('',#911,#912,#913);
#915=PLANE('',#914);
#916=ORIENTED_EDGE('',*,*,#904,.F.);
#917=ORIENTED_EDGE('',*,*,#819,.F.);
#918=ORIENTED_EDGE('',*,*,#669,.F.);
#920=ORIENTED_EDGE('',*,*,#919,.F.);
#921=EDGE_LOOP('',(#916,#917,#918,#920));
#922=FACE_OUTER_BOUND('',#921,.F.);
#923=ADVANCED_FACE('',(#922),#915,.T.);
#924=CARTESIAN_POINT('',(1.55E1,6.3002E1,-9.044316747260E1));
#925=DIRECTION('',(-1.E0,0.E0,0.E0));
#926=DIRECTION('',(0.E0,0.E0,1.E0));
#927=AXIS2_PLACEMENT_3D('',#924,#925,#926);
#928=PLANE('',#927);
#930=ORIENTED_EDGE('',*,*,#929,.T.);
#931=ORIENTED_EDGE('',*,*,#776,.T.);
#933=ORIENTED_EDGE('',*,*,#932,.T.);
#934=ORIENTED_EDGE('',*,*,#837,.T.);
#935=ORIENTED_EDGE('',*,*,#866,.T.);
#936=ORIENTED_EDGE('',*,*,#880,.T.);
#937=ORIENTED_EDGE('',*,*,#906,.T.);
#938=ORIENTED_EDGE('',*,*,#919,.T.);
#939=ORIENTED_EDGE('',*,*,#667,.T.);
#940=ORIENTED_EDGE('',*,*,#694,.F.);
#942=ORIENTED_EDGE('',*,*,#941,.T.);
#944=ORIENTED_EDGE('',*,*,#943,.T.);
#946=ORIENTED_EDGE('',*,*,#945,.T.);
#948=ORIENTED_EDGE('',*,*,#947,.F.);
#950=ORIENTED_EDGE('',*,*,#949,.T.);
#952=ORIENTED_EDGE('',*,*,#951,.F.);
#953=EDGE_LOOP('',(#930,#931,#933,#934,#935,#936,#937,#938,#939,#940,#942,#944,
#946,#948,#950,#952));
#954=FACE_OUTER_BOUND('',#953,.F.);
#955=ADVANCED_FACE('',(#954),#928,.T.);
#956=CARTESIAN_POINT('',(1.5498E1,4.758578643763E1,-1.115857864376E2));
#957=DIRECTION('',(0.E0,7.071067811865E-1,-7.071067811865E-1));
#958=DIRECTION('',(0.E0,7.071067811865E-1,7.071067811865E-1));
#959=AXIS2_PLACEMENT_3D('',#956,#957,#958);
#960=PLANE('',#959);
#961=ORIENTED_EDGE('',*,*,#929,.F.);
#963=ORIENTED_EDGE('',*,*,#962,.T.);
#964=ORIENTED_EDGE('',*,*,#803,.F.);
#965=ORIENTED_EDGE('',*,*,#778,.F.);
#966=EDGE_LOOP('',(#961,#963,#964,#965));
#967=FACE_OUTER_BOUND('',#966,.F.);
#968=ADVANCED_FACE('',(#967),#960,.F.);
#969=CARTESIAN_POINT('',(1.5498E1,6.1E1,-8.558578643763E1));
#970=DIRECTION('',(0.E0,-1.E0,0.E0));
#971=DIRECTION('',(0.E0,0.E0,-1.E0));
#972=AXIS2_PLACEMENT_3D('',#969,#970,#971);
#973=PLANE('',#972);
#974=ORIENTED_EDGE('',*,*,#951,.T.);
#976=ORIENTED_EDGE('',*,*,#975,.T.);
#977=ORIENTED_EDGE('',*,*,#805,.T.);
#978=ORIENTED_EDGE('',*,*,#962,.F.);
#979=EDGE_LOOP('',(#974,#976,#977,#978));
#980=FACE_OUTER_BOUND('',#979,.F.);
#982=ORIENTED_EDGE('',*,*,#981,.T.);
#984=ORIENTED_EDGE('',*,*,#983,.T.);
#985=EDGE_LOOP('',(#982,#984));
#986=FACE_BOUND('',#985,.F.);
#988=ORIENTED_EDGE('',*,*,#987,.T.);
#990=ORIENTED_EDGE('',*,*,#989,.T.);
#991=EDGE_LOOP('',(#988,#990));
#992=FACE_BOUND('',#991,.F.);
#993=ADVANCED_FACE('',(#980,#986,#992),#973,.T.);
#994=CARTESIAN_POINT('',(1.621471783578E1,6.3002E1,-7.3E1));
#995=DIRECTION('',(0.E0,0.E0,1.E0));
#996=DIRECTION('',(1.E0,0.E0,0.E0));
#997=AXIS2_PLACEMENT_3D('',#994,#995,#996);
#998=PLANE('',#997);
#999=ORIENTED_EDGE('',*,*,#949,.F.);
#1001=ORIENTED_EDGE('',*,*,#1000,.F.);
#1002=ORIENTED_EDGE('',*,*,#807,.T.);
#1003=ORIENTED_EDGE('',*,*,#975,.F.);
#1004=EDGE_LOOP('',(#999,#1001,#1002,#1003));
#1005=FACE_OUTER_BOUND('',#1004,.F.);
#1006=ADVANCED_FACE('',(#1005),#998,.T.);
#1007=CARTESIAN_POINT('',(6.3002E1,6.3E1,-8.85E1));
#1008=DIRECTION('',(0.E0,1.E0,0.E0));
#1009=DIRECTION('',(0.E0,0.E0,1.E0));
#1010=AXIS2_PLACEMENT_3D('',#1007,#1008,#1009);
#1011=PLANE('',#1010);
#1012=ORIENTED_EDGE('',*,*,#947,.T.);
#1014=ORIENTED_EDGE('',*,*,#1013,.F.);
#1015=ORIENTED_EDGE('',*,*,#809,.F.);
#1016=ORIENTED_EDGE('',*,*,#1000,.T.);
#1017=EDGE_LOOP('',(#1012,#1014,#1015,#1016));
#1018=FACE_OUTER_BOUND('',#1017,.F.);
#1020=ORIENTED_EDGE('',*,*,#1019,.T.);
#1022=ORIENTED_EDGE('',*,*,#1021,.T.);
#1023=EDGE_LOOP('',(#1020,#1022));
#1024=FACE_BOUND('',#1023,.F.);
#1026=ORIENTED_EDGE('',*,*,#1025,.T.);
#1028=ORIENTED_EDGE('',*,*,#1027,.T.);
#1029=EDGE_LOOP('',(#1026,#1028));
#1030=FACE_BOUND('',#1029,.F.);
#1031=ADVANCED_FACE('',(#1018,#1024,#1030),#1011,.T.);
#1032=CARTESIAN_POINT('',(6.3002E1,5.1E1,-9.402943725152E1));
#1033=DIRECTION('',(-1.E0,0.E0,0.E0));
#1034=DIRECTION('',(0.E0,0.E0,1.E0));
#1035=AXIS2_PLACEMENT_3D('',#1032,#1033,#1034);
#1036=CYLINDRICAL_SURFACE('',#1035,1.2E1);
#1038=ORIENTED_EDGE('',*,*,#1037,.T.);
#1039=ORIENTED_EDGE('',*,*,#811,.F.);
#1040=ORIENTED_EDGE('',*,*,#1013,.T.);
#1041=ORIENTED_EDGE('',*,*,#945,.F.);
#1042=EDGE_LOOP('',(#1038,#1039,#1040,#1041));
#1043=FACE_OUTER_BOUND('',#1042,.F.);
#1044=ADVANCED_FACE('',(#1043),#1036,.T.);
#1045=CARTESIAN_POINT('',(1.285712569798E3,4.9E1,-1.13E2));
#1046=DIRECTION('',(0.E0,7.071067811865E-1,-7.071067811865E-1));
#1047=DIRECTION('',(0.E0,7.071067811865E-1,7.071067811865E-1));
#1048=AXIS2_PLACEMENT_3D('',#1045,#1046,#1047);
#1049=PLANE('',#1048);
#1051=ORIENTED_EDGE('',*,*,#1050,.F.);
#1052=ORIENTED_EDGE('',*,*,#813,.F.);
#1053=ORIENTED_EDGE('',*,*,#1037,.F.);
#1054=ORIENTED_EDGE('',*,*,#943,.F.);
#1055=EDGE_LOOP('',(#1051,#1052,#1053,#1054));
#1056=FACE_OUTER_BOUND('',#1055,.F.);
#1057=ADVANCED_FACE('',(#1056),#1049,.T.);
#1058=CARTESIAN_POINT('',(1.285712569798E3,3.002943725152E1,-1.15E2));
#1059=DIRECTION('',(1.E0,0.E0,0.E0));
#1060=DIRECTION('',(0.E0,0.E0,-1.E0));
#1061=AXIS2_PLACEMENT_3D('',#1058,#1059,#1060);
#1062=CYLINDRICAL_SURFACE('',#1061,1.2E1);
#1063=ORIENTED_EDGE('',*,*,#692,.T.);
#1064=ORIENTED_EDGE('',*,*,#815,.F.);
#1065=ORIENTED_EDGE('',*,*,#1050,.T.);
#1066=ORIENTED_EDGE('',*,*,#941,.F.);
#1067=EDGE_LOOP('',(#1063,#1064,#1065,#1066));
#1068=FACE_OUTER_BOUND('',#1067,.F.);
#1069=ADVANCED_FACE('',(#1068),#1062,.T.);
#1070=CARTESIAN_POINT('',(2.15E1,6.212E1,-9.017157287525E1));
#1071=DIRECTION('',(0.E0,1.E0,0.E0));
#1072=DIRECTION('',(0.E0,0.E0,1.E0));
#1073=AXIS2_PLACEMENT_3D('',#1070,#1071,#1072);
#1074=CONICAL_SURFACE('',#1073,2.48E0,4.5E1);
#1076=ORIENTED_EDGE('',*,*,#1075,.T.);
#1078=ORIENTED_EDGE('',*,*,#1077,.F.);
#1079=ORIENTED_EDGE('',*,*,#1019,.F.);
#1081=ORIENTED_EDGE('',*,*,#1080,.T.);
#1082=EDGE_LOOP('',(#1076,#1078,#1079,#1081));
#1083=FACE_OUTER_BOUND('',#1082,.F.);
#1084=ADVANCED_FACE('',(#1083),#1074,.F.);
#1085=CARTESIAN_POINT('',(2.15E1,6.3E1,-9.017157287525E1));
#1086=DIRECTION('',(0.E0,-1.E0,0.E0));
#1087=DIRECTION('',(0.E0,0.E0,-1.E0));
#1088=AXIS2_PLACEMENT_3D('',#1085,#1086,#1087);
#1089=CYLINDRICAL_SURFACE('',#1088,1.6E0);
#1090=ORIENTED_EDGE('',*,*,#983,.F.);
#1092=ORIENTED_EDGE('',*,*,#1091,.T.);
#1093=ORIENTED_EDGE('',*,*,#1075,.F.);
#1095=ORIENTED_EDGE('',*,*,#1094,.F.);
#1096=EDGE_LOOP('',(#1090,#1092,#1093,#1095));
#1097=FACE_OUTER_BOUND('',#1096,.F.);
#1098=ADVANCED_FACE('',(#1097),#1089,.F.);
#1099=CARTESIAN_POINT('',(2.15E1,6.3E1,-9.017157287525E1));
#1100=DIRECTION('',(0.E0,-1.E0,0.E0));
#1101=DIRECTION('',(0.E0,0.E0,-1.E0));
#1102=AXIS2_PLACEMENT_3D('',#1099,#1100,#1101);
#1103=CYLINDRICAL_SURFACE('',#1102,1.6E0);
#1104=ORIENTED_EDGE('',*,*,#981,.F.);
#1105=ORIENTED_EDGE('',*,*,#1094,.T.);
#1107=ORIENTED_EDGE('',*,*,#1106,.F.);
#1108=ORIENTED_EDGE('',*,*,#1091,.F.);
#1109=EDGE_LOOP('',(#1104,#1105,#1107,#1108));
#1110=FACE_OUTER_BOUND('',#1109,.F.);
#1111=ADVANCED_FACE('',(#1110),#1103,.F.);
#1112=CARTESIAN_POINT('',(2.15E1,6.212E1,-9.017157287525E1));
#1113=DIRECTION('',(0.E0,1.E0,0.E0));
#1114=DIRECTION('',(0.E0,0.E0,1.E0));
#1115=AXIS2_PLACEMENT_3D('',#1112,#1113,#1114);
#1116=CONICAL_SURFACE('',#1115,2.48E0,4.5E1);
#1117=ORIENTED_EDGE('',*,*,#1106,.T.);
#1118=ORIENTED_EDGE('',*,*,#1080,.F.);
#1119=ORIENTED_EDGE('',*,*,#1021,.F.);
#1120=ORIENTED_EDGE('',*,*,#1077,.T.);
#1121=EDGE_LOOP('',(#1117,#1118,#1119,#1120));
#1122=FACE_OUTER_BOUND('',#1121,.F.);
#1123=ADVANCED_FACE('',(#1122),#1116,.F.);
#1124=CARTESIAN_POINT('',(2.95E1,6.212E1,-9.017157287525E1));
#1125=DIRECTION('',(0.E0,1.E0,0.E0));
#1126=DIRECTION('',(0.E0,0.E0,1.E0));
#1127=AXIS2_PLACEMENT_3D('',#1124,#1125,#1126);
#1128=CONICAL_SURFACE('',#1127,2.48E0,4.5E1);
#1130=ORIENTED_EDGE('',*,*,#1129,.T.);
#1132=ORIENTED_EDGE('',*,*,#1131,.F.);
#1133=ORIENTED_EDGE('',*,*,#1025,.F.);
#1135=ORIENTED_EDGE('',*,*,#1134,.T.);
#1136=EDGE_LOOP('',(#1130,#1132,#1133,#1135));
#1137=FACE_OUTER_BOUND('',#1136,.F.);
#1138=ADVANCED_FACE('',(#1137),#1128,.F.);
#1139=CARTESIAN_POINT('',(2.95E1,6.3E1,-9.017157287525E1));
#1140=DIRECTION('',(0.E0,-1.E0,0.E0));
#1141=DIRECTION('',(0.E0,0.E0,-1.E0));
#1142=AXIS2_PLACEMENT_3D('',#1139,#1140,#1141);
#1143=CYLINDRICAL_SURFACE('',#1142,1.6E0);
#1144=ORIENTED_EDGE('',*,*,#989,.F.);
#1146=ORIENTED_EDGE('',*,*,#1145,.T.);
#1147=ORIENTED_EDGE('',*,*,#1129,.F.);
#1149=ORIENTED_EDGE('',*,*,#1148,.F.);
#1150=EDGE_LOOP('',(#1144,#1146,#1147,#1149));
#1151=FACE_OUTER_BOUND('',#1150,.F.);
#1152=ADVANCED_FACE('',(#1151),#1143,.F.);
#1153=CARTESIAN_POINT('',(2.95E1,6.3E1,-9.017157287525E1));
#1154=DIRECTION('',(0.E0,-1.E0,0.E0));
#1155=DIRECTION('',(0.E0,0.E0,-1.E0));
#1156=AXIS2_PLACEMENT_3D('',#1153,#1154,#1155);
#1157=CYLINDRICAL_SURFACE('',#1156,1.6E0);
#1158=ORIENTED_EDGE('',*,*,#987,.F.);
#1159=ORIENTED_EDGE('',*,*,#1148,.T.);
#1161=ORIENTED_EDGE('',*,*,#1160,.F.);
#1162=ORIENTED_EDGE('',*,*,#1145,.F.);
#1163=EDGE_LOOP('',(#1158,#1159,#1161,#1162));
#1164=FACE_OUTER_BOUND('',#1163,.F.);
#1165=ADVANCED_FACE('',(#1164),#1157,.F.);
#1166=CARTESIAN_POINT('',(2.95E1,6.212E1,-9.017157287525E1));
#1167=DIRECTION('',(0.E0,1.E0,0.E0));
#1168=DIRECTION('',(0.E0,0.E0,1.E0));
#1169=AXIS2_PLACEMENT_3D('',#1166,#1167,#1168);
#1170=CONICAL_SURFACE('',#1169,2.48E0,4.5E1);
#1171=ORIENTED_EDGE('',*,*,#1160,.T.);
#1172=ORIENTED_EDGE('',*,*,#1134,.F.);
#1173=ORIENTED_EDGE('',*,*,#1027,.F.);
#1174=ORIENTED_EDGE('',*,*,#1131,.T.);
#1175=EDGE_LOOP('',(#1171,#1172,#1173,#1174));
#1176=FACE_OUTER_BOUND('',#1175,.F.);
#1177=ADVANCED_FACE('',(#1176),#1170,.F.);
#1178=CARTESIAN_POINT('',(1.5498E1,-4.758578643763E1,-1.115857864376E2));
#1179=DIRECTION('',(0.E0,-7.071067811865E-1,-7.071067811865E-1));
#1180=DIRECTION('',(0.E0,7.071067811865E-1,-7.071067811865E-1));
#1181=AXIS2_PLACEMENT_3D('',#1178,#1179,#1180);
#1182=PLANE('',#1181);
#1183=ORIENTED_EDGE('',*,*,#932,.F.);
#1184=ORIENTED_EDGE('',*,*,#774,.T.);
#1185=ORIENTED_EDGE('',*,*,#800,.F.);
#1186=ORIENTED_EDGE('',*,*,#839,.F.);
#1187=EDGE_LOOP('',(#1183,#1184,#1185,#1186));
#1188=FACE_OUTER_BOUND('',#1187,.F.);
#1189=ADVANCED_FACE('',(#1188),#1182,.F.);
#1190=CARTESIAN_POINT('',(2.95E1,-6.212E1,-9.017157287525E1));
#1191=DIRECTION('',(0.E0,-1.E0,0.E0));
#1192=DIRECTION('',(0.E0,0.E0,-1.E0));
#1193=AXIS2_PLACEMENT_3D('',#1190,#1191,#1192);
#1194=CONICAL_SURFACE('',#1193,2.48E0,4.5E1);
#1196=ORIENTED_EDGE('',*,*,#1195,.T.);
#1198=ORIENTED_EDGE('',*,*,#1197,.F.);
#1199=ORIENTED_EDGE('',*,*,#884,.F.);
#1201=ORIENTED_EDGE('',*,*,#1200,.T.);
#1202=EDGE_LOOP('',(#1196,#1198,#1199,#1201));
#1203=FACE_OUTER_BOUND('',#1202,.F.);
#1204=ADVANCED_FACE('',(#1203),#1194,.F.);
#1205=CARTESIAN_POINT('',(2.95E1,-6.3E1,-9.017157287525E1));
#1206=DIRECTION('',(0.E0,1.E0,0.E0));
#1207=DIRECTION('',(0.E0,0.E0,1.E0));
#1208=AXIS2_PLACEMENT_3D('',#1205,#1206,#1207);
#1209=CYLINDRICAL_SURFACE('',#1208,1.6E0);
#1210=ORIENTED_EDGE('',*,*,#1195,.F.);
#1212=ORIENTED_EDGE('',*,*,#1211,.F.);
#1213=ORIENTED_EDGE('',*,*,#844,.F.);
#1215=ORIENTED_EDGE('',*,*,#1214,.T.);
#1216=EDGE_LOOP('',(#1210,#1212,#1213,#1215));
#1217=FACE_OUTER_BOUND('',#1216,.F.);
#1218=ADVANCED_FACE('',(#1217),#1209,.F.);
#1219=CARTESIAN_POINT('',(2.95E1,-6.3E1,-9.017157287525E1));
#1220=DIRECTION('',(0.E0,1.E0,0.E0));
#1221=DIRECTION('',(0.E0,0.E0,1.E0));
#1222=AXIS2_PLACEMENT_3D('',#1219,#1220,#1221);
#1223=CYLINDRICAL_SURFACE('',#1222,1.6E0);
#1225=ORIENTED_EDGE('',*,*,#1224,.F.);
#1226=ORIENTED_EDGE('',*,*,#1214,.F.);
#1227=ORIENTED_EDGE('',*,*,#846,.F.);
#1228=ORIENTED_EDGE('',*,*,#1211,.T.);
#1229=EDGE_LOOP('',(#1225,#1226,#1227,#1228));
#1230=FACE_OUTER_BOUND('',#1229,.F.);
#1231=ADVANCED_FACE('',(#1230),#1223,.F.);
#1232=CARTESIAN_POINT('',(2.95E1,-6.212E1,-9.017157287525E1));
#1233=DIRECTION('',(0.E0,-1.E0,0.E0));
#1234=DIRECTION('',(0.E0,0.E0,-1.E0));
#1235=AXIS2_PLACEMENT_3D('',#1232,#1233,#1234);
#1236=CONICAL_SURFACE('',#1235,2.48E0,4.5E1);
#1237=ORIENTED_EDGE('',*,*,#1224,.T.);
#1238=ORIENTED_EDGE('',*,*,#1200,.F.);
#1239=ORIENTED_EDGE('',*,*,#886,.F.);
#1240=ORIENTED_EDGE('',*,*,#1197,.T.);
#1241=EDGE_LOOP('',(#1237,#1238,#1239,#1240));
#1242=FACE_OUTER_BOUND('',#1241,.F.);
#1243=ADVANCED_FACE('',(#1242),#1236,.F.);
#1244=CARTESIAN_POINT('',(2.15E1,-6.212E1,-9.017157287525E1));
#1245=DIRECTION('',(0.E0,-1.E0,0.E0));
#1246=DIRECTION('',(0.E0,0.E0,-1.E0));
#1247=AXIS2_PLACEMENT_3D('',#1244,#1245,#1246);
#1248=CONICAL_SURFACE('',#1247,2.48E0,4.5E1);
#1250=ORIENTED_EDGE('',*,*,#1249,.T.);
#1252=ORIENTED_EDGE('',*,*,#1251,.F.);
#1253=ORIENTED_EDGE('',*,*,#890,.F.);
#1255=ORIENTED_EDGE('',*,*,#1254,.T.);
#1256=EDGE_LOOP('',(#1250,#1252,#1253,#1255));
#1257=FACE_OUTER_BOUND('',#1256,.F.);
#1258=ADVANCED_FACE('',(#1257),#1248,.F.);
#1259=CARTESIAN_POINT('',(2.15E1,-6.3E1,-9.017157287525E1));
#1260=DIRECTION('',(0.E0,1.E0,0.E0));
#1261=DIRECTION('',(0.E0,0.E0,1.E0));
#1262=AXIS2_PLACEMENT_3D('',#1259,#1260,#1261);
#1263=CYLINDRICAL_SURFACE('',#1262,1.6E0);
#1264=ORIENTED_EDGE('',*,*,#1249,.F.);
#1266=ORIENTED_EDGE('',*,*,#1265,.F.);
#1267=ORIENTED_EDGE('',*,*,#850,.F.);
#1269=ORIENTED_EDGE('',*,*,#1268,.T.);
#1270=EDGE_LOOP('',(#1264,#1266,#1267,#1269));
#1271=FACE_OUTER_BOUND('',#1270,.F.);
#1272=ADVANCED_FACE('',(#1271),#1263,.F.);
#1273=CARTESIAN_POINT('',(2.15E1,-6.3E1,-9.017157287525E1));
#1274=DIRECTION('',(0.E0,1.E0,0.E0));
#1275=DIRECTION('',(0.E0,0.E0,1.E0));
#1276=AXIS2_PLACEMENT_3D('',#1273,#1274,#1275);
#1277=CYLINDRICAL_SURFACE('',#1276,1.6E0);
#1279=ORIENTED_EDGE('',*,*,#1278,.F.);
#1280=ORIENTED_EDGE('',*,*,#1268,.F.);
#1281=ORIENTED_EDGE('',*,*,#852,.F.);
#1282=ORIENTED_EDGE('',*,*,#1265,.T.);
#1283=EDGE_LOOP('',(#1279,#1280,#1281,#1282));
#1284=FACE_OUTER_BOUND('',#1283,.F.);
#1285=ADVANCED_FACE('',(#1284),#1277,.F.);
#1286=CARTESIAN_POINT('',(2.15E1,-6.212E1,-9.017157287525E1));
#1287=DIRECTION('',(0.E0,-1.E0,0.E0));
#1288=DIRECTION('',(0.E0,0.E0,-1.E0));
#1289=AXIS2_PLACEMENT_3D('',#1286,#1287,#1288);
#1290=CONICAL_SURFACE('',#1289,2.48E0,4.5E1);
#1291=ORIENTED_EDGE('',*,*,#1278,.T.);
#1292=ORIENTED_EDGE('',*,*,#1254,.F.);
#1293=ORIENTED_EDGE('',*,*,#892,.F.);
#1294=ORIENTED_EDGE('',*,*,#1251,.T.);
#1295=EDGE_LOOP('',(#1291,#1292,#1293,#1294));
#1296=FACE_OUTER_BOUND('',#1295,.F.);
#1297=ADVANCED_FACE('',(#1296),#1290,.F.);
#1298=CARTESIAN_POINT('',(2.15E1,-2.717157287525E1,-1.27E2));
#1299=DIRECTION('',(0.E0,0.E0,1.E0));
#1300=DIRECTION('',(1.E0,0.E0,0.E0));
#1301=AXIS2_PLACEMENT_3D('',#1298,#1299,#1300);
#1302=CYLINDRICAL_SURFACE('',#1301,1.6E0);
#1304=ORIENTED_EDGE('',*,*,#1303,.F.);
#1306=ORIENTED_EDGE('',*,*,#1305,.F.);
#1307=ORIENTED_EDGE('',*,*,#782,.F.);
#1309=ORIENTED_EDGE('',*,*,#1308,.T.);
#1310=EDGE_LOOP('',(#1304,#1306,#1307,#1309));
#1311=FACE_OUTER_BOUND('',#1310,.F.);
#1312=ADVANCED_FACE('',(#1311),#1302,.F.);
#1313=CARTESIAN_POINT('',(2.15E1,-2.717157287525E1,-1.2612E2));
#1314=DIRECTION('',(0.E0,0.E0,-1.E0));
#1315=DIRECTION('',(-1.E0,0.E0,0.E0));
#1316=AXIS2_PLACEMENT_3D('',#1313,#1314,#1315);
#1317=CONICAL_SURFACE('',#1316,2.48E0,4.5E1);
#1318=ORIENTED_EDGE('',*,*,#1303,.T.);
#1320=ORIENTED_EDGE('',*,*,#1319,.F.);
#1321=ORIENTED_EDGE('',*,*,#699,.F.);
#1323=ORIENTED_EDGE('',*,*,#1322,.T.);
#1324=EDGE_LOOP('',(#1318,#1320,#1321,#1323));
#1325=FACE_OUTER_BOUND('',#1324,.F.);
#1326=ADVANCED_FACE('',(#1325),#1317,.F.);
#1327=CARTESIAN_POINT('',(2.15E1,-2.717157287525E1,-1.2612E2));
#1328=DIRECTION('',(0.E0,0.E0,-1.E0));
#1329=DIRECTION('',(-1.E0,0.E0,0.E0));
#1330=AXIS2_PLACEMENT_3D('',#1327,#1328,#1329);
#1331=CONICAL_SURFACE('',#1330,2.48E0,4.5E1);
#1333=ORIENTED_EDGE('',*,*,#1332,.T.);
#1334=ORIENTED_EDGE('',*,*,#1322,.F.);
#1335=ORIENTED_EDGE('',*,*,#697,.F.);
#1336=ORIENTED_EDGE('',*,*,#663,.T.);
#1337=ORIENTED_EDGE('',*,*,#701,.F.);
#1338=ORIENTED_EDGE('',*,*,#1319,.T.);
#1339=EDGE_LOOP('',(#1333,#1334,#1335,#1336,#1337,#1338));
#1340=FACE_OUTER_BOUND('',#1339,.F.);
#1341=ADVANCED_FACE('',(#1340),#1331,.F.);
#1342=CARTESIAN_POINT('',(2.15E1,-2.717157287525E1,-1.27E2));
#1343=DIRECTION('',(0.E0,0.E0,1.E0));
#1344=DIRECTION('',(1.E0,0.E0,0.E0));
#1345=AXIS2_PLACEMENT_3D('',#1342,#1343,#1344);
#1346=CYLINDRICAL_SURFACE('',#1345,1.6E0);
#1347=ORIENTED_EDGE('',*,*,#1332,.F.);
#1348=ORIENTED_EDGE('',*,*,#1308,.F.);
#1349=ORIENTED_EDGE('',*,*,#784,.F.);
#1350=ORIENTED_EDGE('',*,*,#1305,.T.);
#1351=EDGE_LOOP('',(#1347,#1348,#1349,#1350));
#1352=FACE_OUTER_BOUND('',#1351,.F.);
#1353=ADVANCED_FACE('',(#1352),#1346,.F.);
#1357=DIMENSIONAL_EXPONENTS(0.E0,0.E0,0.E0,0.E0,0.E0,0.E0,0.E0);
#1359=PLANE_ANGLE_MEASURE_WITH_UNIT(PLANE_ANGLE_MEASURE(1.745329251994E-2),
#1358);
#1360=(CONVERSION_BASED_UNIT('DEGREE',#1359)NAMED_UNIT(*)PLANE_ANGLE_UNIT());
#1362=UNCERTAINTY_MEASURE_WITH_UNIT(LENGTH_MEASURE(1.450743473743E-2),#1356,
'closure',
'Maximum model space distance between geometric entities at asserted connectivities');
#1363=(GEOMETRIC_REPRESENTATION_CONTEXT(3)GLOBAL_UNCERTAINTY_ASSIGNED_CONTEXT((
#1362))GLOBAL_UNIT_ASSIGNED_CONTEXT((#1356,#1360,#1361))REPRESENTATION_CONTEXT(
'ID1','3'));
#1365=APPLICATION_CONTEXT(
'CONFIGURATION CONTROLLED 3D DESIGNS OF MECHANICAL PARTS AND ASSEMBLIES');
#1366=APPLICATION_PROTOCOL_DEFINITION('international standard',
'config_control_design',1994,#1365);
#1367=DESIGN_CONTEXT('',#1365,'design');
#1368=MECHANICAL_CONTEXT('',#1365,'mechanical');
#1369=PRODUCT('KC-D-107L_L_COVER_1','KC-D-107L_L_COVER_1','NOT SPECIFIED',
(#1368));
#1370=PRODUCT_DEFINITION_FORMATION_WITH_SPECIFIED_SOURCE('2','LAST_VERSION',
#1369,.MADE.);
#1374=PRODUCT_CATEGORY('part','');
#1375=PRODUCT_RELATED_PRODUCT_CATEGORY('detail','',(#1369));
#1376=PRODUCT_CATEGORY_RELATIONSHIP('','',#1374,#1375);
#1377=SECURITY_CLASSIFICATION_LEVEL('unclassified');
#1378=SECURITY_CLASSIFICATION('','',#1377);
#1379=CC_DESIGN_SECURITY_CLASSIFICATION(#1378,(#1370));
#1380=APPROVAL_STATUS('approved');
#1381=APPROVAL(#1380,'');
#1382=CC_DESIGN_APPROVAL(#1381,(#1378,#1370,#1371));
#1383=CALENDAR_DATE(125,12,7);
#1384=COORDINATED_UNIVERSAL_TIME_OFFSET(8,0,.AHEAD.);
#1385=LOCAL_TIME(15,6,3.4E1,#1384);
#1386=DATE_AND_TIME(#1383,#1385);
#1387=APPROVAL_DATE_TIME(#1386,#1381);
#1388=DATE_TIME_ROLE('creation_date');
#1389=CC_DESIGN_DATE_AND_TIME_ASSIGNMENT(#1386,#1388,(#1371));
#1390=DATE_TIME_ROLE('classification_date');
#1391=CC_DESIGN_DATE_AND_TIME_ASSIGNMENT(#1386,#1390,(#1378));
#1392=PERSON('UNSPECIFIED','UNSPECIFIED',$,$,$,$);
#1393=ORGANIZATION('UNSPECIFIED','UNSPECIFIED','UNSPECIFIED');
#1394=PERSON_AND_ORGANIZATION(#1392,#1393);
#1395=APPROVAL_ROLE('approver');
#1396=APPROVAL_PERSON_ORGANIZATION(#1394,#1381,#1395);
#1397=PERSON_AND_ORGANIZATION_ROLE('creator');
#1398=CC_DESIGN_PERSON_AND_ORGANIZATION_ASSIGNMENT(#1394,#1397,(#1370,#1371));
#1399=PERSON_AND_ORGANIZATION_ROLE('design_supplier');
#1400=CC_DESIGN_PERSON_AND_ORGANIZATION_ASSIGNMENT(#1394,#1399,(#1370));
#1401=PERSON_AND_ORGANIZATION_ROLE('classification_officer');
#1402=CC_DESIGN_PERSON_AND_ORGANIZATION_ASSIGNMENT(#1394,#1401,(#1378));
#1403=PERSON_AND_ORGANIZATION_ROLE('design_owner');
#1404=CC_DESIGN_PERSON_AND_ORGANIZATION_ASSIGNMENT(#1394,#1403,(#1369));
#21=CIRCLE('',#20,3.36E0);
#26=CIRCLE('',#25,3.36E0);
#39=CIRCLE('',#38,3.36E0);
#44=CIRCLE('',#43,3.36E0);
#49=CIRCLE('',#48,3.36E0);
#54=CIRCLE('',#53,3.36E0);
#59=CIRCLE('',#58,1.6E0);
#76=CIRCLE('',#75,1.6E0);
#85=B_SPLINE_CURVE_WITH_KNOTS('',3,(#77,#78,#79,#80,#81,#82,#83,#84),
.UNSPECIFIED.,.F.,.F.,(4,1,1,1,1,4),(0.E0,2.E-1,4.E-1,6.E-1,8.E-1,1.E0),
.UNSPECIFIED.);
#98=CIRCLE('',#97,1.6E0);
#103=CIRCLE('',#102,1.6E0);
#108=CIRCLE('',#107,1.6E0);
#113=CIRCLE('',#112,1.6E0);
#138=CIRCLE('',#137,1.2E1);
#147=CIRCLE('',#146,1.2E1);
#152=CIRCLE('',#151,1.2E1);
#161=CIRCLE('',#160,1.2E1);
#170=CIRCLE('',#169,1.6E0);
#175=CIRCLE('',#174,1.6E0);
#180=CIRCLE('',#179,1.6E0);
#185=CIRCLE('',#184,1.6E0);
#206=CIRCLE('',#205,3.36E0);
#211=CIRCLE('',#210,3.36E0);
#216=CIRCLE('',#215,3.36E0);
#221=CIRCLE('',#220,3.36E0);
#258=CIRCLE('',#257,1.2E1);
#267=CIRCLE('',#266,1.2E1);
#272=CIRCLE('',#271,1.2E1);
#281=CIRCLE('',#280,1.2E1);
#306=CIRCLE('',#305,1.6E0);
#311=CIRCLE('',#310,1.6E0);
#316=CIRCLE('',#315,1.6E0);
#321=CIRCLE('',#320,1.6E0);
#338=CIRCLE('',#337,3.36E0);
#343=CIRCLE('',#342,3.36E0);
#348=CIRCLE('',#347,3.36E0);
#353=CIRCLE('',#352,3.36E0);
#374=CIRCLE('',#373,1.6E0);
#391=CIRCLE('',#390,1.6E0);
#400=CIRCLE('',#399,1.6E0);
#417=CIRCLE('',#416,1.6E0);
#430=CIRCLE('',#429,1.6E0);
#447=CIRCLE('',#446,1.6E0);
#456=CIRCLE('',#455,1.6E0);
#473=CIRCLE('',#472,1.6E0);
#486=CIRCLE('',#485,1.6E0);
#495=CIRCLE('',#494,1.6E0);
#504=B_SPLINE_CURVE_WITH_KNOTS('',3,(#496,#497,#498,#499,#500,#501,#502,#503),
.UNSPECIFIED.,.F.,.F.,(4,1,1,1,1,4),(0.E0,2.E-1,4.E-1,6.E-1,8.E-1,1.E0),
.UNSPECIFIED.);
#661=EDGE_CURVE('',#515,#516,#4,.T.);
#663=EDGE_CURVE('',#517,#516,#504,.T.);
#665=EDGE_CURVE('',#517,#519,#8,.T.);
#667=EDGE_CURVE('',#521,#519,#267,.T.);
#669=EDGE_CURVE('',#521,#523,#12,.T.);
#671=EDGE_CURVE('',#525,#523,#152,.T.);
#673=EDGE_CURVE('',#525,#527,#16,.T.);
#675=EDGE_CURVE('',#515,#527,#85,.T.);
#685=EDGE_CURVE('',#530,#531,#21,.T.);
#687=EDGE_CURVE('',#531,#527,#26,.T.);
#690=EDGE_CURVE('',#525,#533,#30,.T.);
#692=EDGE_CURVE('',#535,#533,#365,.T.);
#694=EDGE_CURVE('',#535,#519,#34,.T.);
#697=EDGE_CURVE('',#517,#537,#39,.T.);
#699=EDGE_CURVE('',#537,#539,#44,.T.);
#701=EDGE_CURVE('',#539,#516,#49,.T.);
#704=EDGE_CURVE('',#515,#530,#54,.T.);
#714=EDGE_CURVE('',#542,#543,#59,.T.);
#716=EDGE_CURVE('',#531,#543,#89,.T.);
#719=EDGE_CURVE('',#530,#542,#63,.T.);
#730=EDGE_CURVE('',#545,#542,#71,.T.);
#732=EDGE_CURVE('',#547,#545,#108,.T.);
#734=EDGE_CURVE('',#547,#543,#67,.T.);
#744=EDGE_CURVE('',#543,#542,#76,.T.);
#747=EDGE_CURVE('',#545,#547,#113,.T.);
#772=EDGE_CURVE('',#550,#551,#125,.T.);
#774=EDGE_CURVE('',#553,#550,#425,.T.);
#776=EDGE_CURVE('',#555,#553,#237,.T.);
#778=EDGE_CURVE('',#555,#551,#93,.T.);
#782=EDGE_CURVE('',#558,#559,#98,.T.);
#784=EDGE_CURVE('',#559,#558,#103,.T.);
#798=EDGE_CURVE('',#566,#567,#117,.T.);
#800=EDGE_CURVE('',#567,#550,#121,.T.);
#803=EDGE_CURVE('',#551,#569,#129,.T.);
#805=EDGE_CURVE('',#571,#569,#301,.T.);
#807=EDGE_CURVE('',#573,#571,#325,.T.);
#809=EDGE_CURVE('',#573,#575,#133,.T.);
#811=EDGE_CURVE('',#575,#577,#138,.T.);
#813=EDGE_CURVE('',#577,#579,#142,.T.);
#815=EDGE_CURVE('',#579,#533,#147,.T.);
#819=EDGE_CURVE('',#523,#581,#156,.T.);
#821=EDGE_CURVE('',#581,#583,#161,.T.);
#823=EDGE_CURVE('',#585,#583,#201,.T.);
#825=EDGE_CURVE('',#566,#585,#193,.T.);
#835=EDGE_CURVE('',#587,#566,#189,.T.);
#837=EDGE_CURVE('',#589,#587,#245,.T.);
#839=EDGE_CURVE('',#589,#567,#165,.T.);
#844=EDGE_CURVE('',#592,#593,#170,.T.);
#846=EDGE_CURVE('',#593,#592,#175,.T.);
#850=EDGE_CURVE('',#596,#597,#180,.T.);
#852=EDGE_CURVE('',#597,#596,#185,.T.);
#864=EDGE_CURVE('',#585,#607,#197,.T.);
#866=EDGE_CURVE('',#587,#607,#249,.T.);
#878=EDGE_CURVE('',#609,#583,#225,.T.);
#880=EDGE_CURVE('',#607,#609,#253,.T.);
#884=EDGE_CURVE('',#612,#613,#206,.T.);
#886=EDGE_CURVE('',#613,#612,#211,.T.);
#890=EDGE_CURVE('',#605,#603,#216,.T.);
#892=EDGE_CURVE('',#603,#605,#221,.T.);
#904=EDGE_CURVE('',#581,#621,#229,.T.);
#906=EDGE_CURVE('',#609,#621,#258,.T.);
#919=EDGE_CURVE('',#621,#521,#262,.T.);
#929=EDGE_CURVE('',#619,#555,#233,.T.);
#932=EDGE_CURVE('',#553,#589,#241,.T.);
#941=EDGE_CURVE('',#535,#623,#272,.T.);
#943=EDGE_CURVE('',#623,#625,#276,.T.);
#945=EDGE_CURVE('',#625,#627,#281,.T.);
#947=EDGE_CURVE('',#629,#627,#329,.T.);
#949=EDGE_CURVE('',#629,#631,#285,.T.);
#951=EDGE_CURVE('',#619,#631,#293,.T.);
#962=EDGE_CURVE('',#619,#569,#289,.T.);
#975=EDGE_CURVE('',#631,#571,#297,.T.);
#981=EDGE_CURVE('',#634,#635,#306,.T.);
#983=EDGE_CURVE('',#635,#634,#311,.T.);
#987=EDGE_CURVE('',#638,#639,#316,.T.);
#989=EDGE_CURVE('',#639,#638,#321,.T.);
#1000=EDGE_CURVE('',#573,#629,#333,.T.);
#1013=EDGE_CURVE('',#575,#627,#361,.T.);
#1019=EDGE_CURVE('',#650,#651,#338,.T.);
#1021=EDGE_CURVE('',#651,#650,#343,.T.);
#1025=EDGE_CURVE('',#647,#645,#348,.T.);
#1027=EDGE_CURVE('',#645,#647,#353,.T.);
#1037=EDGE_CURVE('',#625,#577,#357,.T.);
#1050=EDGE_CURVE('',#579,#623,#369,.T.);
#1075=EDGE_CURVE('',#654,#655,#374,.T.);
#1077=EDGE_CURVE('',#651,#655,#395,.T.);
#1080=EDGE_CURVE('',#650,#654,#378,.T.);
#1091=EDGE_CURVE('',#635,#655,#382,.T.);
#1094=EDGE_CURVE('',#634,#654,#386,.T.);
#1106=EDGE_CURVE('',#655,#654,#391,.T.);
#1129=EDGE_CURVE('',#641,#643,#400,.T.);
#1131=EDGE_CURVE('',#645,#643,#421,.T.);
#1134=EDGE_CURVE('',#647,#641,#404,.T.);
#1145=EDGE_CURVE('',#639,#643,#408,.T.);
#1148=EDGE_CURVE('',#638,#641,#412,.T.);
#1160=EDGE_CURVE('',#643,#641,#417,.T.);
#1195=EDGE_CURVE('',#616,#617,#430,.T.);
#1197=EDGE_CURVE('',#613,#617,#451,.T.);
#1200=EDGE_CURVE('',#612,#616,#434,.T.);
#1211=EDGE_CURVE('',#593,#616,#442,.T.);
#1214=EDGE_CURVE('',#592,#617,#438,.T.);
#1224=EDGE_CURVE('',#617,#616,#447,.T.);
#1249=EDGE_CURVE('',#600,#601,#456,.T.);
#1251=EDGE_CURVE('',#603,#601,#477,.T.);
#1254=EDGE_CURVE('',#605,#600,#460,.T.);
#1265=EDGE_CURVE('',#597,#600,#468,.T.);
#1268=EDGE_CURVE('',#596,#601,#464,.T.);
#1278=EDGE_CURVE('',#601,#600,#473,.T.);
#1303=EDGE_CURVE('',#562,#563,#486,.T.);
#1305=EDGE_CURVE('',#559,#562,#512,.T.);
#1308=EDGE_CURVE('',#558,#563,#481,.T.);
#1319=EDGE_CURVE('',#539,#563,#508,.T.);
#1322=EDGE_CURVE('',#537,#562,#490,.T.);
#1332=EDGE_CURVE('',#563,#562,#495,.T.);
#1354=CLOSED_SHELL('',(#679,#708,#723,#738,#752,#766,#792,#829,#856,#870,#896,
#910,#923,#955,#968,#993,#1006,#1031,#1044,#1057,#1069,#1084,#1098,#1111,#1123,
#1138,#1152,#1165,#1177,#1189,#1204,#1218,#1231,#1243,#1258,#1272,#1285,#1297,
#1312,#1326,#1341,#1353));
#1355=MANIFOLD_SOLID_BREP('',#1354);
#1356=(LENGTH_UNIT()NAMED_UNIT(*)SI_UNIT(.MILLI.,.METRE.));
#1358=(NAMED_UNIT(*)PLANE_ANGLE_UNIT()SI_UNIT($,.RADIAN.));
#1361=(NAMED_UNIT(*)SI_UNIT($,.STERADIAN.)SOLID_ANGLE_UNIT());
#1364=ADVANCED_BREP_SHAPE_REPRESENTATION('',(#1355),#1363);
#1371=PRODUCT_DEFINITION('design','',#1370,#1367);
#1372=PRODUCT_DEFINITION_SHAPE('','SHAPE FOR KC-D-107L_L_COVER_1.',#1371);
#1373=SHAPE_DEFINITION_REPRESENTATION(#1372,#1364);
ENDSEC;
END-ISO-10303-21;
