ISO-10303-21;
HEADER;
FILE_DESCRIPTION((''),'2;1');
FILE_NAME('KD-D-505X_LINKAGEPIN_1','2025-07-12T16:35:43',('Administrator'),(''),
'CREO PARAMETRIC BY PTC INC, 2022073','CREO PARAMETRIC BY PTC INC, 2022073','');
FILE_SCHEMA(('CONFIG_CONTROL_DESIGN'));
ENDSEC;
DATA;
#1=CARTESIAN_POINT('',(0.E0,5.E-1,0.E0));
#2=DIRECTION('',(0.E0,1.E0,0.E0));
#3=DIRECTION('',(0.E0,0.E0,-1.E0));
#4=AXIS2_PLACEMENT_3D('',#1,#2,#3);
#6=CARTESIAN_POINT('',(0.E0,5.E-1,0.E0));
#7=DIRECTION('',(0.E0,1.E0,0.E0));
#8=DIRECTION('',(0.E0,0.E0,1.E0));
#9=AXIS2_PLACEMENT_3D('',#6,#7,#8);
#11=CARTESIAN_POINT('',(0.E0,7.000000000001E-1,0.E0));
#12=DIRECTION('',(0.E0,1.E0,0.E0));
#13=DIRECTION('',(0.E0,0.E0,-1.E0));
#14=AXIS2_PLACEMENT_3D('',#11,#12,#13);
#16=CARTESIAN_POINT('',(0.E0,7.000000000001E-1,0.E0));
#17=DIRECTION('',(0.E0,1.E0,0.E0));
#18=DIRECTION('',(-1.E0,0.E0,0.E0));
#19=AXIS2_PLACEMENT_3D('',#16,#17,#18);
#21=DIRECTION('',(0.E0,-7.071067811867E-1,-7.071067811864E-1));
#22=VECTOR('',#21,2.828427124747E-1);
#23=CARTESIAN_POINT('',(0.E0,7.000000000001E-1,7.E0));
#24=LINE('',#23,#22);
#25=CARTESIAN_POINT('',(0.E0,7.000000000001E-1,0.E0));
#26=DIRECTION('',(0.E0,1.E0,0.E0));
#27=DIRECTION('',(0.E0,0.E0,1.E0));
#28=AXIS2_PLACEMENT_3D('',#25,#26,#27);
#30=CARTESIAN_POINT('',(0.E0,7.000000000001E-1,0.E0));
#31=DIRECTION('',(0.E0,1.E0,0.E0));
#32=DIRECTION('',(1.E0,0.E0,0.E0));
#33=AXIS2_PLACEMENT_3D('',#30,#31,#32);
#35=DIRECTION('',(0.E0,-7.071067811867E-1,7.071067811864E-1));
#36=VECTOR('',#35,2.828427124747E-1);
#37=CARTESIAN_POINT('',(0.E0,7.000000000001E-1,-7.E0));
#38=LINE('',#37,#36);
#39=DIRECTION('',(0.E0,-1.E0,0.E0));
#40=VECTOR('',#39,1.1E0);
#41=CARTESIAN_POINT('',(7.E0,1.8E0,0.E0));
#42=LINE('',#41,#40);
#43=CARTESIAN_POINT('',(0.E0,1.8E0,-2.370002215245E-14));
#44=DIRECTION('',(0.E0,-1.E0,0.E0));
#45=DIRECTION('',(0.E0,0.E0,-1.E0));
#46=AXIS2_PLACEMENT_3D('',#43,#44,#45);
#48=CARTESIAN_POINT('',(0.E0,1.8E0,-2.370002215245E-14));
#49=DIRECTION('',(0.E0,-1.E0,0.E0));
#50=DIRECTION('',(1.E0,0.E0,0.E0));
#51=AXIS2_PLACEMENT_3D('',#48,#49,#50);
#53=DIRECTION('',(0.E0,7.071067811866E-1,-7.071067811865E-1));
#54=VECTOR('',#53,2.828427124746E-1);
#55=CARTESIAN_POINT('',(0.E0,1.8E0,7.E0));
#56=LINE('',#55,#54);
#57=CARTESIAN_POINT('',(0.E0,2.E0,-2.370002215245E-14));
#58=DIRECTION('',(0.E0,-1.E0,0.E0));
#59=DIRECTION('',(0.E0,0.E0,-1.E0));
#60=AXIS2_PLACEMENT_3D('',#57,#58,#59);
#62=CARTESIAN_POINT('',(0.E0,2.E0,-2.370002215245E-14));
#63=DIRECTION('',(0.E0,-1.E0,0.E0));
#64=DIRECTION('',(0.E0,0.E0,1.E0));
#65=AXIS2_PLACEMENT_3D('',#62,#63,#64);
#67=CARTESIAN_POINT('',(0.E0,2.E0,0.E0));
#68=DIRECTION('',(0.E0,1.E0,0.E0));
#69=DIRECTION('',(1.E0,0.E0,0.E0));
#70=AXIS2_PLACEMENT_3D('',#67,#68,#69);
#72=CARTESIAN_POINT('',(0.E0,2.E0,0.E0));
#73=DIRECTION('',(0.E0,1.E0,0.E0));
#74=DIRECTION('',(-1.E0,0.E0,0.E0));
#75=AXIS2_PLACEMENT_3D('',#72,#73,#74);
#77=CARTESIAN_POINT('',(0.E0,1.8E0,-2.370002215245E-14));
#78=DIRECTION('',(0.E0,-1.E0,0.E0));
#79=DIRECTION('',(0.E0,0.E0,1.E0));
#80=AXIS2_PLACEMENT_3D('',#77,#78,#79);
#82=CARTESIAN_POINT('',(0.E0,1.8E0,-2.370002215245E-14));
#83=DIRECTION('',(0.E0,-1.E0,0.E0));
#84=DIRECTION('',(-1.E0,0.E0,0.E0));
#85=AXIS2_PLACEMENT_3D('',#82,#83,#84);
#87=DIRECTION('',(0.E0,7.071067811866E-1,7.071067811865E-1));
#88=VECTOR('',#87,2.828427124746E-1);
#89=CARTESIAN_POINT('',(0.E0,1.8E0,-7.E0));
#90=LINE('',#89,#88);
#91=DIRECTION('',(0.E0,-1.E0,0.E0));
#92=VECTOR('',#91,1.1E0);
#93=CARTESIAN_POINT('',(-7.E0,1.8E0,0.E0));
#94=LINE('',#93,#92);
#95=CARTESIAN_POINT('',(0.E0,3.1E0,0.E0));
#96=DIRECTION('',(0.E0,-1.E0,0.E0));
#97=DIRECTION('',(-1.E0,0.E0,0.E0));
#98=AXIS2_PLACEMENT_3D('',#95,#96,#97);
#100=DIRECTION('',(-1.424198133367E-10,-1.E0,-1.157659072007E-9));
#101=VECTOR('',#100,1.099999999843E0);
#102=CARTESIAN_POINT('',(-3.899999999843E0,3.099999999843E0,1.273424739983E-9));
#103=LINE('',#102,#101);
#104=DIRECTION('',(-7.071067811866E-1,7.071067811865E-1,2.308760646682E-10));
#105=VECTOR('',#104,1.414213562316E-1);
#106=CARTESIAN_POINT('',(-3.899999999843E0,3.099999999843E0,1.273424739983E-9));
#107=LINE('',#106,#105);
#108=DIRECTION('',(7.071067811866E-1,7.071067811865E-1,-2.308796342233E-10));
#109=VECTOR('',#108,1.414213562316E-1);
#110=CARTESIAN_POINT('',(3.899999999843E0,3.099999999843E0,-1.273423224529E-9));
#111=LINE('',#110,#109);
#112=CARTESIAN_POINT('',(0.E0,3.1E0,0.E0));
#113=DIRECTION('',(0.E0,-1.E0,0.E0));
#114=DIRECTION('',(1.E0,0.E0,0.E0));
#115=AXIS2_PLACEMENT_3D('',#112,#113,#114);
#117=DIRECTION('',(1.424198133367E-10,-1.E0,1.157657694321E-9));
#118=VECTOR('',#117,1.099999999843E0);
#119=CARTESIAN_POINT('',(3.899999999843E0,3.099999999843E0,-1.273423224529E-9));
#120=LINE('',#119,#118);
#121=CARTESIAN_POINT('',(0.E0,3.2E0,0.E0));
#122=DIRECTION('',(0.E0,-1.E0,0.E0));
#123=DIRECTION('',(1.E0,0.E0,0.E0));
#124=AXIS2_PLACEMENT_3D('',#121,#122,#123);
#126=DIRECTION('',(-9.139456868173E-12,-1.E0,-7.420879434485E-11));
#127=VECTOR('',#126,1.759999999982E1);
#128=CARTESIAN_POINT('',(4.E0,2.079999999966E1,0.E0));
#129=LINE('',#128,#127);
#130=CARTESIAN_POINT('',(0.E0,3.2E0,0.E0));
#131=DIRECTION('',(0.E0,-1.E0,0.E0));
#132=DIRECTION('',(-1.E0,0.E0,0.E0));
#133=AXIS2_PLACEMENT_3D('',#130,#131,#132);
#135=DIRECTION('',(9.139456868173E-12,-1.E0,7.420884249013E-11));
#136=VECTOR('',#135,1.759999999982E1);
#137=CARTESIAN_POINT('',(-4.E0,2.079999999966E1,0.E0));
#138=LINE('',#137,#136);
#139=CARTESIAN_POINT('',(0.E0,2.079999999966E1,0.E0));
#140=DIRECTION('',(0.E0,-1.E0,0.E0));
#141=DIRECTION('',(0.E0,0.E0,-1.E0));
#142=AXIS2_PLACEMENT_3D('',#139,#140,#141);
#144=CARTESIAN_POINT('',(0.E0,2.079999999966E1,0.E0));
#145=DIRECTION('',(0.E0,-1.E0,0.E0));
#146=DIRECTION('',(1.E0,0.E0,0.E0));
#147=AXIS2_PLACEMENT_3D('',#144,#145,#146);
#149=DIRECTION('',(0.E0,7.071067812194E-1,-7.071067811537E-1));
#150=VECTOR('',#149,2.828427124605E-1);
#151=CARTESIAN_POINT('',(0.E0,2.079999999966E1,4.E0));
#152=LINE('',#151,#150);
#153=CARTESIAN_POINT('',(0.E0,2.099999999966E1,0.E0));
#154=DIRECTION('',(0.E0,-1.E0,0.E0));
#155=DIRECTION('',(0.E0,0.E0,1.E0));
#156=AXIS2_PLACEMENT_3D('',#153,#154,#155);
#158=CARTESIAN_POINT('',(0.E0,2.099999999966E1,0.E0));
#159=DIRECTION('',(0.E0,-1.E0,0.E0));
#160=DIRECTION('',(0.E0,0.E0,-1.E0));
#161=AXIS2_PLACEMENT_3D('',#158,#159,#160);
#163=CARTESIAN_POINT('',(0.E0,2.099999999966E1,-1.646667949660E-9));
#164=DIRECTION('',(0.E0,1.E0,0.E0));
#165=DIRECTION('',(0.E0,0.E0,1.E0));
#166=AXIS2_PLACEMENT_3D('',#163,#164,#165);
#168=CARTESIAN_POINT('',(0.E0,2.099999999966E1,-1.646667949660E-9));
#169=DIRECTION('',(0.E0,1.E0,0.E0));
#170=DIRECTION('',(0.E0,0.E0,-1.E0));
#171=AXIS2_PLACEMENT_3D('',#168,#169,#170);
#173=CARTESIAN_POINT('',(0.E0,2.079999999966E1,0.E0));
#174=DIRECTION('',(0.E0,-1.E0,0.E0));
#175=DIRECTION('',(0.E0,0.E0,1.E0));
#176=AXIS2_PLACEMENT_3D('',#173,#174,#175);
#178=CARTESIAN_POINT('',(0.E0,2.079999999966E1,0.E0));
#179=DIRECTION('',(0.E0,-1.E0,0.E0));
#180=DIRECTION('',(-1.E0,0.E0,0.E0));
#181=AXIS2_PLACEMENT_3D('',#178,#179,#180);
#183=DIRECTION('',(0.E0,7.071067812194E-1,7.071067811537E-1));
#184=VECTOR('',#183,2.828427124605E-1);
#185=CARTESIAN_POINT('',(0.E0,2.079999999966E1,-4.E0));
#186=LINE('',#185,#184);
#187=DIRECTION('',(0.E0,-1.E0,0.E0));
#188=VECTOR('',#187,1.000000000010E0);
#189=CARTESIAN_POINT('',(0.E0,2.199999999967E1,-3.500000003294E0));
#190=LINE('',#189,#188);
#191=DIRECTION('',(0.E0,-1.E0,0.E0));
#192=VECTOR('',#191,1.000000000010E0);
#193=CARTESIAN_POINT('',(0.E0,2.199999999967E1,3.5E0));
#194=LINE('',#193,#192);
#195=CARTESIAN_POINT('',(0.E0,2.199999999967E1,0.E0));
#196=DIRECTION('',(0.E0,1.E0,0.E0));
#197=DIRECTION('',(1.E0,0.E0,0.E0));
#198=AXIS2_PLACEMENT_3D('',#195,#196,#197);
#200=CARTESIAN_POINT('',(0.E0,2.199999999967E1,0.E0));
#201=DIRECTION('',(0.E0,1.E0,0.E0));
#202=DIRECTION('',(0.E0,0.E0,-1.E0));
#203=AXIS2_PLACEMENT_3D('',#200,#201,#202);
#205=CARTESIAN_POINT('',(0.E0,2.199999999967E1,0.E0));
#206=DIRECTION('',(0.E0,1.E0,0.E0));
#207=DIRECTION('',(-1.E0,0.E0,0.E0));
#208=AXIS2_PLACEMENT_3D('',#205,#206,#207);
#210=CARTESIAN_POINT('',(0.E0,2.199999999967E1,0.E0));
#211=DIRECTION('',(0.E0,1.E0,0.E0));
#212=DIRECTION('',(0.E0,0.E0,1.E0));
#213=AXIS2_PLACEMENT_3D('',#210,#211,#212);
#215=CARTESIAN_POINT('',(0.E0,2.199999999967E1,-1.646667949660E-9));
#216=DIRECTION('',(0.E0,-1.E0,0.E0));
#217=DIRECTION('',(0.E0,0.E0,1.E0));
#218=AXIS2_PLACEMENT_3D('',#215,#216,#217);
#220=CARTESIAN_POINT('',(0.E0,2.199999999967E1,-1.646667949660E-9));
#221=DIRECTION('',(0.E0,-1.E0,0.E0));
#222=DIRECTION('',(0.E0,0.E0,-1.E0));
#223=AXIS2_PLACEMENT_3D('',#220,#221,#222);
#225=DIRECTION('',(3.367676492695E-12,-1.E0,9.595624836255E-10));
#226=VECTOR('',#225,3.000000013660E-1);
#227=CARTESIAN_POINT('',(-3.900000000001E0,2.230000000104E1,
-2.881946312147E-10));
#228=LINE('',#227,#226);
#229=DIRECTION('',(-3.367676492695E-12,-1.E0,9.595613552628E-10));
#230=VECTOR('',#229,3.000000013660E-1);
#231=CARTESIAN_POINT('',(3.900000000001E0,2.230000000104E1,
-2.878681292819E-10));
#232=LINE('',#231,#230);
#233=CARTESIAN_POINT('',(0.E0,2.229999999991E1,-1.727211490668E-9));
#234=DIRECTION('',(0.E0,-1.E0,0.E0));
#235=DIRECTION('',(2.214369070909E-10,0.E0,1.E0));
#236=AXIS2_PLACEMENT_3D('',#233,#234,#235);
#238=CARTESIAN_POINT('',(0.E0,2.230000000216E1,-1.727211490668E-9));
#239=DIRECTION('',(0.E0,-1.E0,0.E0));
#240=DIRECTION('',(-1.E0,0.E0,4.427493855751E-10));
#241=AXIS2_PLACEMENT_3D('',#238,#239,#240);
#243=DIRECTION('',(-1.017769855889E-9,7.071067815754E-1,7.071067807977E-1));
#244=VECTOR('',#243,2.828427092619E-1);
#245=CARTESIAN_POINT('',(2.878685566616E-10,2.230000000216E1,
-3.900000000403E0));
#246=LINE('',#245,#244);
#247=CARTESIAN_POINT('',(0.E0,2.25E1,-1.727211490668E-9));
#248=DIRECTION('',(0.E0,-1.E0,0.E0));
#249=DIRECTION('',(0.E0,0.E0,-1.E0));
#250=AXIS2_PLACEMENT_3D('',#247,#248,#249);
#252=CARTESIAN_POINT('',(0.E0,2.25E1,-1.727211490668E-9));
#253=DIRECTION('',(0.E0,-1.E0,0.E0));
#254=DIRECTION('',(0.E0,0.E0,1.E0));
#255=AXIS2_PLACEMENT_3D('',#252,#253,#254);
#257=CARTESIAN_POINT('',(0.E0,2.230000000216E1,-1.727211490668E-9));
#258=DIRECTION('',(0.E0,-1.E0,0.E0));
#259=DIRECTION('',(2.214375963056E-10,0.E0,-1.E0));
#260=AXIS2_PLACEMENT_3D('',#257,#258,#259);
#262=CARTESIAN_POINT('',(0.E0,2.229999999991E1,-1.727211490668E-9));
#263=DIRECTION('',(0.E0,-1.E0,0.E0));
#264=DIRECTION('',(1.E0,0.E0,4.428749861263E-10));
#265=AXIS2_PLACEMENT_3D('',#262,#263,#264);
#267=DIRECTION('',(-1.017767324438E-9,7.071067808657E-1,-7.071067815074E-1));
#268=VECTOR('',#267,2.828427127288E-1);
#269=CARTESIAN_POINT('',(2.878682977538E-10,2.229999999991E1,3.899999999601E0));
#270=LINE('',#269,#268);
#271=CARTESIAN_POINT('',(0.E0,5.E-1,-6.8E0));
#272=CARTESIAN_POINT('',(0.E0,5.E-1,6.8E0));
#273=VERTEX_POINT('',#271);
#274=VERTEX_POINT('',#272);
#275=CARTESIAN_POINT('',(0.E0,7.000000000001E-1,-7.E0));
#276=VERTEX_POINT('',#275);
#277=CARTESIAN_POINT('',(-7.E0,7.000000000001E-1,0.E0));
#278=VERTEX_POINT('',#277);
#279=CARTESIAN_POINT('',(0.E0,7.000000000001E-1,7.E0));
#280=VERTEX_POINT('',#279);
#281=CARTESIAN_POINT('',(7.E0,7.000000000001E-1,0.E0));
#282=VERTEX_POINT('',#281);
#283=CARTESIAN_POINT('',(7.E0,1.8E0,0.E0));
#284=CARTESIAN_POINT('',(0.E0,1.8E0,7.E0));
#285=VERTEX_POINT('',#283);
#286=VERTEX_POINT('',#284);
#287=CARTESIAN_POINT('',(-7.E0,1.8E0,0.E0));
#288=VERTEX_POINT('',#287);
#289=CARTESIAN_POINT('',(0.E0,2.E0,-6.8E0));
#290=CARTESIAN_POINT('',(0.E0,2.E0,6.8E0));
#291=VERTEX_POINT('',#289);
#292=VERTEX_POINT('',#290);
#293=CARTESIAN_POINT('',(0.E0,1.8E0,-7.E0));
#294=VERTEX_POINT('',#293);
#295=CARTESIAN_POINT('',(3.9E0,2.E0,0.E0));
#296=CARTESIAN_POINT('',(-3.9E0,2.E0,0.E0));
#297=VERTEX_POINT('',#295);
#298=VERTEX_POINT('',#296);
#299=CARTESIAN_POINT('',(0.E0,2.079999999966E1,-4.000000000001E0));
#300=CARTESIAN_POINT('',(4.000000000001E0,2.079999999966E1,0.E0));
#301=VERTEX_POINT('',#299);
#302=VERTEX_POINT('',#300);
#303=CARTESIAN_POINT('',(-4.000000000001E0,2.079999999966E1,0.E0));
#304=VERTEX_POINT('',#303);
#305=CARTESIAN_POINT('',(0.E0,2.079999999966E1,4.000000000001E0));
#306=VERTEX_POINT('',#305);
#307=CARTESIAN_POINT('',(0.E0,2.099999999966E1,3.800000000019E0));
#308=CARTESIAN_POINT('',(0.E0,2.099999999966E1,-3.800000000019E0));
#309=VERTEX_POINT('',#307);
#310=VERTEX_POINT('',#308);
#311=CARTESIAN_POINT('',(0.E0,2.099999999966E1,3.5E0));
#312=CARTESIAN_POINT('',(0.E0,2.099999999966E1,-3.500000003294E0));
#313=VERTEX_POINT('',#311);
#314=VERTEX_POINT('',#312);
#315=CARTESIAN_POINT('',(0.E0,2.199999999967E1,3.5E0));
#316=VERTEX_POINT('',#315);
#317=CARTESIAN_POINT('',(0.E0,2.199999999967E1,-3.500000003294E0));
#318=VERTEX_POINT('',#317);
#319=CARTESIAN_POINT('',(3.9E0,2.199999999967E1,0.E0));
#320=CARTESIAN_POINT('',(0.E0,2.199999999967E1,-3.9E0));
#321=VERTEX_POINT('',#319);
#322=VERTEX_POINT('',#320);
#323=CARTESIAN_POINT('',(-3.9E0,2.199999999967E1,0.E0));
#324=VERTEX_POINT('',#323);
#325=CARTESIAN_POINT('',(0.E0,2.199999999967E1,3.9E0));
#326=VERTEX_POINT('',#325);
#327=CARTESIAN_POINT('',(3.900000000001E0,2.230000000104E1,
-2.878681292819E-10));
#328=VERTEX_POINT('',#327);
#329=CARTESIAN_POINT('',(8.636066253432E-10,2.230000000216E1,
-3.900000000605E0));
#330=VERTEX_POINT('',#329);
#331=CARTESIAN_POINT('',(-3.899999998878E0,2.230000000216E1,
-4.888874222170E-13));
#332=VERTEX_POINT('',#331);
#333=CARTESIAN_POINT('',(8.636039379043E-10,2.229999999991E1,3.899999999401E0));
#334=VERTEX_POINT('',#333);
#335=CARTESIAN_POINT('',(0.E0,2.25E1,3.699999999331E0));
#336=CARTESIAN_POINT('',(0.E0,2.25E1,-3.700000002785E0));
#337=VERTEX_POINT('',#335);
#338=VERTEX_POINT('',#336);
#339=CARTESIAN_POINT('',(-3.9E0,3.1E0,0.E0));
#340=CARTESIAN_POINT('',(3.9E0,3.1E0,0.E0));
#341=VERTEX_POINT('',#339);
#342=VERTEX_POINT('',#340);
#343=CARTESIAN_POINT('',(-4.E0,3.2E0,0.E0));
#344=CARTESIAN_POINT('',(4.E0,3.2E0,0.E0));
#345=VERTEX_POINT('',#343);
#346=VERTEX_POINT('',#344);
#347=CARTESIAN_POINT('',(0.E0,5.E-1,0.E0));
#348=DIRECTION('',(0.E0,1.E0,0.E0));
#349=DIRECTION('',(1.E0,0.E0,0.E0));
#350=AXIS2_PLACEMENT_3D('',#347,#348,#349);
#351=PLANE('',#350);
#353=ORIENTED_EDGE('',*,*,#352,.T.);
#355=ORIENTED_EDGE('',*,*,#354,.T.);
#356=EDGE_LOOP('',(#353,#355));
#357=FACE_OUTER_BOUND('',#356,.F.);
#358=ADVANCED_FACE('',(#357),#351,.F.);
#359=CARTESIAN_POINT('',(0.E0,6.000000000001E-1,0.E0));
#360=DIRECTION('',(0.E0,1.E0,0.E0));
#361=DIRECTION('',(0.E0,0.E0,-1.E0));
#362=AXIS2_PLACEMENT_3D('',#359,#360,#361);
#363=CONICAL_SURFACE('',#362,6.9E0,4.499999999999E1);
#364=ORIENTED_EDGE('',*,*,#352,.F.);
#366=ORIENTED_EDGE('',*,*,#365,.F.);
#368=ORIENTED_EDGE('',*,*,#367,.T.);
#370=ORIENTED_EDGE('',*,*,#369,.T.);
#372=ORIENTED_EDGE('',*,*,#371,.T.);
#373=EDGE_LOOP('',(#364,#366,#368,#370,#372));
#374=FACE_OUTER_BOUND('',#373,.F.);
#375=ADVANCED_FACE('',(#374),#363,.T.);
#376=CARTESIAN_POINT('',(0.E0,6.000000000001E-1,0.E0));
#377=DIRECTION('',(0.E0,1.E0,0.E0));
#378=DIRECTION('',(0.E0,0.E0,-1.E0));
#379=AXIS2_PLACEMENT_3D('',#376,#377,#378);
#380=CONICAL_SURFACE('',#379,6.9E0,4.499999999999E1);
#381=ORIENTED_EDGE('',*,*,#354,.F.);
#382=ORIENTED_EDGE('',*,*,#371,.F.);
#384=ORIENTED_EDGE('',*,*,#383,.T.);
#386=ORIENTED_EDGE('',*,*,#385,.T.);
#387=ORIENTED_EDGE('',*,*,#365,.T.);
#388=EDGE_LOOP('',(#381,#382,#384,#386,#387));
#389=FACE_OUTER_BOUND('',#388,.F.);
#390=ADVANCED_FACE('',(#389),#380,.T.);
#391=CARTESIAN_POINT('',(0.E0,-1.255E0,0.E0));
#392=DIRECTION('',(0.E0,1.E0,0.E0));
#393=DIRECTION('',(1.E0,0.E0,0.E0));
#394=AXIS2_PLACEMENT_3D('',#391,#392,#393);
#395=CYLINDRICAL_SURFACE('',#394,7.E0);
#397=ORIENTED_EDGE('',*,*,#396,.F.);
#399=ORIENTED_EDGE('',*,*,#398,.T.);
#400=ORIENTED_EDGE('',*,*,#383,.F.);
#401=ORIENTED_EDGE('',*,*,#369,.F.);
#403=ORIENTED_EDGE('',*,*,#402,.F.);
#405=ORIENTED_EDGE('',*,*,#404,.F.);
#406=EDGE_LOOP('',(#397,#399,#400,#401,#403,#405));
#407=FACE_OUTER_BOUND('',#406,.F.);
#408=ADVANCED_FACE('',(#407),#395,.T.);
#409=CARTESIAN_POINT('',(0.E0,1.9E0,-2.370002215245E-14));
#410=DIRECTION('',(0.E0,-1.E0,0.E0));
#411=DIRECTION('',(0.E0,0.E0,-1.E0));
#412=AXIS2_PLACEMENT_3D('',#409,#410,#411);
#413=CONICAL_SURFACE('',#412,6.9E0,4.499999999999E1);
#415=ORIENTED_EDGE('',*,*,#414,.F.);
#417=ORIENTED_EDGE('',*,*,#416,.F.);
#419=ORIENTED_EDGE('',*,*,#418,.T.);
#420=ORIENTED_EDGE('',*,*,#396,.T.);
#422=ORIENTED_EDGE('',*,*,#421,.T.);
#423=EDGE_LOOP('',(#415,#417,#419,#420,#422));
#424=FACE_OUTER_BOUND('',#423,.F.);
#425=ADVANCED_FACE('',(#424),#413,.T.);
#426=CARTESIAN_POINT('',(0.E0,2.E0,0.E0));
#427=DIRECTION('',(0.E0,1.E0,0.E0));
#428=DIRECTION('',(1.E0,0.E0,0.E0));
#429=AXIS2_PLACEMENT_3D('',#426,#427,#428);
#430=PLANE('',#429);
#431=ORIENTED_EDGE('',*,*,#414,.T.);
#433=ORIENTED_EDGE('',*,*,#432,.T.);
#434=EDGE_LOOP('',(#431,#433));
#435=FACE_OUTER_BOUND('',#434,.F.);
#437=ORIENTED_EDGE('',*,*,#436,.T.);
#439=ORIENTED_EDGE('',*,*,#438,.T.);
#440=EDGE_LOOP('',(#437,#439));
#441=FACE_BOUND('',#440,.F.);
#442=ADVANCED_FACE('',(#435,#441),#430,.T.);
#443=CARTESIAN_POINT('',(0.E0,1.9E0,-2.370002215245E-14));
#444=DIRECTION('',(0.E0,-1.E0,0.E0));
#445=DIRECTION('',(0.E0,0.E0,-1.E0));
#446=AXIS2_PLACEMENT_3D('',#443,#444,#445);
#447=CONICAL_SURFACE('',#446,6.9E0,4.499999999999E1);
#448=ORIENTED_EDGE('',*,*,#432,.F.);
#449=ORIENTED_EDGE('',*,*,#421,.F.);
#450=ORIENTED_EDGE('',*,*,#404,.T.);
#452=ORIENTED_EDGE('',*,*,#451,.T.);
#453=ORIENTED_EDGE('',*,*,#416,.T.);
#454=EDGE_LOOP('',(#448,#449,#450,#452,#453));
#455=FACE_OUTER_BOUND('',#454,.F.);
#456=ADVANCED_FACE('',(#455),#447,.T.);
#457=CARTESIAN_POINT('',(0.E0,-1.255E0,0.E0));
#458=DIRECTION('',(0.E0,1.E0,0.E0));
#459=DIRECTION('',(1.E0,0.E0,0.E0));
#460=AXIS2_PLACEMENT_3D('',#457,#458,#459);
#461=CYLINDRICAL_SURFACE('',#460,7.E0);
#462=ORIENTED_EDGE('',*,*,#418,.F.);
#463=ORIENTED_EDGE('',*,*,#451,.F.);
#464=ORIENTED_EDGE('',*,*,#402,.T.);
#465=ORIENTED_EDGE('',*,*,#367,.F.);
#466=ORIENTED_EDGE('',*,*,#385,.F.);
#467=ORIENTED_EDGE('',*,*,#398,.F.);
#468=EDGE_LOOP('',(#462,#463,#464,#465,#466,#467));
#469=FACE_OUTER_BOUND('',#468,.F.);
#470=ADVANCED_FACE('',(#469),#461,.T.);
#471=CARTESIAN_POINT('',(0.E0,-1.255E0,0.E0));
#472=DIRECTION('',(0.E0,1.E0,0.E0));
#473=DIRECTION('',(1.E0,0.E0,0.E0));
#474=AXIS2_PLACEMENT_3D('',#471,#472,#473);
#475=CYLINDRICAL_SURFACE('',#474,3.9E0);
#477=ORIENTED_EDGE('',*,*,#476,.F.);
#479=ORIENTED_EDGE('',*,*,#478,.T.);
#480=ORIENTED_EDGE('',*,*,#436,.F.);
#482=ORIENTED_EDGE('',*,*,#481,.F.);
#483=EDGE_LOOP('',(#477,#479,#480,#482));
#484=FACE_OUTER_BOUND('',#483,.F.);
#485=ADVANCED_FACE('',(#484),#475,.T.);
#486=CARTESIAN_POINT('',(0.E0,3.149999999800E0,0.E0));
#487=DIRECTION('',(0.E0,1.E0,0.E0));
#488=DIRECTION('',(0.E0,0.E0,-1.E0));
#489=AXIS2_PLACEMENT_3D('',#486,#487,#488);
#490=CONICAL_SURFACE('',#489,3.949999999800E0,4.5E1);
#491=ORIENTED_EDGE('',*,*,#476,.T.);
#493=ORIENTED_EDGE('',*,*,#492,.T.);
#495=ORIENTED_EDGE('',*,*,#494,.F.);
#497=ORIENTED_EDGE('',*,*,#496,.F.);
#498=EDGE_LOOP('',(#491,#493,#495,#497));
#499=FACE_OUTER_BOUND('',#498,.F.);
#500=ADVANCED_FACE('',(#499),#490,.T.);
#501=CARTESIAN_POINT('',(0.E0,3.149999999800E0,0.E0));
#502=DIRECTION('',(0.E0,1.E0,0.E0));
#503=DIRECTION('',(0.E0,0.E0,-1.E0));
#504=AXIS2_PLACEMENT_3D('',#501,#502,#503);
#505=CONICAL_SURFACE('',#504,3.949999999800E0,4.5E1);
#507=ORIENTED_EDGE('',*,*,#506,.T.);
#508=ORIENTED_EDGE('',*,*,#496,.T.);
#510=ORIENTED_EDGE('',*,*,#509,.F.);
#511=ORIENTED_EDGE('',*,*,#492,.F.);
#512=EDGE_LOOP('',(#507,#508,#510,#511));
#513=FACE_OUTER_BOUND('',#512,.F.);
#514=ADVANCED_FACE('',(#513),#505,.T.);
#515=CARTESIAN_POINT('',(0.E0,-1.255E0,0.E0));
#516=DIRECTION('',(0.E0,1.E0,0.E0));
#517=DIRECTION('',(1.E0,0.E0,0.E0));
#518=AXIS2_PLACEMENT_3D('',#515,#516,#517);
#519=CYLINDRICAL_SURFACE('',#518,3.9E0);
#520=ORIENTED_EDGE('',*,*,#506,.F.);
#521=ORIENTED_EDGE('',*,*,#481,.T.);
#522=ORIENTED_EDGE('',*,*,#438,.F.);
#523=ORIENTED_EDGE('',*,*,#478,.F.);
#524=EDGE_LOOP('',(#520,#521,#522,#523));
#525=FACE_OUTER_BOUND('',#524,.F.);
#526=ADVANCED_FACE('',(#525),#519,.T.);
#527=CARTESIAN_POINT('',(0.E0,-1.255E0,0.E0));
#528=DIRECTION('',(0.E0,1.E0,0.E0));
#529=DIRECTION('',(1.E0,0.E0,0.E0));
#530=AXIS2_PLACEMENT_3D('',#527,#528,#529);
#531=CYLINDRICAL_SURFACE('',#530,4.E0);
#532=ORIENTED_EDGE('',*,*,#509,.T.);
#534=ORIENTED_EDGE('',*,*,#533,.F.);
#536=ORIENTED_EDGE('',*,*,#535,.F.);
#538=ORIENTED_EDGE('',*,*,#537,.F.);
#540=ORIENTED_EDGE('',*,*,#539,.T.);
#541=EDGE_LOOP('',(#532,#534,#536,#538,#540));
#542=FACE_OUTER_BOUND('',#541,.F.);
#543=ADVANCED_FACE('',(#542),#531,.T.);
#544=CARTESIAN_POINT('',(0.E0,-1.255E0,0.E0));
#545=DIRECTION('',(0.E0,1.E0,0.E0));
#546=DIRECTION('',(1.E0,0.E0,0.E0));
#547=AXIS2_PLACEMENT_3D('',#544,#545,#546);
#548=CYLINDRICAL_SURFACE('',#547,4.E0);
#549=ORIENTED_EDGE('',*,*,#494,.T.);
#550=ORIENTED_EDGE('',*,*,#539,.F.);
#552=ORIENTED_EDGE('',*,*,#551,.F.);
#554=ORIENTED_EDGE('',*,*,#553,.F.);
#555=ORIENTED_EDGE('',*,*,#533,.T.);
#556=EDGE_LOOP('',(#549,#550,#552,#554,#555));
#557=FACE_OUTER_BOUND('',#556,.F.);
#558=ADVANCED_FACE('',(#557),#548,.T.);
#559=CARTESIAN_POINT('',(0.E0,2.089999999966E1,0.E0));
#560=DIRECTION('',(0.E0,-1.E0,0.E0));
#561=DIRECTION('',(0.E0,0.E0,-1.E0));
#562=AXIS2_PLACEMENT_3D('',#559,#560,#561);
#563=CONICAL_SURFACE('',#562,3.900000000010E0,4.499999999744E1);
#565=ORIENTED_EDGE('',*,*,#564,.F.);
#567=ORIENTED_EDGE('',*,*,#566,.F.);
#568=ORIENTED_EDGE('',*,*,#551,.T.);
#569=ORIENTED_EDGE('',*,*,#537,.T.);
#571=ORIENTED_EDGE('',*,*,#570,.T.);
#572=EDGE_LOOP('',(#565,#567,#568,#569,#571));
#573=FACE_OUTER_BOUND('',#572,.F.);
#574=ADVANCED_FACE('',(#573),#563,.T.);
#575=CARTESIAN_POINT('',(0.E0,2.099999999966E1,0.E0));
#576=DIRECTION('',(0.E0,-1.E0,0.E0));
#577=DIRECTION('',(0.E0,0.E0,-1.E0));
#578=AXIS2_PLACEMENT_3D('',#575,#576,#577);
#579=PLANE('',#578);
#581=ORIENTED_EDGE('',*,*,#580,.T.);
#582=ORIENTED_EDGE('',*,*,#564,.T.);
#583=EDGE_LOOP('',(#581,#582));
#584=FACE_OUTER_BOUND('',#583,.F.);
#586=ORIENTED_EDGE('',*,*,#585,.T.);
#588=ORIENTED_EDGE('',*,*,#587,.T.);
#589=EDGE_LOOP('',(#586,#588));
#590=FACE_BOUND('',#589,.F.);
#591=ADVANCED_FACE('',(#584,#590),#579,.F.);
#592=CARTESIAN_POINT('',(0.E0,2.089999999966E1,0.E0));
#593=DIRECTION('',(0.E0,-1.E0,0.E0));
#594=DIRECTION('',(0.E0,0.E0,-1.E0));
#595=AXIS2_PLACEMENT_3D('',#592,#593,#594);
#596=CONICAL_SURFACE('',#595,3.900000000010E0,4.499999999744E1);
#597=ORIENTED_EDGE('',*,*,#580,.F.);
#598=ORIENTED_EDGE('',*,*,#570,.F.);
#599=ORIENTED_EDGE('',*,*,#535,.T.);
#600=ORIENTED_EDGE('',*,*,#553,.T.);
#601=ORIENTED_EDGE('',*,*,#566,.T.);
#602=EDGE_LOOP('',(#597,#598,#599,#600,#601));
#603=FACE_OUTER_BOUND('',#602,.F.);
#604=ADVANCED_FACE('',(#603),#596,.T.);
#605=CARTESIAN_POINT('',(0.E0,2.25E1,-1.646667949660E-9));
#606=DIRECTION('',(0.E0,1.E0,0.E0));
#607=DIRECTION('',(0.E0,0.E0,1.E0));
#608=AXIS2_PLACEMENT_3D('',#605,#606,#607);
#609=CYLINDRICAL_SURFACE('',#608,3.500000001647E0);
#610=ORIENTED_EDGE('',*,*,#585,.F.);
#612=ORIENTED_EDGE('',*,*,#611,.F.);
#614=ORIENTED_EDGE('',*,*,#613,.F.);
#616=ORIENTED_EDGE('',*,*,#615,.T.);
#617=EDGE_LOOP('',(#610,#612,#614,#616));
#618=FACE_OUTER_BOUND('',#617,.F.);
#619=ADVANCED_FACE('',(#618),#609,.T.);
#620=CARTESIAN_POINT('',(0.E0,2.25E1,-1.646667949660E-9));
#621=DIRECTION('',(0.E0,1.E0,0.E0));
#622=DIRECTION('',(0.E0,0.E0,1.E0));
#623=AXIS2_PLACEMENT_3D('',#620,#621,#622);
#624=CYLINDRICAL_SURFACE('',#623,3.500000001647E0);
#625=ORIENTED_EDGE('',*,*,#587,.F.);
#626=ORIENTED_EDGE('',*,*,#615,.F.);
#628=ORIENTED_EDGE('',*,*,#627,.F.);
#629=ORIENTED_EDGE('',*,*,#611,.T.);
#630=EDGE_LOOP('',(#625,#626,#628,#629));
#631=FACE_OUTER_BOUND('',#630,.F.);
#632=ADVANCED_FACE('',(#631),#624,.T.);
#633=CARTESIAN_POINT('',(0.E0,2.199999999967E1,0.E0));
#634=DIRECTION('',(0.E0,-1.E0,0.E0));
#635=DIRECTION('',(0.E0,0.E0,-1.E0));
#636=AXIS2_PLACEMENT_3D('',#633,#634,#635);
#637=PLANE('',#636);
#639=ORIENTED_EDGE('',*,*,#638,.T.);
#641=ORIENTED_EDGE('',*,*,#640,.T.);
#643=ORIENTED_EDGE('',*,*,#642,.T.);
#645=ORIENTED_EDGE('',*,*,#644,.T.);
#646=EDGE_LOOP('',(#639,#641,#643,#645));
#647=FACE_OUTER_BOUND('',#646,.F.);
#648=ORIENTED_EDGE('',*,*,#627,.T.);
#649=ORIENTED_EDGE('',*,*,#613,.T.);
#650=EDGE_LOOP('',(#648,#649));
#651=FACE_BOUND('',#650,.F.);
#652=ADVANCED_FACE('',(#647,#651),#637,.T.);
#653=CARTESIAN_POINT('',(0.E0,-1.255E0,0.E0));
#654=DIRECTION('',(0.E0,1.E0,0.E0));
#655=DIRECTION('',(1.E0,0.E0,0.E0));
#656=AXIS2_PLACEMENT_3D('',#653,#654,#655);
#657=CYLINDRICAL_SURFACE('',#656,3.9E0);
#658=ORIENTED_EDGE('',*,*,#640,.F.);
#659=ORIENTED_EDGE('',*,*,#638,.F.);
#661=ORIENTED_EDGE('',*,*,#660,.F.);
#663=ORIENTED_EDGE('',*,*,#662,.F.);
#665=ORIENTED_EDGE('',*,*,#664,.F.);
#667=ORIENTED_EDGE('',*,*,#666,.T.);
#668=EDGE_LOOP('',(#658,#659,#661,#663,#665,#667));
#669=FACE_OUTER_BOUND('',#668,.F.);
#670=ADVANCED_FACE('',(#669),#657,.T.);
#671=CARTESIAN_POINT('',(0.E0,-1.255E0,0.E0));
#672=DIRECTION('',(0.E0,1.E0,0.E0));
#673=DIRECTION('',(1.E0,0.E0,0.E0));
#674=AXIS2_PLACEMENT_3D('',#671,#672,#673);
#675=CYLINDRICAL_SURFACE('',#674,3.9E0);
#676=ORIENTED_EDGE('',*,*,#642,.F.);
#677=ORIENTED_EDGE('',*,*,#666,.F.);
#679=ORIENTED_EDGE('',*,*,#678,.F.);
#681=ORIENTED_EDGE('',*,*,#680,.F.);
#682=ORIENTED_EDGE('',*,*,#660,.T.);
#683=ORIENTED_EDGE('',*,*,#644,.F.);
#684=EDGE_LOOP('',(#676,#677,#679,#681,#682,#683));
#685=FACE_OUTER_BOUND('',#684,.F.);
#686=ADVANCED_FACE('',(#685),#675,.T.);
#687=CARTESIAN_POINT('',(0.E0,2.239999999990E1,-1.727211490668E-9));
#688=DIRECTION('',(0.E0,-1.E0,0.E0));
#689=DIRECTION('',(0.E0,0.E0,-1.E0));
#690=AXIS2_PLACEMENT_3D('',#687,#688,#689);
#691=CONICAL_SURFACE('',#690,3.800000001147E0,4.499999999744E1);
#693=ORIENTED_EDGE('',*,*,#692,.F.);
#695=ORIENTED_EDGE('',*,*,#694,.F.);
#696=ORIENTED_EDGE('',*,*,#678,.T.);
#697=ORIENTED_EDGE('',*,*,#664,.T.);
#699=ORIENTED_EDGE('',*,*,#698,.T.);
#700=EDGE_LOOP('',(#693,#695,#696,#697,#699));
#701=FACE_OUTER_BOUND('',#700,.F.);
#702=ADVANCED_FACE('',(#701),#691,.T.);
#703=CARTESIAN_POINT('',(0.E0,2.25E1,0.E0));
#704=DIRECTION('',(0.E0,1.E0,0.E0));
#705=DIRECTION('',(0.E0,0.E0,1.E0));
#706=AXIS2_PLACEMENT_3D('',#703,#704,#705);
#707=PLANE('',#706);
#709=ORIENTED_EDGE('',*,*,#708,.T.);
#710=ORIENTED_EDGE('',*,*,#692,.T.);
#711=EDGE_LOOP('',(#709,#710));
#712=FACE_OUTER_BOUND('',#711,.F.);
#713=ADVANCED_FACE('',(#712),#707,.T.);
#714=CARTESIAN_POINT('',(0.E0,2.239999999990E1,-1.727211490668E-9));
#715=DIRECTION('',(0.E0,-1.E0,0.E0));
#716=DIRECTION('',(0.E0,0.E0,-1.E0));
#717=AXIS2_PLACEMENT_3D('',#714,#715,#716);
#718=CONICAL_SURFACE('',#717,3.800000001147E0,4.499999999744E1);
#719=ORIENTED_EDGE('',*,*,#708,.F.);
#720=ORIENTED_EDGE('',*,*,#698,.F.);
#721=ORIENTED_EDGE('',*,*,#662,.T.);
#722=ORIENTED_EDGE('',*,*,#680,.T.);
#723=ORIENTED_EDGE('',*,*,#694,.T.);
#724=EDGE_LOOP('',(#719,#720,#721,#722,#723));
#725=FACE_OUTER_BOUND('',#724,.F.);
#726=ADVANCED_FACE('',(#725),#718,.T.);
#730=DIMENSIONAL_EXPONENTS(0.E0,0.E0,0.E0,0.E0,0.E0,0.E0,0.E0);
#732=PLANE_ANGLE_MEASURE_WITH_UNIT(PLANE_ANGLE_MEASURE(1.745329251994E-2),#731);
#733=(CONVERSION_BASED_UNIT('DEGREE',#732)NAMED_UNIT(*)PLANE_ANGLE_UNIT());
#735=UNCERTAINTY_MEASURE_WITH_UNIT(LENGTH_MEASURE(2.959611328201E-3),#729,
'closure',
'Maximum model space distance between geometric entities at asserted connectivities');
#736=(GEOMETRIC_REPRESENTATION_CONTEXT(3)GLOBAL_UNCERTAINTY_ASSIGNED_CONTEXT((
#735))GLOBAL_UNIT_ASSIGNED_CONTEXT((#729,#733,#734))REPRESENTATION_CONTEXT
('ID1','3'));
#738=APPLICATION_CONTEXT(
'CONFIGURATION CONTROLLED 3D DESIGNS OF MECHANICAL PARTS AND ASSEMBLIES');
#739=APPLICATION_PROTOCOL_DEFINITION('international standard',
'config_control_design',1994,#738);
#740=DESIGN_CONTEXT('',#738,'design');
#741=MECHANICAL_CONTEXT('',#738,'mechanical');
#742=PRODUCT('KD-D-505X_LINKAGEPIN_1','KD-D-505X_LINKAGEPIN_1','NOT SPECIFIED',(
#741));
#743=PRODUCT_DEFINITION_FORMATION_WITH_SPECIFIED_SOURCE('2','LAST_VERSION',#742,
.MADE.);
#747=PRODUCT_CATEGORY('part','');
#748=PRODUCT_RELATED_PRODUCT_CATEGORY('detail','',(#742));
#749=PRODUCT_CATEGORY_RELATIONSHIP('','',#747,#748);
#750=SECURITY_CLASSIFICATION_LEVEL('unclassified');
#751=SECURITY_CLASSIFICATION('','',#750);
#752=CC_DESIGN_SECURITY_CLASSIFICATION(#751,(#743));
#753=APPROVAL_STATUS('approved');
#754=APPROVAL(#753,'');
#755=CC_DESIGN_APPROVAL(#754,(#751,#743,#744));
#756=CALENDAR_DATE(125,12,7);
#757=COORDINATED_UNIVERSAL_TIME_OFFSET(8,0,.AHEAD.);
#758=LOCAL_TIME(16,35,4.3E1,#757);
#759=DATE_AND_TIME(#756,#758);
#760=APPROVAL_DATE_TIME(#759,#754);
#761=DATE_TIME_ROLE('creation_date');
#762=CC_DESIGN_DATE_AND_TIME_ASSIGNMENT(#759,#761,(#744));
#763=DATE_TIME_ROLE('classification_date');
#764=CC_DESIGN_DATE_AND_TIME_ASSIGNMENT(#759,#763,(#751));
#765=PERSON('UNSPECIFIED','UNSPECIFIED',$,$,$,$);
#766=ORGANIZATION('UNSPECIFIED','UNSPECIFIED','UNSPECIFIED');
#767=PERSON_AND_ORGANIZATION(#765,#766);
#768=APPROVAL_ROLE('approver');
#769=APPROVAL_PERSON_ORGANIZATION(#767,#754,#768);
#770=PERSON_AND_ORGANIZATION_ROLE('creator');
#771=CC_DESIGN_PERSON_AND_ORGANIZATION_ASSIGNMENT(#767,#770,(#743,#744));
#772=PERSON_AND_ORGANIZATION_ROLE('design_supplier');
#773=CC_DESIGN_PERSON_AND_ORGANIZATION_ASSIGNMENT(#767,#772,(#743));
#774=PERSON_AND_ORGANIZATION_ROLE('classification_officer');
#775=CC_DESIGN_PERSON_AND_ORGANIZATION_ASSIGNMENT(#767,#774,(#751));
#776=PERSON_AND_ORGANIZATION_ROLE('design_owner');
#777=CC_DESIGN_PERSON_AND_ORGANIZATION_ASSIGNMENT(#767,#776,(#742));
#5=CIRCLE('',#4,6.8E0);
#10=CIRCLE('',#9,6.8E0);
#15=CIRCLE('',#14,7.E0);
#20=CIRCLE('',#19,7.E0);
#29=CIRCLE('',#28,7.E0);
#34=CIRCLE('',#33,7.E0);
#47=CIRCLE('',#46,7.E0);
#52=CIRCLE('',#51,7.E0);
#61=CIRCLE('',#60,6.8E0);
#66=CIRCLE('',#65,6.8E0);
#71=CIRCLE('',#70,3.9E0);
#76=CIRCLE('',#75,3.9E0);
#81=CIRCLE('',#80,7.E0);
#86=CIRCLE('',#85,7.E0);
#99=CIRCLE('',#98,3.9E0);
#116=CIRCLE('',#115,3.9E0);
#125=CIRCLE('',#124,4.E0);
#134=CIRCLE('',#133,4.E0);
#143=CIRCLE('',#142,4.000000000001E0);
#148=CIRCLE('',#147,4.000000000001E0);
#157=CIRCLE('',#156,3.800000000019E0);
#162=CIRCLE('',#161,3.800000000019E0);
#167=CIRCLE('',#166,3.500000001647E0);
#172=CIRCLE('',#171,3.500000001647E0);
#177=CIRCLE('',#176,4.000000000001E0);
#182=CIRCLE('',#181,4.000000000001E0);
#199=CIRCLE('',#198,3.9E0);
#204=CIRCLE('',#203,3.9E0);
#209=CIRCLE('',#208,3.9E0);
#214=CIRCLE('',#213,3.9E0);
#219=CIRCLE('',#218,3.500000001647E0);
#224=CIRCLE('',#223,3.500000001647E0);
#237=CIRCLE('',#236,3.900000001129E0);
#242=CIRCLE('',#241,3.899999998878E0);
#251=CIRCLE('',#250,3.700000001058E0);
#256=CIRCLE('',#255,3.700000001058E0);
#261=CIRCLE('',#260,3.899999998878E0);
#266=CIRCLE('',#265,3.900000001129E0);
#352=EDGE_CURVE('',#273,#274,#5,.T.);
#354=EDGE_CURVE('',#274,#273,#10,.T.);
#365=EDGE_CURVE('',#276,#273,#38,.T.);
#367=EDGE_CURVE('',#276,#278,#15,.T.);
#369=EDGE_CURVE('',#278,#280,#20,.T.);
#371=EDGE_CURVE('',#280,#274,#24,.T.);
#383=EDGE_CURVE('',#280,#282,#29,.T.);
#385=EDGE_CURVE('',#282,#276,#34,.T.);
#396=EDGE_CURVE('',#285,#286,#52,.T.);
#398=EDGE_CURVE('',#285,#282,#42,.T.);
#402=EDGE_CURVE('',#288,#278,#94,.T.);
#404=EDGE_CURVE('',#286,#288,#81,.T.);
#414=EDGE_CURVE('',#291,#292,#61,.T.);
#416=EDGE_CURVE('',#294,#291,#90,.T.);
#418=EDGE_CURVE('',#294,#285,#47,.T.);
#421=EDGE_CURVE('',#286,#292,#56,.T.);
#432=EDGE_CURVE('',#292,#291,#66,.T.);
#436=EDGE_CURVE('',#297,#298,#71,.T.);
#438=EDGE_CURVE('',#298,#297,#76,.T.);
#451=EDGE_CURVE('',#288,#294,#86,.T.);
#476=EDGE_CURVE('',#341,#342,#99,.T.);
#478=EDGE_CURVE('',#341,#298,#103,.T.);
#481=EDGE_CURVE('',#342,#297,#120,.T.);
#492=EDGE_CURVE('',#342,#346,#111,.T.);
#494=EDGE_CURVE('',#345,#346,#134,.T.);
#496=EDGE_CURVE('',#341,#345,#107,.T.);
#506=EDGE_CURVE('',#342,#341,#116,.T.);
#509=EDGE_CURVE('',#346,#345,#125,.T.);
#533=EDGE_CURVE('',#304,#345,#138,.T.);
#535=EDGE_CURVE('',#306,#304,#177,.T.);
#537=EDGE_CURVE('',#302,#306,#148,.T.);
#539=EDGE_CURVE('',#302,#346,#129,.T.);
#551=EDGE_CURVE('',#301,#302,#143,.T.);
#553=EDGE_CURVE('',#304,#301,#182,.T.);
#564=EDGE_CURVE('',#310,#309,#162,.T.);
#566=EDGE_CURVE('',#301,#310,#186,.T.);
#570=EDGE_CURVE('',#306,#309,#152,.T.);
#580=EDGE_CURVE('',#309,#310,#157,.T.);
#585=EDGE_CURVE('',#313,#314,#167,.T.);
#587=EDGE_CURVE('',#314,#313,#172,.T.);
#611=EDGE_CURVE('',#316,#313,#194,.T.);
#613=EDGE_CURVE('',#318,#316,#224,.T.);
#615=EDGE_CURVE('',#318,#314,#190,.T.);
#627=EDGE_CURVE('',#316,#318,#219,.T.);
#638=EDGE_CURVE('',#321,#322,#199,.T.);
#640=EDGE_CURVE('',#322,#324,#204,.T.);
#642=EDGE_CURVE('',#324,#326,#209,.T.);
#644=EDGE_CURVE('',#326,#321,#214,.T.);
#660=EDGE_CURVE('',#328,#321,#232,.T.);
#662=EDGE_CURVE('',#330,#328,#261,.T.);
#664=EDGE_CURVE('',#332,#330,#242,.T.);
#666=EDGE_CURVE('',#332,#324,#228,.T.);
#678=EDGE_CURVE('',#334,#332,#237,.T.);
#680=EDGE_CURVE('',#328,#334,#266,.T.);
#692=EDGE_CURVE('',#337,#338,#256,.T.);
#694=EDGE_CURVE('',#334,#337,#270,.T.);
#698=EDGE_CURVE('',#330,#338,#246,.T.);
#708=EDGE_CURVE('',#338,#337,#251,.T.);
#727=CLOSED_SHELL('',(#358,#375,#390,#408,#425,#442,#456,#470,#485,#500,#514,
#526,#543,#558,#574,#591,#604,#619,#632,#652,#670,#686,#702,#713,#726));
#728=MANIFOLD_SOLID_BREP('',#727);
#729=(LENGTH_UNIT()NAMED_UNIT(*)SI_UNIT(.MILLI.,.METRE.));
#731=(NAMED_UNIT(*)PLANE_ANGLE_UNIT()SI_UNIT($,.RADIAN.));
#734=(NAMED_UNIT(*)SI_UNIT($,.STERADIAN.)SOLID_ANGLE_UNIT());
#737=ADVANCED_BREP_SHAPE_REPRESENTATION('',(#728),#736);
#744=PRODUCT_DEFINITION('design','',#743,#740);
#745=PRODUCT_DEFINITION_SHAPE('','SHAPE FOR KD-D-505X_LINKAGEPIN_1.',#744);
#746=SHAPE_DEFINITION_REPRESENTATION(#745,#737);
ENDSEC;
END-ISO-10303-21;
