ISO-10303-21;
HEADER;
FILE_DESCRIPTION((''),'2;1');
FILE_NAME('KD-D-203L_THIGH_ROLL_HARDSTOP_1','2025-07-12T16:17:15',(
'Administrator'),(''),'CREO PARAMETRIC BY PTC INC, 2022073',
'CREO PARAMETRIC BY PTC INC, 2022073','');
FILE_SCHEMA(('CONFIG_CONTROL_DESIGN'));
ENDSEC;
DATA;
#1=DIRECTION('',(9.764134700337E-1,2.159090909079E-1,4.969472212434E-14));
#2=VECTOR('',#1,4.003482814836E0);
#3=CARTESIAN_POINT('',(1.708725467802E2,5.922426389472E0,-2.455E2));
#4=LINE('',#3,#2);
#5=CARTESIAN_POINT('',(1.752134195096E2,4.833987784441E0,-2.455E2));
#6=DIRECTION('',(0.E0,0.E0,-1.E0));
#7=DIRECTION('',(-2.159090910225E-1,9.764134700084E-1,0.E0));
#8=AXIS2_PLACEMENT_3D('',#5,#6,#7);
#10=CARTESIAN_POINT('',(1.26E2,-4.E0,-2.455E2));
#11=DIRECTION('',(0.E0,0.E0,-1.E0));
#12=DIRECTION('',(9.842683901905E-1,1.766797556933E-1,0.E0));
#13=AXIS2_PLACEMENT_3D('',#10,#11,#12);
#15=CARTESIAN_POINT('',(1.26E2,-4.E0,-2.455E2));
#16=DIRECTION('',(0.E0,0.E0,-1.E0));
#17=DIRECTION('',(1.E0,0.E0,0.E0));
#18=AXIS2_PLACEMENT_3D('',#15,#16,#17);
#20=CARTESIAN_POINT('',(1.752134195096E2,-1.283398778444E1,-2.455E2));
#21=DIRECTION('',(0.E0,0.E0,-1.E0));
#22=DIRECTION('',(9.842683901694E-1,-1.766797558108E-1,0.E0));
#23=AXIS2_PLACEMENT_3D('',#20,#21,#22);
#25=DIRECTION('',(-9.764134700337E-1,2.159090909081E-1,-4.259547610611E-14));
#26=VECTOR('',#25,4.003482814879E0);
#27=CARTESIAN_POINT('',(1.747816013277E2,-1.478681472450E1,-2.455E2));
#28=LINE('',#27,#26);
#29=CARTESIAN_POINT('',(1.704407285984E2,-1.587525332954E1,-2.455E2));
#30=DIRECTION('',(0.E0,0.E0,1.E0));
#31=DIRECTION('',(2.159090908959E-1,9.764134700364E-1,0.E0));
#32=AXIS2_PLACEMENT_3D('',#29,#30,#31);
#34=CARTESIAN_POINT('',(1.260000000001E2,-3.999999999971E0,-2.455E2));
#35=DIRECTION('',(0.E0,0.E0,-1.E0));
#36=DIRECTION('',(9.661027956212E-1,-2.581576810652E-1,0.E0));
#37=AXIS2_PLACEMENT_3D('',#34,#35,#36);
#39=CARTESIAN_POINT('',(1.680485755041E2,-2.385364697158E1,-2.455E2));
#40=DIRECTION('',(0.E0,0.E0,1.E0));
#41=DIRECTION('',(-9.042704410895E-1,4.269601496297E-1,0.E0));
#42=AXIS2_PLACEMENT_3D('',#39,#40,#41);
#44=CARTESIAN_POINT('',(1.680485755041E2,-2.385364697158E1,-2.455E2));
#45=DIRECTION('',(0.E0,0.E0,1.E0));
#46=DIRECTION('',(-1.E0,0.E0,0.E0));
#47=AXIS2_PLACEMENT_3D('',#44,#45,#46);
#49=DIRECTION('',(8.800077481320E-1,-4.749593279720E-1,0.E0));
#50=VECTOR('',#49,5.006537533647E0);
#51=CARTESIAN_POINT('',(1.668611771841E2,-2.605366634186E1,-2.455E2));
#52=LINE('',#51,#50);
#53=CARTESIAN_POINT('',(1.724543673249E2,-2.623154867395E1,-2.455E2));
#54=DIRECTION('',(0.E0,0.E0,1.E0));
#55=DIRECTION('',(-4.749593279133E-1,-8.800077481637E-1,0.E0));
#56=AXIS2_PLACEMENT_3D('',#53,#54,#55);
#58=CARTESIAN_POINT('',(1.26E2,-3.999999999999E0,-2.455E2));
#59=DIRECTION('',(0.E0,0.E0,1.E0));
#60=DIRECTION('',(9.020265499988E-1,-4.316805567746E-1,0.E0));
#61=AXIS2_PLACEMENT_3D('',#58,#59,#60);
#63=CARTESIAN_POINT('',(1.26E2,-3.999999999999E0,-2.455E2));
#64=DIRECTION('',(0.E0,0.E0,1.E0));
#65=DIRECTION('',(1.E0,0.E0,0.E0));
#66=AXIS2_PLACEMENT_3D('',#63,#64,#65);
#68=CARTESIAN_POINT('',(1.724543673249E2,1.823154867395E1,-2.455E2));
#69=DIRECTION('',(0.E0,0.E0,1.E0));
#70=DIRECTION('',(9.020265500120E-1,4.316805567471E-1,0.E0));
#71=AXIS2_PLACEMENT_3D('',#68,#69,#70);
#73=DIRECTION('',(-8.800077481320E-1,-4.749593279720E-1,0.E0));
#74=VECTOR('',#73,5.006537533538E0);
#75=CARTESIAN_POINT('',(1.712669690050E2,2.043156804429E1,-2.455E2));
#76=LINE('',#75,#74);
#77=CARTESIAN_POINT('',(1.680485755041E2,1.585364697158E1,-2.455E2));
#78=DIRECTION('',(0.E0,0.E0,1.E0));
#79=DIRECTION('',(-4.749593280092E-1,8.800077481119E-1,0.E0));
#80=AXIS2_PLACEMENT_3D('',#77,#78,#79);
#82=CARTESIAN_POINT('',(1.680485755041E2,1.585364697158E1,-2.455E2));
#83=DIRECTION('',(0.E0,0.E0,1.E0));
#84=DIRECTION('',(-1.E0,0.E0,0.E0));
#85=AXIS2_PLACEMENT_3D('',#82,#83,#84);
#87=CARTESIAN_POINT('',(1.260000000001E2,-3.999999999971E0,-2.455E2));
#88=DIRECTION('',(0.E0,0.E0,-1.E0));
#89=DIRECTION('',(9.042704409323E-1,4.269601499626E-1,0.E0));
#90=AXIS2_PLACEMENT_3D('',#87,#88,#89);
#92=CARTESIAN_POINT('',(1.704407285984E2,7.875253329544E0,-2.455E2));
#93=DIRECTION('',(0.E0,0.E0,1.E0));
#94=DIRECTION('',(-9.661027955177E-1,-2.581576814523E-1,0.E0));
#95=AXIS2_PLACEMENT_3D('',#92,#93,#94);
#97=CARTESIAN_POINT('',(1.712700970931E2,-2.275148818589E1,-2.455E2));
#98=DIRECTION('',(0.E0,0.E0,-1.E0));
#99=DIRECTION('',(-1.E0,0.E0,0.E0));
#100=AXIS2_PLACEMENT_3D('',#97,#98,#99);
#102=CARTESIAN_POINT('',(1.712700970931E2,-2.275148818589E1,-2.455E2));
#103=DIRECTION('',(0.E0,0.E0,-1.E0));
#104=DIRECTION('',(1.E0,0.E0,0.E0));
#105=AXIS2_PLACEMENT_3D('',#102,#103,#104);
#107=CARTESIAN_POINT('',(1.712700970931E2,1.475148818589E1,-2.455E2));
#108=DIRECTION('',(0.E0,0.E0,-1.E0));
#109=DIRECTION('',(-1.E0,0.E0,0.E0));
#110=AXIS2_PLACEMENT_3D('',#107,#108,#109);
#112=CARTESIAN_POINT('',(1.712700970931E2,1.475148818589E1,-2.455E2));
#113=DIRECTION('',(0.E0,0.E0,-1.E0));
#114=DIRECTION('',(1.E0,0.E0,0.E0));
#115=AXIS2_PLACEMENT_3D('',#112,#113,#114);
#117=DIRECTION('',(9.764134700990E-1,2.159090906126E-1,-3.021439123147E-10));
#118=VECTOR('',#117,4.003482791002E0);
#119=CARTESIAN_POINT('',(1.708725467886E2,5.922426391969E0,-2.339999999994E2));
#120=LINE('',#119,#118);
#121=DIRECTION('',(1.526707823021E-1,-6.904285859046E-1,-7.071067811845E-1));
#122=VECTOR('',#121,7.071067811865E-1);
#123=CARTESIAN_POINT('',(1.707645922432E2,6.410633126987E0,-2.334999999994E2));
#124=LINE('',#123,#122);
#125=CARTESIAN_POINT('',(1.712700970931E2,-2.275148818589E1,-2.335E2));
#126=DIRECTION('',(0.E0,0.E0,1.E0));
#127=DIRECTION('',(-1.E0,0.E0,0.E0));
#128=AXIS2_PLACEMENT_3D('',#125,#126,#127);
#130=CARTESIAN_POINT('',(1.712700970931E2,-2.275148818589E1,-2.335E2));
#131=DIRECTION('',(0.E0,0.E0,1.E0));
#132=DIRECTION('',(1.E0,0.E0,0.E0));
#133=AXIS2_PLACEMENT_3D('',#130,#131,#132);
#135=CARTESIAN_POINT('',(1.712700970931E2,1.475148818589E1,-2.335E2));
#136=DIRECTION('',(0.E0,0.E0,1.E0));
#137=DIRECTION('',(-1.E0,0.E0,0.E0));
#138=AXIS2_PLACEMENT_3D('',#135,#136,#137);
#140=CARTESIAN_POINT('',(1.712700970931E2,1.475148818589E1,-2.335E2));
#141=DIRECTION('',(0.E0,0.E0,1.E0));
#142=DIRECTION('',(1.E0,0.E0,0.E0));
#143=AXIS2_PLACEMENT_3D('',#140,#141,#142);
#145=CARTESIAN_POINT('',(1.260000000001E2,-3.999999999961E0,-2.335E2));
#146=DIRECTION('',(0.E0,0.E0,-1.E0));
#147=DIRECTION('',(9.042704409492E-1,4.269601499269E-1,0.E0));
#148=AXIS2_PLACEMENT_3D('',#145,#146,#147);
#150=CARTESIAN_POINT('',(1.680485755041E2,1.585364697161E1,-2.335E2));
#151=DIRECTION('',(0.E0,0.E0,1.E0));
#152=DIRECTION('',(-4.749593279815E-1,8.800077481269E-1,0.E0));
#153=AXIS2_PLACEMENT_3D('',#150,#151,#152);
#155=DIRECTION('',(-8.800077481617E-1,-4.749593279171E-1,-6.160592821164E-11));
#156=VECTOR('',#155,5.006537515012E0);
#157=CARTESIAN_POINT('',(1.715044486599E2,1.999156416474E1,-2.334999999995E2));
#158=LINE('',#157,#156);
#159=CARTESIAN_POINT('',(1.724543673249E2,1.823154867395E1,-2.335E2));
#160=DIRECTION('',(0.E0,0.E0,1.E0));
#161=DIRECTION('',(9.020265499962E-1,4.316805567800E-1,0.E0));
#162=AXIS2_PLACEMENT_3D('',#159,#160,#161);
#164=CARTESIAN_POINT('',(1.26E2,-4.000000000007E0,-2.335E2));
#165=DIRECTION('',(0.E0,0.E0,1.E0));
#166=DIRECTION('',(9.020265499983E-1,-4.316805567757E-1,0.E0));
#167=AXIS2_PLACEMENT_3D('',#164,#165,#166);
#169=CARTESIAN_POINT('',(1.724543673249E2,-2.623154867395E1,-2.335E2));
#170=DIRECTION('',(0.E0,0.E0,1.E0));
#171=DIRECTION('',(-4.749593279768E-1,-8.800077481295E-1,0.E0));
#172=AXIS2_PLACEMENT_3D('',#169,#170,#171);
#174=DIRECTION('',(8.800077481365E-1,-4.749593279637E-1,8.901409459564E-12));
#175=VECTOR('',#174,5.006537514010E0);
#176=CARTESIAN_POINT('',(1.670986568533E2,-2.561366247027E1,-2.334999999997E2));
#177=LINE('',#176,#175);
#178=CARTESIAN_POINT('',(1.680485755041E2,-2.385364697159E1,-2.335E2));
#179=DIRECTION('',(0.E0,0.E0,1.E0));
#180=DIRECTION('',(-9.042704409465E-1,4.269601499325E-1,0.E0));
#181=AXIS2_PLACEMENT_3D('',#178,#179,#180);
#183=CARTESIAN_POINT('',(1.260000000001E2,-3.999999999974E0,-2.335E2));
#184=DIRECTION('',(0.E0,0.E0,-1.E0));
#185=DIRECTION('',(9.661027956177E-1,-2.581576810782E-1,0.E0));
#186=AXIS2_PLACEMENT_3D('',#183,#184,#185);
#188=CARTESIAN_POINT('',(1.704407285984E2,-1.587525332953E1,-2.335E2));
#189=DIRECTION('',(0.E0,0.E0,1.E0));
#190=DIRECTION('',(2.159090908991E-1,9.764134700357E-1,0.E0));
#191=AXIS2_PLACEMENT_3D('',#188,#189,#190);
#193=DIRECTION('',(-9.764134701276E-1,2.159090904832E-1,4.330895060898E-10));
#194=VECTOR('',#193,4.003482789172E0);
#195=CARTESIAN_POINT('',(1.746736467702E2,-1.527502145552E1,-2.335000000013E2));
#196=LINE('',#195,#194);
#197=CARTESIAN_POINT('',(1.752134195096E2,-1.283398778443E1,-2.335E2));
#198=DIRECTION('',(0.E0,0.E0,-1.E0));
#199=DIRECTION('',(9.842683901902E-1,-1.766797556950E-1,0.E0));
#200=AXIS2_PLACEMENT_3D('',#197,#198,#199);
#202=CARTESIAN_POINT('',(1.26E2,-4.E0,-2.335E2));
#203=DIRECTION('',(0.E0,0.E0,-1.E0));
#204=DIRECTION('',(9.842683901913E-1,1.766797556887E-1,0.E0));
#205=AXIS2_PLACEMENT_3D('',#202,#203,#204);
#207=CARTESIAN_POINT('',(1.752134195096E2,4.833987784429E0,-2.335E2));
#208=DIRECTION('',(0.E0,0.E0,-1.E0));
#209=DIRECTION('',(-2.159090909150E-1,9.764134700322E-1,0.E0));
#210=AXIS2_PLACEMENT_3D('',#207,#208,#209);
#212=DIRECTION('',(9.764134701201E-1,2.159090905173E-1,-3.981825140237E-10));
#213=VECTOR('',#212,4.003482780858E0);
#214=CARTESIAN_POINT('',(1.707645922432E2,6.410633126987E0,-2.334999999994E2));
#215=LINE('',#214,#213);
#216=CARTESIAN_POINT('',(1.704407285984E2,7.875253329528E0,-2.335E2));
#217=DIRECTION('',(0.E0,0.E0,1.E0));
#218=DIRECTION('',(-9.661027956218E-1,-2.581576810630E-1,0.E0));
#219=AXIS2_PLACEMENT_3D('',#216,#217,#218);
#221=CARTESIAN_POINT('',(1.712700970931E2,-2.275148818589E1,-2.415E2));
#222=DIRECTION('',(0.E0,0.E0,1.E0));
#223=DIRECTION('',(-1.E0,0.E0,0.E0));
#224=AXIS2_PLACEMENT_3D('',#221,#222,#223);
#226=DIRECTION('',(3.411031458453E-10,1.797175298082E-9,-1.E0));
#227=VECTOR('',#226,7.999999997271E0);
#228=CARTESIAN_POINT('',(1.691200970931E2,-2.275148818589E1,-2.335E2));
#229=LINE('',#228,#227);
#230=DIRECTION('',(7.071067811865E-1,-1.308227167508E-8,7.071067811865E-1));
#231=VECTOR('',#230,7.071067787036E-1);
#232=CARTESIAN_POINT('',(1.686200970976E2,-2.275148816226E1,-2.419999999955E2));
#233=LINE('',#232,#231);
#234=CARTESIAN_POINT('',(1.712700970931E2,-2.275148818589E1,-2.42E2));
#235=DIRECTION('',(0.E0,0.E0,1.E0));
#236=DIRECTION('',(-1.E0,0.E0,0.E0));
#237=AXIS2_PLACEMENT_3D('',#234,#235,#236);
#239=CARTESIAN_POINT('',(1.712700970931E2,-2.275148818589E1,-2.42E2));
#240=DIRECTION('',(0.E0,0.E0,1.E0));
#241=DIRECTION('',(1.E0,0.E0,0.E0));
#242=AXIS2_PLACEMENT_3D('',#239,#240,#241);
#244=CARTESIAN_POINT('',(1.712700970931E2,-2.275148818589E1,-2.42E2));
#245=DIRECTION('',(0.E0,0.E0,1.E0));
#246=DIRECTION('',(-1.E0,-1.742840672619E-14,0.E0));
#247=AXIS2_PLACEMENT_3D('',#244,#245,#246);
#249=CARTESIAN_POINT('',(1.712700970931E2,-2.275148818589E1,-2.42E2));
#250=DIRECTION('',(0.E0,0.E0,1.E0));
#251=DIRECTION('',(1.E0,3.887875346612E-14,0.E0));
#252=AXIS2_PLACEMENT_3D('',#249,#250,#251);
#254=DIRECTION('',(0.E0,0.E0,-1.E0));
#255=VECTOR('',#254,3.5E0);
#256=CARTESIAN_POINT('',(1.671450970931E2,-2.275148818589E1,-2.42E2));
#257=LINE('',#256,#255);
#258=DIRECTION('',(0.E0,0.E0,-1.E0));
#259=VECTOR('',#258,3.5E0);
#260=CARTESIAN_POINT('',(1.753950970931E2,-2.275148818589E1,-2.42E2));
#261=LINE('',#260,#259);
#262=DIRECTION('',(-7.071067811866E-1,1.308224655360E-8,7.071067811865E-1));
#263=VECTOR('',#262,7.071067787035E-1);
#264=CARTESIAN_POINT('',(1.739200970886E2,-2.275148820952E1,-2.419999999955E2));
#265=LINE('',#264,#263);
#266=CARTESIAN_POINT('',(1.712700970931E2,-2.275148818589E1,-2.415E2));
#267=DIRECTION('',(0.E0,0.E0,1.E0));
#268=DIRECTION('',(1.E0,0.E0,0.E0));
#269=AXIS2_PLACEMENT_3D('',#266,#267,#268);
#271=DIRECTION('',(-3.410995931317E-10,-1.797175742171E-9,-1.E0));
#272=VECTOR('',#271,7.999999997271E0);
#273=CARTESIAN_POINT('',(1.734200970931E2,-2.275148818589E1,-2.335E2));
#274=LINE('',#273,#272);
#275=CARTESIAN_POINT('',(1.712700970931E2,1.475148818589E1,-2.415E2));
#276=DIRECTION('',(0.E0,0.E0,1.E0));
#277=DIRECTION('',(-1.E0,0.E0,0.E0));
#278=AXIS2_PLACEMENT_3D('',#275,#276,#277);
#280=DIRECTION('',(3.411031458453E-10,1.797175742171E-9,-1.E0));
#281=VECTOR('',#280,7.999999997271E0);
#282=CARTESIAN_POINT('',(1.691200970931E2,1.475148818589E1,-2.335E2));
#283=LINE('',#282,#281);
#284=DIRECTION('',(7.071067811866E-1,-1.308226413863E-8,7.071067811865E-1));
#285=VECTOR('',#284,7.071067787035E-1);
#286=CARTESIAN_POINT('',(1.686200970976E2,1.475148820952E1,-2.419999999955E2));
#287=LINE('',#286,#285);
#288=CARTESIAN_POINT('',(1.712700970931E2,1.475148818589E1,-2.42E2));
#289=DIRECTION('',(0.E0,0.E0,1.E0));
#290=DIRECTION('',(-1.E0,0.E0,0.E0));
#291=AXIS2_PLACEMENT_3D('',#288,#289,#290);
#293=CARTESIAN_POINT('',(1.712700970931E2,1.475148818589E1,-2.42E2));
#294=DIRECTION('',(0.E0,0.E0,1.E0));
#295=DIRECTION('',(1.E0,0.E0,0.E0));
#296=AXIS2_PLACEMENT_3D('',#293,#294,#295);
#298=CARTESIAN_POINT('',(1.712700970931E2,1.475148818589E1,-2.42E2));
#299=DIRECTION('',(0.E0,0.E0,1.E0));
#300=DIRECTION('',(-1.E0,-2.279099341117E-14,0.E0));
#301=AXIS2_PLACEMENT_3D('',#298,#299,#300);
#303=CARTESIAN_POINT('',(1.712700970931E2,1.475148818589E1,-2.42E2));
#304=DIRECTION('',(0.E0,0.E0,1.E0));
#305=DIRECTION('',(1.E0,1.943937673306E-14,0.E0));
#306=AXIS2_PLACEMENT_3D('',#303,#304,#305);
#308=DIRECTION('',(0.E0,0.E0,-1.E0));
#309=VECTOR('',#308,3.5E0);
#310=CARTESIAN_POINT('',(1.671450970931E2,1.475148818589E1,-2.42E2));
#311=LINE('',#310,#309);
#312=DIRECTION('',(0.E0,0.E0,-1.E0));
#313=VECTOR('',#312,3.5E0);
#314=CARTESIAN_POINT('',(1.753950970931E2,1.475148818589E1,-2.42E2));
#315=LINE('',#314,#313);
#316=DIRECTION('',(-7.071067811865E-1,1.308226413863E-8,7.071067811866E-1));
#317=VECTOR('',#316,7.071067787036E-1);
#318=CARTESIAN_POINT('',(1.739200970886E2,1.475148816226E1,-2.419999999955E2));
#319=LINE('',#318,#317);
#320=CARTESIAN_POINT('',(1.712700970931E2,1.475148818589E1,-2.415E2));
#321=DIRECTION('',(0.E0,0.E0,1.E0));
#322=DIRECTION('',(1.E0,0.E0,0.E0));
#323=AXIS2_PLACEMENT_3D('',#320,#321,#322);
#325=DIRECTION('',(-3.410995931317E-10,-1.797175520126E-9,-1.E0));
#326=VECTOR('',#325,7.999999997271E0);
#327=CARTESIAN_POINT('',(1.734200970931E2,1.475148818589E1,-2.335E2));
#328=LINE('',#327,#326);
#329=DIRECTION('',(-6.394157610272E-1,-3.019064168723E-1,-7.071067811875E-1));
#330=VECTOR('',#329,7.071067812131E-1);
#331=CARTESIAN_POINT('',(1.662400346249E2,1.499972666677E1,-2.334999999997E2));
#332=LINE('',#331,#330);
#333=DIRECTION('',(-6.831378381051E-1,-1.825450468898E-1,-7.071067811901E-1));
#334=VECTOR('',#333,7.071067811866E-1);
#335=CARTESIAN_POINT('',(1.689915744021E2,7.488016820646E0,-2.334999999996E2));
#336=LINE('',#335,#334);
#337=CARTESIAN_POINT('',(1.704407285984E2,7.875253329544E0,-2.34E2));
#338=DIRECTION('',(0.E0,0.E0,1.E0));
#339=DIRECTION('',(-9.661027956180E-1,-2.581576810772E-1,0.E0));
#340=AXIS2_PLACEMENT_3D('',#337,#338,#339);
#342=DIRECTION('',(-7.310755671938E-10,-2.171391568847E-10,-1.E0));
#343=VECTOR('',#342,1.150000000063E1);
#344=CARTESIAN_POINT('',(1.708725467886E2,5.922426391969E0,-2.339999999994E2));
#345=LINE('',#344,#343);
#346=DIRECTION('',(-2.634173458970E-10,1.128045058286E-9,1.E0));
#347=VECTOR('',#346,1.150000000044E1);
#348=CARTESIAN_POINT('',(1.685085230073E2,7.358937967146E0,-2.455E2));
#349=LINE('',#348,#347);
#350=CARTESIAN_POINT('',(1.260000000001E2,-3.999999999971E0,-2.34E2));
#351=DIRECTION('',(0.E0,0.E0,-1.E0));
#352=DIRECTION('',(9.042704409490E-1,4.269601499272E-1,0.E0));
#353=AXIS2_PLACEMENT_3D('',#350,#351,#352);
#355=DIRECTION('',(2.374423749348E-10,-4.511798084788E-10,1.E0));
#356=VECTOR('',#355,1.150000000028E1);
#357=CARTESIAN_POINT('',(1.657878994015E2,1.478624659730E1,-2.455E2));
#358=LINE('',#357,#356);
#359=CARTESIAN_POINT('',(1.680485755041E2,1.585364697158E1,-2.34E2));
#360=DIRECTION('',(0.E0,0.E0,1.E0));
#361=DIRECTION('',(-4.749593279728E-1,8.800077481316E-1,0.E0));
#362=AXIS2_PLACEMENT_3D('',#359,#360,#361);
#364=DIRECTION('',(5.782829287792E-10,2.933815509323E-10,1.E0));
#365=VECTOR('',#364,1.150000000019E1);
#366=CARTESIAN_POINT('',(1.668611771842E2,1.805366634189E1,-2.455E2));
#367=LINE('',#366,#365);
#368=DIRECTION('',(-3.358469622169E-1,6.222594458716E-1,-7.071067811818E-1));
#369=VECTOR('',#368,7.071067812047E-1);
#370=CARTESIAN_POINT('',(1.670986568552E2,1.761366247142E1,-2.334999999998E2));
#371=LINE('',#370,#369);
#372=DIRECTION('',(-3.358469607767E-1,6.222594466442E-1,-7.071067811859E-1));
#373=VECTOR('',#372,7.071067812320E-1);
#374=CARTESIAN_POINT('',(1.715044486599E2,1.999156416474E1,-2.334999999995E2));
#375=LINE('',#374,#373);
#376=DIRECTION('',(-8.800077481601E-1,-4.749593279200E-1,-5.716657730815E-11));
#377=VECTOR('',#376,5.006537516168E0);
#378=CARTESIAN_POINT('',(1.712669689965E2,2.043156803915E1,-2.339999999995E2));
#379=LINE('',#378,#377);
#380=CARTESIAN_POINT('',(1.724543673249E2,1.823154867395E1,-2.34E2));
#381=DIRECTION('',(0.E0,0.E0,1.E0));
#382=DIRECTION('',(9.020265499982E-1,4.316805567758E-1,0.E0));
#383=AXIS2_PLACEMENT_3D('',#380,#381,#382);
#385=DIRECTION('',(7.387074140482E-10,4.466521065861E-10,-1.E0));
#386=VECTOR('',#385,1.150000000048E1);
#387=CARTESIAN_POINT('',(1.712669689965E2,2.043156803915E1,-2.339999999995E2));
#388=LINE('',#387,#386);
#389=DIRECTION('',(4.516184913834E-10,-1.008842169195E-9,1.E0));
#390=VECTOR('',#389,1.150000000032E1);
#391=CARTESIAN_POINT('',(1.747094336999E2,1.931075006587E1,-2.455E2));
#392=LINE('',#391,#390);
#393=DIRECTION('',(6.378290898277E-1,3.052442500207E-1,-7.071067811857E-1));
#394=VECTOR('',#393,7.071067812171E-1);
#395=CARTESIAN_POINT('',(1.742584204304E2,1.909490977515E1,-2.334999999997E2));
#396=LINE('',#395,#394);
#397=DIRECTION('',(6.378290899409E-1,-3.052442497835E-1,-7.071067811860E-1));
#398=VECTOR('',#397,7.071067812321E-1);
#399=CARTESIAN_POINT('',(1.742584204289E2,-2.709490977794E1,-2.334999999995E2));
#400=LINE('',#399,#398);
#401=CARTESIAN_POINT('',(1.26E2,-3.999999999999E0,-2.34E2));
#402=DIRECTION('',(0.E0,0.E0,1.E0));
#403=DIRECTION('',(9.020265499982E-1,-4.316805567758E-1,0.E0));
#404=AXIS2_PLACEMENT_3D('',#401,#402,#403);
#406=DIRECTION('',(3.271363469832E-10,7.805472596441E-10,1.E0));
#407=VECTOR('',#406,1.150000000048E1);
#408=CARTESIAN_POINT('',(1.747094336999E2,-2.731075006587E1,-2.455E2));
#409=LINE('',#408,#407);
#410=CARTESIAN_POINT('',(1.724543673249E2,-2.623154867395E1,-2.34E2));
#411=DIRECTION('',(0.E0,0.E0,1.E0));
#412=DIRECTION('',(-4.749593279728E-1,-8.800077481316E-1,0.E0));
#413=AXIS2_PLACEMENT_3D('',#410,#411,#412);
#415=DIRECTION('',(-9.823407787420E-10,5.619620710644E-10,1.E0));
#416=VECTOR('',#415,1.150000000032E1);
#417=CARTESIAN_POINT('',(1.712669690050E2,-2.843156804431E1,-2.455E2));
#418=LINE('',#417,#416);
#419=DIRECTION('',(-3.358469605244E-1,-6.222594467804E-1,-7.071067811859E-1));
#420=VECTOR('',#419,7.071067812171E-1);
#421=CARTESIAN_POINT('',(1.715044486570E2,-2.799156416335E1,-2.334999999997E2));
#422=LINE('',#421,#420);
#423=DIRECTION('',(-3.358469620421E-1,-6.222594459649E-1,-7.071067811827E-1));
#424=VECTOR('',#423,7.071067812131E-1);
#425=CARTESIAN_POINT('',(1.670986568533E2,-2.561366247027E1,-2.334999999997E2));
#426=LINE('',#425,#424);
#427=DIRECTION('',(8.800077481365E-1,-4.749593279638E-1,7.879563983972E-12));
#428=VECTOR('',#427,5.006537515228E0);
#429=CARTESIAN_POINT('',(1.668611771890E2,-2.605366634419E1,-2.339999999997E2));
#430=LINE('',#429,#428);
#431=CARTESIAN_POINT('',(1.680485755041E2,-2.385364697158E1,-2.34E2));
#432=DIRECTION('',(0.E0,0.E0,1.E0));
#433=DIRECTION('',(-9.042704409486E-1,4.269601499282E-1,0.E0));
#434=AXIS2_PLACEMENT_3D('',#431,#432,#433);
#436=DIRECTION('',(-4.252036017864E-10,2.023217921651E-10,-1.E0));
#437=VECTOR('',#436,1.150000000028E1);
#438=CARTESIAN_POINT('',(1.668611771890E2,-2.605366634419E1,-2.339999999997E2));
#439=LINE('',#438,#437);
#440=DIRECTION('',(2.952298888402E-10,5.899342849875E-10,1.E0));
#441=VECTOR('',#440,1.150000000019E1);
#442=CARTESIAN_POINT('',(1.657878994017E2,-2.278624659694E1,-2.455E2));
#443=LINE('',#442,#441);
#444=DIRECTION('',(-6.394157611137E-1,3.019064166896E-1,-7.071067811873E-1));
#445=VECTOR('',#444,7.071067812047E-1);
#446=CARTESIAN_POINT('',(1.662400346258E2,-2.299972666468E1,-2.334999999998E2));
#447=LINE('',#446,#445);
#448=DIRECTION('',(-6.831378381076E-1,1.825450468863E-1,-7.071067811886E-1));
#449=VECTOR('',#448,7.071067811865E-1);
#450=CARTESIAN_POINT('',(1.689915744034E2,-1.548801681647E1,-2.334999999994E2));
#451=LINE('',#450,#449);
#452=CARTESIAN_POINT('',(1.260000000001E2,-3.999999999971E0,-2.34E2));
#453=DIRECTION('',(0.E0,0.E0,-1.E0));
#454=DIRECTION('',(9.661027956177E-1,-2.581576810782E-1,0.E0));
#455=AXIS2_PLACEMENT_3D('',#452,#453,#454);
#457=CARTESIAN_POINT('',(1.704407285984E2,-1.587525332954E1,-2.34E2));
#458=DIRECTION('',(0.E0,0.E0,1.E0));
#459=DIRECTION('',(2.159090909091E-1,9.764134700335E-1,0.E0));
#460=AXIS2_PLACEMENT_3D('',#457,#458,#459);
#462=DIRECTION('',(1.479337618507E-10,7.609688724149E-10,-1.E0));
#463=VECTOR('',#462,1.150000000063E1);
#464=CARTESIAN_POINT('',(1.685085230056E2,-1.535893797594E1,-2.339999999994E2));
#465=LINE('',#464,#463);
#466=DIRECTION('',(1.104161168252E-9,-2.829481576466E-10,1.E0));
#467=VECTOR('',#466,1.150000000044E1);
#468=CARTESIAN_POINT('',(1.708725467802E2,-1.392242638947E1,-2.455E2));
#469=LINE('',#468,#467);
#470=DIRECTION('',(1.526707823021E-1,6.904285859045E-1,-7.071067811846E-1));
#471=VECTOR('',#470,7.071067811865E-1);
#472=CARTESIAN_POINT('',(1.707645922474E2,-1.441063312774E1,-2.334999999996E2));
#473=LINE('',#472,#471);
#474=DIRECTION('',(1.526707893130E-1,6.904285843498E-1,-7.071067811888E-1));
#475=VECTOR('',#474,7.071067804514E-1);
#476=CARTESIAN_POINT('',(1.746736467702E2,-1.527502145552E1,-2.335000000013E2));
#477=LINE('',#476,#475);
#478=DIRECTION('',(-9.764134700995E-1,2.159090906107E-1,3.040181130279E-10));
#479=VECTOR('',#478,4.003482794250E0);
#480=CARTESIAN_POINT('',(1.747816013205E2,-1.478681472210E1,-2.340000000008E2));
#481=LINE('',#480,#479);
#482=CARTESIAN_POINT('',(1.752134195096E2,-1.283398778444E1,-2.34E2));
#483=DIRECTION('',(0.E0,0.E0,-1.E0));
#484=DIRECTION('',(9.842683901913E-1,-1.766797556887E-1,0.E0));
#485=AXIS2_PLACEMENT_3D('',#482,#483,#484);
#487=DIRECTION('',(6.244719138351E-10,-2.079023330445E-10,-1.E0));
#488=VECTOR('',#487,1.149999999922E1);
#489=CARTESIAN_POINT('',(1.747816013205E2,-1.478681472210E1,-2.340000000008E2));
#490=LINE('',#489,#488);
#491=DIRECTION('',(1.784314918131E-10,1.277740425607E-9,1.E0));
#492=VECTOR('',#491,1.149999999942E1);
#493=CARTESIAN_POINT('',(1.771819562899E2,-1.318734729591E1,-2.455E2));
#494=LINE('',#493,#492);
#495=DIRECTION('',(-6.959828557083E-1,1.249314394598E-1,-7.071067811827E-1));
#496=VECTOR('',#495,7.071067806380E-1);
#497=CARTESIAN_POINT('',(1.776740904885E2,-1.327568714917E1,-2.335000000010E2));
#498=LINE('',#497,#496);
#499=DIRECTION('',(-6.959828544529E-1,-1.249314464525E-1,-7.071067811830E-1));
#500=VECTOR('',#499,7.071067804512E-1);
#501=CARTESIAN_POINT('',(1.776740904859E2,5.275687161415E0,-2.335000000013E2));
#502=LINE('',#501,#500);
#503=CARTESIAN_POINT('',(1.26E2,-4.E0,-2.34E2));
#504=DIRECTION('',(0.E0,0.E0,-1.E0));
#505=DIRECTION('',(9.842683901913E-1,1.766797556887E-1,0.E0));
#506=AXIS2_PLACEMENT_3D('',#503,#504,#505);
#508=CARTESIAN_POINT('',(1.752134195096E2,4.833987784441E0,-2.34E2));
#509=DIRECTION('',(0.E0,0.E0,-1.E0));
#510=DIRECTION('',(-2.159090909091E-1,9.764134700335E-1,0.E0));
#511=AXIS2_PLACEMENT_3D('',#508,#509,#510);
#513=DIRECTION('',(-4.654734569119E-11,6.404813684680E-10,-1.E0));
#514=VECTOR('',#513,1.149999999922E1);
#515=CARTESIAN_POINT('',(1.771819562905E2,5.187347288537E0,-2.340000000008E2));
#516=LINE('',#515,#514);
#517=DIRECTION('',(-1.269822662543E-9,-3.331328643061E-10,1.E0));
#518=VECTOR('',#517,1.149999999942E1);
#519=CARTESIAN_POINT('',(1.747816013277E2,6.786814724488E0,-2.455E2));
#520=LINE('',#519,#518);
#521=DIRECTION('',(1.526707963092E-1,-6.904285828027E-1,-7.071067811890E-1));
#522=VECTOR('',#521,7.071067806383E-1);
#523=CARTESIAN_POINT('',(1.746736467578E2,7.275021453104E0,-2.335000000010E2));
#524=LINE('',#523,#522);
#525=CARTESIAN_POINT('',(1.708725467802E2,5.922426389472E0,-2.455E2));
#526=CARTESIAN_POINT('',(1.747816013277E2,6.786814724488E0,-2.455E2));
#527=VERTEX_POINT('',#525);
#528=VERTEX_POINT('',#526);
#529=CARTESIAN_POINT('',(1.771819562899E2,5.187347296055E0,-2.455E2));
#530=VERTEX_POINT('',#529);
#531=CARTESIAN_POINT('',(1.78E2,-4.E0,-2.455E2));
#532=VERTEX_POINT('',#531);
#533=CARTESIAN_POINT('',(1.771819562899E2,-1.318734729606E1,-2.455E2));
#534=VERTEX_POINT('',#533);
#535=CARTESIAN_POINT('',(1.747816013277E2,-1.478681472448E1,-2.455E2));
#536=VERTEX_POINT('',#535);
#537=CARTESIAN_POINT('',(1.708725467802E2,-1.392242638947E1,-2.455E2));
#538=VERTEX_POINT('',#537);
#539=CARTESIAN_POINT('',(1.685085230073E2,-1.535893796681E1,-2.455E2));
#540=VERTEX_POINT('',#539);
#541=CARTESIAN_POINT('',(1.657878994014E2,-2.278624659753E1,-2.455E2));
#542=VERTEX_POINT('',#541);
#543=CARTESIAN_POINT('',(1.655485755041E2,-2.385364697158E1,-2.455E2));
#544=CARTESIAN_POINT('',(1.668611771839E2,-2.605366634178E1,-2.455E2));
#545=VERTEX_POINT('',#543);
#546=VERTEX_POINT('',#544);
#547=CARTESIAN_POINT('',(1.712669690050E2,-2.843156804431E1,-2.455E2));
#548=VERTEX_POINT('',#547);
#549=CARTESIAN_POINT('',(1.747094336999E2,-2.731075006582E1,-2.455E2));
#550=VERTEX_POINT('',#549);
#551=CARTESIAN_POINT('',(1.8E2,-3.999999999999E0,-2.455E2));
#552=VERTEX_POINT('',#551);
#553=CARTESIAN_POINT('',(1.747094336999E2,1.931075006582E1,-2.455E2));
#554=VERTEX_POINT('',#553);
#555=CARTESIAN_POINT('',(1.712669690050E2,2.043156804428E1,-2.455E2));
#556=VERTEX_POINT('',#555);
#557=CARTESIAN_POINT('',(1.668611771842E2,1.805366634189E1,-2.455E2));
#558=VERTEX_POINT('',#557);
#559=CARTESIAN_POINT('',(1.655485755041E2,1.585364697158E1,-2.455E2));
#560=CARTESIAN_POINT('',(1.657878994010E2,1.478624659832E1,-2.455E2));
#561=VERTEX_POINT('',#559);
#562=VERTEX_POINT('',#560);
#563=CARTESIAN_POINT('',(1.685085230074E2,7.358937966655E0,-2.455E2));
#564=VERTEX_POINT('',#563);
#565=CARTESIAN_POINT('',(1.671450970931E2,-2.275148818589E1,-2.455E2));
#566=CARTESIAN_POINT('',(1.753950970931E2,-2.275148818589E1,-2.455E2));
#567=VERTEX_POINT('',#565);
#568=VERTEX_POINT('',#566);
#569=CARTESIAN_POINT('',(1.671450970931E2,1.475148818589E1,-2.455E2));
#570=CARTESIAN_POINT('',(1.753950970931E2,1.475148818589E1,-2.455E2));
#571=VERTEX_POINT('',#569);
#572=VERTEX_POINT('',#570);
#573=CARTESIAN_POINT('',(1.753950970931E2,1.475148818589E1,-2.42E2));
#574=CARTESIAN_POINT('',(1.671450970931E2,1.475148818589E1,-2.42E2));
#575=VERTEX_POINT('',#573);
#576=VERTEX_POINT('',#574);
#577=CARTESIAN_POINT('',(1.734200970931E2,1.475148818589E1,-2.335E2));
#578=CARTESIAN_POINT('',(1.691200970931E2,1.475148818589E1,-2.335E2));
#579=VERTEX_POINT('',#577);
#580=VERTEX_POINT('',#578);
#581=CARTESIAN_POINT('',(1.691200970931E2,-2.275148818589E1,-2.335E2));
#582=CARTESIAN_POINT('',(1.734200970931E2,-2.275148818589E1,-2.335E2));
#583=VERTEX_POINT('',#581);
#584=VERTEX_POINT('',#582);
#585=CARTESIAN_POINT('',(1.671450970931E2,-2.275148818589E1,-2.42E2));
#586=CARTESIAN_POINT('',(1.753950970931E2,-2.275148818589E1,-2.42E2));
#587=VERTEX_POINT('',#585);
#588=VERTEX_POINT('',#586);
#589=CARTESIAN_POINT('',(1.686200970931E2,1.475148818589E1,-2.42E2));
#590=CARTESIAN_POINT('',(1.739200970931E2,1.475148818589E1,-2.42E2));
#591=VERTEX_POINT('',#589);
#592=VERTEX_POINT('',#590);
#593=CARTESIAN_POINT('',(1.691200970931E2,1.475148818589E1,-2.415E2));
#594=CARTESIAN_POINT('',(1.734200970931E2,1.475148818589E1,-2.415E2));
#595=VERTEX_POINT('',#593);
#596=VERTEX_POINT('',#594);
#597=CARTESIAN_POINT('',(1.686200970931E2,-2.275148818589E1,-2.42E2));
#598=CARTESIAN_POINT('',(1.739200970931E2,-2.275148818589E1,-2.42E2));
#599=VERTEX_POINT('',#597);
#600=VERTEX_POINT('',#598);
#601=CARTESIAN_POINT('',(1.691200970931E2,-2.275148818589E1,-2.415E2));
#602=CARTESIAN_POINT('',(1.734200970931E2,-2.275148818589E1,-2.415E2));
#603=VERTEX_POINT('',#601);
#604=VERTEX_POINT('',#602);
#605=CARTESIAN_POINT('',(1.662400346222E2,1.499972667174E1,-2.335E2));
#606=CARTESIAN_POINT('',(1.689915744050E2,7.488016807935E0,-2.335E2));
#607=VERTEX_POINT('',#605);
#608=VERTEX_POINT('',#606);
#609=CARTESIAN_POINT('',(1.657878994018E2,1.478624659679E1,-2.34E2));
#610=CARTESIAN_POINT('',(1.685085230072E2,7.358937967406E0,-2.34E2));
#611=VERTEX_POINT('',#609);
#612=VERTEX_POINT('',#610);
#613=CARTESIAN_POINT('',(1.707645922348E2,6.410633124487E0,-2.335E2));
#614=VERTEX_POINT('',#613);
#615=CARTESIAN_POINT('',(1.708725467802E2,5.922426389477E0,-2.34E2));
#616=VERTEX_POINT('',#615);
#617=CARTESIAN_POINT('',(1.746736467578E2,7.275021453104E0,-2.335000000010E2));
#618=VERTEX_POINT('',#617);
#619=CARTESIAN_POINT('',(1.747816013130E2,6.786814720657E0,-2.340000000006E2));
#620=VERTEX_POINT('',#619);
#621=CARTESIAN_POINT('',(1.776740904851E2,5.275687173664E0,-2.335E2));
#622=VERTEX_POINT('',#621);
#623=CARTESIAN_POINT('',(1.771819562900E2,5.187347295818E0,-2.34E2));
#624=VERTEX_POINT('',#623);
#625=CARTESIAN_POINT('',(1.776740904851E2,-1.327568717366E1,-2.335E2));
#626=VERTEX_POINT('',#625);
#627=CARTESIAN_POINT('',(1.771819562899E2,-1.318734729581E1,-2.34E2));
#628=VERTEX_POINT('',#627);
#629=CARTESIAN_POINT('',(1.746736467823E2,-1.527502145950E1,-2.335E2));
#630=VERTEX_POINT('',#629);
#631=CARTESIAN_POINT('',(1.747816013278E2,-1.478681472451E1,-2.34E2));
#632=VERTEX_POINT('',#631);
#633=CARTESIAN_POINT('',(1.707645922474E2,-1.441063312774E1,-2.334999999996E2));
#634=VERTEX_POINT('',#633);
#635=CARTESIAN_POINT('',(1.708725467929E2,-1.392242639272E1,-2.339999999996E2));
#636=VERTEX_POINT('',#635);
#637=CARTESIAN_POINT('',(1.689915744050E2,-1.548801680793E1,-2.335E2));
#638=VERTEX_POINT('',#637);
#639=CARTESIAN_POINT('',(1.685085230072E2,-1.535893796738E1,-2.34E2));
#640=VERTEX_POINT('',#639);
#641=CARTESIAN_POINT('',(1.662400346222E2,-2.299972667173E1,-2.335E2));
#642=VERTEX_POINT('',#641);
#643=CARTESIAN_POINT('',(1.657878994018E2,-2.278624659678E1,-2.34E2));
#644=VERTEX_POINT('',#643);
#645=CARTESIAN_POINT('',(1.670986568482E2,-2.561366246783E1,-2.335E2));
#646=VERTEX_POINT('',#645);
#647=CARTESIAN_POINT('',(1.668611771842E2,-2.605366634191E1,-2.34E2));
#648=VERTEX_POINT('',#647);
#649=CARTESIAN_POINT('',(1.715044486570E2,-2.799156416335E1,-2.334999999997E2));
#650=VERTEX_POINT('',#649);
#651=CARTESIAN_POINT('',(1.712669689937E2,-2.843156803784E1,-2.339999999997E2));
#652=VERTEX_POINT('',#651);
#653=CARTESIAN_POINT('',(1.742584204249E2,-2.709490978751E1,-2.335E2));
#654=VERTEX_POINT('',#653);
#655=CARTESIAN_POINT('',(1.747094336999E2,-2.731075006589E1,-2.34E2));
#656=VERTEX_POINT('',#655);
#657=CARTESIAN_POINT('',(1.742584204249E2,1.909490978750E1,-2.335E2));
#658=VERTEX_POINT('',#657);
#659=CARTESIAN_POINT('',(1.747094336999E2,1.931075006589E1,-2.34E2));
#660=VERTEX_POINT('',#659);
#661=CARTESIAN_POINT('',(1.715044486690E2,1.999156417020E1,-2.335E2));
#662=VERTEX_POINT('',#661);
#663=CARTESIAN_POINT('',(1.712669690050E2,2.043156804428E1,-2.34E2));
#664=VERTEX_POINT('',#663);
#665=CARTESIAN_POINT('',(1.670986568552E2,1.761366247142E1,-2.334999999998E2));
#666=VERTEX_POINT('',#665);
#667=CARTESIAN_POINT('',(1.668611771908E2,1.805366634526E1,-2.339999999998E2));
#668=VERTEX_POINT('',#667);
#669=CARTESIAN_POINT('',(1.263464479952E2,-3.653552004796E0,-2.455E2));
#670=DIRECTION('',(0.E0,0.E0,-1.E0));
#671=DIRECTION('',(1.E0,0.E0,0.E0));
#672=AXIS2_PLACEMENT_3D('',#669,#670,#671);
#673=PLANE('',#672);
#675=ORIENTED_EDGE('',*,*,#674,.T.);
#677=ORIENTED_EDGE('',*,*,#676,.T.);
#679=ORIENTED_EDGE('',*,*,#678,.T.);
#681=ORIENTED_EDGE('',*,*,#680,.T.);
#683=ORIENTED_EDGE('',*,*,#682,.T.);
#685=ORIENTED_EDGE('',*,*,#684,.T.);
#687=ORIENTED_EDGE('',*,*,#686,.T.);
#689=ORIENTED_EDGE('',*,*,#688,.T.);
#691=ORIENTED_EDGE('',*,*,#690,.T.);
#693=ORIENTED_EDGE('',*,*,#692,.T.);
#695=ORIENTED_EDGE('',*,*,#694,.T.);
#697=ORIENTED_EDGE('',*,*,#696,.T.);
#699=ORIENTED_EDGE('',*,*,#698,.T.);
#701=ORIENTED_EDGE('',*,*,#700,.T.);
#703=ORIENTED_EDGE('',*,*,#702,.T.);
#705=ORIENTED_EDGE('',*,*,#704,.T.);
#707=ORIENTED_EDGE('',*,*,#706,.T.);
#709=ORIENTED_EDGE('',*,*,#708,.T.);
#711=ORIENTED_EDGE('',*,*,#710,.T.);
#713=ORIENTED_EDGE('',*,*,#712,.T.);
#714=EDGE_LOOP('',(#675,#677,#679,#681,#683,#685,#687,#689,#691,#693,#695,#697,
#699,#701,#703,#705,#707,#709,#711,#713));
#715=FACE_OUTER_BOUND('',#714,.F.);
#717=ORIENTED_EDGE('',*,*,#716,.T.);
#719=ORIENTED_EDGE('',*,*,#718,.T.);
#720=EDGE_LOOP('',(#717,#719));
#721=FACE_BOUND('',#720,.F.);
#723=ORIENTED_EDGE('',*,*,#722,.T.);
#725=ORIENTED_EDGE('',*,*,#724,.T.);
#726=EDGE_LOOP('',(#723,#725));
#727=FACE_BOUND('',#726,.F.);
#728=ADVANCED_FACE('',(#715,#721,#727),#673,.T.);
#729=CARTESIAN_POINT('',(1.728678465616E2,6.363636363638E0,8.753682649024E2));
#730=DIRECTION('',(2.159090909091E-1,-9.764134700335E-1,0.E0));
#731=DIRECTION('',(9.764134700335E-1,2.159090909091E-1,0.E0));
#732=AXIS2_PLACEMENT_3D('',#729,#730,#731);
#733=PLANE('',#732);
#735=ORIENTED_EDGE('',*,*,#734,.T.);
#737=ORIENTED_EDGE('',*,*,#736,.F.);
#738=ORIENTED_EDGE('',*,*,#674,.F.);
#740=ORIENTED_EDGE('',*,*,#739,.F.);
#741=EDGE_LOOP('',(#735,#737,#738,#740));
#742=FACE_OUTER_BOUND('',#741,.F.);
#743=ADVANCED_FACE('',(#742),#733,.T.);
#744=CARTESIAN_POINT('',(1.727730967813E2,6.598723924503E0,-2.3375E2));
#745=DIRECTION('',(1.526707823016E-1,-6.904285859025E-1,7.071067811866E-1));
#746=DIRECTION('',(1.526707823017E-1,-6.904285859026E-1,-7.071067811865E-1));
#747=AXIS2_PLACEMENT_3D('',#744,#745,#746);
#748=PLANE('',#747);
#750=ORIENTED_EDGE('',*,*,#749,.T.);
#752=ORIENTED_EDGE('',*,*,#751,.T.);
#753=ORIENTED_EDGE('',*,*,#734,.F.);
#755=ORIENTED_EDGE('',*,*,#754,.F.);
#756=EDGE_LOOP('',(#750,#752,#753,#755));
#757=FACE_OUTER_BOUND('',#756,.F.);
#758=ADVANCED_FACE('',(#757),#748,.T.);
#759=CARTESIAN_POINT('',(1.53E2,-4.E0,-2.335E2));
#760=DIRECTION('',(0.E0,0.E0,1.E0));
#761=DIRECTION('',(1.E0,0.E0,0.E0));
#762=AXIS2_PLACEMENT_3D('',#759,#760,#761);
#763=PLANE('',#762);
#765=ORIENTED_EDGE('',*,*,#764,.F.);
#767=ORIENTED_EDGE('',*,*,#766,.F.);
#769=ORIENTED_EDGE('',*,*,#768,.F.);
#771=ORIENTED_EDGE('',*,*,#770,.F.);
#773=ORIENTED_EDGE('',*,*,#772,.F.);
#775=ORIENTED_EDGE('',*,*,#774,.F.);
#777=ORIENTED_EDGE('',*,*,#776,.F.);
#779=ORIENTED_EDGE('',*,*,#778,.F.);
#781=ORIENTED_EDGE('',*,*,#780,.F.);
#783=ORIENTED_EDGE('',*,*,#782,.F.);
#785=ORIENTED_EDGE('',*,*,#784,.F.);
#787=ORIENTED_EDGE('',*,*,#786,.F.);
#789=ORIENTED_EDGE('',*,*,#788,.F.);
#791=ORIENTED_EDGE('',*,*,#790,.F.);
#792=ORIENTED_EDGE('',*,*,#749,.F.);
#794=ORIENTED_EDGE('',*,*,#793,.F.);
#795=EDGE_LOOP('',(#765,#767,#769,#771,#773,#775,#777,#779,#781,#783,#785,#787,
#789,#791,#792,#794));
#796=FACE_OUTER_BOUND('',#795,.F.);
#798=ORIENTED_EDGE('',*,*,#797,.T.);
#800=ORIENTED_EDGE('',*,*,#799,.T.);
#801=EDGE_LOOP('',(#798,#800));
#802=FACE_BOUND('',#801,.F.);
#804=ORIENTED_EDGE('',*,*,#803,.T.);
#806=ORIENTED_EDGE('',*,*,#805,.T.);
#807=EDGE_LOOP('',(#804,#806));
#808=FACE_BOUND('',#807,.F.);
#809=ADVANCED_FACE('',(#796,#802,#808),#763,.T.);
#810=CARTESIAN_POINT('',(1.712700970931E2,-2.275148818589E1,-2.455E2));
#811=DIRECTION('',(0.E0,0.E0,1.E0));
#812=DIRECTION('',(1.E0,0.E0,0.E0));
#813=AXIS2_PLACEMENT_3D('',#810,#811,#812);
#814=CYLINDRICAL_SURFACE('',#813,2.15E0);
#816=ORIENTED_EDGE('',*,*,#815,.T.);
#818=ORIENTED_EDGE('',*,*,#817,.F.);
#819=ORIENTED_EDGE('',*,*,#803,.F.);
#821=ORIENTED_EDGE('',*,*,#820,.T.);
#822=EDGE_LOOP('',(#816,#818,#819,#821));
#823=FACE_OUTER_BOUND('',#822,.F.);
#824=ADVANCED_FACE('',(#823),#814,.F.);
#825=CARTESIAN_POINT('',(1.712700970931E2,-2.275148818589E1,-2.417499999972E2));
#826=DIRECTION('',(0.E0,0.E0,-1.E0));
#827=DIRECTION('',(0.E0,-1.E0,0.E0));
#828=AXIS2_PLACEMENT_3D('',#825,#826,#827);
#829=CONICAL_SURFACE('',#828,2.399999997211E0,4.5E1);
#831=ORIENTED_EDGE('',*,*,#830,.T.);
#833=ORIENTED_EDGE('',*,*,#832,.T.);
#834=ORIENTED_EDGE('',*,*,#815,.F.);
#836=ORIENTED_EDGE('',*,*,#835,.F.);
#837=EDGE_LOOP('',(#831,#833,#834,#836));
#838=FACE_OUTER_BOUND('',#837,.F.);
#839=ADVANCED_FACE('',(#838),#829,.F.);
#840=CARTESIAN_POINT('',(1.753950970931E2,-2.275148818589E1,-2.42E2));
#841=DIRECTION('',(0.E0,0.E0,-1.E0));
#842=DIRECTION('',(-1.E0,0.E0,0.E0));
#843=AXIS2_PLACEMENT_3D('',#840,#841,#842);
#844=PLANE('',#843);
#846=ORIENTED_EDGE('',*,*,#845,.T.);
#848=ORIENTED_EDGE('',*,*,#847,.T.);
#849=EDGE_LOOP('',(#846,#848));
#850=FACE_OUTER_BOUND('',#849,.F.);
#851=ORIENTED_EDGE('',*,*,#830,.F.);
#853=ORIENTED_EDGE('',*,*,#852,.F.);
#854=EDGE_LOOP('',(#851,#853));
#855=FACE_BOUND('',#854,.F.);
#856=ADVANCED_FACE('',(#850,#855),#844,.T.);
#857=CARTESIAN_POINT('',(1.712700970931E2,-2.275148818589E1,-2.455E2));
#858=DIRECTION('',(0.E0,0.E0,1.E0));
#859=DIRECTION('',(1.E0,0.E0,0.E0));
#860=AXIS2_PLACEMENT_3D('',#857,#858,#859);
#861=CYLINDRICAL_SURFACE('',#860,4.125E0);
#862=ORIENTED_EDGE('',*,*,#845,.F.);
#864=ORIENTED_EDGE('',*,*,#863,.T.);
#865=ORIENTED_EDGE('',*,*,#718,.F.);
#867=ORIENTED_EDGE('',*,*,#866,.F.);
#868=EDGE_LOOP('',(#862,#864,#865,#867));
#869=FACE_OUTER_BOUND('',#868,.F.);
#870=ADVANCED_FACE('',(#869),#861,.F.);
#871=CARTESIAN_POINT('',(1.712700970931E2,-2.275148818589E1,-2.455E2));
#872=DIRECTION('',(0.E0,0.E0,1.E0));
#873=DIRECTION('',(1.E0,0.E0,0.E0));
#874=AXIS2_PLACEMENT_3D('',#871,#872,#873);
#875=CYLINDRICAL_SURFACE('',#874,4.125E0);
#876=ORIENTED_EDGE('',*,*,#847,.F.);
#877=ORIENTED_EDGE('',*,*,#866,.T.);
#878=ORIENTED_EDGE('',*,*,#716,.F.);
#879=ORIENTED_EDGE('',*,*,#863,.F.);
#880=EDGE_LOOP('',(#876,#877,#878,#879));
#881=FACE_OUTER_BOUND('',#880,.F.);
#882=ADVANCED_FACE('',(#881),#875,.F.);
#883=CARTESIAN_POINT('',(1.712700970931E2,-2.275148818589E1,-2.417499999972E2));
#884=DIRECTION('',(0.E0,0.E0,-1.E0));
#885=DIRECTION('',(0.E0,-1.E0,0.E0));
#886=AXIS2_PLACEMENT_3D('',#883,#884,#885);
#887=CONICAL_SURFACE('',#886,2.399999997211E0,4.5E1);
#888=ORIENTED_EDGE('',*,*,#852,.T.);
#889=ORIENTED_EDGE('',*,*,#835,.T.);
#891=ORIENTED_EDGE('',*,*,#890,.F.);
#892=ORIENTED_EDGE('',*,*,#832,.F.);
#893=EDGE_LOOP('',(#888,#889,#891,#892));
#894=FACE_OUTER_BOUND('',#893,.F.);
#895=ADVANCED_FACE('',(#894),#887,.F.);
#896=CARTESIAN_POINT('',(1.712700970931E2,-2.275148818589E1,-2.455E2));
#897=DIRECTION('',(0.E0,0.E0,1.E0));
#898=DIRECTION('',(1.E0,0.E0,0.E0));
#899=AXIS2_PLACEMENT_3D('',#896,#897,#898);
#900=CYLINDRICAL_SURFACE('',#899,2.15E0);
#901=ORIENTED_EDGE('',*,*,#890,.T.);
#902=ORIENTED_EDGE('',*,*,#820,.F.);
#903=ORIENTED_EDGE('',*,*,#805,.F.);
#904=ORIENTED_EDGE('',*,*,#817,.T.);
#905=EDGE_LOOP('',(#901,#902,#903,#904));
#906=FACE_OUTER_BOUND('',#905,.F.);
#907=ADVANCED_FACE('',(#906),#900,.F.);
#908=CARTESIAN_POINT('',(1.712700970931E2,1.475148818589E1,-2.455E2));
#909=DIRECTION('',(0.E0,0.E0,1.E0));
#910=DIRECTION('',(1.E0,0.E0,0.E0));
#911=AXIS2_PLACEMENT_3D('',#908,#909,#910);
#912=CYLINDRICAL_SURFACE('',#911,2.15E0);
#914=ORIENTED_EDGE('',*,*,#913,.T.);
#916=ORIENTED_EDGE('',*,*,#915,.F.);
#917=ORIENTED_EDGE('',*,*,#797,.F.);
#919=ORIENTED_EDGE('',*,*,#918,.T.);
#920=EDGE_LOOP('',(#914,#916,#917,#919));
#921=FACE_OUTER_BOUND('',#920,.F.);
#922=ADVANCED_FACE('',(#921),#912,.F.);
#923=CARTESIAN_POINT('',(1.712700970931E2,1.475148818589E1,-2.417499999972E2));
#924=DIRECTION('',(0.E0,0.E0,-1.E0));
#925=DIRECTION('',(0.E0,-1.E0,0.E0));
#926=AXIS2_PLACEMENT_3D('',#923,#924,#925);
#927=CONICAL_SURFACE('',#926,2.399999997211E0,4.5E1);
#929=ORIENTED_EDGE('',*,*,#928,.T.);
#931=ORIENTED_EDGE('',*,*,#930,.T.);
#932=ORIENTED_EDGE('',*,*,#913,.F.);
#934=ORIENTED_EDGE('',*,*,#933,.F.);
#935=EDGE_LOOP('',(#929,#931,#932,#934));
#936=FACE_OUTER_BOUND('',#935,.F.);
#937=ADVANCED_FACE('',(#936),#927,.F.);
#938=CARTESIAN_POINT('',(1.753950970931E2,1.475148818589E1,-2.42E2));
#939=DIRECTION('',(0.E0,0.E0,-1.E0));
#940=DIRECTION('',(-1.E0,0.E0,0.E0));
#941=AXIS2_PLACEMENT_3D('',#938,#939,#940);
#942=PLANE('',#941);
#944=ORIENTED_EDGE('',*,*,#943,.T.);
#946=ORIENTED_EDGE('',*,*,#945,.T.);
#947=EDGE_LOOP('',(#944,#946));
#948=FACE_OUTER_BOUND('',#947,.F.);
#949=ORIENTED_EDGE('',*,*,#928,.F.);
#951=ORIENTED_EDGE('',*,*,#950,.F.);
#952=EDGE_LOOP('',(#949,#951));
#953=FACE_BOUND('',#952,.F.);
#954=ADVANCED_FACE('',(#948,#953),#942,.T.);
#955=CARTESIAN_POINT('',(1.712700970931E2,1.475148818589E1,-2.455E2));
#956=DIRECTION('',(0.E0,0.E0,1.E0));
#957=DIRECTION('',(1.E0,0.E0,0.E0));
#958=AXIS2_PLACEMENT_3D('',#955,#956,#957);
#959=CYLINDRICAL_SURFACE('',#958,4.125E0);
#960=ORIENTED_EDGE('',*,*,#943,.F.);
#962=ORIENTED_EDGE('',*,*,#961,.T.);
#963=ORIENTED_EDGE('',*,*,#724,.F.);
#965=ORIENTED_EDGE('',*,*,#964,.F.);
#966=EDGE_LOOP('',(#960,#962,#963,#965));
#967=FACE_OUTER_BOUND('',#966,.F.);
#968=ADVANCED_FACE('',(#967),#959,.F.);
#969=CARTESIAN_POINT('',(1.712700970931E2,1.475148818589E1,-2.455E2));
#970=DIRECTION('',(0.E0,0.E0,1.E0));
#971=DIRECTION('',(1.E0,0.E0,0.E0));
#972=AXIS2_PLACEMENT_3D('',#969,#970,#971);
#973=CYLINDRICAL_SURFACE('',#972,4.125E0);
#974=ORIENTED_EDGE('',*,*,#945,.F.);
#975=ORIENTED_EDGE('',*,*,#964,.T.);
#976=ORIENTED_EDGE('',*,*,#722,.F.);
#977=ORIENTED_EDGE('',*,*,#961,.F.);
#978=EDGE_LOOP('',(#974,#975,#976,#977));
#979=FACE_OUTER_BOUND('',#978,.F.);
#980=ADVANCED_FACE('',(#979),#973,.F.);
#981=CARTESIAN_POINT('',(1.712700970931E2,1.475148818589E1,-2.417499999972E2));
#982=DIRECTION('',(0.E0,0.E0,-1.E0));
#983=DIRECTION('',(0.E0,-1.E0,0.E0));
#984=AXIS2_PLACEMENT_3D('',#981,#982,#983);
#985=CONICAL_SURFACE('',#984,2.399999997211E0,4.5E1);
#986=ORIENTED_EDGE('',*,*,#950,.T.);
#987=ORIENTED_EDGE('',*,*,#933,.T.);
#989=ORIENTED_EDGE('',*,*,#988,.F.);
#990=ORIENTED_EDGE('',*,*,#930,.F.);
#991=EDGE_LOOP('',(#986,#987,#989,#990));
#992=FACE_OUTER_BOUND('',#991,.F.);
#993=ADVANCED_FACE('',(#992),#985,.F.);
#994=CARTESIAN_POINT('',(1.712700970931E2,1.475148818589E1,-2.455E2));
#995=DIRECTION('',(0.E0,0.E0,1.E0));
#996=DIRECTION('',(1.E0,0.E0,0.E0));
#997=AXIS2_PLACEMENT_3D('',#994,#995,#996);
#998=CYLINDRICAL_SURFACE('',#997,2.15E0);
#999=ORIENTED_EDGE('',*,*,#988,.T.);
#1000=ORIENTED_EDGE('',*,*,#918,.F.);
#1001=ORIENTED_EDGE('',*,*,#799,.F.);
#1002=ORIENTED_EDGE('',*,*,#915,.T.);
#1003=EDGE_LOOP('',(#999,#1000,#1001,#1002));
#1004=FACE_OUTER_BOUND('',#1003,.F.);
#1005=ADVANCED_FACE('',(#1004),#998,.F.);
#1006=CARTESIAN_POINT('',(1.260000000001E2,-3.999999999961E0,-2.3375E2));
#1007=DIRECTION('',(0.E0,0.E0,1.E0));
#1008=DIRECTION('',(0.E0,-1.E0,0.E0));
#1009=AXIS2_PLACEMENT_3D('',#1006,#1007,#1008);
#1010=CONICAL_SURFACE('',#1009,4.424999999992E1,4.499999999806E1);
#1011=ORIENTED_EDGE('',*,*,#764,.T.);
#1013=ORIENTED_EDGE('',*,*,#1012,.T.);
#1015=ORIENTED_EDGE('',*,*,#1014,.F.);
#1017=ORIENTED_EDGE('',*,*,#1016,.F.);
#1018=EDGE_LOOP('',(#1011,#1013,#1015,#1017));
#1019=FACE_OUTER_BOUND('',#1018,.F.);
#1020=ADVANCED_FACE('',(#1019),#1010,.F.);
#1021=CARTESIAN_POINT('',(1.704407285984E2,7.875253329528E0,-2.337499999992E2));
#1022=DIRECTION('',(0.E0,0.E0,-1.E0));
#1023=DIRECTION('',(0.E0,-1.E0,0.E0));
#1024=AXIS2_PLACEMENT_3D('',#1021,#1022,#1023);
#1025=CONICAL_SURFACE('',#1024,1.749999999164E0,4.500000000080E1);
#1026=ORIENTED_EDGE('',*,*,#793,.T.);
#1027=ORIENTED_EDGE('',*,*,#754,.T.);
#1029=ORIENTED_EDGE('',*,*,#1028,.F.);
#1030=ORIENTED_EDGE('',*,*,#1012,.F.);
#1031=EDGE_LOOP('',(#1026,#1027,#1029,#1030));
#1032=FACE_OUTER_BOUND('',#1031,.F.);
#1033=ADVANCED_FACE('',(#1032),#1025,.T.);
#1034=CARTESIAN_POINT('',(1.704407285984E2,7.875253329544E0,-2.45502E2));
#1035=DIRECTION('',(0.E0,0.E0,1.E0));
#1036=DIRECTION('',(1.E0,0.E0,0.E0));
#1037=AXIS2_PLACEMENT_3D('',#1034,#1035,#1036);
#1038=CYLINDRICAL_SURFACE('',#1037,2.E0);
#1039=ORIENTED_EDGE('',*,*,#1028,.T.);
#1040=ORIENTED_EDGE('',*,*,#739,.T.);
#1041=ORIENTED_EDGE('',*,*,#712,.F.);
#1043=ORIENTED_EDGE('',*,*,#1042,.T.);
#1044=EDGE_LOOP('',(#1039,#1040,#1041,#1043));
#1045=FACE_OUTER_BOUND('',#1044,.F.);
#1046=ADVANCED_FACE('',(#1045),#1038,.T.);
#1047=CARTESIAN_POINT('',(1.260000000001E2,-3.999999999971E0,-2.45502E2));
#1048=DIRECTION('',(0.E0,0.E0,1.E0));
#1049=DIRECTION('',(1.E0,0.E0,0.E0));
#1050=AXIS2_PLACEMENT_3D('',#1047,#1048,#1049);
#1051=CYLINDRICAL_SURFACE('',#1050,4.399999999993E1);
#1052=ORIENTED_EDGE('',*,*,#1014,.T.);
#1053=ORIENTED_EDGE('',*,*,#1042,.F.);
#1054=ORIENTED_EDGE('',*,*,#710,.F.);
#1056=ORIENTED_EDGE('',*,*,#1055,.T.);
#1057=EDGE_LOOP('',(#1052,#1053,#1054,#1056));
#1058=FACE_OUTER_BOUND('',#1057,.F.);
#1059=ADVANCED_FACE('',(#1058),#1051,.F.);
#1060=CARTESIAN_POINT('',(1.680485755041E2,1.585364697158E1,-2.45502E2));
#1061=DIRECTION('',(0.E0,0.E0,1.E0));
#1062=DIRECTION('',(1.E0,0.E0,0.E0));
#1063=AXIS2_PLACEMENT_3D('',#1060,#1061,#1062);
#1064=CYLINDRICAL_SURFACE('',#1063,2.5E0);
#1066=ORIENTED_EDGE('',*,*,#1065,.T.);
#1067=ORIENTED_EDGE('',*,*,#1055,.F.);
#1068=ORIENTED_EDGE('',*,*,#708,.F.);
#1069=ORIENTED_EDGE('',*,*,#706,.F.);
#1071=ORIENTED_EDGE('',*,*,#1070,.T.);
#1072=EDGE_LOOP('',(#1066,#1067,#1068,#1069,#1071));
#1073=FACE_OUTER_BOUND('',#1072,.F.);
#1074=ADVANCED_FACE('',(#1073),#1064,.T.);
#1075=CARTESIAN_POINT('',(1.680485755041E2,1.585364697161E1,-2.337499999996E2));
#1076=DIRECTION('',(0.E0,0.E0,-1.E0));
#1077=DIRECTION('',(0.E0,-1.E0,0.E0));
#1078=AXIS2_PLACEMENT_3D('',#1075,#1076,#1077);
#1079=CONICAL_SURFACE('',#1078,2.249999999600E0,4.500000000144E1);
#1080=ORIENTED_EDGE('',*,*,#766,.T.);
#1081=ORIENTED_EDGE('',*,*,#1016,.T.);
#1082=ORIENTED_EDGE('',*,*,#1065,.F.);
#1084=ORIENTED_EDGE('',*,*,#1083,.F.);
#1085=EDGE_LOOP('',(#1080,#1081,#1082,#1084));
#1086=FACE_OUTER_BOUND('',#1085,.F.);
#1087=ADVANCED_FACE('',(#1086),#1079,.T.);
#1088=CARTESIAN_POINT('',(1.691828129266E2,1.902261525605E1,-2.3375E2));
#1089=DIRECTION('',(-3.358469615974E-1,6.222594462006E-1,7.071067811865E-1));
#1090=DIRECTION('',(-3.358469615974E-1,6.222594462005E-1,-7.071067811866E-1));
#1091=AXIS2_PLACEMENT_3D('',#1088,#1089,#1090);
#1092=PLANE('',#1091);
#1093=ORIENTED_EDGE('',*,*,#768,.T.);
#1094=ORIENTED_EDGE('',*,*,#1083,.T.);
#1096=ORIENTED_EDGE('',*,*,#1095,.F.);
#1098=ORIENTED_EDGE('',*,*,#1097,.F.);
#1099=EDGE_LOOP('',(#1093,#1094,#1096,#1098));
#1100=FACE_OUTER_BOUND('',#1099,.F.);
#1101=ADVANCED_FACE('',(#1100),#1092,.T.);
#1102=CARTESIAN_POINT('',(1.690640730946E2,1.924261719309E1,-2.45502E2));
#1103=DIRECTION('',(-4.749593279728E-1,8.800077481316E-1,0.E0));
#1104=DIRECTION('',(-8.800077481316E-1,-4.749593279728E-1,0.E0));
#1105=AXIS2_PLACEMENT_3D('',#1102,#1103,#1104);
#1106=PLANE('',#1105);
#1107=ORIENTED_EDGE('',*,*,#1095,.T.);
#1108=ORIENTED_EDGE('',*,*,#1070,.F.);
#1109=ORIENTED_EDGE('',*,*,#704,.F.);
#1111=ORIENTED_EDGE('',*,*,#1110,.F.);
#1112=EDGE_LOOP('',(#1107,#1108,#1109,#1111));
#1113=FACE_OUTER_BOUND('',#1112,.F.);
#1114=ADVANCED_FACE('',(#1113),#1106,.T.);
#1115=CARTESIAN_POINT('',(1.724543673249E2,1.823154867395E1,-2.45502E2));
#1116=DIRECTION('',(0.E0,0.E0,1.E0));
#1117=DIRECTION('',(1.E0,0.E0,0.E0));
#1118=AXIS2_PLACEMENT_3D('',#1115,#1116,#1117);
#1119=CYLINDRICAL_SURFACE('',#1118,2.5E0);
#1121=ORIENTED_EDGE('',*,*,#1120,.T.);
#1122=ORIENTED_EDGE('',*,*,#1110,.T.);
#1123=ORIENTED_EDGE('',*,*,#702,.F.);
#1125=ORIENTED_EDGE('',*,*,#1124,.T.);
#1126=EDGE_LOOP('',(#1121,#1122,#1123,#1125));
#1127=FACE_OUTER_BOUND('',#1126,.F.);
#1128=ADVANCED_FACE('',(#1127),#1119,.T.);
#1129=CARTESIAN_POINT('',(1.724543673249E2,1.823154867395E1,-2.337499999993E2));
#1130=DIRECTION('',(0.E0,0.E0,-1.E0));
#1131=DIRECTION('',(0.E0,-1.E0,0.E0));
#1132=AXIS2_PLACEMENT_3D('',#1129,#1130,#1131);
#1133=CONICAL_SURFACE('',#1132,2.249999999326E0,4.500000000001E1);
#1134=ORIENTED_EDGE('',*,*,#770,.T.);
#1135=ORIENTED_EDGE('',*,*,#1097,.T.);
#1136=ORIENTED_EDGE('',*,*,#1120,.F.);
#1138=ORIENTED_EDGE('',*,*,#1137,.F.);
#1139=EDGE_LOOP('',(#1134,#1135,#1136,#1138));
#1140=FACE_OUTER_BOUND('',#1139,.F.);
#1141=ADVANCED_FACE('',(#1140),#1133,.T.);
#1142=CARTESIAN_POINT('',(1.26E2,-4.000000000007E0,-2.3375E2));
#1143=DIRECTION('',(0.E0,0.E0,-1.E0));
#1144=DIRECTION('',(0.E0,-1.E0,0.E0));
#1145=AXIS2_PLACEMENT_3D('',#1142,#1143,#1144);
#1146=CONICAL_SURFACE('',#1145,5.375E1,4.500000000029E1);
#1147=ORIENTED_EDGE('',*,*,#772,.T.);
#1148=ORIENTED_EDGE('',*,*,#1137,.T.);
#1150=ORIENTED_EDGE('',*,*,#1149,.F.);
#1152=ORIENTED_EDGE('',*,*,#1151,.F.);
#1153=EDGE_LOOP('',(#1147,#1148,#1150,#1152));
#1154=FACE_OUTER_BOUND('',#1153,.F.);
#1155=ADVANCED_FACE('',(#1154),#1146,.T.);
#1156=CARTESIAN_POINT('',(1.26E2,-3.999999999999E0,-2.45502E2));
#1157=DIRECTION('',(0.E0,0.E0,1.E0));
#1158=DIRECTION('',(1.E0,0.E0,0.E0));
#1159=AXIS2_PLACEMENT_3D('',#1156,#1157,#1158);
#1160=CYLINDRICAL_SURFACE('',#1159,5.4E1);
#1161=ORIENTED_EDGE('',*,*,#1149,.T.);
#1162=ORIENTED_EDGE('',*,*,#1124,.F.);
#1163=ORIENTED_EDGE('',*,*,#700,.F.);
#1164=ORIENTED_EDGE('',*,*,#698,.F.);
#1166=ORIENTED_EDGE('',*,*,#1165,.T.);
#1167=EDGE_LOOP('',(#1161,#1162,#1163,#1164,#1166));
#1168=FACE_OUTER_BOUND('',#1167,.F.);
#1169=ADVANCED_FACE('',(#1168),#1160,.T.);
#1170=CARTESIAN_POINT('',(1.724543673249E2,-2.623154867395E1,-2.45502E2));
#1171=DIRECTION('',(0.E0,0.E0,1.E0));
#1172=DIRECTION('',(1.E0,0.E0,0.E0));
#1173=AXIS2_PLACEMENT_3D('',#1170,#1171,#1172);
#1174=CYLINDRICAL_SURFACE('',#1173,2.5E0);
#1176=ORIENTED_EDGE('',*,*,#1175,.T.);
#1177=ORIENTED_EDGE('',*,*,#1165,.F.);
#1178=ORIENTED_EDGE('',*,*,#696,.F.);
#1180=ORIENTED_EDGE('',*,*,#1179,.T.);
#1181=EDGE_LOOP('',(#1176,#1177,#1178,#1180));
#1182=FACE_OUTER_BOUND('',#1181,.F.);
#1183=ADVANCED_FACE('',(#1182),#1174,.T.);
#1184=CARTESIAN_POINT('',(1.724543673249E2,-2.623154867395E1,
-2.337499999993E2));
#1185=DIRECTION('',(0.E0,0.E0,-1.E0));
#1186=DIRECTION('',(0.E0,-1.E0,0.E0));
#1187=AXIS2_PLACEMENT_3D('',#1184,#1185,#1186);
#1188=CONICAL_SURFACE('',#1187,2.249999999317E0,4.500000000002E1);
#1189=ORIENTED_EDGE('',*,*,#774,.T.);
#1190=ORIENTED_EDGE('',*,*,#1151,.T.);
#1191=ORIENTED_EDGE('',*,*,#1175,.F.);
#1193=ORIENTED_EDGE('',*,*,#1192,.F.);
#1194=EDGE_LOOP('',(#1189,#1190,#1191,#1193));
#1195=FACE_OUTER_BOUND('',#1194,.F.);
#1196=ADVANCED_FACE('',(#1195),#1188,.T.);
#1197=CARTESIAN_POINT('',(1.691828129266E2,-2.702261525605E1,-2.3375E2));
#1198=DIRECTION('',(-3.358469615974E-1,-6.222594462006E-1,7.071067811865E-1));
#1199=DIRECTION('',(-3.358469615974E-1,-6.222594462005E-1,-7.071067811866E-1));
#1200=AXIS2_PLACEMENT_3D('',#1197,#1198,#1199);
#1201=PLANE('',#1200);
#1202=ORIENTED_EDGE('',*,*,#776,.T.);
#1203=ORIENTED_EDGE('',*,*,#1192,.T.);
#1205=ORIENTED_EDGE('',*,*,#1204,.F.);
#1207=ORIENTED_EDGE('',*,*,#1206,.F.);
#1208=EDGE_LOOP('',(#1202,#1203,#1205,#1207));
#1209=FACE_OUTER_BOUND('',#1208,.F.);
#1210=ADVANCED_FACE('',(#1209),#1201,.T.);
#1211=CARTESIAN_POINT('',(1.690640730946E2,-2.724261719309E1,-2.45502E2));
#1212=DIRECTION('',(4.749593279728E-1,8.800077481316E-1,0.E0));
#1213=DIRECTION('',(-8.800077481316E-1,4.749593279728E-1,0.E0));
#1214=AXIS2_PLACEMENT_3D('',#1211,#1212,#1213);
#1215=PLANE('',#1214);
#1216=ORIENTED_EDGE('',*,*,#1204,.T.);
#1217=ORIENTED_EDGE('',*,*,#1179,.F.);
#1218=ORIENTED_EDGE('',*,*,#694,.F.);
#1220=ORIENTED_EDGE('',*,*,#1219,.F.);
#1221=EDGE_LOOP('',(#1216,#1217,#1218,#1220));
#1222=FACE_OUTER_BOUND('',#1221,.F.);
#1223=ADVANCED_FACE('',(#1222),#1215,.F.);
#1224=CARTESIAN_POINT('',(1.680485755041E2,-2.385364697158E1,-2.45502E2));
#1225=DIRECTION('',(0.E0,0.E0,1.E0));
#1226=DIRECTION('',(1.E0,0.E0,0.E0));
#1227=AXIS2_PLACEMENT_3D('',#1224,#1225,#1226);
#1228=CYLINDRICAL_SURFACE('',#1227,2.5E0);
#1230=ORIENTED_EDGE('',*,*,#1229,.T.);
#1231=ORIENTED_EDGE('',*,*,#1219,.T.);
#1232=ORIENTED_EDGE('',*,*,#692,.F.);
#1233=ORIENTED_EDGE('',*,*,#690,.F.);
#1235=ORIENTED_EDGE('',*,*,#1234,.T.);
#1236=EDGE_LOOP('',(#1230,#1231,#1232,#1233,#1235));
#1237=FACE_OUTER_BOUND('',#1236,.F.);
#1238=ADVANCED_FACE('',(#1237),#1228,.T.);
#1239=CARTESIAN_POINT('',(1.680485755041E2,-2.385364697159E1,
-2.337499999996E2));
#1240=DIRECTION('',(0.E0,0.E0,-1.E0));
#1241=DIRECTION('',(0.E0,-1.E0,0.E0));
#1242=AXIS2_PLACEMENT_3D('',#1239,#1240,#1241);
#1243=CONICAL_SURFACE('',#1242,2.249999999591E0,4.500000000108E1);
#1244=ORIENTED_EDGE('',*,*,#778,.T.);
#1245=ORIENTED_EDGE('',*,*,#1206,.T.);
#1246=ORIENTED_EDGE('',*,*,#1229,.F.);
#1248=ORIENTED_EDGE('',*,*,#1247,.F.);
#1249=EDGE_LOOP('',(#1244,#1245,#1246,#1248));
#1250=FACE_OUTER_BOUND('',#1249,.F.);
#1251=ADVANCED_FACE('',(#1250),#1243,.T.);
#1252=CARTESIAN_POINT('',(1.260000000001E2,-3.999999999974E0,-2.3375E2));
#1253=DIRECTION('',(0.E0,0.E0,1.E0));
#1254=DIRECTION('',(0.E0,-1.E0,0.E0));
#1255=AXIS2_PLACEMENT_3D('',#1252,#1253,#1254);
#1256=CONICAL_SURFACE('',#1255,4.424999999992E1,4.499999999861E1);
#1257=ORIENTED_EDGE('',*,*,#780,.T.);
#1258=ORIENTED_EDGE('',*,*,#1247,.T.);
#1260=ORIENTED_EDGE('',*,*,#1259,.F.);
#1262=ORIENTED_EDGE('',*,*,#1261,.F.);
#1263=EDGE_LOOP('',(#1257,#1258,#1260,#1262));
#1264=FACE_OUTER_BOUND('',#1263,.F.);
#1265=ADVANCED_FACE('',(#1264),#1256,.F.);
#1266=CARTESIAN_POINT('',(1.260000000001E2,-3.999999999971E0,-2.45502E2));
#1267=DIRECTION('',(0.E0,0.E0,1.E0));
#1268=DIRECTION('',(1.E0,0.E0,0.E0));
#1269=AXIS2_PLACEMENT_3D('',#1266,#1267,#1268);
#1270=CYLINDRICAL_SURFACE('',#1269,4.399999999993E1);
#1271=ORIENTED_EDGE('',*,*,#1259,.T.);
#1272=ORIENTED_EDGE('',*,*,#1234,.F.);
#1273=ORIENTED_EDGE('',*,*,#688,.F.);
#1275=ORIENTED_EDGE('',*,*,#1274,.F.);
#1276=EDGE_LOOP('',(#1271,#1272,#1273,#1275));
#1277=FACE_OUTER_BOUND('',#1276,.F.);
#1278=ADVANCED_FACE('',(#1277),#1270,.F.);
#1279=CARTESIAN_POINT('',(1.704407285984E2,-1.587525332954E1,-2.45502E2));
#1280=DIRECTION('',(0.E0,0.E0,1.E0));
#1281=DIRECTION('',(1.E0,0.E0,0.E0));
#1282=AXIS2_PLACEMENT_3D('',#1279,#1280,#1281);
#1283=CYLINDRICAL_SURFACE('',#1282,2.E0);
#1285=ORIENTED_EDGE('',*,*,#1284,.T.);
#1286=ORIENTED_EDGE('',*,*,#1274,.T.);
#1287=ORIENTED_EDGE('',*,*,#686,.F.);
#1289=ORIENTED_EDGE('',*,*,#1288,.T.);
#1290=EDGE_LOOP('',(#1285,#1286,#1287,#1289));
#1291=FACE_OUTER_BOUND('',#1290,.F.);
#1292=ADVANCED_FACE('',(#1291),#1283,.T.);
#1293=CARTESIAN_POINT('',(1.704407285984E2,-1.587525332953E1,
-2.337499999992E2));
#1294=DIRECTION('',(0.E0,0.E0,-1.E0));
#1295=DIRECTION('',(0.E0,-1.E0,0.E0));
#1296=AXIS2_PLACEMENT_3D('',#1293,#1294,#1295);
#1297=CONICAL_SURFACE('',#1296,1.749999999179E0,4.500000000069E1);
#1298=ORIENTED_EDGE('',*,*,#782,.T.);
#1299=ORIENTED_EDGE('',*,*,#1261,.T.);
#1300=ORIENTED_EDGE('',*,*,#1284,.F.);
#1302=ORIENTED_EDGE('',*,*,#1301,.F.);
#1303=EDGE_LOOP('',(#1298,#1299,#1300,#1302));
#1304=FACE_OUTER_BOUND('',#1303,.F.);
#1305=ADVANCED_FACE('',(#1304),#1297,.T.);
#1306=CARTESIAN_POINT('',(1.727730967813E2,-1.459872392450E1,-2.3375E2));
#1307=DIRECTION('',(1.526707823016E-1,6.904285859025E-1,7.071067811866E-1));
#1308=DIRECTION('',(1.526707823017E-1,6.904285859026E-1,-7.071067811865E-1));
#1309=AXIS2_PLACEMENT_3D('',#1306,#1307,#1308);
#1310=PLANE('',#1309);
#1311=ORIENTED_EDGE('',*,*,#784,.T.);
#1312=ORIENTED_EDGE('',*,*,#1301,.T.);
#1314=ORIENTED_EDGE('',*,*,#1313,.F.);
#1316=ORIENTED_EDGE('',*,*,#1315,.F.);
#1317=EDGE_LOOP('',(#1311,#1312,#1314,#1316));
#1318=FACE_OUTER_BOUND('',#1317,.F.);
#1319=ADVANCED_FACE('',(#1318),#1310,.T.);
#1320=CARTESIAN_POINT('',(1.728678465616E2,-1.436363636364E1,8.753682649024E2));
#1321=DIRECTION('',(-2.159090909091E-1,-9.764134700335E-1,0.E0));
#1322=DIRECTION('',(9.764134700335E-1,-2.159090909091E-1,0.E0));
#1323=AXIS2_PLACEMENT_3D('',#1320,#1321,#1322);
#1324=PLANE('',#1323);
#1325=ORIENTED_EDGE('',*,*,#1313,.T.);
#1326=ORIENTED_EDGE('',*,*,#1288,.F.);
#1327=ORIENTED_EDGE('',*,*,#684,.F.);
#1329=ORIENTED_EDGE('',*,*,#1328,.F.);
#1330=EDGE_LOOP('',(#1325,#1326,#1327,#1329));
#1331=FACE_OUTER_BOUND('',#1330,.F.);
#1332=ADVANCED_FACE('',(#1331),#1324,.F.);
#1333=CARTESIAN_POINT('',(1.752134195096E2,-1.283398778444E1,8.753682649024E2));
#1334=DIRECTION('',(0.E0,0.E0,-1.E0));
#1335=DIRECTION('',(-1.E0,0.E0,0.E0));
#1336=AXIS2_PLACEMENT_3D('',#1333,#1334,#1335);
#1337=CYLINDRICAL_SURFACE('',#1336,2.E0);
#1339=ORIENTED_EDGE('',*,*,#1338,.T.);
#1340=ORIENTED_EDGE('',*,*,#1328,.T.);
#1341=ORIENTED_EDGE('',*,*,#682,.F.);
#1343=ORIENTED_EDGE('',*,*,#1342,.T.);
#1344=EDGE_LOOP('',(#1339,#1340,#1341,#1343));
#1345=FACE_OUTER_BOUND('',#1344,.F.);
#1346=ADVANCED_FACE('',(#1345),#1337,.F.);
#1347=CARTESIAN_POINT('',(1.752134195096E2,-1.283398778443E1,
-2.337500000014E2));
#1348=DIRECTION('',(0.E0,0.E0,1.E0));
#1349=DIRECTION('',(0.E0,-1.E0,0.E0));
#1350=AXIS2_PLACEMENT_3D('',#1347,#1348,#1349);
#1351=CONICAL_SURFACE('',#1350,2.249999998629E0,4.499999999968E1);
#1352=ORIENTED_EDGE('',*,*,#786,.T.);
#1353=ORIENTED_EDGE('',*,*,#1315,.T.);
#1354=ORIENTED_EDGE('',*,*,#1338,.F.);
#1356=ORIENTED_EDGE('',*,*,#1355,.F.);
#1357=EDGE_LOOP('',(#1352,#1353,#1354,#1356));
#1358=FACE_OUTER_BOUND('',#1357,.F.);
#1359=ADVANCED_FACE('',(#1358),#1351,.F.);
#1360=CARTESIAN_POINT('',(1.26E2,-4.E0,-2.3375E2));
#1361=DIRECTION('',(0.E0,0.E0,1.E0));
#1362=DIRECTION('',(0.E0,-1.E0,0.E0));
#1363=AXIS2_PLACEMENT_3D('',#1360,#1361,#1362);
#1364=CONICAL_SURFACE('',#1363,5.225000000001E1,4.500000000102E1);
#1365=ORIENTED_EDGE('',*,*,#788,.T.);
#1366=ORIENTED_EDGE('',*,*,#1355,.T.);
#1368=ORIENTED_EDGE('',*,*,#1367,.F.);
#1370=ORIENTED_EDGE('',*,*,#1369,.F.);
#1371=EDGE_LOOP('',(#1365,#1366,#1368,#1370));
#1372=FACE_OUTER_BOUND('',#1371,.F.);
#1373=ADVANCED_FACE('',(#1372),#1364,.F.);
#1374=CARTESIAN_POINT('',(1.26E2,-4.E0,8.753682649024E2));
#1375=DIRECTION('',(0.E0,0.E0,-1.E0));
#1376=DIRECTION('',(-1.E0,0.E0,0.E0));
#1377=AXIS2_PLACEMENT_3D('',#1374,#1375,#1376);
#1378=CYLINDRICAL_SURFACE('',#1377,5.2E1);
#1379=ORIENTED_EDGE('',*,*,#1367,.T.);
#1380=ORIENTED_EDGE('',*,*,#1342,.F.);
#1381=ORIENTED_EDGE('',*,*,#680,.F.);
#1382=ORIENTED_EDGE('',*,*,#678,.F.);
#1384=ORIENTED_EDGE('',*,*,#1383,.F.);
#1385=EDGE_LOOP('',(#1379,#1380,#1381,#1382,#1384));
#1386=FACE_OUTER_BOUND('',#1385,.F.);
#1387=ADVANCED_FACE('',(#1386),#1378,.F.);
#1388=CARTESIAN_POINT('',(1.752134195096E2,4.833987784441E0,8.753682649024E2));
#1389=DIRECTION('',(0.E0,0.E0,-1.E0));
#1390=DIRECTION('',(-1.E0,0.E0,0.E0));
#1391=AXIS2_PLACEMENT_3D('',#1388,#1389,#1390);
#1392=CYLINDRICAL_SURFACE('',#1391,2.E0);
#1394=ORIENTED_EDGE('',*,*,#1393,.T.);
#1395=ORIENTED_EDGE('',*,*,#1383,.T.);
#1396=ORIENTED_EDGE('',*,*,#676,.F.);
#1397=ORIENTED_EDGE('',*,*,#736,.T.);
#1398=EDGE_LOOP('',(#1394,#1395,#1396,#1397));
#1399=FACE_OUTER_BOUND('',#1398,.F.);
#1400=ADVANCED_FACE('',(#1399),#1392,.F.);
#1401=CARTESIAN_POINT('',(1.752134195096E2,4.833987784429E0,-2.337500000014E2));
#1402=DIRECTION('',(0.E0,0.E0,1.E0));
#1403=DIRECTION('',(0.E0,-1.E0,0.E0));
#1404=AXIS2_PLACEMENT_3D('',#1401,#1402,#1403);
#1405=CONICAL_SURFACE('',#1404,2.249999998622E0,4.499999999963E1);
#1406=ORIENTED_EDGE('',*,*,#790,.T.);
#1407=ORIENTED_EDGE('',*,*,#1369,.T.);
#1408=ORIENTED_EDGE('',*,*,#1393,.F.);
#1409=ORIENTED_EDGE('',*,*,#751,.F.);
#1410=EDGE_LOOP('',(#1406,#1407,#1408,#1409));
#1411=FACE_OUTER_BOUND('',#1410,.F.);
#1412=ADVANCED_FACE('',(#1411),#1405,.F.);
#1416=DIMENSIONAL_EXPONENTS(0.E0,0.E0,0.E0,0.E0,0.E0,0.E0,0.E0);
#1418=PLANE_ANGLE_MEASURE_WITH_UNIT(PLANE_ANGLE_MEASURE(1.745329251994E-2),
#1417);
#1419=(CONVERSION_BASED_UNIT('DEGREE',#1418)NAMED_UNIT(*)PLANE_ANGLE_UNIT());
#1421=UNCERTAINTY_MEASURE_WITH_UNIT(LENGTH_MEASURE(5.291303945605E-3),#1415,
'closure',
'Maximum model space distance between geometric entities at asserted connectivities');
#1422=(GEOMETRIC_REPRESENTATION_CONTEXT(3)GLOBAL_UNCERTAINTY_ASSIGNED_CONTEXT((
#1421))GLOBAL_UNIT_ASSIGNED_CONTEXT((#1415,#1419,#1420))REPRESENTATION_CONTEXT(
'ID1','3'));
#1424=APPLICATION_CONTEXT(
'CONFIGURATION CONTROLLED 3D DESIGNS OF MECHANICAL PARTS AND ASSEMBLIES');
#1425=APPLICATION_PROTOCOL_DEFINITION('international standard',
'config_control_design',1994,#1424);
#1426=DESIGN_CONTEXT('',#1424,'design');
#1427=MECHANICAL_CONTEXT('',#1424,'mechanical');
#1428=PRODUCT('KD-D-203L_THIGH_ROLL_HARDSTOP_1',
'KD-D-203L_THIGH_ROLL_HARDSTOP_1','NOT SPECIFIED',(#1427));
#1429=PRODUCT_DEFINITION_FORMATION_WITH_SPECIFIED_SOURCE('2','LAST_VERSION',
#1428,.MADE.);
#1433=PRODUCT_CATEGORY('part','');
#1434=PRODUCT_RELATED_PRODUCT_CATEGORY('detail','',(#1428));
#1435=PRODUCT_CATEGORY_RELATIONSHIP('','',#1433,#1434);
#1436=SECURITY_CLASSIFICATION_LEVEL('unclassified');
#1437=SECURITY_CLASSIFICATION('','',#1436);
#1438=CC_DESIGN_SECURITY_CLASSIFICATION(#1437,(#1429));
#1439=APPROVAL_STATUS('approved');
#1440=APPROVAL(#1439,'');
#1441=CC_DESIGN_APPROVAL(#1440,(#1437,#1429,#1430));
#1442=CALENDAR_DATE(125,12,7);
#1443=COORDINATED_UNIVERSAL_TIME_OFFSET(8,0,.AHEAD.);
#1444=LOCAL_TIME(16,17,1.5E1,#1443);
#1445=DATE_AND_TIME(#1442,#1444);
#1446=APPROVAL_DATE_TIME(#1445,#1440);
#1447=DATE_TIME_ROLE('creation_date');
#1448=CC_DESIGN_DATE_AND_TIME_ASSIGNMENT(#1445,#1447,(#1430));
#1449=DATE_TIME_ROLE('classification_date');
#1450=CC_DESIGN_DATE_AND_TIME_ASSIGNMENT(#1445,#1449,(#1437));
#1451=PERSON('UNSPECIFIED','UNSPECIFIED',$,$,$,$);
#1452=ORGANIZATION('UNSPECIFIED','UNSPECIFIED','UNSPECIFIED');
#1453=PERSON_AND_ORGANIZATION(#1451,#1452);
#1454=APPROVAL_ROLE('approver');
#1455=APPROVAL_PERSON_ORGANIZATION(#1453,#1440,#1454);
#1456=PERSON_AND_ORGANIZATION_ROLE('creator');
#1457=CC_DESIGN_PERSON_AND_ORGANIZATION_ASSIGNMENT(#1453,#1456,(#1429,#1430));
#1458=PERSON_AND_ORGANIZATION_ROLE('design_supplier');
#1459=CC_DESIGN_PERSON_AND_ORGANIZATION_ASSIGNMENT(#1453,#1458,(#1429));
#1460=PERSON_AND_ORGANIZATION_ROLE('classification_officer');
#1461=CC_DESIGN_PERSON_AND_ORGANIZATION_ASSIGNMENT(#1453,#1460,(#1437));
#1462=PERSON_AND_ORGANIZATION_ROLE('design_owner');
#1463=CC_DESIGN_PERSON_AND_ORGANIZATION_ASSIGNMENT(#1453,#1462,(#1428));
#9=CIRCLE('',#8,2.E0);
#14=CIRCLE('',#13,5.2E1);
#19=CIRCLE('',#18,5.2E1);
#24=CIRCLE('',#23,2.E0);
#33=CIRCLE('',#32,2.E0);
#38=CIRCLE('',#37,4.399999999993E1);
#43=CIRCLE('',#42,2.5E0);
#48=CIRCLE('',#47,2.5E0);
#57=CIRCLE('',#56,2.5E0);
#62=CIRCLE('',#61,5.4E1);
#67=CIRCLE('',#66,5.4E1);
#72=CIRCLE('',#71,2.5E0);
#81=CIRCLE('',#80,2.5E0);
#86=CIRCLE('',#85,2.5E0);
#91=CIRCLE('',#90,4.399999999993E1);
#96=CIRCLE('',#95,2.E0);
#101=CIRCLE('',#100,4.125E0);
#106=CIRCLE('',#105,4.125E0);
#111=CIRCLE('',#110,4.125E0);
#116=CIRCLE('',#115,4.125E0);
#129=CIRCLE('',#128,2.15E0);
#134=CIRCLE('',#133,2.15E0);
#139=CIRCLE('',#138,2.15E0);
#144=CIRCLE('',#143,2.15E0);
#149=CIRCLE('',#148,4.449999999991E1);
#154=CIRCLE('',#153,1.999999999975E0);
#163=CIRCLE('',#162,2.E0);
#168=CIRCLE('',#167,5.35E1);
#173=CIRCLE('',#172,2.E0);
#182=CIRCLE('',#181,1.999999999981E0);
#187=CIRCLE('',#186,4.449999999990E1);
#192=CIRCLE('',#191,1.499999999988E0);
#201=CIRCLE('',#200,2.499999999994E0);
#206=CIRCLE('',#205,5.250000000002E1);
#211=CIRCLE('',#210,2.499999999993E0);
#220=CIRCLE('',#219,1.499999999986E0);
#225=CIRCLE('',#224,2.15E0);
#238=CIRCLE('',#237,4.125E0);
#243=CIRCLE('',#242,4.125E0);
#248=CIRCLE('',#247,2.65E0);
#253=CIRCLE('',#252,2.65E0);
#270=CIRCLE('',#269,2.15E0);
#279=CIRCLE('',#278,2.15E0);
#292=CIRCLE('',#291,4.125E0);
#297=CIRCLE('',#296,4.125E0);
#302=CIRCLE('',#301,2.65E0);
#307=CIRCLE('',#306,2.65E0);
#324=CIRCLE('',#323,2.15E0);
#341=CIRCLE('',#340,2.E0);
#354=CIRCLE('',#353,4.399999999993E1);
#363=CIRCLE('',#362,2.5E0);
#384=CIRCLE('',#383,2.5E0);
#405=CIRCLE('',#404,5.4E1);
#414=CIRCLE('',#413,2.5E0);
#435=CIRCLE('',#434,2.5E0);
#456=CIRCLE('',#455,4.399999999993E1);
#461=CIRCLE('',#460,2.E0);
#486=CIRCLE('',#485,2.E0);
#507=CIRCLE('',#506,5.2E1);
#512=CIRCLE('',#511,2.E0);
#674=EDGE_CURVE('',#527,#528,#4,.T.);
#676=EDGE_CURVE('',#528,#530,#9,.T.);
#678=EDGE_CURVE('',#530,#532,#14,.T.);
#680=EDGE_CURVE('',#532,#534,#19,.T.);
#682=EDGE_CURVE('',#534,#536,#24,.T.);
#684=EDGE_CURVE('',#536,#538,#28,.T.);
#686=EDGE_CURVE('',#538,#540,#33,.T.);
#688=EDGE_CURVE('',#540,#542,#38,.T.);
#690=EDGE_CURVE('',#542,#545,#43,.T.);
#692=EDGE_CURVE('',#545,#546,#48,.T.);
#694=EDGE_CURVE('',#546,#548,#52,.T.);
#696=EDGE_CURVE('',#548,#550,#57,.T.);
#698=EDGE_CURVE('',#550,#552,#62,.T.);
#700=EDGE_CURVE('',#552,#554,#67,.T.);
#702=EDGE_CURVE('',#554,#556,#72,.T.);
#704=EDGE_CURVE('',#556,#558,#76,.T.);
#706=EDGE_CURVE('',#558,#561,#81,.T.);
#708=EDGE_CURVE('',#561,#562,#86,.T.);
#710=EDGE_CURVE('',#562,#564,#91,.T.);
#712=EDGE_CURVE('',#564,#527,#96,.T.);
#716=EDGE_CURVE('',#567,#568,#101,.T.);
#718=EDGE_CURVE('',#568,#567,#106,.T.);
#722=EDGE_CURVE('',#571,#572,#111,.T.);
#724=EDGE_CURVE('',#572,#571,#116,.T.);
#734=EDGE_CURVE('',#616,#620,#120,.T.);
#736=EDGE_CURVE('',#528,#620,#520,.T.);
#739=EDGE_CURVE('',#616,#527,#345,.T.);
#749=EDGE_CURVE('',#614,#618,#215,.T.);
#751=EDGE_CURVE('',#618,#620,#524,.T.);
#754=EDGE_CURVE('',#614,#616,#124,.T.);
#764=EDGE_CURVE('',#607,#608,#149,.T.);
#766=EDGE_CURVE('',#666,#607,#154,.T.);
#768=EDGE_CURVE('',#662,#666,#158,.T.);
#770=EDGE_CURVE('',#658,#662,#163,.T.);
#772=EDGE_CURVE('',#654,#658,#168,.T.);
#774=EDGE_CURVE('',#650,#654,#173,.T.);
#776=EDGE_CURVE('',#646,#650,#177,.T.);
#778=EDGE_CURVE('',#642,#646,#182,.T.);
#780=EDGE_CURVE('',#638,#642,#187,.T.);
#782=EDGE_CURVE('',#634,#638,#192,.T.);
#784=EDGE_CURVE('',#630,#634,#196,.T.);
#786=EDGE_CURVE('',#626,#630,#201,.T.);
#788=EDGE_CURVE('',#622,#626,#206,.T.);
#790=EDGE_CURVE('',#618,#622,#211,.T.);
#793=EDGE_CURVE('',#608,#614,#220,.T.);
#797=EDGE_CURVE('',#580,#579,#139,.T.);
#799=EDGE_CURVE('',#579,#580,#144,.T.);
#803=EDGE_CURVE('',#583,#584,#129,.T.);
#805=EDGE_CURVE('',#584,#583,#134,.T.);
#815=EDGE_CURVE('',#603,#604,#225,.T.);
#817=EDGE_CURVE('',#584,#604,#274,.T.);
#820=EDGE_CURVE('',#583,#603,#229,.T.);
#830=EDGE_CURVE('',#599,#600,#248,.T.);
#832=EDGE_CURVE('',#600,#604,#265,.T.);
#835=EDGE_CURVE('',#599,#603,#233,.T.);
#845=EDGE_CURVE('',#587,#588,#238,.T.);
#847=EDGE_CURVE('',#588,#587,#243,.T.);
#852=EDGE_CURVE('',#600,#599,#253,.T.);
#863=EDGE_CURVE('',#587,#567,#257,.T.);
#866=EDGE_CURVE('',#588,#568,#261,.T.);
#890=EDGE_CURVE('',#604,#603,#270,.T.);
#913=EDGE_CURVE('',#595,#596,#279,.T.);
#915=EDGE_CURVE('',#579,#596,#328,.T.);
#918=EDGE_CURVE('',#580,#595,#283,.T.);
#928=EDGE_CURVE('',#591,#592,#302,.T.);
#930=EDGE_CURVE('',#592,#596,#319,.T.);
#933=EDGE_CURVE('',#591,#595,#287,.T.);
#943=EDGE_CURVE('',#576,#575,#292,.T.);
#945=EDGE_CURVE('',#575,#576,#297,.T.);
#950=EDGE_CURVE('',#592,#591,#307,.T.);
#961=EDGE_CURVE('',#576,#571,#311,.T.);
#964=EDGE_CURVE('',#575,#572,#315,.T.);
#988=EDGE_CURVE('',#596,#595,#324,.T.);
#1012=EDGE_CURVE('',#608,#612,#336,.T.);
#1014=EDGE_CURVE('',#611,#612,#354,.T.);
#1016=EDGE_CURVE('',#607,#611,#332,.T.);
#1028=EDGE_CURVE('',#612,#616,#341,.T.);
#1042=EDGE_CURVE('',#564,#612,#349,.T.);
#1055=EDGE_CURVE('',#562,#611,#358,.T.);
#1065=EDGE_CURVE('',#668,#611,#363,.T.);
#1070=EDGE_CURVE('',#558,#668,#367,.T.);
#1083=EDGE_CURVE('',#666,#668,#371,.T.);
#1095=EDGE_CURVE('',#664,#668,#379,.T.);
#1097=EDGE_CURVE('',#662,#664,#375,.T.);
#1110=EDGE_CURVE('',#664,#556,#388,.T.);
#1120=EDGE_CURVE('',#660,#664,#384,.T.);
#1124=EDGE_CURVE('',#554,#660,#392,.T.);
#1137=EDGE_CURVE('',#658,#660,#396,.T.);
#1149=EDGE_CURVE('',#656,#660,#405,.T.);
#1151=EDGE_CURVE('',#654,#656,#400,.T.);
#1165=EDGE_CURVE('',#550,#656,#409,.T.);
#1175=EDGE_CURVE('',#652,#656,#414,.T.);
#1179=EDGE_CURVE('',#548,#652,#418,.T.);
#1192=EDGE_CURVE('',#650,#652,#422,.T.);
#1204=EDGE_CURVE('',#648,#652,#430,.T.);
#1206=EDGE_CURVE('',#646,#648,#426,.T.);
#1219=EDGE_CURVE('',#648,#546,#439,.T.);
#1229=EDGE_CURVE('',#644,#648,#435,.T.);
#1234=EDGE_CURVE('',#542,#644,#443,.T.);
#1247=EDGE_CURVE('',#642,#644,#447,.T.);
#1259=EDGE_CURVE('',#640,#644,#456,.T.);
#1261=EDGE_CURVE('',#638,#640,#451,.T.);
#1274=EDGE_CURVE('',#640,#540,#465,.T.);
#1284=EDGE_CURVE('',#636,#640,#461,.T.);
#1288=EDGE_CURVE('',#538,#636,#469,.T.);
#1301=EDGE_CURVE('',#634,#636,#473,.T.);
#1313=EDGE_CURVE('',#632,#636,#481,.T.);
#1315=EDGE_CURVE('',#630,#632,#477,.T.);
#1328=EDGE_CURVE('',#632,#536,#490,.T.);
#1338=EDGE_CURVE('',#628,#632,#486,.T.);
#1342=EDGE_CURVE('',#534,#628,#494,.T.);
#1355=EDGE_CURVE('',#626,#628,#498,.T.);
#1367=EDGE_CURVE('',#624,#628,#507,.T.);
#1369=EDGE_CURVE('',#622,#624,#502,.T.);
#1383=EDGE_CURVE('',#624,#530,#516,.T.);
#1393=EDGE_CURVE('',#620,#624,#512,.T.);
#1413=CLOSED_SHELL('',(#728,#743,#758,#809,#824,#839,#856,#870,#882,#895,#907,
#922,#937,#954,#968,#980,#993,#1005,#1020,#1033,#1046,#1059,#1074,#1087,#1101,
#1114,#1128,#1141,#1155,#1169,#1183,#1196,#1210,#1223,#1238,#1251,#1265,#1278,
#1292,#1305,#1319,#1332,#1346,#1359,#1373,#1387,#1400,#1412));
#1414=MANIFOLD_SOLID_BREP('',#1413);
#1415=(LENGTH_UNIT()NAMED_UNIT(*)SI_UNIT(.MILLI.,.METRE.));
#1417=(NAMED_UNIT(*)PLANE_ANGLE_UNIT()SI_UNIT($,.RADIAN.));
#1420=(NAMED_UNIT(*)SI_UNIT($,.STERADIAN.)SOLID_ANGLE_UNIT());
#1423=ADVANCED_BREP_SHAPE_REPRESENTATION('',(#1414),#1422);
#1430=PRODUCT_DEFINITION('design','',#1429,#1426);
#1431=PRODUCT_DEFINITION_SHAPE('','SHAPE FOR KD-D-203L_THIGH_ROLL_HARDSTOP_1.',
#1430);
#1432=SHAPE_DEFINITION_REPRESENTATION(#1431,#1423);
ENDSEC;
END-ISO-10303-21;
