ISO-10303-21;
HEADER;
FILE_DESCRIPTION((''),'2;1');
FILE_NAME('KD-D-105L_LHIPYOKEHARDSTOPTOO_1','2025-07-13T10:04:40',(
'Administrator'),(''),'CREO PARAMETRIC BY PTC INC, 2022073',
'CREO PARAMETRIC BY PTC INC, 2022073','');
FILE_SCHEMA(('CONFIG_CONTROL_DESIGN'));
ENDSEC;
DATA;
#1=CARTESIAN_POINT('',(5.5E1,4.232725281383E-13,-6.4E1));
#2=DIRECTION('',(-1.E0,0.E0,0.E0));
#3=DIRECTION('',(0.E0,-9.999210862739E-1,-1.256269178092E-2));
#4=AXIS2_PLACEMENT_3D('',#1,#2,#3);
#6=CARTESIAN_POINT('',(5.5E1,-4.783723198484E1,-6.005041318252E1));
#7=DIRECTION('',(1.E0,0.E0,0.E0));
#8=DIRECTION('',(0.E0,9.966089996830E-1,-8.228305871107E-2));
#9=AXIS2_PLACEMENT_3D('',#6,#7,#8);
#11=DIRECTION('',(0.E0,-9.862856015372E-1,1.650476058606E-1));
#12=VECTOR('',#11,8.131231346208E0);
#13=CARTESIAN_POINT('',(5.5E1,-4.717704156137E1,-5.610527077638E1));
#14=LINE('',#13,#12);
#15=CARTESIAN_POINT('',(5.5E1,-5.552685317257E1,-5.673580171307E1));
#16=DIRECTION('',(1.E0,0.E0,0.E0));
#17=DIRECTION('',(0.E0,1.650476057779E-1,9.862856015511E-1));
#18=AXIS2_PLACEMENT_3D('',#15,#16,#17);
#20=CARTESIAN_POINT('',(5.5E1,-5.552685317257E1,-5.673580171307E1));
#21=DIRECTION('',(1.E0,0.E0,0.E0));
#22=DIRECTION('',(0.E0,0.E0,1.E0));
#23=AXIS2_PLACEMENT_3D('',#20,#21,#22);
#25=CARTESIAN_POINT('',(5.5E1,2.463307335887E-13,-6.4E1));
#26=DIRECTION('',(1.E0,0.E0,0.E0));
#27=DIRECTION('',(0.E0,-9.915509495102E-1,1.297178265524E-1));
#28=AXIS2_PLACEMENT_3D('',#25,#26,#27);
#30=CARTESIAN_POINT('',(5.5E1,-5.589831740609E1,-6.737314558957E1));
#31=DIRECTION('',(1.E0,0.E0,0.E0));
#32=DIRECTION('',(0.E0,-9.981842393931E-1,-6.023474269173E-2));
#33=AXIS2_PLACEMENT_3D('',#30,#31,#32);
#35=CARTESIAN_POINT('',(5.5E1,-5.589831740609E1,-6.737314558957E1));
#36=DIRECTION('',(1.E0,0.E0,0.E0));
#37=DIRECTION('',(0.E0,0.E0,-1.E0));
#38=AXIS2_PLACEMENT_3D('',#35,#36,#37);
#40=DIRECTION('',(0.E0,9.953961983672E-1,9.584575252022E-2));
#41=VECTOR('',#40,8.131231346095E0);
#42=CARTESIAN_POINT('',(5.5E1,-5.570662590102E1,-6.936393798630E1));
#43=LINE('',#42,#41);
#44=CARTESIAN_POINT('',(5.5E1,-4.799621214115E1,-6.460300920555E1));
#45=DIRECTION('',(1.E0,0.E0,0.E0));
#46=DIRECTION('',(0.E0,9.584575251598E-2,-9.953961983676E-1));
#47=AXIS2_PLACEMENT_3D('',#44,#45,#46);
#49=CARTESIAN_POINT('',(5.5E1,-5.336747016282E1,-6.213636687609E1));
#50=DIRECTION('',(-1.E0,0.E0,0.E0));
#51=DIRECTION('',(0.E0,0.E0,1.E0));
#52=AXIS2_PLACEMENT_3D('',#49,#50,#51);
#54=CARTESIAN_POINT('',(5.5E1,-5.336747016282E1,-6.213636687609E1));
#55=DIRECTION('',(-1.E0,0.E0,0.E0));
#56=DIRECTION('',(0.E0,0.E0,-1.E0));
#57=AXIS2_PLACEMENT_3D('',#54,#55,#56);
#59=CARTESIAN_POINT('',(5.5E1,-4.687142978720E1,-6.236321360465E1));
#60=DIRECTION('',(-1.E0,0.E0,0.E0));
#61=DIRECTION('',(0.E0,0.E0,1.E0));
#62=AXIS2_PLACEMENT_3D('',#59,#60,#61);
#64=CARTESIAN_POINT('',(5.5E1,-4.687142978720E1,-6.236321360465E1));
#65=DIRECTION('',(-1.E0,0.E0,0.E0));
#66=DIRECTION('',(0.E0,0.E0,-1.E0));
#67=AXIS2_PLACEMENT_3D('',#64,#65,#66);
#69=DIRECTION('',(0.E0,0.E0,-1.E0));
#70=VECTOR('',#69,3.65E0);
#71=CARTESIAN_POINT('',(5.5E1,-4.664647468330E1,-5.691704418859E1));
#72=LINE('',#71,#70);
#73=DIRECTION('',(0.E0,-1.E0,0.E0));
#74=VECTOR('',#73,2.2E0);
#75=CARTESIAN_POINT('',(5.5E1,-4.664647468330E1,-6.056704418859E1));
#76=LINE('',#75,#74);
#77=DIRECTION('',(0.E0,0.E0,1.E0));
#78=VECTOR('',#77,5.106382966042E-1);
#79=CARTESIAN_POINT('',(5.5E1,-4.884647468330E1,-6.056704418859E1));
#80=LINE('',#79,#78);
#81=DIRECTION('',(0.E0,1.E0,0.E0));
#82=VECTOR('',#81,1.75E0);
#83=CARTESIAN_POINT('',(5.5E1,-4.884647468330E1,-6.005640589199E1));
#84=LINE('',#83,#82);
#85=DIRECTION('',(0.E0,0.E0,1.E0));
#86=VECTOR('',#85,3.139361703396E0);
#87=CARTESIAN_POINT('',(5.5E1,-4.709647468330E1,-6.005640589199E1));
#88=LINE('',#87,#86);
#89=DIRECTION('',(0.E0,1.E0,0.E0));
#90=VECTOR('',#89,4.5E-1);
#91=CARTESIAN_POINT('',(5.5E1,-4.709647468330E1,-5.691704418859E1));
#92=LINE('',#91,#90);
#93=DIRECTION('',(0.E0,-9.953961983672E-1,-9.584575252022E-2));
#94=VECTOR('',#93,8.131231345988E0);
#95=CARTESIAN_POINT('',(6.3E1,-4.761282913109E1,-6.858459399902E1));
#96=LINE('',#95,#94);
#97=CARTESIAN_POINT('',(6.3E1,-5.589831740609E1,-6.737314558957E1));
#98=DIRECTION('',(-1.E0,0.E0,0.E0));
#99=DIRECTION('',(0.E0,9.584575269336E-2,-9.953961983505E-1));
#100=AXIS2_PLACEMENT_3D('',#97,#98,#99);
#102=CARTESIAN_POINT('',(6.3E1,-5.589831740609E1,-6.737314558957E1));
#103=DIRECTION('',(-1.E0,0.E0,0.E0));
#104=DIRECTION('',(0.E0,0.E0,-1.E0));
#105=AXIS2_PLACEMENT_3D('',#102,#103,#104);
#107=CARTESIAN_POINT('',(6.3E1,2.463307335887E-13,-6.4E1));
#108=DIRECTION('',(-1.E0,0.E0,0.E0));
#109=DIRECTION('',(0.E0,-9.981842393944E-1,-6.023474267153E-2));
#110=AXIS2_PLACEMENT_3D('',#107,#108,#109);
#112=CARTESIAN_POINT('',(6.3E1,-5.552685317257E1,-5.673580171307E1));
#113=DIRECTION('',(-1.E0,0.E0,0.E0));
#114=DIRECTION('',(0.E0,-9.915509495099E-1,1.297178265547E-1));
#115=AXIS2_PLACEMENT_3D('',#112,#113,#114);
#117=CARTESIAN_POINT('',(6.3E1,-5.552685317257E1,-5.673580171307E1));
#118=DIRECTION('',(-1.E0,0.E0,0.E0));
#119=DIRECTION('',(0.E0,0.E0,1.E0));
#120=AXIS2_PLACEMENT_3D('',#117,#118,#119);
#122=DIRECTION('',(0.E0,9.862856015372E-1,-1.650476058606E-1));
#123=VECTOR('',#122,8.131231346088E0);
#124=CARTESIAN_POINT('',(6.3E1,-5.519675796082E1,-5.476323051E1));
#125=LINE('',#124,#123);
#126=CARTESIAN_POINT('',(6.3E1,-4.783723198484E1,-6.005041318252E1));
#127=DIRECTION('',(-1.E0,0.E0,0.E0));
#128=DIRECTION('',(0.E0,1.650476058579E-1,9.862856015377E-1));
#129=AXIS2_PLACEMENT_3D('',#126,#127,#128);
#131=CARTESIAN_POINT('',(6.3E1,4.232725281383E-13,-6.4E1));
#132=DIRECTION('',(1.E0,0.E0,0.E0));
#133=DIRECTION('',(0.E0,-9.966089996842E-1,8.228305869635E-2));
#134=AXIS2_PLACEMENT_3D('',#131,#132,#133);
#136=CARTESIAN_POINT('',(6.3E1,-4.799621214115E1,-6.460300920555E1));
#137=DIRECTION('',(-1.E0,0.E0,0.E0));
#138=DIRECTION('',(0.E0,9.999210862737E-1,1.256269179531E-2));
#139=AXIS2_PLACEMENT_3D('',#136,#137,#138);
#141=CARTESIAN_POINT('',(6.3E1,-5.336747016282E1,-6.213636687609E1));
#142=DIRECTION('',(1.E0,0.E0,0.E0));
#143=DIRECTION('',(0.E0,0.E0,1.E0));
#144=AXIS2_PLACEMENT_3D('',#141,#142,#143);
#146=CARTESIAN_POINT('',(6.3E1,-5.336747016282E1,-6.213636687609E1));
#147=DIRECTION('',(1.E0,0.E0,0.E0));
#148=DIRECTION('',(0.E0,0.E0,-1.E0));
#149=AXIS2_PLACEMENT_3D('',#146,#147,#148);
#151=CARTESIAN_POINT('',(6.3E1,-4.687142978720E1,-6.236321360465E1));
#152=DIRECTION('',(-1.E0,0.E0,0.E0));
#153=DIRECTION('',(0.E0,0.E0,1.E0));
#154=AXIS2_PLACEMENT_3D('',#151,#152,#153);
#156=CARTESIAN_POINT('',(6.3E1,-4.687142978720E1,-6.236321360465E1));
#157=DIRECTION('',(-1.E0,0.E0,0.E0));
#158=DIRECTION('',(0.E0,0.E0,-1.E0));
#159=AXIS2_PLACEMENT_3D('',#156,#157,#158);
#161=DIRECTION('',(1.E0,0.E0,1.971756091734E-13));
#162=VECTOR('',#161,8.E0);
#163=CARTESIAN_POINT('',(5.5E1,-5.789468588488E1,-6.749361507493E1));
#164=LINE('',#163,#162);
#165=DIRECTION('',(-1.E0,-1.101874147480E-11,-8.828493491819E-13));
#166=VECTOR('',#165,8.E0);
#167=CARTESIAN_POINT('',(6.3E1,-5.570662590093E1,-6.936393798630E1));
#168=LINE('',#167,#166);
#169=DIRECTION('',(1.E0,1.082778311456E-11,-1.509903313490E-12));
#170=VECTOR('',#169,8.E0);
#171=CARTESIAN_POINT('',(5.5E1,-5.519675796090E1,-5.476323050999E1));
#172=LINE('',#171,#170);
#173=DIRECTION('',(-1.E0,0.E0,-5.329070518201E-14));
#174=VECTOR('',#173,8.E0);
#175=CARTESIAN_POINT('',(6.3E1,-5.750995507159E1,-5.647636605997E1));
#176=LINE('',#175,#174);
#177=DIRECTION('',(1.E0,0.E0,1.545430450278E-13));
#178=VECTOR('',#177,8.E0);
#179=CARTESIAN_POINT('',(5.5E1,-4.385079598610E1,-6.037954541733E1));
#180=LINE('',#179,#178);
#181=DIRECTION('',(-1.E0,3.983480212355E-12,-9.672262990534E-13));
#182=VECTOR('',#181,8.E0);
#183=CARTESIAN_POINT('',(6.3E1,-4.717704156140E1,-5.610527077637E1));
#184=LINE('',#183,#182);
#185=DIRECTION('',(1.E0,-2.343014671169E-12,-4.032330025439E-13));
#186=VECTOR('',#185,8.E0);
#187=CARTESIAN_POINT('',(5.5E1,-4.761282913108E1,-6.858459399902E1));
#188=LINE('',#187,#186);
#189=DIRECTION('',(-1.E0,0.E0,3.517186542012E-13));
#190=VECTOR('',#189,8.E0);
#191=CARTESIAN_POINT('',(6.3E1,-4.399652779605E1,-6.455275843840E1));
#192=LINE('',#191,#190);
#193=CARTESIAN_POINT('',(5.95E1,-5.336747016282E1,-6.213636687609E1));
#194=DIRECTION('',(1.E0,0.E0,0.E0));
#195=DIRECTION('',(0.E0,0.E0,1.E0));
#196=AXIS2_PLACEMENT_3D('',#193,#194,#195);
#198=DIRECTION('',(-1.E0,-2.037592951683E-10,-8.586807456293E-11));
#199=VECTOR('',#198,3.499999999699E0);
#200=CARTESIAN_POINT('',(6.3E1,-5.336747016282E1,-5.998636687609E1));
#201=LINE('',#200,#199);
#202=DIRECTION('',(7.071067811865E-1,6.489179573510E-10,-7.071067811865E-1));
#203=VECTOR('',#202,7.071067809131E-1);
#204=CARTESIAN_POINT('',(5.900000000049E1,-5.336747016399E1,-5.948636687658E1));
#205=LINE('',#204,#203);
#206=CARTESIAN_POINT('',(5.9E1,-5.336747016282E1,-6.213636687609E1));
#207=DIRECTION('',(1.E0,0.E0,0.E0));
#208=DIRECTION('',(0.E0,0.E0,1.E0));
#209=AXIS2_PLACEMENT_3D('',#206,#207,#208);
#211=CARTESIAN_POINT('',(5.9E1,-5.336747016282E1,-6.213636687609E1));
#212=DIRECTION('',(1.E0,0.E0,0.E0));
#213=DIRECTION('',(0.E0,0.E0,-1.E0));
#214=AXIS2_PLACEMENT_3D('',#211,#212,#213);
#216=CARTESIAN_POINT('',(5.9E1,-5.336747016282E1,-6.213636687609E1));
#217=DIRECTION('',(1.E0,0.E0,0.E0));
#218=DIRECTION('',(0.E0,0.E0,1.E0));
#219=AXIS2_PLACEMENT_3D('',#216,#217,#218);
#221=CARTESIAN_POINT('',(5.9E1,-5.336747016282E1,-6.213636687609E1));
#222=DIRECTION('',(1.E0,0.E0,0.E0));
#223=DIRECTION('',(0.E0,0.E0,-1.E0));
#224=AXIS2_PLACEMENT_3D('',#221,#222,#223);
#226=DIRECTION('',(-1.E0,0.E0,0.E0));
#227=VECTOR('',#226,4.E0);
#228=CARTESIAN_POINT('',(5.9E1,-5.336747016282E1,-5.801136687609E1));
#229=LINE('',#228,#227);
#230=DIRECTION('',(-1.E0,0.E0,0.E0));
#231=VECTOR('',#230,4.E0);
#232=CARTESIAN_POINT('',(5.9E1,-5.336747016282E1,-6.626136687609E1));
#233=LINE('',#232,#231);
#234=DIRECTION('',(7.071067811866E-1,-6.488978601675E-10,7.071067811865E-1));
#235=VECTOR('',#234,7.071067809131E-1);
#236=CARTESIAN_POINT('',(5.900000000049E1,-5.336747016165E1,-6.478636687560E1));
#237=LINE('',#236,#235);
#238=CARTESIAN_POINT('',(5.95E1,-5.336747016282E1,-6.213636687609E1));
#239=DIRECTION('',(1.E0,0.E0,0.E0));
#240=DIRECTION('',(0.E0,0.E0,-1.E0));
#241=AXIS2_PLACEMENT_3D('',#238,#239,#240);
#243=DIRECTION('',(-1.E0,2.037552349241E-10,8.587010468503E-11));
#244=VECTOR('',#243,3.499999999699E0);
#245=CARTESIAN_POINT('',(6.3E1,-5.336747016282E1,-6.428636687609E1));
#246=LINE('',#245,#244);
#247=DIRECTION('',(-7.071067811865E-1,-1.100069581041E-9,-7.071067811866E-1));
#248=VECTOR('',#247,7.071067806797E-1);
#249=CARTESIAN_POINT('',(6.299999999918E1,-4.687142978542E1,-6.036321360547E1));
#250=LINE('',#249,#248);
#251=DIRECTION('',(-7.071067811865E-1,1.100059532449E-9,7.071067811865E-1));
#252=VECTOR('',#251,7.071067806797E-1);
#253=CARTESIAN_POINT('',(6.299999999918E1,-4.687142978898E1,-6.436321360383E1));
#254=LINE('',#253,#252);
#255=CARTESIAN_POINT('',(6.25E1,-4.687142978720E1,-6.236321360465E1));
#256=DIRECTION('',(-1.E0,0.E0,0.E0));
#257=DIRECTION('',(0.E0,0.E0,-1.E0));
#258=AXIS2_PLACEMENT_3D('',#255,#256,#257);
#260=DIRECTION('',(-1.E0,-1.333470815331E-10,6.144489362137E-11));
#261=VECTOR('',#260,7.499999999539E0);
#262=CARTESIAN_POINT('',(6.249999999954E1,-4.687142978620E1,-6.086321360511E1));
#263=LINE('',#262,#261);
#264=CARTESIAN_POINT('',(6.25E1,-4.687142978720E1,-6.236321360465E1));
#265=DIRECTION('',(-1.E0,0.E0,0.E0));
#266=DIRECTION('',(0.E0,0.E0,1.E0));
#267=AXIS2_PLACEMENT_3D('',#264,#265,#266);
#269=DIRECTION('',(-1.E0,1.333508710944E-10,-6.144394623105E-11));
#270=VECTOR('',#269,7.499999999539E0);
#271=CARTESIAN_POINT('',(6.249999999954E1,-4.687142978820E1,-6.386321360419E1));
#272=LINE('',#271,#270);
#273=DIRECTION('',(1.E0,0.E0,0.E0));
#274=VECTOR('',#273,1.E-1);
#275=CARTESIAN_POINT('',(5.5E1,-4.664647468330E1,-5.691704418859E1));
#276=LINE('',#275,#274);
#277=DIRECTION('',(1.E0,0.E0,0.E0));
#278=VECTOR('',#277,1.E-1);
#279=CARTESIAN_POINT('',(5.5E1,-4.709647468330E1,-5.691704418859E1));
#280=LINE('',#279,#278);
#281=DIRECTION('',(1.E0,0.E0,0.E0));
#282=VECTOR('',#281,1.E-1);
#283=CARTESIAN_POINT('',(5.5E1,-4.709647468330E1,-6.005640589199E1));
#284=LINE('',#283,#282);
#285=DIRECTION('',(1.E0,0.E0,0.E0));
#286=VECTOR('',#285,1.E-1);
#287=CARTESIAN_POINT('',(5.5E1,-4.884647468330E1,-6.005640589199E1));
#288=LINE('',#287,#286);
#289=DIRECTION('',(1.E0,0.E0,0.E0));
#290=VECTOR('',#289,1.E-1);
#291=CARTESIAN_POINT('',(5.5E1,-4.884647468330E1,-6.056704418859E1));
#292=LINE('',#291,#290);
#293=DIRECTION('',(1.E0,0.E0,0.E0));
#294=VECTOR('',#293,1.E-1);
#295=CARTESIAN_POINT('',(5.5E1,-4.664647468330E1,-6.056704418859E1));
#296=LINE('',#295,#294);
#297=DIRECTION('',(0.E0,0.E0,-1.E0));
#298=VECTOR('',#297,3.65E0);
#299=CARTESIAN_POINT('',(5.51E1,-4.664647468330E1,-5.691704418859E1));
#300=LINE('',#299,#298);
#301=DIRECTION('',(0.E0,1.E0,0.E0));
#302=VECTOR('',#301,4.5E-1);
#303=CARTESIAN_POINT('',(5.51E1,-4.709647468330E1,-5.691704418859E1));
#304=LINE('',#303,#302);
#305=DIRECTION('',(0.E0,0.E0,1.E0));
#306=VECTOR('',#305,3.139361703396E0);
#307=CARTESIAN_POINT('',(5.51E1,-4.709647468330E1,-6.005640589199E1));
#308=LINE('',#307,#306);
#309=DIRECTION('',(0.E0,1.E0,0.E0));
#310=VECTOR('',#309,1.75E0);
#311=CARTESIAN_POINT('',(5.51E1,-4.884647468330E1,-6.005640589199E1));
#312=LINE('',#311,#310);
#313=DIRECTION('',(0.E0,0.E0,1.E0));
#314=VECTOR('',#313,5.106382966042E-1);
#315=CARTESIAN_POINT('',(5.51E1,-4.884647468330E1,-6.056704418859E1));
#316=LINE('',#315,#314);
#317=DIRECTION('',(0.E0,-1.E0,0.E0));
#318=VECTOR('',#317,2.2E0);
#319=CARTESIAN_POINT('',(5.51E1,-4.664647468330E1,-6.056704418859E1));
#320=LINE('',#319,#318);
#321=CARTESIAN_POINT('',(5.5E1,-4.399652779605E1,-6.455275843836E1));
#322=CARTESIAN_POINT('',(5.5E1,-4.385079598611E1,-6.037954541736E1));
#323=VERTEX_POINT('',#321);
#324=VERTEX_POINT('',#322);
#325=CARTESIAN_POINT('',(5.5E1,-4.717704156131E1,-5.610527077639E1));
#326=VERTEX_POINT('',#325);
#327=CARTESIAN_POINT('',(5.5E1,-5.519675796090E1,-5.476323050999E1));
#328=VERTEX_POINT('',#327);
#329=CARTESIAN_POINT('',(5.5E1,-5.552685317257E1,-5.473580171307E1));
#330=VERTEX_POINT('',#329);
#331=CARTESIAN_POINT('',(5.5E1,-5.750995507159E1,-5.647636605996E1));
#332=VERTEX_POINT('',#331);
#333=CARTESIAN_POINT('',(5.5E1,-5.789468588487E1,-6.749361507495E1));
#334=VERTEX_POINT('',#333);
#335=CARTESIAN_POINT('',(5.5E1,-5.589831740609E1,-6.937314558957E1));
#336=CARTESIAN_POINT('',(5.5E1,-5.570662590097E1,-6.936393798630E1));
#337=VERTEX_POINT('',#335);
#338=VERTEX_POINT('',#336);
#339=CARTESIAN_POINT('',(5.5E1,-4.761282913108E1,-6.858459399902E1));
#340=VERTEX_POINT('',#339);
#341=CARTESIAN_POINT('',(5.5E1,-5.336747016282E1,-5.801136687609E1));
#342=CARTESIAN_POINT('',(5.5E1,-5.336747016282E1,-6.626136687609E1));
#343=VERTEX_POINT('',#341);
#344=VERTEX_POINT('',#342);
#345=CARTESIAN_POINT('',(5.5E1,-4.687142978720E1,-6.086321360465E1));
#346=CARTESIAN_POINT('',(5.5E1,-4.687142978720E1,-6.386321360465E1));
#347=VERTEX_POINT('',#345);
#348=VERTEX_POINT('',#346);
#349=CARTESIAN_POINT('',(6.3E1,-4.761282913109E1,-6.858459399902E1));
#350=CARTESIAN_POINT('',(6.3E1,-5.570662590093E1,-6.936393798630E1));
#351=VERTEX_POINT('',#349);
#352=VERTEX_POINT('',#350);
#353=CARTESIAN_POINT('',(6.3E1,-5.589831740609E1,-6.937314558957E1));
#354=CARTESIAN_POINT('',(6.3E1,-5.789468588488E1,-6.749361507495E1));
#355=VERTEX_POINT('',#353);
#356=VERTEX_POINT('',#354);
#357=CARTESIAN_POINT('',(6.3E1,-5.750995507159E1,-5.647636605996E1));
#358=VERTEX_POINT('',#357);
#359=CARTESIAN_POINT('',(6.3E1,-5.552685317257E1,-5.473580171307E1));
#360=VERTEX_POINT('',#359);
#361=CARTESIAN_POINT('',(6.3E1,-5.519675796076E1,-5.476323051001E1));
#362=VERTEX_POINT('',#361);
#363=CARTESIAN_POINT('',(6.3E1,-4.717704156140E1,-5.610527077637E1));
#364=VERTEX_POINT('',#363);
#365=CARTESIAN_POINT('',(6.3E1,-4.385079598611E1,-6.037954541736E1));
#366=VERTEX_POINT('',#365);
#367=CARTESIAN_POINT('',(6.3E1,-4.399652779605E1,-6.455275843837E1));
#368=VERTEX_POINT('',#367);
#369=CARTESIAN_POINT('',(6.3E1,-5.336747016282E1,-5.998636687609E1));
#370=CARTESIAN_POINT('',(6.3E1,-5.336747016282E1,-6.428636687609E1));
#371=VERTEX_POINT('',#369);
#372=VERTEX_POINT('',#370);
#373=CARTESIAN_POINT('',(5.9E1,-5.336747016282E1,-5.801136687609E1));
#374=CARTESIAN_POINT('',(5.9E1,-5.336747016282E1,-6.626136687609E1));
#375=VERTEX_POINT('',#373);
#376=VERTEX_POINT('',#374);
#377=CARTESIAN_POINT('',(5.5E1,-4.664647468330E1,-6.056704418859E1));
#378=CARTESIAN_POINT('',(5.51E1,-4.664647468330E1,-6.056704418859E1));
#379=VERTEX_POINT('',#377);
#380=VERTEX_POINT('',#378);
#381=CARTESIAN_POINT('',(5.5E1,-4.709647468330E1,-6.005640589199E1));
#382=CARTESIAN_POINT('',(5.51E1,-4.709647468330E1,-6.005640589199E1));
#383=VERTEX_POINT('',#381);
#384=VERTEX_POINT('',#382);
#385=CARTESIAN_POINT('',(5.9E1,-5.336747016282E1,-5.948636687609E1));
#386=CARTESIAN_POINT('',(5.9E1,-5.336747016282E1,-6.478636687609E1));
#387=VERTEX_POINT('',#385);
#388=VERTEX_POINT('',#386);
#389=CARTESIAN_POINT('',(5.95E1,-5.336747016282E1,-5.998636687609E1));
#390=CARTESIAN_POINT('',(5.95E1,-5.336747016282E1,-6.428636687609E1));
#391=VERTEX_POINT('',#389);
#392=VERTEX_POINT('',#390);
#393=CARTESIAN_POINT('',(6.3E1,-4.687142978720E1,-6.036321360465E1));
#394=CARTESIAN_POINT('',(6.3E1,-4.687142978720E1,-6.436321360465E1));
#395=VERTEX_POINT('',#393);
#396=VERTEX_POINT('',#394);
#397=CARTESIAN_POINT('',(6.25E1,-4.687142978720E1,-6.086321360465E1));
#398=CARTESIAN_POINT('',(6.25E1,-4.687142978720E1,-6.386321360465E1));
#399=VERTEX_POINT('',#397);
#400=VERTEX_POINT('',#398);
#401=CARTESIAN_POINT('',(5.51E1,-4.884647468330E1,-6.056704418859E1));
#402=VERTEX_POINT('',#401);
#403=CARTESIAN_POINT('',(5.51E1,-4.884647468330E1,-6.005640589199E1));
#404=VERTEX_POINT('',#403);
#405=CARTESIAN_POINT('',(5.5E1,-4.884647468330E1,-6.056704418859E1));
#406=VERTEX_POINT('',#405);
#407=CARTESIAN_POINT('',(5.5E1,-4.884647468330E1,-6.005640589199E1));
#408=VERTEX_POINT('',#407);
#409=CARTESIAN_POINT('',(5.51E1,-4.664647468330E1,-5.691704418859E1));
#410=VERTEX_POINT('',#409);
#411=CARTESIAN_POINT('',(5.51E1,-4.709647468330E1,-5.691704418859E1));
#412=VERTEX_POINT('',#411);
#413=CARTESIAN_POINT('',(5.5E1,-4.664647468330E1,-5.691704418859E1));
#414=VERTEX_POINT('',#413);
#415=CARTESIAN_POINT('',(5.5E1,-4.709647468330E1,-5.691704418859E1));
#416=VERTEX_POINT('',#415);
#417=CARTESIAN_POINT('',(5.5E1,0.E0,-6.4E1));
#418=DIRECTION('',(1.E0,0.E0,0.E0));
#419=DIRECTION('',(0.E0,1.E0,0.E0));
#420=AXIS2_PLACEMENT_3D('',#417,#418,#419);
#421=PLANE('',#420);
#423=ORIENTED_EDGE('',*,*,#422,.T.);
#425=ORIENTED_EDGE('',*,*,#424,.T.);
#427=ORIENTED_EDGE('',*,*,#426,.T.);
#429=ORIENTED_EDGE('',*,*,#428,.T.);
#431=ORIENTED_EDGE('',*,*,#430,.T.);
#433=ORIENTED_EDGE('',*,*,#432,.T.);
#435=ORIENTED_EDGE('',*,*,#434,.T.);
#437=ORIENTED_EDGE('',*,*,#436,.T.);
#439=ORIENTED_EDGE('',*,*,#438,.T.);
#441=ORIENTED_EDGE('',*,*,#440,.T.);
#442=EDGE_LOOP('',(#423,#425,#427,#429,#431,#433,#435,#437,#439,#441));
#443=FACE_OUTER_BOUND('',#442,.F.);
#445=ORIENTED_EDGE('',*,*,#444,.T.);
#447=ORIENTED_EDGE('',*,*,#446,.T.);
#448=EDGE_LOOP('',(#445,#447));
#449=FACE_BOUND('',#448,.F.);
#451=ORIENTED_EDGE('',*,*,#450,.T.);
#453=ORIENTED_EDGE('',*,*,#452,.T.);
#454=EDGE_LOOP('',(#451,#453));
#455=FACE_BOUND('',#454,.F.);
#457=ORIENTED_EDGE('',*,*,#456,.T.);
#459=ORIENTED_EDGE('',*,*,#458,.T.);
#461=ORIENTED_EDGE('',*,*,#460,.T.);
#463=ORIENTED_EDGE('',*,*,#462,.T.);
#465=ORIENTED_EDGE('',*,*,#464,.T.);
#467=ORIENTED_EDGE('',*,*,#466,.T.);
#468=EDGE_LOOP('',(#457,#459,#461,#463,#465,#467));
#469=FACE_BOUND('',#468,.F.);
#470=ADVANCED_FACE('',(#443,#449,#455,#469),#421,.F.);
#471=CARTESIAN_POINT('',(-1.057368264902E3,4.232725281383E-13,-6.4E1));
#472=DIRECTION('',(1.E0,0.E0,0.E0));
#473=DIRECTION('',(0.E0,0.E0,-1.E0));
#474=AXIS2_PLACEMENT_3D('',#471,#472,#473);
#475=CYLINDRICAL_SURFACE('',#474,4.4E1);
#477=ORIENTED_EDGE('',*,*,#476,.F.);
#479=ORIENTED_EDGE('',*,*,#478,.F.);
#480=ORIENTED_EDGE('',*,*,#422,.F.);
#482=ORIENTED_EDGE('',*,*,#481,.F.);
#483=EDGE_LOOP('',(#477,#479,#480,#482));
#484=FACE_OUTER_BOUND('',#483,.F.);
#485=ADVANCED_FACE('',(#484),#475,.F.);
#486=CARTESIAN_POINT('',(6.3E1,-7.5E0,-6.4E1));
#487=DIRECTION('',(1.E0,0.E0,0.E0));
#488=DIRECTION('',(0.E0,1.E0,0.E0));
#489=AXIS2_PLACEMENT_3D('',#486,#487,#488);
#490=PLANE('',#489);
#492=ORIENTED_EDGE('',*,*,#491,.T.);
#494=ORIENTED_EDGE('',*,*,#493,.T.);
#496=ORIENTED_EDGE('',*,*,#495,.T.);
#498=ORIENTED_EDGE('',*,*,#497,.T.);
#500=ORIENTED_EDGE('',*,*,#499,.T.);
#502=ORIENTED_EDGE('',*,*,#501,.T.);
#504=ORIENTED_EDGE('',*,*,#503,.T.);
#506=ORIENTED_EDGE('',*,*,#505,.T.);
#507=ORIENTED_EDGE('',*,*,#476,.T.);
#509=ORIENTED_EDGE('',*,*,#508,.T.);
#510=EDGE_LOOP('',(#492,#494,#496,#498,#500,#502,#504,#506,#507,#509));
#511=FACE_OUTER_BOUND('',#510,.F.);
#513=ORIENTED_EDGE('',*,*,#512,.T.);
#515=ORIENTED_EDGE('',*,*,#514,.T.);
#516=EDGE_LOOP('',(#513,#515));
#517=FACE_BOUND('',#516,.F.);
#519=ORIENTED_EDGE('',*,*,#518,.F.);
#521=ORIENTED_EDGE('',*,*,#520,.F.);
#522=EDGE_LOOP('',(#519,#521));
#523=FACE_BOUND('',#522,.F.);
#524=ADVANCED_FACE('',(#511,#517,#523),#490,.T.);
#525=CARTESIAN_POINT('',(-1.057368264902E3,-5.524448900938E1,
-6.931943926487E1));
#526=DIRECTION('',(0.E0,-9.584575252022E-2,9.953961983672E-1));
#527=DIRECTION('',(0.E0,-9.953961983672E-1,-9.584575252022E-2));
#528=AXIS2_PLACEMENT_3D('',#525,#526,#527);
#529=PLANE('',#528);
#530=ORIENTED_EDGE('',*,*,#438,.F.);
#532=ORIENTED_EDGE('',*,*,#531,.F.);
#533=ORIENTED_EDGE('',*,*,#491,.F.);
#535=ORIENTED_EDGE('',*,*,#534,.F.);
#536=EDGE_LOOP('',(#530,#532,#533,#535));
#537=FACE_OUTER_BOUND('',#536,.F.);
#538=ADVANCED_FACE('',(#537),#529,.F.);
#539=CARTESIAN_POINT('',(-1.057368264902E3,-5.589831740609E1,
-6.737314558957E1));
#540=DIRECTION('',(1.E0,0.E0,0.E0));
#541=DIRECTION('',(0.E0,0.E0,-1.E0));
#542=AXIS2_PLACEMENT_3D('',#539,#540,#541);
#543=CYLINDRICAL_SURFACE('',#542,2.E0);
#544=ORIENTED_EDGE('',*,*,#436,.F.);
#545=ORIENTED_EDGE('',*,*,#434,.F.);
#547=ORIENTED_EDGE('',*,*,#546,.T.);
#548=ORIENTED_EDGE('',*,*,#495,.F.);
#549=ORIENTED_EDGE('',*,*,#493,.F.);
#550=ORIENTED_EDGE('',*,*,#531,.T.);
#551=EDGE_LOOP('',(#544,#545,#547,#548,#549,#550));
#552=FACE_OUTER_BOUND('',#551,.F.);
#553=ADVANCED_FACE('',(#552),#543,.T.);
#554=CARTESIAN_POINT('',(-1.057368264902E3,2.463307335887E-13,-6.4E1));
#555=DIRECTION('',(1.E0,0.E0,0.E0));
#556=DIRECTION('',(0.E0,0.E0,-1.E0));
#557=AXIS2_PLACEMENT_3D('',#554,#555,#556);
#558=CYLINDRICAL_SURFACE('',#557,5.8E1);
#559=ORIENTED_EDGE('',*,*,#432,.F.);
#561=ORIENTED_EDGE('',*,*,#560,.F.);
#562=ORIENTED_EDGE('',*,*,#497,.F.);
#563=ORIENTED_EDGE('',*,*,#546,.F.);
#564=EDGE_LOOP('',(#559,#561,#562,#563));
#565=FACE_OUTER_BOUND('',#564,.F.);
#566=ADVANCED_FACE('',(#565),#558,.T.);
#567=CARTESIAN_POINT('',(-1.057368264902E3,-5.552685317257E1,
-5.673580171307E1));
#568=DIRECTION('',(1.E0,0.E0,0.E0));
#569=DIRECTION('',(0.E0,0.E0,-1.E0));
#570=AXIS2_PLACEMENT_3D('',#567,#568,#569);
#571=CYLINDRICAL_SURFACE('',#570,2.E0);
#572=ORIENTED_EDGE('',*,*,#428,.F.);
#574=ORIENTED_EDGE('',*,*,#573,.T.);
#575=ORIENTED_EDGE('',*,*,#501,.F.);
#576=ORIENTED_EDGE('',*,*,#499,.F.);
#577=ORIENTED_EDGE('',*,*,#560,.T.);
#578=ORIENTED_EDGE('',*,*,#430,.F.);
#579=EDGE_LOOP('',(#572,#574,#575,#576,#577,#578));
#580=FACE_OUTER_BOUND('',#579,.F.);
#581=ADVANCED_FACE('',(#580),#571,.T.);
#582=CARTESIAN_POINT('',(-1.057368264902E3,-5.473885088532E1,
-5.483985787473E1));
#583=DIRECTION('',(0.E0,1.650476058607E-1,9.862856015372E-1));
#584=DIRECTION('',(0.E0,-9.862856015372E-1,1.650476058607E-1));
#585=AXIS2_PLACEMENT_3D('',#582,#583,#584);
#586=PLANE('',#585);
#587=ORIENTED_EDGE('',*,*,#503,.F.);
#588=ORIENTED_EDGE('',*,*,#573,.F.);
#589=ORIENTED_EDGE('',*,*,#426,.F.);
#591=ORIENTED_EDGE('',*,*,#590,.F.);
#592=EDGE_LOOP('',(#587,#588,#589,#591));
#593=FACE_OUTER_BOUND('',#592,.F.);
#594=ADVANCED_FACE('',(#593),#586,.T.);
#595=CARTESIAN_POINT('',(-1.057368264902E3,-4.783723198484E1,
-6.005041318252E1));
#596=DIRECTION('',(1.E0,0.E0,0.E0));
#597=DIRECTION('',(0.E0,0.E0,-1.E0));
#598=AXIS2_PLACEMENT_3D('',#595,#596,#597);
#599=CYLINDRICAL_SURFACE('',#598,4.E0);
#600=ORIENTED_EDGE('',*,*,#424,.F.);
#601=ORIENTED_EDGE('',*,*,#478,.T.);
#602=ORIENTED_EDGE('',*,*,#505,.F.);
#603=ORIENTED_EDGE('',*,*,#590,.T.);
#604=EDGE_LOOP('',(#600,#601,#602,#603));
#605=FACE_OUTER_BOUND('',#604,.F.);
#606=ADVANCED_FACE('',(#605),#599,.T.);
#607=CARTESIAN_POINT('',(-1.057368264902E3,-4.799621214115E1,
-6.460300920555E1));
#608=DIRECTION('',(1.E0,0.E0,0.E0));
#609=DIRECTION('',(0.E0,0.E0,-1.E0));
#610=AXIS2_PLACEMENT_3D('',#607,#608,#609);
#611=CYLINDRICAL_SURFACE('',#610,4.E0);
#612=ORIENTED_EDGE('',*,*,#440,.F.);
#613=ORIENTED_EDGE('',*,*,#534,.T.);
#614=ORIENTED_EDGE('',*,*,#508,.F.);
#615=ORIENTED_EDGE('',*,*,#481,.T.);
#616=EDGE_LOOP('',(#612,#613,#614,#615));
#617=FACE_OUTER_BOUND('',#616,.F.);
#618=ADVANCED_FACE('',(#617),#611,.T.);
#619=CARTESIAN_POINT('',(5.5E1,-5.336747016282E1,-6.213636687609E1));
#620=DIRECTION('',(1.E0,0.E0,0.E0));
#621=DIRECTION('',(0.E0,0.E0,-1.E0));
#622=AXIS2_PLACEMENT_3D('',#619,#620,#621);
#623=CYLINDRICAL_SURFACE('',#622,2.15E0);
#625=ORIENTED_EDGE('',*,*,#624,.T.);
#627=ORIENTED_EDGE('',*,*,#626,.F.);
#628=ORIENTED_EDGE('',*,*,#512,.F.);
#630=ORIENTED_EDGE('',*,*,#629,.T.);
#631=EDGE_LOOP('',(#625,#627,#628,#630));
#632=FACE_OUTER_BOUND('',#631,.F.);
#633=ADVANCED_FACE('',(#632),#623,.F.);
#634=CARTESIAN_POINT('',(5.925000000038E1,-5.336747016282E1,-6.213636687609E1));
#635=DIRECTION('',(-1.E0,0.E0,0.E0));
#636=DIRECTION('',(0.E0,0.E0,-1.E0));
#637=AXIS2_PLACEMENT_3D('',#634,#635,#636);
#638=CONICAL_SURFACE('',#637,2.399999999621E0,4.5E1);
#640=ORIENTED_EDGE('',*,*,#639,.T.);
#642=ORIENTED_EDGE('',*,*,#641,.T.);
#643=ORIENTED_EDGE('',*,*,#624,.F.);
#645=ORIENTED_EDGE('',*,*,#644,.F.);
#646=EDGE_LOOP('',(#640,#642,#643,#645));
#647=FACE_OUTER_BOUND('',#646,.F.);
#648=ADVANCED_FACE('',(#647),#638,.F.);
#649=CARTESIAN_POINT('',(5.9E1,-4.924247016282E1,-6.213636687609E1));
#650=DIRECTION('',(-1.E0,0.E0,0.E0));
#651=DIRECTION('',(0.E0,0.E0,1.E0));
#652=AXIS2_PLACEMENT_3D('',#649,#650,#651);
#653=PLANE('',#652);
#655=ORIENTED_EDGE('',*,*,#654,.T.);
#657=ORIENTED_EDGE('',*,*,#656,.T.);
#658=EDGE_LOOP('',(#655,#657));
#659=FACE_OUTER_BOUND('',#658,.F.);
#660=ORIENTED_EDGE('',*,*,#639,.F.);
#662=ORIENTED_EDGE('',*,*,#661,.F.);
#663=EDGE_LOOP('',(#660,#662));
#664=FACE_BOUND('',#663,.F.);
#665=ADVANCED_FACE('',(#659,#664),#653,.T.);
#666=CARTESIAN_POINT('',(5.5E1,-5.336747016282E1,-6.213636687609E1));
#667=DIRECTION('',(1.E0,0.E0,0.E0));
#668=DIRECTION('',(0.E0,0.E0,-1.E0));
#669=AXIS2_PLACEMENT_3D('',#666,#667,#668);
#670=CYLINDRICAL_SURFACE('',#669,4.125E0);
#671=ORIENTED_EDGE('',*,*,#654,.F.);
#673=ORIENTED_EDGE('',*,*,#672,.T.);
#674=ORIENTED_EDGE('',*,*,#446,.F.);
#676=ORIENTED_EDGE('',*,*,#675,.F.);
#677=EDGE_LOOP('',(#671,#673,#674,#676));
#678=FACE_OUTER_BOUND('',#677,.F.);
#679=ADVANCED_FACE('',(#678),#670,.F.);
#680=CARTESIAN_POINT('',(5.5E1,-5.336747016282E1,-6.213636687609E1));
#681=DIRECTION('',(1.E0,0.E0,0.E0));
#682=DIRECTION('',(0.E0,0.E0,-1.E0));
#683=AXIS2_PLACEMENT_3D('',#680,#681,#682);
#684=CYLINDRICAL_SURFACE('',#683,4.125E0);
#685=ORIENTED_EDGE('',*,*,#656,.F.);
#686=ORIENTED_EDGE('',*,*,#675,.T.);
#687=ORIENTED_EDGE('',*,*,#444,.F.);
#688=ORIENTED_EDGE('',*,*,#672,.F.);
#689=EDGE_LOOP('',(#685,#686,#687,#688));
#690=FACE_OUTER_BOUND('',#689,.F.);
#691=ADVANCED_FACE('',(#690),#684,.F.);
#692=CARTESIAN_POINT('',(5.925000000038E1,-5.336747016282E1,-6.213636687609E1));
#693=DIRECTION('',(-1.E0,0.E0,0.E0));
#694=DIRECTION('',(0.E0,0.E0,-1.E0));
#695=AXIS2_PLACEMENT_3D('',#692,#693,#694);
#696=CONICAL_SURFACE('',#695,2.399999999621E0,4.5E1);
#697=ORIENTED_EDGE('',*,*,#661,.T.);
#698=ORIENTED_EDGE('',*,*,#644,.T.);
#700=ORIENTED_EDGE('',*,*,#699,.F.);
#701=ORIENTED_EDGE('',*,*,#641,.F.);
#702=EDGE_LOOP('',(#697,#698,#700,#701));
#703=FACE_OUTER_BOUND('',#702,.F.);
#704=ADVANCED_FACE('',(#703),#696,.F.);
#705=CARTESIAN_POINT('',(5.5E1,-5.336747016282E1,-6.213636687609E1));
#706=DIRECTION('',(1.E0,0.E0,0.E0));
#707=DIRECTION('',(0.E0,0.E0,-1.E0));
#708=AXIS2_PLACEMENT_3D('',#705,#706,#707);
#709=CYLINDRICAL_SURFACE('',#708,2.15E0);
#710=ORIENTED_EDGE('',*,*,#699,.T.);
#711=ORIENTED_EDGE('',*,*,#629,.F.);
#712=ORIENTED_EDGE('',*,*,#514,.F.);
#713=ORIENTED_EDGE('',*,*,#626,.T.);
#714=EDGE_LOOP('',(#710,#711,#712,#713));
#715=FACE_OUTER_BOUND('',#714,.F.);
#716=ADVANCED_FACE('',(#715),#709,.F.);
#717=CARTESIAN_POINT('',(6.274999999951E1,-4.687142978720E1,-6.236321360465E1));
#718=DIRECTION('',(1.E0,0.E0,0.E0));
#719=DIRECTION('',(0.E0,0.E0,-1.E0));
#720=AXIS2_PLACEMENT_3D('',#717,#718,#719);
#721=CONICAL_SURFACE('',#720,1.749999999507E0,4.5E1);
#722=ORIENTED_EDGE('',*,*,#518,.T.);
#724=ORIENTED_EDGE('',*,*,#723,.T.);
#726=ORIENTED_EDGE('',*,*,#725,.F.);
#728=ORIENTED_EDGE('',*,*,#727,.F.);
#729=EDGE_LOOP('',(#722,#724,#726,#728));
#730=FACE_OUTER_BOUND('',#729,.F.);
#731=ADVANCED_FACE('',(#730),#721,.F.);
#732=CARTESIAN_POINT('',(6.274999999951E1,-4.687142978720E1,-6.236321360465E1));
#733=DIRECTION('',(1.E0,0.E0,0.E0));
#734=DIRECTION('',(0.E0,0.E0,-1.E0));
#735=AXIS2_PLACEMENT_3D('',#732,#733,#734);
#736=CONICAL_SURFACE('',#735,1.749999999507E0,4.5E1);
#737=ORIENTED_EDGE('',*,*,#520,.T.);
#738=ORIENTED_EDGE('',*,*,#727,.T.);
#740=ORIENTED_EDGE('',*,*,#739,.F.);
#741=ORIENTED_EDGE('',*,*,#723,.F.);
#742=EDGE_LOOP('',(#737,#738,#740,#741));
#743=FACE_OUTER_BOUND('',#742,.F.);
#744=ADVANCED_FACE('',(#743),#736,.F.);
#745=CARTESIAN_POINT('',(5.5E1,-4.687142978720E1,-6.236321360465E1));
#746=DIRECTION('',(1.E0,0.E0,0.E0));
#747=DIRECTION('',(0.E0,0.E0,-1.E0));
#748=AXIS2_PLACEMENT_3D('',#745,#746,#747);
#749=CYLINDRICAL_SURFACE('',#748,1.5E0);
#750=ORIENTED_EDGE('',*,*,#739,.T.);
#752=ORIENTED_EDGE('',*,*,#751,.T.);
#753=ORIENTED_EDGE('',*,*,#452,.F.);
#755=ORIENTED_EDGE('',*,*,#754,.F.);
#756=EDGE_LOOP('',(#750,#752,#753,#755));
#757=FACE_OUTER_BOUND('',#756,.F.);
#758=ADVANCED_FACE('',(#757),#749,.F.);
#759=CARTESIAN_POINT('',(5.5E1,-4.687142978720E1,-6.236321360465E1));
#760=DIRECTION('',(1.E0,0.E0,0.E0));
#761=DIRECTION('',(0.E0,0.E0,-1.E0));
#762=AXIS2_PLACEMENT_3D('',#759,#760,#761);
#763=CYLINDRICAL_SURFACE('',#762,1.5E0);
#764=ORIENTED_EDGE('',*,*,#725,.T.);
#765=ORIENTED_EDGE('',*,*,#754,.T.);
#766=ORIENTED_EDGE('',*,*,#450,.F.);
#767=ORIENTED_EDGE('',*,*,#751,.F.);
#768=EDGE_LOOP('',(#764,#765,#766,#767));
#769=FACE_OUTER_BOUND('',#768,.F.);
#770=ADVANCED_FACE('',(#769),#763,.F.);
#771=CARTESIAN_POINT('',(5.5E1,-4.664647468330E1,-5.656704418859E1));
#772=DIRECTION('',(0.E0,1.E0,0.E0));
#773=DIRECTION('',(0.E0,0.E0,-1.E0));
#774=AXIS2_PLACEMENT_3D('',#771,#772,#773);
#775=PLANE('',#774);
#776=ORIENTED_EDGE('',*,*,#456,.F.);
#778=ORIENTED_EDGE('',*,*,#777,.T.);
#780=ORIENTED_EDGE('',*,*,#779,.T.);
#782=ORIENTED_EDGE('',*,*,#781,.F.);
#783=EDGE_LOOP('',(#776,#778,#780,#782));
#784=FACE_OUTER_BOUND('',#783,.F.);
#785=ADVANCED_FACE('',(#784),#775,.F.);
#786=CARTESIAN_POINT('',(5.5E1,-4.709647468330E1,-5.691704418859E1));
#787=DIRECTION('',(0.E0,0.E0,1.E0));
#788=DIRECTION('',(0.E0,1.E0,0.E0));
#789=AXIS2_PLACEMENT_3D('',#786,#787,#788);
#790=PLANE('',#789);
#791=ORIENTED_EDGE('',*,*,#466,.F.);
#793=ORIENTED_EDGE('',*,*,#792,.T.);
#795=ORIENTED_EDGE('',*,*,#794,.T.);
#796=ORIENTED_EDGE('',*,*,#777,.F.);
#797=EDGE_LOOP('',(#791,#793,#795,#796));
#798=FACE_OUTER_BOUND('',#797,.F.);
#799=ADVANCED_FACE('',(#798),#790,.F.);
#800=CARTESIAN_POINT('',(5.5E1,-4.709647468330E1,-6.005640589199E1));
#801=DIRECTION('',(0.E0,-1.E0,0.E0));
#802=DIRECTION('',(0.E0,0.E0,1.E0));
#803=AXIS2_PLACEMENT_3D('',#800,#801,#802);
#804=PLANE('',#803);
#805=ORIENTED_EDGE('',*,*,#464,.F.);
#807=ORIENTED_EDGE('',*,*,#806,.T.);
#809=ORIENTED_EDGE('',*,*,#808,.T.);
#810=ORIENTED_EDGE('',*,*,#792,.F.);
#811=EDGE_LOOP('',(#805,#807,#809,#810));
#812=FACE_OUTER_BOUND('',#811,.F.);
#813=ADVANCED_FACE('',(#812),#804,.F.);
#814=CARTESIAN_POINT('',(5.5E1,-4.934647468330E1,-6.005640589199E1));
#815=DIRECTION('',(0.E0,0.E0,1.E0));
#816=DIRECTION('',(0.E0,1.E0,0.E0));
#817=AXIS2_PLACEMENT_3D('',#814,#815,#816);
#818=PLANE('',#817);
#819=ORIENTED_EDGE('',*,*,#462,.F.);
#821=ORIENTED_EDGE('',*,*,#820,.T.);
#823=ORIENTED_EDGE('',*,*,#822,.T.);
#824=ORIENTED_EDGE('',*,*,#806,.F.);
#825=EDGE_LOOP('',(#819,#821,#823,#824));
#826=FACE_OUTER_BOUND('',#825,.F.);
#827=ADVANCED_FACE('',(#826),#818,.F.);
#828=CARTESIAN_POINT('',(5.5E1,-4.884647468330E1,-6.056704418859E1));
#829=DIRECTION('',(0.E0,-1.E0,0.E0));
#830=DIRECTION('',(0.E0,0.E0,1.E0));
#831=AXIS2_PLACEMENT_3D('',#828,#829,#830);
#832=PLANE('',#831);
#833=ORIENTED_EDGE('',*,*,#460,.F.);
#835=ORIENTED_EDGE('',*,*,#834,.T.);
#837=ORIENTED_EDGE('',*,*,#836,.T.);
#838=ORIENTED_EDGE('',*,*,#820,.F.);
#839=EDGE_LOOP('',(#833,#835,#837,#838));
#840=FACE_OUTER_BOUND('',#839,.F.);
#841=ADVANCED_FACE('',(#840),#832,.F.);
#842=CARTESIAN_POINT('',(5.5E1,-4.664647468330E1,-6.056704418859E1));
#843=DIRECTION('',(0.E0,0.E0,-1.E0));
#844=DIRECTION('',(0.E0,-1.E0,0.E0));
#845=AXIS2_PLACEMENT_3D('',#842,#843,#844);
#846=PLANE('',#845);
#847=ORIENTED_EDGE('',*,*,#458,.F.);
#848=ORIENTED_EDGE('',*,*,#781,.T.);
#850=ORIENTED_EDGE('',*,*,#849,.T.);
#851=ORIENTED_EDGE('',*,*,#834,.F.);
#852=EDGE_LOOP('',(#847,#848,#850,#851));
#853=FACE_OUTER_BOUND('',#852,.F.);
#854=ADVANCED_FACE('',(#853),#846,.F.);
#855=CARTESIAN_POINT('',(5.51E1,0.E0,0.E0));
#856=DIRECTION('',(-1.E0,0.E0,0.E0));
#857=DIRECTION('',(0.E0,-1.E0,0.E0));
#858=AXIS2_PLACEMENT_3D('',#855,#856,#857);
#859=PLANE('',#858);
#860=ORIENTED_EDGE('',*,*,#779,.F.);
#861=ORIENTED_EDGE('',*,*,#794,.F.);
#862=ORIENTED_EDGE('',*,*,#808,.F.);
#863=ORIENTED_EDGE('',*,*,#822,.F.);
#864=ORIENTED_EDGE('',*,*,#836,.F.);
#865=ORIENTED_EDGE('',*,*,#849,.F.);
#866=EDGE_LOOP('',(#860,#861,#862,#863,#864,#865));
#867=FACE_OUTER_BOUND('',#866,.F.);
#868=ADVANCED_FACE('',(#867),#859,.T.);
#872=DIMENSIONAL_EXPONENTS(0.E0,0.E0,0.E0,0.E0,0.E0,0.E0,0.E0);
#874=PLANE_ANGLE_MEASURE_WITH_UNIT(PLANE_ANGLE_MEASURE(1.745329251994E-2),#873);
#875=(CONVERSION_BASED_UNIT('DEGREE',#874)NAMED_UNIT(*)PLANE_ANGLE_UNIT());
#877=UNCERTAINTY_MEASURE_WITH_UNIT(LENGTH_MEASURE(2.188401763948E-3),#871,
'closure',
'Maximum model space distance between geometric entities at asserted connectivities');
#878=(GEOMETRIC_REPRESENTATION_CONTEXT(3)GLOBAL_UNCERTAINTY_ASSIGNED_CONTEXT((
#877))GLOBAL_UNIT_ASSIGNED_CONTEXT((#871,#875,#876))REPRESENTATION_CONTEXT
('ID1','3'));
#880=APPLICATION_CONTEXT(
'CONFIGURATION CONTROLLED 3D DESIGNS OF MECHANICAL PARTS AND ASSEMBLIES');
#881=APPLICATION_PROTOCOL_DEFINITION('international standard',
'config_control_design',1994,#880);
#882=DESIGN_CONTEXT('',#880,'design');
#883=MECHANICAL_CONTEXT('',#880,'mechanical');
#884=PRODUCT('KD-D-105L_LHIPYOKEHARDSTOPTOO_1',
'KD-D-105L_LHIPYOKEHARDSTOPTOO_1','NOT SPECIFIED',(#883));
#885=PRODUCT_DEFINITION_FORMATION_WITH_SPECIFIED_SOURCE('2','LAST_VERSION',#884,
.MADE.);
#889=PRODUCT_CATEGORY('part','');
#890=PRODUCT_RELATED_PRODUCT_CATEGORY('detail','',(#884));
#891=PRODUCT_CATEGORY_RELATIONSHIP('','',#889,#890);
#892=SECURITY_CLASSIFICATION_LEVEL('unclassified');
#893=SECURITY_CLASSIFICATION('','',#892);
#894=CC_DESIGN_SECURITY_CLASSIFICATION(#893,(#885));
#895=APPROVAL_STATUS('approved');
#896=APPROVAL(#895,'');
#897=CC_DESIGN_APPROVAL(#896,(#893,#885,#886));
#898=CALENDAR_DATE(125,13,7);
#899=COORDINATED_UNIVERSAL_TIME_OFFSET(8,0,.AHEAD.);
#900=LOCAL_TIME(10,4,4.E1,#899);
#901=DATE_AND_TIME(#898,#900);
#902=APPROVAL_DATE_TIME(#901,#896);
#903=DATE_TIME_ROLE('creation_date');
#904=CC_DESIGN_DATE_AND_TIME_ASSIGNMENT(#901,#903,(#886));
#905=DATE_TIME_ROLE('classification_date');
#906=CC_DESIGN_DATE_AND_TIME_ASSIGNMENT(#901,#905,(#893));
#907=PERSON('UNSPECIFIED','UNSPECIFIED',$,$,$,$);
#908=ORGANIZATION('UNSPECIFIED','UNSPECIFIED','UNSPECIFIED');
#909=PERSON_AND_ORGANIZATION(#907,#908);
#910=APPROVAL_ROLE('approver');
#911=APPROVAL_PERSON_ORGANIZATION(#909,#896,#910);
#912=PERSON_AND_ORGANIZATION_ROLE('creator');
#913=CC_DESIGN_PERSON_AND_ORGANIZATION_ASSIGNMENT(#909,#912,(#885,#886));
#914=PERSON_AND_ORGANIZATION_ROLE('design_supplier');
#915=CC_DESIGN_PERSON_AND_ORGANIZATION_ASSIGNMENT(#909,#914,(#885));
#916=PERSON_AND_ORGANIZATION_ROLE('classification_officer');
#917=CC_DESIGN_PERSON_AND_ORGANIZATION_ASSIGNMENT(#909,#916,(#893));
#918=PERSON_AND_ORGANIZATION_ROLE('design_owner');
#919=CC_DESIGN_PERSON_AND_ORGANIZATION_ASSIGNMENT(#909,#918,(#884));
#5=CIRCLE('',#4,4.4E1);
#10=CIRCLE('',#9,4.E0);
#19=CIRCLE('',#18,2.E0);
#24=CIRCLE('',#23,2.E0);
#29=CIRCLE('',#28,5.8E1);
#34=CIRCLE('',#33,2.E0);
#39=CIRCLE('',#38,2.E0);
#48=CIRCLE('',#47,4.E0);
#53=CIRCLE('',#52,4.125E0);
#58=CIRCLE('',#57,4.125E0);
#63=CIRCLE('',#62,1.5E0);
#68=CIRCLE('',#67,1.5E0);
#101=CIRCLE('',#100,2.E0);
#106=CIRCLE('',#105,2.E0);
#111=CIRCLE('',#110,5.8E1);
#116=CIRCLE('',#115,2.E0);
#121=CIRCLE('',#120,2.E0);
#130=CIRCLE('',#129,4.E0);
#135=CIRCLE('',#134,4.4E1);
#140=CIRCLE('',#139,4.E0);
#145=CIRCLE('',#144,2.15E0);
#150=CIRCLE('',#149,2.15E0);
#155=CIRCLE('',#154,2.E0);
#160=CIRCLE('',#159,2.E0);
#197=CIRCLE('',#196,2.15E0);
#210=CIRCLE('',#209,4.125E0);
#215=CIRCLE('',#214,4.125E0);
#220=CIRCLE('',#219,2.65E0);
#225=CIRCLE('',#224,2.65E0);
#242=CIRCLE('',#241,2.15E0);
#259=CIRCLE('',#258,1.5E0);
#268=CIRCLE('',#267,1.5E0);
#422=EDGE_CURVE('',#323,#324,#5,.T.);
#424=EDGE_CURVE('',#324,#326,#10,.T.);
#426=EDGE_CURVE('',#326,#328,#14,.T.);
#428=EDGE_CURVE('',#328,#330,#19,.T.);
#430=EDGE_CURVE('',#330,#332,#24,.T.);
#432=EDGE_CURVE('',#332,#334,#29,.T.);
#434=EDGE_CURVE('',#334,#337,#34,.T.);
#436=EDGE_CURVE('',#337,#338,#39,.T.);
#438=EDGE_CURVE('',#338,#340,#43,.T.);
#440=EDGE_CURVE('',#340,#323,#48,.T.);
#444=EDGE_CURVE('',#343,#344,#53,.T.);
#446=EDGE_CURVE('',#344,#343,#58,.T.);
#450=EDGE_CURVE('',#347,#348,#63,.T.);
#452=EDGE_CURVE('',#348,#347,#68,.T.);
#456=EDGE_CURVE('',#414,#379,#72,.T.);
#458=EDGE_CURVE('',#379,#406,#76,.T.);
#460=EDGE_CURVE('',#406,#408,#80,.T.);
#462=EDGE_CURVE('',#408,#383,#84,.T.);
#464=EDGE_CURVE('',#383,#416,#88,.T.);
#466=EDGE_CURVE('',#416,#414,#92,.T.);
#476=EDGE_CURVE('',#366,#368,#135,.T.);
#478=EDGE_CURVE('',#324,#366,#180,.T.);
#481=EDGE_CURVE('',#368,#323,#192,.T.);
#491=EDGE_CURVE('',#351,#352,#96,.T.);
#493=EDGE_CURVE('',#352,#355,#101,.T.);
#495=EDGE_CURVE('',#355,#356,#106,.T.);
#497=EDGE_CURVE('',#356,#358,#111,.T.);
#499=EDGE_CURVE('',#358,#360,#116,.T.);
#501=EDGE_CURVE('',#360,#362,#121,.T.);
#503=EDGE_CURVE('',#362,#364,#125,.T.);
#505=EDGE_CURVE('',#364,#366,#130,.T.);
#508=EDGE_CURVE('',#368,#351,#140,.T.);
#512=EDGE_CURVE('',#371,#372,#145,.T.);
#514=EDGE_CURVE('',#372,#371,#150,.T.);
#518=EDGE_CURVE('',#395,#396,#155,.T.);
#520=EDGE_CURVE('',#396,#395,#160,.T.);
#531=EDGE_CURVE('',#352,#338,#168,.T.);
#534=EDGE_CURVE('',#340,#351,#188,.T.);
#546=EDGE_CURVE('',#334,#356,#164,.T.);
#560=EDGE_CURVE('',#358,#332,#176,.T.);
#573=EDGE_CURVE('',#328,#362,#172,.T.);
#590=EDGE_CURVE('',#364,#326,#184,.T.);
#624=EDGE_CURVE('',#391,#392,#197,.T.);
#626=EDGE_CURVE('',#372,#392,#246,.T.);
#629=EDGE_CURVE('',#371,#391,#201,.T.);
#639=EDGE_CURVE('',#387,#388,#220,.T.);
#641=EDGE_CURVE('',#388,#392,#237,.T.);
#644=EDGE_CURVE('',#387,#391,#205,.T.);
#654=EDGE_CURVE('',#375,#376,#210,.T.);
#656=EDGE_CURVE('',#376,#375,#215,.T.);
#661=EDGE_CURVE('',#388,#387,#225,.T.);
#672=EDGE_CURVE('',#375,#343,#229,.T.);
#675=EDGE_CURVE('',#376,#344,#233,.T.);
#699=EDGE_CURVE('',#392,#391,#242,.T.);
#723=EDGE_CURVE('',#396,#400,#254,.T.);
#725=EDGE_CURVE('',#399,#400,#268,.T.);
#727=EDGE_CURVE('',#395,#399,#250,.T.);
#739=EDGE_CURVE('',#400,#399,#259,.T.);
#751=EDGE_CURVE('',#399,#347,#263,.T.);
#754=EDGE_CURVE('',#400,#348,#272,.T.);
#777=EDGE_CURVE('',#414,#410,#276,.T.);
#779=EDGE_CURVE('',#410,#380,#300,.T.);
#781=EDGE_CURVE('',#379,#380,#296,.T.);
#792=EDGE_CURVE('',#416,#412,#280,.T.);
#794=EDGE_CURVE('',#412,#410,#304,.T.);
#806=EDGE_CURVE('',#383,#384,#284,.T.);
#808=EDGE_CURVE('',#384,#412,#308,.T.);
#820=EDGE_CURVE('',#408,#404,#288,.T.);
#822=EDGE_CURVE('',#404,#384,#312,.T.);
#834=EDGE_CURVE('',#406,#402,#292,.T.);
#836=EDGE_CURVE('',#402,#404,#316,.T.);
#849=EDGE_CURVE('',#380,#402,#320,.T.);
#869=CLOSED_SHELL('',(#470,#485,#524,#538,#553,#566,#581,#594,#606,#618,#633,
#648,#665,#679,#691,#704,#716,#731,#744,#758,#770,#785,#799,#813,#827,#841,#854,
#868));
#870=MANIFOLD_SOLID_BREP('',#869);
#871=(LENGTH_UNIT()NAMED_UNIT(*)SI_UNIT(.MILLI.,.METRE.));
#873=(NAMED_UNIT(*)PLANE_ANGLE_UNIT()SI_UNIT($,.RADIAN.));
#876=(NAMED_UNIT(*)SI_UNIT($,.STERADIAN.)SOLID_ANGLE_UNIT());
#879=ADVANCED_BREP_SHAPE_REPRESENTATION('',(#870),#878);
#886=PRODUCT_DEFINITION('design','',#885,#882);
#887=PRODUCT_DEFINITION_SHAPE('','SHAPE FOR KD-D-105L_LHIPYOKEHARDSTOPTOO_1.',
#886);
#888=SHAPE_DEFINITION_REPRESENTATION(#887,#879);
ENDSEC;
END-ISO-10303-21;
