ISO-10303-21;
HEADER;
FILE_DESCRIPTION((''),'2;1');
FILE_NAME('KD-D-105R_1','2025-07-13T09:56:58',('Administrator'),(''),
'CREO PARAMETRIC BY PTC INC, 2022073','CREO PARAMETRIC BY PTC INC, 2022073','');
FILE_SCHEMA(('CONFIG_CONTROL_DESIGN'));
ENDSEC;
DATA;
#1=CARTESIAN_POINT('',(-5.5E1,4.232725281383E-13,-6.4E1));
#2=DIRECTION('',(1.E0,0.E0,0.E0));
#3=DIRECTION('',(0.E0,-9.966089996842E-1,8.228305869635E-2));
#4=AXIS2_PLACEMENT_3D('',#1,#2,#3);
#6=CARTESIAN_POINT('',(-5.5E1,-4.799621214115E1,-6.460300920555E1));
#7=DIRECTION('',(-1.E0,0.E0,0.E0));
#8=DIRECTION('',(0.E0,9.999210862737E-1,1.256269179531E-2));
#9=AXIS2_PLACEMENT_3D('',#6,#7,#8);
#11=DIRECTION('',(0.E0,-9.953961983672E-1,-9.584575252022E-2));
#12=VECTOR('',#11,8.131231345988E0);
#13=CARTESIAN_POINT('',(-5.5E1,-4.761282913109E1,-6.858459399902E1));
#14=LINE('',#13,#12);
#15=CARTESIAN_POINT('',(-5.5E1,-5.589831740609E1,-6.737314558957E1));
#16=DIRECTION('',(-1.E0,0.E0,0.E0));
#17=DIRECTION('',(0.E0,9.584575269336E-2,-9.953961983505E-1));
#18=AXIS2_PLACEMENT_3D('',#15,#16,#17);
#20=CARTESIAN_POINT('',(-5.5E1,-5.589831740609E1,-6.737314558957E1));
#21=DIRECTION('',(-1.E0,0.E0,0.E0));
#22=DIRECTION('',(0.E0,0.E0,-1.E0));
#23=AXIS2_PLACEMENT_3D('',#20,#21,#22);
#25=CARTESIAN_POINT('',(-5.5E1,2.463307335887E-13,-6.4E1));
#26=DIRECTION('',(-1.E0,0.E0,0.E0));
#27=DIRECTION('',(0.E0,-9.981842393944E-1,-6.023474267153E-2));
#28=AXIS2_PLACEMENT_3D('',#25,#26,#27);
#30=CARTESIAN_POINT('',(-5.5E1,-5.552685317257E1,-5.673580171307E1));
#31=DIRECTION('',(-1.E0,0.E0,0.E0));
#32=DIRECTION('',(0.E0,-9.915509495099E-1,1.297178265547E-1));
#33=AXIS2_PLACEMENT_3D('',#30,#31,#32);
#35=CARTESIAN_POINT('',(-5.5E1,-5.552685317257E1,-5.673580171307E1));
#36=DIRECTION('',(-1.E0,0.E0,0.E0));
#37=DIRECTION('',(0.E0,0.E0,1.E0));
#38=AXIS2_PLACEMENT_3D('',#35,#36,#37);
#40=DIRECTION('',(0.E0,9.862856015372E-1,-1.650476058606E-1));
#41=VECTOR('',#40,8.131231346088E0);
#42=CARTESIAN_POINT('',(-5.5E1,-5.519675796082E1,-5.476323051E1));
#43=LINE('',#42,#41);
#44=CARTESIAN_POINT('',(-5.5E1,-4.783723198484E1,-6.005041318252E1));
#45=DIRECTION('',(-1.E0,0.E0,0.E0));
#46=DIRECTION('',(0.E0,1.650476058579E-1,9.862856015377E-1));
#47=AXIS2_PLACEMENT_3D('',#44,#45,#46);
#49=CARTESIAN_POINT('',(-5.5E1,-5.336747016282E1,-6.213636687609E1));
#50=DIRECTION('',(1.E0,0.E0,0.E0));
#51=DIRECTION('',(0.E0,0.E0,1.E0));
#52=AXIS2_PLACEMENT_3D('',#49,#50,#51);
#54=CARTESIAN_POINT('',(-5.5E1,-5.336747016282E1,-6.213636687609E1));
#55=DIRECTION('',(1.E0,0.E0,0.E0));
#56=DIRECTION('',(0.E0,0.E0,-1.E0));
#57=AXIS2_PLACEMENT_3D('',#54,#55,#56);
#59=CARTESIAN_POINT('',(-5.5E1,-4.687142978720E1,-6.236321360465E1));
#60=DIRECTION('',(1.E0,0.E0,0.E0));
#61=DIRECTION('',(0.E0,0.E0,1.E0));
#62=AXIS2_PLACEMENT_3D('',#59,#60,#61);
#64=CARTESIAN_POINT('',(-5.5E1,-4.687142978720E1,-6.236321360465E1));
#65=DIRECTION('',(1.E0,0.E0,0.E0));
#66=DIRECTION('',(0.E0,0.E0,-1.E0));
#67=AXIS2_PLACEMENT_3D('',#64,#65,#66);
#69=DIRECTION('',(0.E0,1.E0,0.E0));
#70=VECTOR('',#69,1.239583298564E0);
#71=CARTESIAN_POINT('',(-5.5E1,-4.858970106309E1,-5.879584473319E1));
#72=LINE('',#71,#70);
#73=DIRECTION('',(0.E0,3.494930736926E-1,-9.369389475526E-1));
#74=VECTOR('',#73,1.669084003298E0);
#75=CARTESIAN_POINT('',(-5.5E1,-4.735011776452E1,-5.879584473319E1));
#76=LINE('',#75,#74);
#77=DIRECTION('',(0.E0,1.E0,0.E0));
#78=VECTOR('',#77,5.104168057442E-1);
#79=CARTESIAN_POINT('',(-5.5E1,-4.676678446596E1,-6.035967454262E1));
#80=LINE('',#79,#78);
#81=DIRECTION('',(0.E0,-3.577885126009E-1,9.338026452366E-1));
#82=VECTOR('',#81,1.834184097274E0);
#83=CARTESIAN_POINT('',(-5.5E1,-4.625636766021E1,-6.035967454262E1));
#84=LINE('',#83,#82);
#85=DIRECTION('',(0.E0,8.906052429498E-1,4.547771995497E-1));
#86=VECTOR('',#85,3.274925669221E-1);
#87=CARTESIAN_POINT('',(-5.5E1,-4.691261766021E1,-5.864690858074E1));
#88=LINE('',#87,#86);
#89=DIRECTION('',(0.E0,5.919095487496E-1,8.060043958311E-1));
#90=VECTOR('',#89,3.695666009479E-1);
#91=CARTESIAN_POINT('',(-5.5E1,-4.662095106309E1,-5.849797242828E1));
#92=LINE('',#91,#90);
#93=DIRECTION('',(0.E0,3.102797975506E-1,9.506452793929E-1));
#94=VECTOR('',#93,2.350027223929E-1);
#95=CARTESIAN_POINT('',(-5.5E1,-4.640220106309E1,-5.820010012336E1));
#96=LINE('',#95,#94);
#97=DIRECTION('',(0.E0,0.E0,1.E0));
#98=VECTOR('',#97,2.978725135326E-1);
#99=CARTESIAN_POINT('',(-5.5E1,-4.632928446596E1,-5.797669589467E1));
#100=LINE('',#99,#98);
#101=DIRECTION('',(0.E0,-3.102797975506E-1,9.506452793929E-1));
#102=VECTOR('',#101,2.350027223929E-1);
#103=CARTESIAN_POINT('',(-5.5E1,-4.632928446596E1,-5.767882338114E1));
#104=LINE('',#103,#102);
#105=DIRECTION('',(0.E0,-5.919095487496E-1,8.060043958311E-1));
#106=VECTOR('',#105,3.695666009479E-1);
#107=CARTESIAN_POINT('',(-5.5E1,-4.640220106309E1,-5.745541915245E1));
#108=LINE('',#107,#106);
#109=DIRECTION('',(0.E0,-7.938781110087E-1,6.080769234738E-1));
#110=VECTOR('',#109,3.673946832434E-1);
#111=CARTESIAN_POINT('',(-5.5E1,-4.662095106309E1,-5.715754684754E1));
#112=LINE('',#111,#110);
#113=DIRECTION('',(0.E0,-9.797707167625E-1,2.001233184181E-1));
#114=VECTOR('',#113,3.721109404829E-1);
#115=CARTESIAN_POINT('',(-5.5E1,-4.691261766021E1,-5.693414261885E1));
#116=LINE('',#115,#114);
#117=DIRECTION('',(0.E0,-1.E0,0.E0));
#118=VECTOR('',#117,1.75E0);
#119=CARTESIAN_POINT('',(-5.5E1,-4.727720106309E1,-5.685967454262E1));
#120=LINE('',#119,#118);
#121=DIRECTION('',(0.E0,0.E0,-1.E0));
#122=VECTOR('',#121,3.5E0);
#123=CARTESIAN_POINT('',(-5.5E1,-4.902720106309E1,-5.685967454262E1));
#124=LINE('',#123,#122);
#125=DIRECTION('',(0.E0,1.E0,0.E0));
#126=VECTOR('',#125,4.375E-1);
#127=CARTESIAN_POINT('',(-5.5E1,-4.902720106309E1,-6.035967454262E1));
#128=LINE('',#127,#126);
#129=DIRECTION('',(0.E0,0.E0,1.E0));
#130=VECTOR('',#129,1.563829809427E0);
#131=CARTESIAN_POINT('',(-5.5E1,-4.858970106309E1,-6.035967454262E1));
#132=LINE('',#131,#130);
#133=DIRECTION('',(0.E0,-1.E0,0.E0));
#134=VECTOR('',#133,1.385416597128E0);
#135=CARTESIAN_POINT('',(-5.5E1,-4.720428446596E1,-5.834903627582E1));
#136=LINE('',#135,#134);
#137=DIRECTION('',(0.E0,0.E0,1.E0));
#138=VECTOR('',#137,1.117021352053E0);
#139=CARTESIAN_POINT('',(-5.5E1,-4.858970106309E1,-5.834903627582E1));
#140=LINE('',#139,#138);
#141=DIRECTION('',(0.E0,1.E0,0.E0));
#142=VECTOR('',#141,1.385416597128E0);
#143=CARTESIAN_POINT('',(-5.5E1,-4.858970106309E1,-5.723201492377E1));
#144=LINE('',#143,#142);
#145=DIRECTION('',(0.E0,9.466499177700E-1,-3.222637633772E-1));
#146=VECTOR('',#145,2.310780320092E-1);
#147=CARTESIAN_POINT('',(-5.5E1,-4.720428446596E1,-5.723201492377E1));
#148=LINE('',#147,#146);
#149=DIRECTION('',(0.E0,6.996250055017E-1,-7.145102180353E-1));
#150=VECTOR('',#149,2.084450980529E-1);
#151=CARTESIAN_POINT('',(-5.5E1,-4.698553446596E1,-5.7306483E1));
#152=LINE('',#151,#150);
#153=DIRECTION('',(0.E0,3.102797975506E-1,-9.506452793929E-1));
#154=VECTOR('',#153,2.350027223929E-1);
#155=CARTESIAN_POINT('',(-5.5E1,-4.683970106309E1,-5.745541915245E1));
#156=LINE('',#155,#154);
#157=DIRECTION('',(0.E0,0.E0,-1.E0));
#158=VECTOR('',#157,2.234044373035E-1);
#159=CARTESIAN_POINT('',(-5.5E1,-4.676678446596E1,-5.767882338114E1));
#160=LINE('',#159,#158);
#161=DIRECTION('',(0.E0,-3.102797975506E-1,-9.506452793929E-1));
#162=VECTOR('',#161,2.350027223929E-1);
#163=CARTESIAN_POINT('',(-5.5E1,-4.676678446596E1,-5.790222781844E1));
#164=LINE('',#163,#162);
#165=DIRECTION('',(0.E0,-6.996250055017E-1,-7.145102180353E-1));
#166=VECTOR('',#165,2.084450980529E-1);
#167=CARTESIAN_POINT('',(-5.5E1,-4.683970106309E1,-5.812563204713E1));
#168=LINE('',#167,#166);
#169=DIRECTION('',(0.E0,-9.466499177700E-1,-3.222637633772E-1));
#170=VECTOR('',#169,2.310780320092E-1);
#171=CARTESIAN_POINT('',(-5.5E1,-4.698553446596E1,-5.827456819959E1));
#172=LINE('',#171,#170);
#173=DIRECTION('',(1.E0,0.E0,-3.499422973618E-13));
#174=VECTOR('',#173,8.E0);
#175=CARTESIAN_POINT('',(-6.3E1,-4.399652779605E1,-6.455275843840E1));
#176=LINE('',#175,#174);
#177=DIRECTION('',(-1.E0,0.E0,-1.545430450278E-13));
#178=VECTOR('',#177,8.E0);
#179=CARTESIAN_POINT('',(-5.5E1,-4.385079598610E1,-6.037954541733E1));
#180=LINE('',#179,#178);
#181=DIRECTION('',(0.E0,9.953961983672E-1,9.584575252022E-2));
#182=VECTOR('',#181,8.131231346095E0);
#183=CARTESIAN_POINT('',(-6.3E1,-5.570662590102E1,-6.936393798630E1));
#184=LINE('',#183,#182);
#185=CARTESIAN_POINT('',(-6.3E1,-4.799621214115E1,-6.460300920555E1));
#186=DIRECTION('',(1.E0,0.E0,0.E0));
#187=DIRECTION('',(0.E0,9.584575251598E-2,-9.953961983676E-1));
#188=AXIS2_PLACEMENT_3D('',#185,#186,#187);
#190=CARTESIAN_POINT('',(-6.3E1,4.232725281383E-13,-6.4E1));
#191=DIRECTION('',(-1.E0,0.E0,0.E0));
#192=DIRECTION('',(0.E0,-9.999210862739E-1,-1.256269178092E-2));
#193=AXIS2_PLACEMENT_3D('',#190,#191,#192);
#195=CARTESIAN_POINT('',(-6.3E1,-4.783723198484E1,-6.005041318252E1));
#196=DIRECTION('',(1.E0,0.E0,0.E0));
#197=DIRECTION('',(0.E0,9.966089996830E-1,-8.228305871107E-2));
#198=AXIS2_PLACEMENT_3D('',#195,#196,#197);
#200=DIRECTION('',(0.E0,-9.862856015372E-1,1.650476058606E-1));
#201=VECTOR('',#200,8.131231346208E0);
#202=CARTESIAN_POINT('',(-6.3E1,-4.717704156137E1,-5.610527077638E1));
#203=LINE('',#202,#201);
#204=CARTESIAN_POINT('',(-6.3E1,-5.552685317257E1,-5.673580171307E1));
#205=DIRECTION('',(1.E0,0.E0,0.E0));
#206=DIRECTION('',(0.E0,1.650476057779E-1,9.862856015511E-1));
#207=AXIS2_PLACEMENT_3D('',#204,#205,#206);
#209=CARTESIAN_POINT('',(-6.3E1,-5.552685317257E1,-5.673580171307E1));
#210=DIRECTION('',(1.E0,0.E0,0.E0));
#211=DIRECTION('',(0.E0,0.E0,1.E0));
#212=AXIS2_PLACEMENT_3D('',#209,#210,#211);
#214=CARTESIAN_POINT('',(-6.3E1,2.463307335887E-13,-6.4E1));
#215=DIRECTION('',(1.E0,0.E0,0.E0));
#216=DIRECTION('',(0.E0,-9.915509495102E-1,1.297178265523E-1));
#217=AXIS2_PLACEMENT_3D('',#214,#215,#216);
#219=CARTESIAN_POINT('',(-6.3E1,-5.589831740609E1,-6.737314558957E1));
#220=DIRECTION('',(1.E0,0.E0,0.E0));
#221=DIRECTION('',(0.E0,-9.981842393931E-1,-6.023474269173E-2));
#222=AXIS2_PLACEMENT_3D('',#219,#220,#221);
#224=CARTESIAN_POINT('',(-6.3E1,-5.589831740609E1,-6.737314558957E1));
#225=DIRECTION('',(1.E0,0.E0,0.E0));
#226=DIRECTION('',(0.E0,0.E0,-1.E0));
#227=AXIS2_PLACEMENT_3D('',#224,#225,#226);
#229=CARTESIAN_POINT('',(-6.3E1,-5.336747016282E1,-6.213636687609E1));
#230=DIRECTION('',(-1.E0,0.E0,0.E0));
#231=DIRECTION('',(0.E0,0.E0,1.E0));
#232=AXIS2_PLACEMENT_3D('',#229,#230,#231);
#234=CARTESIAN_POINT('',(-6.3E1,-5.336747016282E1,-6.213636687609E1));
#235=DIRECTION('',(-1.E0,0.E0,0.E0));
#236=DIRECTION('',(0.E0,0.E0,-1.E0));
#237=AXIS2_PLACEMENT_3D('',#234,#235,#236);
#239=CARTESIAN_POINT('',(-6.3E1,-4.687142978720E1,-6.236321360465E1));
#240=DIRECTION('',(1.E0,0.E0,0.E0));
#241=DIRECTION('',(0.E0,0.E0,1.E0));
#242=AXIS2_PLACEMENT_3D('',#239,#240,#241);
#244=CARTESIAN_POINT('',(-6.3E1,-4.687142978720E1,-6.236321360465E1));
#245=DIRECTION('',(1.E0,0.E0,0.E0));
#246=DIRECTION('',(0.E0,0.E0,-1.E0));
#247=AXIS2_PLACEMENT_3D('',#244,#245,#246);
#249=DIRECTION('',(1.E0,-2.343014671169E-12,-4.032330025439E-13));
#250=VECTOR('',#249,8.E0);
#251=CARTESIAN_POINT('',(-6.3E1,-4.761282913108E1,-6.858459399902E1));
#252=LINE('',#251,#250);
#253=DIRECTION('',(-1.E0,-1.101874147480E-11,-8.828493491819E-13));
#254=VECTOR('',#253,8.E0);
#255=CARTESIAN_POINT('',(-5.5E1,-5.570662590093E1,-6.936393798630E1));
#256=LINE('',#255,#254);
#257=DIRECTION('',(-1.E0,0.E0,-1.971756091734E-13));
#258=VECTOR('',#257,8.E0);
#259=CARTESIAN_POINT('',(-5.5E1,-5.789468588488E1,-6.749361507493E1));
#260=LINE('',#259,#258);
#261=DIRECTION('',(1.E0,1.865174681370E-14,1.332267629550E-13));
#262=VECTOR('',#261,8.E0);
#263=CARTESIAN_POINT('',(-6.3E1,-5.750995507159E1,-5.647636605997E1));
#264=LINE('',#263,#262);
#265=DIRECTION('',(1.E0,1.082778311456E-11,-1.509903313490E-12));
#266=VECTOR('',#265,8.E0);
#267=CARTESIAN_POINT('',(-6.3E1,-5.519675796090E1,-5.476323050999E1));
#268=LINE('',#267,#266);
#269=DIRECTION('',(-1.E0,3.983480212355E-12,-9.672262990534E-13));
#270=VECTOR('',#269,8.E0);
#271=CARTESIAN_POINT('',(-5.5E1,-4.717704156140E1,-5.610527077637E1));
#272=LINE('',#271,#270);
#273=DIRECTION('',(1.E0,2.037552349241E-10,-8.586807456293E-11));
#274=VECTOR('',#273,3.499999999699E0);
#275=CARTESIAN_POINT('',(-6.3E1,-5.336747016282E1,-5.998636687609E1));
#276=LINE('',#275,#274);
#277=CARTESIAN_POINT('',(-5.95E1,-5.336747016282E1,-6.213636687609E1));
#278=DIRECTION('',(-1.E0,0.E0,0.E0));
#279=DIRECTION('',(0.E0,0.E0,1.E0));
#280=AXIS2_PLACEMENT_3D('',#277,#278,#279);
#282=DIRECTION('',(1.E0,-2.037592951683E-10,8.587010468503E-11));
#283=VECTOR('',#282,3.499999999699E0);
#284=CARTESIAN_POINT('',(-6.3E1,-5.336747016282E1,-6.428636687609E1));
#285=LINE('',#284,#283);
#286=CARTESIAN_POINT('',(-5.95E1,-5.336747016282E1,-6.213636687609E1));
#287=DIRECTION('',(-1.E0,0.E0,0.E0));
#288=DIRECTION('',(0.E0,0.E0,-1.E0));
#289=AXIS2_PLACEMENT_3D('',#286,#287,#288);
#291=DIRECTION('',(-7.071067811866E-1,6.489179573510E-10,7.071067811865E-1));
#292=VECTOR('',#291,7.071067809131E-1);
#293=CARTESIAN_POINT('',(-5.900000000049E1,-5.336747016399E1,
-6.478636687560E1));
#294=LINE('',#293,#292);
#295=CARTESIAN_POINT('',(-5.9E1,-5.336747016282E1,-6.213636687609E1));
#296=DIRECTION('',(-1.E0,0.E0,0.E0));
#297=DIRECTION('',(0.E0,0.E0,1.E0));
#298=AXIS2_PLACEMENT_3D('',#295,#296,#297);
#300=CARTESIAN_POINT('',(-5.9E1,-5.336747016282E1,-6.213636687609E1));
#301=DIRECTION('',(-1.E0,0.E0,0.E0));
#302=DIRECTION('',(0.E0,0.E0,-1.E0));
#303=AXIS2_PLACEMENT_3D('',#300,#301,#302);
#305=CARTESIAN_POINT('',(-5.9E1,-5.336747016282E1,-6.213636687609E1));
#306=DIRECTION('',(-1.E0,0.E0,0.E0));
#307=DIRECTION('',(0.E0,0.E0,-1.E0));
#308=AXIS2_PLACEMENT_3D('',#305,#306,#307);
#310=CARTESIAN_POINT('',(-5.9E1,-5.336747016282E1,-6.213636687609E1));
#311=DIRECTION('',(-1.E0,0.E0,0.E0));
#312=DIRECTION('',(0.E0,0.E0,1.E0));
#313=AXIS2_PLACEMENT_3D('',#310,#311,#312);
#315=DIRECTION('',(1.E0,0.E0,0.E0));
#316=VECTOR('',#315,4.E0);
#317=CARTESIAN_POINT('',(-5.9E1,-5.336747016282E1,-5.801136687609E1));
#318=LINE('',#317,#316);
#319=DIRECTION('',(1.E0,0.E0,0.E0));
#320=VECTOR('',#319,4.E0);
#321=CARTESIAN_POINT('',(-5.9E1,-5.336747016282E1,-6.626136687609E1));
#322=LINE('',#321,#320);
#323=DIRECTION('',(-7.071067811865E-1,-6.489079087593E-10,-7.071067811865E-1));
#324=VECTOR('',#323,7.071067809131E-1);
#325=CARTESIAN_POINT('',(-5.900000000049E1,-5.336747016165E1,
-5.948636687658E1));
#326=LINE('',#325,#324);
#327=DIRECTION('',(7.071067811865E-1,1.100079629633E-9,-7.071067811866E-1));
#328=VECTOR('',#327,7.071067806797E-1);
#329=CARTESIAN_POINT('',(-6.299999999918E1,-4.687142978898E1,
-6.036321360547E1));
#330=LINE('',#329,#328);
#331=DIRECTION('',(7.071067811866E-1,-1.100069581041E-9,7.071067811865E-1));
#332=VECTOR('',#331,7.071067806797E-1);
#333=CARTESIAN_POINT('',(-6.299999999918E1,-4.687142978542E1,
-6.436321360383E1));
#334=LINE('',#333,#332);
#335=CARTESIAN_POINT('',(-6.25E1,-4.687142978720E1,-6.236321360465E1));
#336=DIRECTION('',(1.E0,0.E0,0.E0));
#337=DIRECTION('',(0.E0,0.E0,-1.E0));
#338=AXIS2_PLACEMENT_3D('',#335,#336,#337);
#340=DIRECTION('',(1.E0,1.333508710944E-10,6.144489362137E-11));
#341=VECTOR('',#340,7.499999999539E0);
#342=CARTESIAN_POINT('',(-6.249999999954E1,-4.687142978820E1,
-6.086321360511E1));
#343=LINE('',#342,#341);
#344=CARTESIAN_POINT('',(-6.25E1,-4.687142978720E1,-6.236321360465E1));
#345=DIRECTION('',(1.E0,0.E0,0.E0));
#346=DIRECTION('',(0.E0,0.E0,1.E0));
#347=AXIS2_PLACEMENT_3D('',#344,#345,#346);
#349=DIRECTION('',(1.E0,-1.333470815331E-10,-6.144394623105E-11));
#350=VECTOR('',#349,7.499999999539E0);
#351=CARTESIAN_POINT('',(-6.249999999954E1,-4.687142978620E1,
-6.386321360419E1));
#352=LINE('',#351,#350);
#353=DIRECTION('',(-1.E0,0.E0,0.E0));
#354=VECTOR('',#353,1.E-1);
#355=CARTESIAN_POINT('',(-5.5E1,-4.858970106309E1,-5.879584473319E1));
#356=LINE('',#355,#354);
#357=DIRECTION('',(-1.E0,0.E0,0.E0));
#358=VECTOR('',#357,1.E-1);
#359=CARTESIAN_POINT('',(-5.5E1,-4.858970106309E1,-6.035967454262E1));
#360=LINE('',#359,#358);
#361=DIRECTION('',(-1.E0,0.E0,0.E0));
#362=VECTOR('',#361,1.E-1);
#363=CARTESIAN_POINT('',(-5.5E1,-4.902720106309E1,-6.035967454262E1));
#364=LINE('',#363,#362);
#365=DIRECTION('',(-1.E0,0.E0,0.E0));
#366=VECTOR('',#365,1.E-1);
#367=CARTESIAN_POINT('',(-5.5E1,-4.902720106309E1,-5.685967454262E1));
#368=LINE('',#367,#366);
#369=DIRECTION('',(-1.E0,0.E0,0.E0));
#370=VECTOR('',#369,1.E-1);
#371=CARTESIAN_POINT('',(-5.5E1,-4.727720106309E1,-5.685967454262E1));
#372=LINE('',#371,#370);
#373=DIRECTION('',(-1.E0,0.E0,0.E0));
#374=VECTOR('',#373,1.E-1);
#375=CARTESIAN_POINT('',(-5.5E1,-4.691261766021E1,-5.693414261885E1));
#376=LINE('',#375,#374);
#377=DIRECTION('',(-1.E0,0.E0,0.E0));
#378=VECTOR('',#377,1.E-1);
#379=CARTESIAN_POINT('',(-5.5E1,-4.662095106309E1,-5.715754684754E1));
#380=LINE('',#379,#378);
#381=DIRECTION('',(-1.E0,0.E0,0.E0));
#382=VECTOR('',#381,1.E-1);
#383=CARTESIAN_POINT('',(-5.5E1,-4.640220106309E1,-5.745541915245E1));
#384=LINE('',#383,#382);
#385=DIRECTION('',(-1.E0,0.E0,0.E0));
#386=VECTOR('',#385,1.E-1);
#387=CARTESIAN_POINT('',(-5.5E1,-4.632928446596E1,-5.767882338114E1));
#388=LINE('',#387,#386);
#389=DIRECTION('',(-1.E0,0.E0,0.E0));
#390=VECTOR('',#389,1.E-1);
#391=CARTESIAN_POINT('',(-5.5E1,-4.632928446596E1,-5.797669589467E1));
#392=LINE('',#391,#390);
#393=DIRECTION('',(-1.E0,0.E0,0.E0));
#394=VECTOR('',#393,1.E-1);
#395=CARTESIAN_POINT('',(-5.5E1,-4.640220106309E1,-5.820010012336E1));
#396=LINE('',#395,#394);
#397=DIRECTION('',(-1.E0,0.E0,0.E0));
#398=VECTOR('',#397,1.E-1);
#399=CARTESIAN_POINT('',(-5.5E1,-4.662095106309E1,-5.849797242828E1));
#400=LINE('',#399,#398);
#401=DIRECTION('',(-1.E0,1.421085471520E-13,0.E0));
#402=VECTOR('',#401,1.E-1);
#403=CARTESIAN_POINT('',(-5.5E1,-4.691261766021E1,-5.864690858074E1));
#404=LINE('',#403,#402);
#405=DIRECTION('',(-1.E0,1.421085471520E-13,0.E0));
#406=VECTOR('',#405,1.E-1);
#407=CARTESIAN_POINT('',(-5.5E1,-4.625636766021E1,-6.035967454262E1));
#408=LINE('',#407,#406);
#409=DIRECTION('',(-1.E0,1.421085471520E-13,0.E0));
#410=VECTOR('',#409,1.E-1);
#411=CARTESIAN_POINT('',(-5.5E1,-4.676678446596E1,-6.035967454262E1));
#412=LINE('',#411,#410);
#413=DIRECTION('',(-1.E0,1.421085471520E-13,0.E0));
#414=VECTOR('',#413,1.E-1);
#415=CARTESIAN_POINT('',(-5.5E1,-4.735011776452E1,-5.879584473319E1));
#416=LINE('',#415,#414);
#417=DIRECTION('',(0.E0,1.E0,0.E0));
#418=VECTOR('',#417,1.239583298564E0);
#419=CARTESIAN_POINT('',(-5.51E1,-4.858970106309E1,-5.879584473319E1));
#420=LINE('',#419,#418);
#421=DIRECTION('',(0.E0,0.E0,1.E0));
#422=VECTOR('',#421,1.563829809427E0);
#423=CARTESIAN_POINT('',(-5.51E1,-4.858970106309E1,-6.035967454262E1));
#424=LINE('',#423,#422);
#425=DIRECTION('',(0.E0,1.E0,0.E0));
#426=VECTOR('',#425,4.375E-1);
#427=CARTESIAN_POINT('',(-5.51E1,-4.902720106309E1,-6.035967454262E1));
#428=LINE('',#427,#426);
#429=DIRECTION('',(0.E0,0.E0,-1.E0));
#430=VECTOR('',#429,3.5E0);
#431=CARTESIAN_POINT('',(-5.51E1,-4.902720106309E1,-5.685967454262E1));
#432=LINE('',#431,#430);
#433=DIRECTION('',(0.E0,-1.E0,0.E0));
#434=VECTOR('',#433,1.75E0);
#435=CARTESIAN_POINT('',(-5.51E1,-4.727720106309E1,-5.685967454262E1));
#436=LINE('',#435,#434);
#437=DIRECTION('',(0.E0,-9.797707167625E-1,2.001233184181E-1));
#438=VECTOR('',#437,3.721109404829E-1);
#439=CARTESIAN_POINT('',(-5.51E1,-4.691261766021E1,-5.693414261885E1));
#440=LINE('',#439,#438);
#441=DIRECTION('',(0.E0,-7.938781110087E-1,6.080769234738E-1));
#442=VECTOR('',#441,3.673946832434E-1);
#443=CARTESIAN_POINT('',(-5.51E1,-4.662095106309E1,-5.715754684754E1));
#444=LINE('',#443,#442);
#445=DIRECTION('',(0.E0,-5.919095487496E-1,8.060043958311E-1));
#446=VECTOR('',#445,3.695666009479E-1);
#447=CARTESIAN_POINT('',(-5.51E1,-4.640220106309E1,-5.745541915245E1));
#448=LINE('',#447,#446);
#449=DIRECTION('',(0.E0,-3.102797975506E-1,9.506452793929E-1));
#450=VECTOR('',#449,2.350027223929E-1);
#451=CARTESIAN_POINT('',(-5.51E1,-4.632928446596E1,-5.767882338114E1));
#452=LINE('',#451,#450);
#453=DIRECTION('',(0.E0,0.E0,1.E0));
#454=VECTOR('',#453,2.978725135326E-1);
#455=CARTESIAN_POINT('',(-5.51E1,-4.632928446596E1,-5.797669589467E1));
#456=LINE('',#455,#454);
#457=DIRECTION('',(0.E0,3.102797975506E-1,9.506452793929E-1));
#458=VECTOR('',#457,2.350027223929E-1);
#459=CARTESIAN_POINT('',(-5.51E1,-4.640220106309E1,-5.820010012336E1));
#460=LINE('',#459,#458);
#461=DIRECTION('',(0.E0,5.919095487496E-1,8.060043958311E-1));
#462=VECTOR('',#461,3.695666009479E-1);
#463=CARTESIAN_POINT('',(-5.51E1,-4.662095106309E1,-5.849797242828E1));
#464=LINE('',#463,#462);
#465=DIRECTION('',(0.E0,8.906052429498E-1,4.547771995497E-1));
#466=VECTOR('',#465,3.274925669221E-1);
#467=CARTESIAN_POINT('',(-5.51E1,-4.691261766021E1,-5.864690858074E1));
#468=LINE('',#467,#466);
#469=DIRECTION('',(0.E0,-3.577885126009E-1,9.338026452366E-1));
#470=VECTOR('',#469,1.834184097274E0);
#471=CARTESIAN_POINT('',(-5.51E1,-4.625636766021E1,-6.035967454262E1));
#472=LINE('',#471,#470);
#473=DIRECTION('',(0.E0,1.E0,0.E0));
#474=VECTOR('',#473,5.104168057442E-1);
#475=CARTESIAN_POINT('',(-5.51E1,-4.676678446596E1,-6.035967454262E1));
#476=LINE('',#475,#474);
#477=DIRECTION('',(0.E0,3.494930736926E-1,-9.369389475526E-1));
#478=VECTOR('',#477,1.669084003298E0);
#479=CARTESIAN_POINT('',(-5.51E1,-4.735011776452E1,-5.879584473319E1));
#480=LINE('',#479,#478);
#481=DIRECTION('',(0.E0,-1.E0,0.E0));
#482=VECTOR('',#481,1.385416597128E0);
#483=CARTESIAN_POINT('',(-5.51E1,-4.720428446596E1,-5.834903627582E1));
#484=LINE('',#483,#482);
#485=DIRECTION('',(0.E0,-9.466499177700E-1,-3.222637633772E-1));
#486=VECTOR('',#485,2.310780320092E-1);
#487=CARTESIAN_POINT('',(-5.51E1,-4.698553446596E1,-5.827456819959E1));
#488=LINE('',#487,#486);
#489=DIRECTION('',(0.E0,-6.996250055017E-1,-7.145102180353E-1));
#490=VECTOR('',#489,2.084450980529E-1);
#491=CARTESIAN_POINT('',(-5.51E1,-4.683970106309E1,-5.812563204713E1));
#492=LINE('',#491,#490);
#493=DIRECTION('',(0.E0,-3.102797975506E-1,-9.506452793929E-1));
#494=VECTOR('',#493,2.350027223929E-1);
#495=CARTESIAN_POINT('',(-5.51E1,-4.676678446596E1,-5.790222781844E1));
#496=LINE('',#495,#494);
#497=DIRECTION('',(0.E0,0.E0,-1.E0));
#498=VECTOR('',#497,2.234044373035E-1);
#499=CARTESIAN_POINT('',(-5.51E1,-4.676678446596E1,-5.767882338114E1));
#500=LINE('',#499,#498);
#501=DIRECTION('',(0.E0,3.102797975506E-1,-9.506452793929E-1));
#502=VECTOR('',#501,2.350027223929E-1);
#503=CARTESIAN_POINT('',(-5.51E1,-4.683970106309E1,-5.745541915245E1));
#504=LINE('',#503,#502);
#505=DIRECTION('',(0.E0,6.996250055017E-1,-7.145102180353E-1));
#506=VECTOR('',#505,2.084450980529E-1);
#507=CARTESIAN_POINT('',(-5.51E1,-4.698553446596E1,-5.7306483E1));
#508=LINE('',#507,#506);
#509=DIRECTION('',(0.E0,9.466499177700E-1,-3.222637633772E-1));
#510=VECTOR('',#509,2.310780320092E-1);
#511=CARTESIAN_POINT('',(-5.51E1,-4.720428446596E1,-5.723201492377E1));
#512=LINE('',#511,#510);
#513=DIRECTION('',(0.E0,1.E0,0.E0));
#514=VECTOR('',#513,1.385416597128E0);
#515=CARTESIAN_POINT('',(-5.51E1,-4.858970106309E1,-5.723201492377E1));
#516=LINE('',#515,#514);
#517=DIRECTION('',(0.E0,0.E0,1.E0));
#518=VECTOR('',#517,1.117021352053E0);
#519=CARTESIAN_POINT('',(-5.51E1,-4.858970106309E1,-5.834903627582E1));
#520=LINE('',#519,#518);
#521=DIRECTION('',(-1.E0,0.E0,0.E0));
#522=VECTOR('',#521,1.E-1);
#523=CARTESIAN_POINT('',(-5.5E1,-4.720428446596E1,-5.834903627582E1));
#524=LINE('',#523,#522);
#525=DIRECTION('',(-1.E0,0.E0,0.E0));
#526=VECTOR('',#525,1.E-1);
#527=CARTESIAN_POINT('',(-5.5E1,-4.698553446596E1,-5.827456819959E1));
#528=LINE('',#527,#526);
#529=DIRECTION('',(-1.E0,0.E0,0.E0));
#530=VECTOR('',#529,1.E-1);
#531=CARTESIAN_POINT('',(-5.5E1,-4.683970106309E1,-5.812563204713E1));
#532=LINE('',#531,#530);
#533=DIRECTION('',(-1.E0,0.E0,0.E0));
#534=VECTOR('',#533,1.E-1);
#535=CARTESIAN_POINT('',(-5.5E1,-4.676678446596E1,-5.790222781844E1));
#536=LINE('',#535,#534);
#537=DIRECTION('',(-1.E0,0.E0,0.E0));
#538=VECTOR('',#537,1.E-1);
#539=CARTESIAN_POINT('',(-5.5E1,-4.676678446596E1,-5.767882338114E1));
#540=LINE('',#539,#538);
#541=DIRECTION('',(-1.E0,0.E0,0.E0));
#542=VECTOR('',#541,1.E-1);
#543=CARTESIAN_POINT('',(-5.5E1,-4.683970106309E1,-5.745541915245E1));
#544=LINE('',#543,#542);
#545=DIRECTION('',(-1.E0,0.E0,0.E0));
#546=VECTOR('',#545,1.E-1);
#547=CARTESIAN_POINT('',(-5.5E1,-4.698553446596E1,-5.7306483E1));
#548=LINE('',#547,#546);
#549=DIRECTION('',(-1.E0,0.E0,0.E0));
#550=VECTOR('',#549,1.E-1);
#551=CARTESIAN_POINT('',(-5.5E1,-4.720428446596E1,-5.723201492377E1));
#552=LINE('',#551,#550);
#553=DIRECTION('',(-1.E0,0.E0,0.E0));
#554=VECTOR('',#553,1.E-1);
#555=CARTESIAN_POINT('',(-5.5E1,-4.858970106309E1,-5.723201492377E1));
#556=LINE('',#555,#554);
#557=DIRECTION('',(-1.E0,0.E0,0.E0));
#558=VECTOR('',#557,1.E-1);
#559=CARTESIAN_POINT('',(-5.5E1,-4.858970106309E1,-5.834903627582E1));
#560=LINE('',#559,#558);
#561=CARTESIAN_POINT('',(-5.5E1,-4.385079598611E1,-6.037954541736E1));
#562=CARTESIAN_POINT('',(-5.5E1,-4.399652779605E1,-6.455275843837E1));
#563=VERTEX_POINT('',#561);
#564=VERTEX_POINT('',#562);
#565=CARTESIAN_POINT('',(-5.5E1,-4.761282913114E1,-6.858459399903E1));
#566=VERTEX_POINT('',#565);
#567=CARTESIAN_POINT('',(-5.5E1,-5.570662590093E1,-6.936393798630E1));
#568=VERTEX_POINT('',#567);
#569=CARTESIAN_POINT('',(-5.5E1,-5.589831740609E1,-6.937314558957E1));
#570=CARTESIAN_POINT('',(-5.5E1,-5.789468588488E1,-6.749361507495E1));
#571=VERTEX_POINT('',#569);
#572=VERTEX_POINT('',#570);
#573=CARTESIAN_POINT('',(-5.5E1,-5.750995507159E1,-5.647636605996E1));
#574=VERTEX_POINT('',#573);
#575=CARTESIAN_POINT('',(-5.5E1,-5.552685317257E1,-5.473580171307E1));
#576=VERTEX_POINT('',#575);
#577=CARTESIAN_POINT('',(-5.5E1,-5.519675796076E1,-5.476323051001E1));
#578=VERTEX_POINT('',#577);
#579=CARTESIAN_POINT('',(-5.5E1,-4.717704156140E1,-5.610527077637E1));
#580=VERTEX_POINT('',#579);
#581=CARTESIAN_POINT('',(-5.5E1,-5.336747016282E1,-5.801136687609E1));
#582=CARTESIAN_POINT('',(-5.5E1,-5.336747016282E1,-6.626136687609E1));
#583=VERTEX_POINT('',#581);
#584=VERTEX_POINT('',#582);
#585=CARTESIAN_POINT('',(-5.5E1,-4.687142978720E1,-6.086321360465E1));
#586=CARTESIAN_POINT('',(-5.5E1,-4.687142978720E1,-6.386321360465E1));
#587=VERTEX_POINT('',#585);
#588=VERTEX_POINT('',#586);
#589=CARTESIAN_POINT('',(-6.3E1,-5.570662590102E1,-6.936393798630E1));
#590=CARTESIAN_POINT('',(-6.3E1,-4.761282913108E1,-6.858459399902E1));
#591=VERTEX_POINT('',#589);
#592=VERTEX_POINT('',#590);
#593=CARTESIAN_POINT('',(-6.3E1,-4.399652779606E1,-6.455275843836E1));
#594=VERTEX_POINT('',#593);
#595=CARTESIAN_POINT('',(-6.3E1,-4.385079598611E1,-6.037954541736E1));
#596=VERTEX_POINT('',#595);
#597=CARTESIAN_POINT('',(-6.3E1,-4.717704156131E1,-5.610527077639E1));
#598=VERTEX_POINT('',#597);
#599=CARTESIAN_POINT('',(-6.3E1,-5.519675796090E1,-5.476323050999E1));
#600=VERTEX_POINT('',#599);
#601=CARTESIAN_POINT('',(-6.3E1,-5.552685317257E1,-5.473580171307E1));
#602=VERTEX_POINT('',#601);
#603=CARTESIAN_POINT('',(-6.3E1,-5.750995507159E1,-5.647636605996E1));
#604=VERTEX_POINT('',#603);
#605=CARTESIAN_POINT('',(-6.3E1,-5.789468588487E1,-6.749361507495E1));
#606=VERTEX_POINT('',#605);
#607=CARTESIAN_POINT('',(-6.3E1,-5.589831740609E1,-6.937314558957E1));
#608=VERTEX_POINT('',#607);
#609=CARTESIAN_POINT('',(-6.3E1,-5.336747016282E1,-5.998636687609E1));
#610=CARTESIAN_POINT('',(-6.3E1,-5.336747016282E1,-6.428636687609E1));
#611=VERTEX_POINT('',#609);
#612=VERTEX_POINT('',#610);
#613=CARTESIAN_POINT('',(-5.9E1,-5.336747016282E1,-5.801136687609E1));
#614=CARTESIAN_POINT('',(-5.9E1,-5.336747016282E1,-6.626136687609E1));
#615=VERTEX_POINT('',#613);
#616=VERTEX_POINT('',#614);
#617=CARTESIAN_POINT('',(-5.51E1,-4.858970106309E1,-5.879584473319E1));
#618=CARTESIAN_POINT('',(-5.51E1,-4.735011776452E1,-5.879584473319E1));
#619=VERTEX_POINT('',#617);
#620=VERTEX_POINT('',#618);
#621=CARTESIAN_POINT('',(-5.51E1,-4.676678446596E1,-6.035967454262E1));
#622=VERTEX_POINT('',#621);
#623=CARTESIAN_POINT('',(-5.51E1,-4.625636766021E1,-6.035967454262E1));
#624=VERTEX_POINT('',#623);
#625=CARTESIAN_POINT('',(-5.51E1,-4.691261766021E1,-5.864690858074E1));
#626=VERTEX_POINT('',#625);
#627=CARTESIAN_POINT('',(-5.51E1,-4.662095106309E1,-5.849797242828E1));
#628=VERTEX_POINT('',#627);
#629=CARTESIAN_POINT('',(-5.51E1,-4.640220106309E1,-5.820010012336E1));
#630=VERTEX_POINT('',#629);
#631=CARTESIAN_POINT('',(-5.51E1,-4.632928446596E1,-5.797669589467E1));
#632=VERTEX_POINT('',#631);
#633=CARTESIAN_POINT('',(-5.51E1,-4.632928446596E1,-5.767882338114E1));
#634=VERTEX_POINT('',#633);
#635=CARTESIAN_POINT('',(-5.51E1,-4.640220106309E1,-5.745541915245E1));
#636=VERTEX_POINT('',#635);
#637=CARTESIAN_POINT('',(-5.51E1,-4.662095106309E1,-5.715754684754E1));
#638=VERTEX_POINT('',#637);
#639=CARTESIAN_POINT('',(-5.51E1,-4.691261766021E1,-5.693414261885E1));
#640=VERTEX_POINT('',#639);
#641=CARTESIAN_POINT('',(-5.51E1,-4.727720106309E1,-5.685967454262E1));
#642=VERTEX_POINT('',#641);
#643=CARTESIAN_POINT('',(-5.51E1,-4.902720106309E1,-5.685967454262E1));
#644=VERTEX_POINT('',#643);
#645=CARTESIAN_POINT('',(-5.51E1,-4.902720106309E1,-6.035967454262E1));
#646=VERTEX_POINT('',#645);
#647=CARTESIAN_POINT('',(-5.51E1,-4.858970106309E1,-6.035967454262E1));
#648=VERTEX_POINT('',#647);
#649=CARTESIAN_POINT('',(-5.51E1,-4.720428446596E1,-5.834903627582E1));
#650=CARTESIAN_POINT('',(-5.51E1,-4.858970106309E1,-5.834903627582E1));
#651=VERTEX_POINT('',#649);
#652=VERTEX_POINT('',#650);
#653=CARTESIAN_POINT('',(-5.51E1,-4.858970106309E1,-5.723201492377E1));
#654=VERTEX_POINT('',#653);
#655=CARTESIAN_POINT('',(-5.51E1,-4.720428446596E1,-5.723201492377E1));
#656=VERTEX_POINT('',#655);
#657=CARTESIAN_POINT('',(-5.51E1,-4.698553446596E1,-5.7306483E1));
#658=VERTEX_POINT('',#657);
#659=CARTESIAN_POINT('',(-5.51E1,-4.683970106309E1,-5.745541915245E1));
#660=VERTEX_POINT('',#659);
#661=CARTESIAN_POINT('',(-5.51E1,-4.676678446596E1,-5.767882338114E1));
#662=VERTEX_POINT('',#661);
#663=CARTESIAN_POINT('',(-5.51E1,-4.676678446596E1,-5.790222781844E1));
#664=VERTEX_POINT('',#663);
#665=CARTESIAN_POINT('',(-5.51E1,-4.683970106309E1,-5.812563204713E1));
#666=VERTEX_POINT('',#665);
#667=CARTESIAN_POINT('',(-5.51E1,-4.698553446596E1,-5.827456819959E1));
#668=VERTEX_POINT('',#667);
#669=CARTESIAN_POINT('',(-5.5E1,-4.858970106309E1,-5.879584473319E1));
#670=CARTESIAN_POINT('',(-5.5E1,-4.735011776452E1,-5.879584473319E1));
#671=VERTEX_POINT('',#669);
#672=VERTEX_POINT('',#670);
#673=CARTESIAN_POINT('',(-5.5E1,-4.676678446596E1,-6.035967454262E1));
#674=VERTEX_POINT('',#673);
#675=CARTESIAN_POINT('',(-5.5E1,-4.625636766021E1,-6.035967454262E1));
#676=VERTEX_POINT('',#675);
#677=CARTESIAN_POINT('',(-5.5E1,-4.691261766021E1,-5.864690858074E1));
#678=VERTEX_POINT('',#677);
#679=CARTESIAN_POINT('',(-5.5E1,-4.662095106309E1,-5.849797242828E1));
#680=VERTEX_POINT('',#679);
#681=CARTESIAN_POINT('',(-5.5E1,-4.640220106309E1,-5.820010012336E1));
#682=VERTEX_POINT('',#681);
#683=CARTESIAN_POINT('',(-5.5E1,-4.632928446596E1,-5.797669589467E1));
#684=VERTEX_POINT('',#683);
#685=CARTESIAN_POINT('',(-5.5E1,-4.632928446596E1,-5.767882338114E1));
#686=VERTEX_POINT('',#685);
#687=CARTESIAN_POINT('',(-5.5E1,-4.640220106309E1,-5.745541915245E1));
#688=VERTEX_POINT('',#687);
#689=CARTESIAN_POINT('',(-5.5E1,-4.662095106309E1,-5.715754684754E1));
#690=VERTEX_POINT('',#689);
#691=CARTESIAN_POINT('',(-5.5E1,-4.691261766021E1,-5.693414261885E1));
#692=VERTEX_POINT('',#691);
#693=CARTESIAN_POINT('',(-5.5E1,-4.727720106309E1,-5.685967454262E1));
#694=VERTEX_POINT('',#693);
#695=CARTESIAN_POINT('',(-5.5E1,-4.902720106309E1,-5.685967454262E1));
#696=VERTEX_POINT('',#695);
#697=CARTESIAN_POINT('',(-5.5E1,-4.902720106309E1,-6.035967454262E1));
#698=VERTEX_POINT('',#697);
#699=CARTESIAN_POINT('',(-5.5E1,-4.858970106309E1,-6.035967454262E1));
#700=VERTEX_POINT('',#699);
#701=CARTESIAN_POINT('',(-5.5E1,-4.720428446596E1,-5.834903627582E1));
#702=CARTESIAN_POINT('',(-5.5E1,-4.858970106309E1,-5.834903627582E1));
#703=VERTEX_POINT('',#701);
#704=VERTEX_POINT('',#702);
#705=CARTESIAN_POINT('',(-5.5E1,-4.858970106309E1,-5.723201492377E1));
#706=VERTEX_POINT('',#705);
#707=CARTESIAN_POINT('',(-5.5E1,-4.720428446596E1,-5.723201492377E1));
#708=VERTEX_POINT('',#707);
#709=CARTESIAN_POINT('',(-5.5E1,-4.698553446596E1,-5.7306483E1));
#710=VERTEX_POINT('',#709);
#711=CARTESIAN_POINT('',(-5.5E1,-4.683970106309E1,-5.745541915245E1));
#712=VERTEX_POINT('',#711);
#713=CARTESIAN_POINT('',(-5.5E1,-4.676678446596E1,-5.767882338114E1));
#714=VERTEX_POINT('',#713);
#715=CARTESIAN_POINT('',(-5.5E1,-4.676678446596E1,-5.790222781844E1));
#716=VERTEX_POINT('',#715);
#717=CARTESIAN_POINT('',(-5.5E1,-4.683970106309E1,-5.812563204713E1));
#718=VERTEX_POINT('',#717);
#719=CARTESIAN_POINT('',(-5.5E1,-4.698553446596E1,-5.827456819959E1));
#720=VERTEX_POINT('',#719);
#721=CARTESIAN_POINT('',(-6.3E1,-4.687142978720E1,-6.036321360465E1));
#722=CARTESIAN_POINT('',(-6.3E1,-4.687142978720E1,-6.436321360465E1));
#723=VERTEX_POINT('',#721);
#724=VERTEX_POINT('',#722);
#725=CARTESIAN_POINT('',(-6.25E1,-4.687142978720E1,-6.086321360465E1));
#726=CARTESIAN_POINT('',(-6.25E1,-4.687142978720E1,-6.386321360465E1));
#727=VERTEX_POINT('',#725);
#728=VERTEX_POINT('',#726);
#729=CARTESIAN_POINT('',(-5.950000000030E1,-5.336747016211E1,
-5.998636687639E1));
#730=VERTEX_POINT('',#729);
#731=CARTESIAN_POINT('',(-5.950000000030E1,-5.336747016353E1,
-6.428636687579E1));
#732=VERTEX_POINT('',#731);
#733=CARTESIAN_POINT('',(-5.9E1,-5.336747016282E1,-6.478636687609E1));
#734=CARTESIAN_POINT('',(-5.9E1,-5.336747016282E1,-5.948636687609E1));
#735=VERTEX_POINT('',#733);
#736=VERTEX_POINT('',#734);
#737=CARTESIAN_POINT('',(-5.5E1,0.E0,-6.4E1));
#738=DIRECTION('',(-1.E0,0.E0,0.E0));
#739=DIRECTION('',(0.E0,1.E0,0.E0));
#740=AXIS2_PLACEMENT_3D('',#737,#738,#739);
#741=PLANE('',#740);
#743=ORIENTED_EDGE('',*,*,#742,.T.);
#745=ORIENTED_EDGE('',*,*,#744,.T.);
#747=ORIENTED_EDGE('',*,*,#746,.T.);
#749=ORIENTED_EDGE('',*,*,#748,.T.);
#751=ORIENTED_EDGE('',*,*,#750,.T.);
#753=ORIENTED_EDGE('',*,*,#752,.T.);
#755=ORIENTED_EDGE('',*,*,#754,.T.);
#757=ORIENTED_EDGE('',*,*,#756,.T.);
#759=ORIENTED_EDGE('',*,*,#758,.T.);
#761=ORIENTED_EDGE('',*,*,#760,.T.);
#762=EDGE_LOOP('',(#743,#745,#747,#749,#751,#753,#755,#757,#759,#761));
#763=FACE_OUTER_BOUND('',#762,.F.);
#765=ORIENTED_EDGE('',*,*,#764,.T.);
#767=ORIENTED_EDGE('',*,*,#766,.T.);
#768=EDGE_LOOP('',(#765,#767));
#769=FACE_BOUND('',#768,.F.);
#771=ORIENTED_EDGE('',*,*,#770,.T.);
#773=ORIENTED_EDGE('',*,*,#772,.T.);
#774=EDGE_LOOP('',(#771,#773));
#775=FACE_BOUND('',#774,.F.);
#777=ORIENTED_EDGE('',*,*,#776,.T.);
#779=ORIENTED_EDGE('',*,*,#778,.T.);
#781=ORIENTED_EDGE('',*,*,#780,.T.);
#783=ORIENTED_EDGE('',*,*,#782,.T.);
#785=ORIENTED_EDGE('',*,*,#784,.T.);
#787=ORIENTED_EDGE('',*,*,#786,.T.);
#789=ORIENTED_EDGE('',*,*,#788,.T.);
#791=ORIENTED_EDGE('',*,*,#790,.T.);
#793=ORIENTED_EDGE('',*,*,#792,.T.);
#795=ORIENTED_EDGE('',*,*,#794,.T.);
#797=ORIENTED_EDGE('',*,*,#796,.T.);
#799=ORIENTED_EDGE('',*,*,#798,.T.);
#801=ORIENTED_EDGE('',*,*,#800,.T.);
#803=ORIENTED_EDGE('',*,*,#802,.T.);
#805=ORIENTED_EDGE('',*,*,#804,.T.);
#807=ORIENTED_EDGE('',*,*,#806,.T.);
#808=EDGE_LOOP('',(#777,#779,#781,#783,#785,#787,#789,#791,#793,#795,#797,#799,
#801,#803,#805,#807));
#809=FACE_BOUND('',#808,.F.);
#810=ADVANCED_FACE('',(#763,#769,#775,#809),#741,.F.);
#811=CARTESIAN_POINT('',(-5.5E1,0.E0,-6.4E1));
#812=DIRECTION('',(-1.E0,0.E0,0.E0));
#813=DIRECTION('',(0.E0,1.E0,0.E0));
#814=AXIS2_PLACEMENT_3D('',#811,#812,#813);
#815=PLANE('',#814);
#817=ORIENTED_EDGE('',*,*,#816,.T.);
#819=ORIENTED_EDGE('',*,*,#818,.T.);
#821=ORIENTED_EDGE('',*,*,#820,.T.);
#823=ORIENTED_EDGE('',*,*,#822,.T.);
#825=ORIENTED_EDGE('',*,*,#824,.T.);
#827=ORIENTED_EDGE('',*,*,#826,.T.);
#829=ORIENTED_EDGE('',*,*,#828,.T.);
#831=ORIENTED_EDGE('',*,*,#830,.T.);
#833=ORIENTED_EDGE('',*,*,#832,.T.);
#835=ORIENTED_EDGE('',*,*,#834,.T.);
#836=EDGE_LOOP('',(#817,#819,#821,#823,#825,#827,#829,#831,#833,#835));
#837=FACE_OUTER_BOUND('',#836,.F.);
#838=ADVANCED_FACE('',(#837),#815,.F.);
#839=CARTESIAN_POINT('',(1.057368264902E3,4.232725281383E-13,-6.4E1));
#840=DIRECTION('',(-1.E0,0.E0,0.E0));
#841=DIRECTION('',(0.E0,0.E0,-1.E0));
#842=AXIS2_PLACEMENT_3D('',#839,#840,#841);
#843=CYLINDRICAL_SURFACE('',#842,4.4E1);
#845=ORIENTED_EDGE('',*,*,#844,.F.);
#847=ORIENTED_EDGE('',*,*,#846,.T.);
#848=ORIENTED_EDGE('',*,*,#742,.F.);
#850=ORIENTED_EDGE('',*,*,#849,.T.);
#851=EDGE_LOOP('',(#845,#847,#848,#850));
#852=FACE_OUTER_BOUND('',#851,.F.);
#853=ADVANCED_FACE('',(#852),#843,.F.);
#854=CARTESIAN_POINT('',(-6.3E1,-7.5E0,-6.4E1));
#855=DIRECTION('',(-1.E0,0.E0,0.E0));
#856=DIRECTION('',(0.E0,1.E0,0.E0));
#857=AXIS2_PLACEMENT_3D('',#854,#855,#856);
#858=PLANE('',#857);
#860=ORIENTED_EDGE('',*,*,#859,.T.);
#862=ORIENTED_EDGE('',*,*,#861,.T.);
#863=ORIENTED_EDGE('',*,*,#844,.T.);
#865=ORIENTED_EDGE('',*,*,#864,.T.);
#867=ORIENTED_EDGE('',*,*,#866,.T.);
#869=ORIENTED_EDGE('',*,*,#868,.T.);
#871=ORIENTED_EDGE('',*,*,#870,.T.);
#873=ORIENTED_EDGE('',*,*,#872,.T.);
#875=ORIENTED_EDGE('',*,*,#874,.T.);
#877=ORIENTED_EDGE('',*,*,#876,.T.);
#878=EDGE_LOOP('',(#860,#862,#863,#865,#867,#869,#871,#873,#875,#877));
#879=FACE_OUTER_BOUND('',#878,.F.);
#881=ORIENTED_EDGE('',*,*,#880,.T.);
#883=ORIENTED_EDGE('',*,*,#882,.T.);
#884=EDGE_LOOP('',(#881,#883));
#885=FACE_BOUND('',#884,.F.);
#887=ORIENTED_EDGE('',*,*,#886,.F.);
#889=ORIENTED_EDGE('',*,*,#888,.F.);
#890=EDGE_LOOP('',(#887,#889));
#891=FACE_BOUND('',#890,.F.);
#892=ADVANCED_FACE('',(#879,#885,#891),#858,.T.);
#893=CARTESIAN_POINT('',(1.057368264902E3,-5.524448900938E1,-6.931943926487E1));
#894=DIRECTION('',(0.E0,-9.584575252022E-2,9.953961983672E-1));
#895=DIRECTION('',(0.E0,-9.953961983672E-1,-9.584575252022E-2));
#896=AXIS2_PLACEMENT_3D('',#893,#894,#895);
#897=PLANE('',#896);
#898=ORIENTED_EDGE('',*,*,#746,.F.);
#900=ORIENTED_EDGE('',*,*,#899,.F.);
#901=ORIENTED_EDGE('',*,*,#859,.F.);
#903=ORIENTED_EDGE('',*,*,#902,.F.);
#904=EDGE_LOOP('',(#898,#900,#901,#903));
#905=FACE_OUTER_BOUND('',#904,.F.);
#906=ADVANCED_FACE('',(#905),#897,.F.);
#907=CARTESIAN_POINT('',(1.057368264902E3,-4.799621214115E1,-6.460300920555E1));
#908=DIRECTION('',(-1.E0,0.E0,0.E0));
#909=DIRECTION('',(0.E0,0.E0,-1.E0));
#910=AXIS2_PLACEMENT_3D('',#907,#908,#909);
#911=CYLINDRICAL_SURFACE('',#910,4.E0);
#912=ORIENTED_EDGE('',*,*,#744,.F.);
#913=ORIENTED_EDGE('',*,*,#846,.F.);
#914=ORIENTED_EDGE('',*,*,#861,.F.);
#915=ORIENTED_EDGE('',*,*,#899,.T.);
#916=EDGE_LOOP('',(#912,#913,#914,#915));
#917=FACE_OUTER_BOUND('',#916,.F.);
#918=ADVANCED_FACE('',(#917),#911,.T.);
#919=CARTESIAN_POINT('',(1.057368264902E3,-5.589831740609E1,-6.737314558957E1));
#920=DIRECTION('',(-1.E0,0.E0,0.E0));
#921=DIRECTION('',(0.E0,0.E0,-1.E0));
#922=AXIS2_PLACEMENT_3D('',#919,#920,#921);
#923=CYLINDRICAL_SURFACE('',#922,2.E0);
#924=ORIENTED_EDGE('',*,*,#750,.F.);
#925=ORIENTED_EDGE('',*,*,#748,.F.);
#926=ORIENTED_EDGE('',*,*,#902,.T.);
#927=ORIENTED_EDGE('',*,*,#876,.F.);
#928=ORIENTED_EDGE('',*,*,#874,.F.);
#930=ORIENTED_EDGE('',*,*,#929,.F.);
#931=EDGE_LOOP('',(#924,#925,#926,#927,#928,#930));
#932=FACE_OUTER_BOUND('',#931,.F.);
#933=ADVANCED_FACE('',(#932),#923,.T.);
#934=CARTESIAN_POINT('',(1.057368264902E3,2.463307335887E-13,-6.4E1));
#935=DIRECTION('',(-1.E0,0.E0,0.E0));
#936=DIRECTION('',(0.E0,0.E0,-1.E0));
#937=AXIS2_PLACEMENT_3D('',#934,#935,#936);
#938=CYLINDRICAL_SURFACE('',#937,5.8E1);
#939=ORIENTED_EDGE('',*,*,#752,.F.);
#940=ORIENTED_EDGE('',*,*,#929,.T.);
#941=ORIENTED_EDGE('',*,*,#872,.F.);
#943=ORIENTED_EDGE('',*,*,#942,.T.);
#944=EDGE_LOOP('',(#939,#940,#941,#943));
#945=FACE_OUTER_BOUND('',#944,.F.);
#946=ADVANCED_FACE('',(#945),#938,.T.);
#947=CARTESIAN_POINT('',(1.057368264902E3,-5.552685317257E1,-5.673580171307E1));
#948=DIRECTION('',(-1.E0,0.E0,0.E0));
#949=DIRECTION('',(0.E0,0.E0,-1.E0));
#950=AXIS2_PLACEMENT_3D('',#947,#948,#949);
#951=CYLINDRICAL_SURFACE('',#950,2.E0);
#952=ORIENTED_EDGE('',*,*,#754,.F.);
#953=ORIENTED_EDGE('',*,*,#942,.F.);
#954=ORIENTED_EDGE('',*,*,#870,.F.);
#955=ORIENTED_EDGE('',*,*,#868,.F.);
#957=ORIENTED_EDGE('',*,*,#956,.T.);
#958=ORIENTED_EDGE('',*,*,#756,.F.);
#959=EDGE_LOOP('',(#952,#953,#954,#955,#957,#958));
#960=FACE_OUTER_BOUND('',#959,.F.);
#961=ADVANCED_FACE('',(#960),#951,.T.);
#962=CARTESIAN_POINT('',(1.057368264902E3,-5.473885088532E1,-5.483985787473E1));
#963=DIRECTION('',(0.E0,1.650476058607E-1,9.862856015372E-1));
#964=DIRECTION('',(0.E0,-9.862856015372E-1,1.650476058607E-1));
#965=AXIS2_PLACEMENT_3D('',#962,#963,#964);
#966=PLANE('',#965);
#967=ORIENTED_EDGE('',*,*,#866,.F.);
#969=ORIENTED_EDGE('',*,*,#968,.F.);
#970=ORIENTED_EDGE('',*,*,#758,.F.);
#971=ORIENTED_EDGE('',*,*,#956,.F.);
#972=EDGE_LOOP('',(#967,#969,#970,#971));
#973=FACE_OUTER_BOUND('',#972,.F.);
#974=ADVANCED_FACE('',(#973),#966,.T.);
#975=CARTESIAN_POINT('',(1.057368264902E3,-4.783723198484E1,-6.005041318252E1));
#976=DIRECTION('',(-1.E0,0.E0,0.E0));
#977=DIRECTION('',(0.E0,0.E0,-1.E0));
#978=AXIS2_PLACEMENT_3D('',#975,#976,#977);
#979=CYLINDRICAL_SURFACE('',#978,4.E0);
#980=ORIENTED_EDGE('',*,*,#760,.F.);
#981=ORIENTED_EDGE('',*,*,#968,.T.);
#982=ORIENTED_EDGE('',*,*,#864,.F.);
#983=ORIENTED_EDGE('',*,*,#849,.F.);
#984=EDGE_LOOP('',(#980,#981,#982,#983));
#985=FACE_OUTER_BOUND('',#984,.F.);
#986=ADVANCED_FACE('',(#985),#979,.T.);
#987=CARTESIAN_POINT('',(-5.5E1,-5.336747016282E1,-6.213636687609E1));
#988=DIRECTION('',(-1.E0,0.E0,0.E0));
#989=DIRECTION('',(0.E0,0.E0,-1.E0));
#990=AXIS2_PLACEMENT_3D('',#987,#988,#989);
#991=CYLINDRICAL_SURFACE('',#990,2.15E0);
#993=ORIENTED_EDGE('',*,*,#992,.T.);
#995=ORIENTED_EDGE('',*,*,#994,.T.);
#997=ORIENTED_EDGE('',*,*,#996,.F.);
#998=ORIENTED_EDGE('',*,*,#880,.F.);
#999=EDGE_LOOP('',(#993,#995,#997,#998));
#1000=FACE_OUTER_BOUND('',#999,.F.);
#1001=ADVANCED_FACE('',(#1000),#991,.F.);
#1002=CARTESIAN_POINT('',(-5.5E1,-5.336747016282E1,-6.213636687609E1));
#1003=DIRECTION('',(-1.E0,0.E0,0.E0));
#1004=DIRECTION('',(0.E0,0.E0,-1.E0));
#1005=AXIS2_PLACEMENT_3D('',#1002,#1003,#1004);
#1006=CYLINDRICAL_SURFACE('',#1005,2.15E0);
#1007=ORIENTED_EDGE('',*,*,#992,.F.);
#1008=ORIENTED_EDGE('',*,*,#882,.F.);
#1009=ORIENTED_EDGE('',*,*,#996,.T.);
#1011=ORIENTED_EDGE('',*,*,#1010,.T.);
#1012=EDGE_LOOP('',(#1007,#1008,#1009,#1011));
#1013=FACE_OUTER_BOUND('',#1012,.F.);
#1014=ADVANCED_FACE('',(#1013),#1006,.F.);
#1015=CARTESIAN_POINT('',(-5.925000000038E1,-5.336747016282E1,
-6.213636687609E1));
#1016=DIRECTION('',(1.E0,0.E0,0.E0));
#1017=DIRECTION('',(0.E0,0.E0,-1.E0));
#1018=AXIS2_PLACEMENT_3D('',#1015,#1016,#1017);
#1019=CONICAL_SURFACE('',#1018,2.399999999621E0,4.5E1);
#1021=ORIENTED_EDGE('',*,*,#1020,.T.);
#1023=ORIENTED_EDGE('',*,*,#1022,.T.);
#1024=ORIENTED_EDGE('',*,*,#1010,.F.);
#1026=ORIENTED_EDGE('',*,*,#1025,.F.);
#1027=EDGE_LOOP('',(#1021,#1023,#1024,#1026));
#1028=FACE_OUTER_BOUND('',#1027,.F.);
#1029=ADVANCED_FACE('',(#1028),#1019,.F.);
#1030=CARTESIAN_POINT('',(-5.9E1,-4.924247016282E1,-6.213636687609E1));
#1031=DIRECTION('',(1.E0,0.E0,0.E0));
#1032=DIRECTION('',(0.E0,0.E0,1.E0));
#1033=AXIS2_PLACEMENT_3D('',#1030,#1031,#1032);
#1034=PLANE('',#1033);
#1036=ORIENTED_EDGE('',*,*,#1035,.T.);
#1038=ORIENTED_EDGE('',*,*,#1037,.T.);
#1039=EDGE_LOOP('',(#1036,#1038));
#1040=FACE_OUTER_BOUND('',#1039,.F.);
#1041=ORIENTED_EDGE('',*,*,#1020,.F.);
#1043=ORIENTED_EDGE('',*,*,#1042,.F.);
#1044=EDGE_LOOP('',(#1041,#1043));
#1045=FACE_BOUND('',#1044,.F.);
#1046=ADVANCED_FACE('',(#1040,#1045),#1034,.T.);
#1047=CARTESIAN_POINT('',(-5.5E1,-5.336747016282E1,-6.213636687609E1));
#1048=DIRECTION('',(-1.E0,0.E0,0.E0));
#1049=DIRECTION('',(0.E0,0.E0,-1.E0));
#1050=AXIS2_PLACEMENT_3D('',#1047,#1048,#1049);
#1051=CYLINDRICAL_SURFACE('',#1050,4.125E0);
#1052=ORIENTED_EDGE('',*,*,#1035,.F.);
#1054=ORIENTED_EDGE('',*,*,#1053,.T.);
#1055=ORIENTED_EDGE('',*,*,#766,.F.);
#1057=ORIENTED_EDGE('',*,*,#1056,.F.);
#1058=EDGE_LOOP('',(#1052,#1054,#1055,#1057));
#1059=FACE_OUTER_BOUND('',#1058,.F.);
#1060=ADVANCED_FACE('',(#1059),#1051,.F.);
#1061=CARTESIAN_POINT('',(-5.5E1,-5.336747016282E1,-6.213636687609E1));
#1062=DIRECTION('',(-1.E0,0.E0,0.E0));
#1063=DIRECTION('',(0.E0,0.E0,-1.E0));
#1064=AXIS2_PLACEMENT_3D('',#1061,#1062,#1063);
#1065=CYLINDRICAL_SURFACE('',#1064,4.125E0);
#1066=ORIENTED_EDGE('',*,*,#1037,.F.);
#1067=ORIENTED_EDGE('',*,*,#1056,.T.);
#1068=ORIENTED_EDGE('',*,*,#764,.F.);
#1069=ORIENTED_EDGE('',*,*,#1053,.F.);
#1070=EDGE_LOOP('',(#1066,#1067,#1068,#1069));
#1071=FACE_OUTER_BOUND('',#1070,.F.);
#1072=ADVANCED_FACE('',(#1071),#1065,.F.);
#1073=CARTESIAN_POINT('',(-5.925000000038E1,-5.336747016282E1,
-6.213636687609E1));
#1074=DIRECTION('',(1.E0,0.E0,0.E0));
#1075=DIRECTION('',(0.E0,0.E0,-1.E0));
#1076=AXIS2_PLACEMENT_3D('',#1073,#1074,#1075);
#1077=CONICAL_SURFACE('',#1076,2.399999999621E0,4.5E1);
#1078=ORIENTED_EDGE('',*,*,#1042,.T.);
#1079=ORIENTED_EDGE('',*,*,#1025,.T.);
#1080=ORIENTED_EDGE('',*,*,#994,.F.);
#1081=ORIENTED_EDGE('',*,*,#1022,.F.);
#1082=EDGE_LOOP('',(#1078,#1079,#1080,#1081));
#1083=FACE_OUTER_BOUND('',#1082,.F.);
#1084=ADVANCED_FACE('',(#1083),#1077,.F.);
#1085=CARTESIAN_POINT('',(-6.274999999951E1,-4.687142978720E1,
-6.236321360465E1));
#1086=DIRECTION('',(-1.E0,0.E0,0.E0));
#1087=DIRECTION('',(0.E0,0.E0,-1.E0));
#1088=AXIS2_PLACEMENT_3D('',#1085,#1086,#1087);
#1089=CONICAL_SURFACE('',#1088,1.749999999507E0,4.5E1);
#1090=ORIENTED_EDGE('',*,*,#886,.T.);
#1092=ORIENTED_EDGE('',*,*,#1091,.T.);
#1094=ORIENTED_EDGE('',*,*,#1093,.F.);
#1096=ORIENTED_EDGE('',*,*,#1095,.F.);
#1097=EDGE_LOOP('',(#1090,#1092,#1094,#1096));
#1098=FACE_OUTER_BOUND('',#1097,.F.);
#1099=ADVANCED_FACE('',(#1098),#1089,.F.);
#1100=CARTESIAN_POINT('',(-6.274999999951E1,-4.687142978720E1,
-6.236321360465E1));
#1101=DIRECTION('',(-1.E0,0.E0,0.E0));
#1102=DIRECTION('',(0.E0,0.E0,-1.E0));
#1103=AXIS2_PLACEMENT_3D('',#1100,#1101,#1102);
#1104=CONICAL_SURFACE('',#1103,1.749999999507E0,4.5E1);
#1105=ORIENTED_EDGE('',*,*,#888,.T.);
#1106=ORIENTED_EDGE('',*,*,#1095,.T.);
#1108=ORIENTED_EDGE('',*,*,#1107,.F.);
#1109=ORIENTED_EDGE('',*,*,#1091,.F.);
#1110=EDGE_LOOP('',(#1105,#1106,#1108,#1109));
#1111=FACE_OUTER_BOUND('',#1110,.F.);
#1112=ADVANCED_FACE('',(#1111),#1104,.F.);
#1113=CARTESIAN_POINT('',(-5.5E1,-4.687142978720E1,-6.236321360465E1));
#1114=DIRECTION('',(-1.E0,0.E0,0.E0));
#1115=DIRECTION('',(0.E0,0.E0,-1.E0));
#1116=AXIS2_PLACEMENT_3D('',#1113,#1114,#1115);
#1117=CYLINDRICAL_SURFACE('',#1116,1.5E0);
#1118=ORIENTED_EDGE('',*,*,#1107,.T.);
#1120=ORIENTED_EDGE('',*,*,#1119,.T.);
#1121=ORIENTED_EDGE('',*,*,#772,.F.);
#1123=ORIENTED_EDGE('',*,*,#1122,.F.);
#1124=EDGE_LOOP('',(#1118,#1120,#1121,#1123));
#1125=FACE_OUTER_BOUND('',#1124,.F.);
#1126=ADVANCED_FACE('',(#1125),#1117,.F.);
#1127=CARTESIAN_POINT('',(-5.5E1,-4.687142978720E1,-6.236321360465E1));
#1128=DIRECTION('',(-1.E0,0.E0,0.E0));
#1129=DIRECTION('',(0.E0,0.E0,-1.E0));
#1130=AXIS2_PLACEMENT_3D('',#1127,#1128,#1129);
#1131=CYLINDRICAL_SURFACE('',#1130,1.5E0);
#1132=ORIENTED_EDGE('',*,*,#1093,.T.);
#1133=ORIENTED_EDGE('',*,*,#1122,.T.);
#1134=ORIENTED_EDGE('',*,*,#770,.F.);
#1135=ORIENTED_EDGE('',*,*,#1119,.F.);
#1136=EDGE_LOOP('',(#1132,#1133,#1134,#1135));
#1137=FACE_OUTER_BOUND('',#1136,.F.);
#1138=ADVANCED_FACE('',(#1137),#1131,.F.);
#1139=CARTESIAN_POINT('',(-5.5E1,-4.858970106309E1,-5.879584473319E1));
#1140=DIRECTION('',(0.E0,0.E0,-1.E0));
#1141=DIRECTION('',(0.E0,1.E0,0.E0));
#1142=AXIS2_PLACEMENT_3D('',#1139,#1140,#1141);
#1143=PLANE('',#1142);
#1144=ORIENTED_EDGE('',*,*,#776,.F.);
#1146=ORIENTED_EDGE('',*,*,#1145,.T.);
#1148=ORIENTED_EDGE('',*,*,#1147,.T.);
#1150=ORIENTED_EDGE('',*,*,#1149,.F.);
#1151=EDGE_LOOP('',(#1144,#1146,#1148,#1150));
#1152=FACE_OUTER_BOUND('',#1151,.F.);
#1153=ADVANCED_FACE('',(#1152),#1143,.F.);
#1154=CARTESIAN_POINT('',(-5.5E1,-4.858970106309E1,-6.035967454262E1));
#1155=DIRECTION('',(0.E0,1.E0,0.E0));
#1156=DIRECTION('',(0.E0,0.E0,1.E0));
#1157=AXIS2_PLACEMENT_3D('',#1154,#1155,#1156);
#1158=PLANE('',#1157);
#1159=ORIENTED_EDGE('',*,*,#806,.F.);
#1161=ORIENTED_EDGE('',*,*,#1160,.T.);
#1163=ORIENTED_EDGE('',*,*,#1162,.T.);
#1164=ORIENTED_EDGE('',*,*,#1145,.F.);
#1165=EDGE_LOOP('',(#1159,#1161,#1163,#1164));
#1166=FACE_OUTER_BOUND('',#1165,.F.);
#1167=ADVANCED_FACE('',(#1166),#1158,.F.);
#1168=CARTESIAN_POINT('',(-5.5E1,-4.902720106309E1,-6.035967454262E1));
#1169=DIRECTION('',(0.E0,0.E0,-1.E0));
#1170=DIRECTION('',(0.E0,1.E0,0.E0));
#1171=AXIS2_PLACEMENT_3D('',#1168,#1169,#1170);
#1172=PLANE('',#1171);
#1173=ORIENTED_EDGE('',*,*,#804,.F.);
#1175=ORIENTED_EDGE('',*,*,#1174,.T.);
#1177=ORIENTED_EDGE('',*,*,#1176,.T.);
#1178=ORIENTED_EDGE('',*,*,#1160,.F.);
#1179=EDGE_LOOP('',(#1173,#1175,#1177,#1178));
#1180=FACE_OUTER_BOUND('',#1179,.F.);
#1181=ADVANCED_FACE('',(#1180),#1172,.F.);
#1182=CARTESIAN_POINT('',(-5.5E1,-4.902720106309E1,-5.685967454262E1));
#1183=DIRECTION('',(0.E0,-1.E0,0.E0));
#1184=DIRECTION('',(0.E0,0.E0,-1.E0));
#1185=AXIS2_PLACEMENT_3D('',#1182,#1183,#1184);
#1186=PLANE('',#1185);
#1187=ORIENTED_EDGE('',*,*,#802,.F.);
#1189=ORIENTED_EDGE('',*,*,#1188,.T.);
#1191=ORIENTED_EDGE('',*,*,#1190,.T.);
#1192=ORIENTED_EDGE('',*,*,#1174,.F.);
#1193=EDGE_LOOP('',(#1187,#1189,#1191,#1192));
#1194=FACE_OUTER_BOUND('',#1193,.F.);
#1195=ADVANCED_FACE('',(#1194),#1186,.F.);
#1196=CARTESIAN_POINT('',(-5.5E1,-4.727720106309E1,-5.685967454262E1));
#1197=DIRECTION('',(0.E0,0.E0,1.E0));
#1198=DIRECTION('',(0.E0,-1.E0,0.E0));
#1199=AXIS2_PLACEMENT_3D('',#1196,#1197,#1198);
#1200=PLANE('',#1199);
#1201=ORIENTED_EDGE('',*,*,#800,.F.);
#1203=ORIENTED_EDGE('',*,*,#1202,.T.);
#1205=ORIENTED_EDGE('',*,*,#1204,.T.);
#1206=ORIENTED_EDGE('',*,*,#1188,.F.);
#1207=EDGE_LOOP('',(#1201,#1203,#1205,#1206));
#1208=FACE_OUTER_BOUND('',#1207,.F.);
#1209=ADVANCED_FACE('',(#1208),#1200,.F.);
#1210=CARTESIAN_POINT('',(-5.5E1,-4.691261766021E1,-5.693414261885E1));
#1211=DIRECTION('',(0.E0,2.001233184181E-1,9.797707167625E-1));
#1212=DIRECTION('',(0.E0,-9.797707167625E-1,2.001233184181E-1));
#1213=AXIS2_PLACEMENT_3D('',#1210,#1211,#1212);
#1214=PLANE('',#1213);
#1215=ORIENTED_EDGE('',*,*,#798,.F.);
#1217=ORIENTED_EDGE('',*,*,#1216,.T.);
#1219=ORIENTED_EDGE('',*,*,#1218,.T.);
#1220=ORIENTED_EDGE('',*,*,#1202,.F.);
#1221=EDGE_LOOP('',(#1215,#1217,#1219,#1220));
#1222=FACE_OUTER_BOUND('',#1221,.F.);
#1223=ADVANCED_FACE('',(#1222),#1214,.F.);
#1224=CARTESIAN_POINT('',(-5.5E1,-4.662095106309E1,-5.715754684754E1));
#1225=DIRECTION('',(0.E0,6.080769234738E-1,7.938781110087E-1));
#1226=DIRECTION('',(0.E0,-7.938781110087E-1,6.080769234738E-1));
#1227=AXIS2_PLACEMENT_3D('',#1224,#1225,#1226);
#1228=PLANE('',#1227);
#1229=ORIENTED_EDGE('',*,*,#796,.F.);
#1231=ORIENTED_EDGE('',*,*,#1230,.T.);
#1233=ORIENTED_EDGE('',*,*,#1232,.T.);
#1234=ORIENTED_EDGE('',*,*,#1216,.F.);
#1235=EDGE_LOOP('',(#1229,#1231,#1233,#1234));
#1236=FACE_OUTER_BOUND('',#1235,.F.);
#1237=ADVANCED_FACE('',(#1236),#1228,.F.);
#1238=CARTESIAN_POINT('',(-5.5E1,-4.640220106309E1,-5.745541915245E1));
#1239=DIRECTION('',(0.E0,8.060043958311E-1,5.919095487496E-1));
#1240=DIRECTION('',(0.E0,-5.919095487496E-1,8.060043958311E-1));
#1241=AXIS2_PLACEMENT_3D('',#1238,#1239,#1240);
#1242=PLANE('',#1241);
#1243=ORIENTED_EDGE('',*,*,#794,.F.);
#1245=ORIENTED_EDGE('',*,*,#1244,.T.);
#1247=ORIENTED_EDGE('',*,*,#1246,.T.);
#1248=ORIENTED_EDGE('',*,*,#1230,.F.);
#1249=EDGE_LOOP('',(#1243,#1245,#1247,#1248));
#1250=FACE_OUTER_BOUND('',#1249,.F.);
#1251=ADVANCED_FACE('',(#1250),#1242,.F.);
#1252=CARTESIAN_POINT('',(-5.5E1,-4.632928446596E1,-5.767882338114E1));
#1253=DIRECTION('',(0.E0,9.506452793929E-1,3.102797975506E-1));
#1254=DIRECTION('',(0.E0,-3.102797975506E-1,9.506452793929E-1));
#1255=AXIS2_PLACEMENT_3D('',#1252,#1253,#1254);
#1256=PLANE('',#1255);
#1257=ORIENTED_EDGE('',*,*,#792,.F.);
#1259=ORIENTED_EDGE('',*,*,#1258,.T.);
#1261=ORIENTED_EDGE('',*,*,#1260,.T.);
#1262=ORIENTED_EDGE('',*,*,#1244,.F.);
#1263=EDGE_LOOP('',(#1257,#1259,#1261,#1262));
#1264=FACE_OUTER_BOUND('',#1263,.F.);
#1265=ADVANCED_FACE('',(#1264),#1256,.F.);
#1266=CARTESIAN_POINT('',(-5.5E1,-4.632928446596E1,-5.797669589467E1));
#1267=DIRECTION('',(0.E0,1.E0,0.E0));
#1268=DIRECTION('',(0.E0,0.E0,1.E0));
#1269=AXIS2_PLACEMENT_3D('',#1266,#1267,#1268);
#1270=PLANE('',#1269);
#1271=ORIENTED_EDGE('',*,*,#790,.F.);
#1273=ORIENTED_EDGE('',*,*,#1272,.T.);
#1275=ORIENTED_EDGE('',*,*,#1274,.T.);
#1276=ORIENTED_EDGE('',*,*,#1258,.F.);
#1277=EDGE_LOOP('',(#1271,#1273,#1275,#1276));
#1278=FACE_OUTER_BOUND('',#1277,.F.);
#1279=ADVANCED_FACE('',(#1278),#1270,.F.);
#1280=CARTESIAN_POINT('',(-5.5E1,-4.640220106309E1,-5.820010012336E1));
#1281=DIRECTION('',(0.E0,9.506452793929E-1,-3.102797975506E-1));
#1282=DIRECTION('',(0.E0,3.102797975506E-1,9.506452793929E-1));
#1283=AXIS2_PLACEMENT_3D('',#1280,#1281,#1282);
#1284=PLANE('',#1283);
#1285=ORIENTED_EDGE('',*,*,#788,.F.);
#1287=ORIENTED_EDGE('',*,*,#1286,.T.);
#1289=ORIENTED_EDGE('',*,*,#1288,.T.);
#1290=ORIENTED_EDGE('',*,*,#1272,.F.);
#1291=EDGE_LOOP('',(#1285,#1287,#1289,#1290));
#1292=FACE_OUTER_BOUND('',#1291,.F.);
#1293=ADVANCED_FACE('',(#1292),#1284,.F.);
#1294=CARTESIAN_POINT('',(-5.5E1,-4.662095106309E1,-5.849797242828E1));
#1295=DIRECTION('',(0.E0,8.060043958311E-1,-5.919095487496E-1));
#1296=DIRECTION('',(0.E0,5.919095487496E-1,8.060043958311E-1));
#1297=AXIS2_PLACEMENT_3D('',#1294,#1295,#1296);
#1298=PLANE('',#1297);
#1299=ORIENTED_EDGE('',*,*,#786,.F.);
#1301=ORIENTED_EDGE('',*,*,#1300,.T.);
#1303=ORIENTED_EDGE('',*,*,#1302,.T.);
#1304=ORIENTED_EDGE('',*,*,#1286,.F.);
#1305=EDGE_LOOP('',(#1299,#1301,#1303,#1304));
#1306=FACE_OUTER_BOUND('',#1305,.F.);
#1307=ADVANCED_FACE('',(#1306),#1298,.F.);
#1308=CARTESIAN_POINT('',(-5.5E1,-4.691261766021E1,-5.864690858074E1));
#1309=DIRECTION('',(0.E0,4.547771995497E-1,-8.906052429498E-1));
#1310=DIRECTION('',(0.E0,8.906052429498E-1,4.547771995497E-1));
#1311=AXIS2_PLACEMENT_3D('',#1308,#1309,#1310);
#1312=PLANE('',#1311);
#1313=ORIENTED_EDGE('',*,*,#784,.F.);
#1315=ORIENTED_EDGE('',*,*,#1314,.T.);
#1317=ORIENTED_EDGE('',*,*,#1316,.T.);
#1318=ORIENTED_EDGE('',*,*,#1300,.F.);
#1319=EDGE_LOOP('',(#1313,#1315,#1317,#1318));
#1320=FACE_OUTER_BOUND('',#1319,.F.);
#1321=ADVANCED_FACE('',(#1320),#1312,.F.);
#1322=CARTESIAN_POINT('',(-5.5E1,-4.625636766021E1,-6.035967454262E1));
#1323=DIRECTION('',(0.E0,9.338026452366E-1,3.577885126009E-1));
#1324=DIRECTION('',(0.E0,-3.577885126009E-1,9.338026452366E-1));
#1325=AXIS2_PLACEMENT_3D('',#1322,#1323,#1324);
#1326=PLANE('',#1325);
#1327=ORIENTED_EDGE('',*,*,#782,.F.);
#1329=ORIENTED_EDGE('',*,*,#1328,.T.);
#1331=ORIENTED_EDGE('',*,*,#1330,.T.);
#1332=ORIENTED_EDGE('',*,*,#1314,.F.);
#1333=EDGE_LOOP('',(#1327,#1329,#1331,#1332));
#1334=FACE_OUTER_BOUND('',#1333,.F.);
#1335=ADVANCED_FACE('',(#1334),#1326,.F.);
#1336=CARTESIAN_POINT('',(-5.5E1,-4.676678446596E1,-6.035967454262E1));
#1337=DIRECTION('',(0.E0,0.E0,-1.E0));
#1338=DIRECTION('',(0.E0,1.E0,0.E0));
#1339=AXIS2_PLACEMENT_3D('',#1336,#1337,#1338);
#1340=PLANE('',#1339);
#1341=ORIENTED_EDGE('',*,*,#780,.F.);
#1343=ORIENTED_EDGE('',*,*,#1342,.T.);
#1345=ORIENTED_EDGE('',*,*,#1344,.T.);
#1346=ORIENTED_EDGE('',*,*,#1328,.F.);
#1347=EDGE_LOOP('',(#1341,#1343,#1345,#1346));
#1348=FACE_OUTER_BOUND('',#1347,.F.);
#1349=ADVANCED_FACE('',(#1348),#1340,.F.);
#1350=CARTESIAN_POINT('',(-5.5E1,-4.735011776452E1,-5.879584473319E1));
#1351=DIRECTION('',(0.E0,-9.369389475526E-1,-3.494930736926E-1));
#1352=DIRECTION('',(0.E0,3.494930736926E-1,-9.369389475526E-1));
#1353=AXIS2_PLACEMENT_3D('',#1350,#1351,#1352);
#1354=PLANE('',#1353);
#1355=ORIENTED_EDGE('',*,*,#778,.F.);
#1356=ORIENTED_EDGE('',*,*,#1149,.T.);
#1358=ORIENTED_EDGE('',*,*,#1357,.T.);
#1359=ORIENTED_EDGE('',*,*,#1342,.F.);
#1360=EDGE_LOOP('',(#1355,#1356,#1358,#1359));
#1361=FACE_OUTER_BOUND('',#1360,.F.);
#1362=ADVANCED_FACE('',(#1361),#1354,.F.);
#1363=CARTESIAN_POINT('',(-5.51E1,0.E0,0.E0));
#1364=DIRECTION('',(1.E0,0.E0,0.E0));
#1365=DIRECTION('',(0.E0,1.E0,0.E0));
#1366=AXIS2_PLACEMENT_3D('',#1363,#1364,#1365);
#1367=PLANE('',#1366);
#1368=ORIENTED_EDGE('',*,*,#1147,.F.);
#1369=ORIENTED_EDGE('',*,*,#1162,.F.);
#1370=ORIENTED_EDGE('',*,*,#1176,.F.);
#1371=ORIENTED_EDGE('',*,*,#1190,.F.);
#1372=ORIENTED_EDGE('',*,*,#1204,.F.);
#1373=ORIENTED_EDGE('',*,*,#1218,.F.);
#1374=ORIENTED_EDGE('',*,*,#1232,.F.);
#1375=ORIENTED_EDGE('',*,*,#1246,.F.);
#1376=ORIENTED_EDGE('',*,*,#1260,.F.);
#1377=ORIENTED_EDGE('',*,*,#1274,.F.);
#1378=ORIENTED_EDGE('',*,*,#1288,.F.);
#1379=ORIENTED_EDGE('',*,*,#1302,.F.);
#1380=ORIENTED_EDGE('',*,*,#1316,.F.);
#1381=ORIENTED_EDGE('',*,*,#1330,.F.);
#1382=ORIENTED_EDGE('',*,*,#1344,.F.);
#1383=ORIENTED_EDGE('',*,*,#1357,.F.);
#1384=EDGE_LOOP('',(#1368,#1369,#1370,#1371,#1372,#1373,#1374,#1375,#1376,#1377,
#1378,#1379,#1380,#1381,#1382,#1383));
#1385=FACE_OUTER_BOUND('',#1384,.F.);
#1387=ORIENTED_EDGE('',*,*,#1386,.F.);
#1389=ORIENTED_EDGE('',*,*,#1388,.F.);
#1391=ORIENTED_EDGE('',*,*,#1390,.F.);
#1393=ORIENTED_EDGE('',*,*,#1392,.F.);
#1395=ORIENTED_EDGE('',*,*,#1394,.F.);
#1397=ORIENTED_EDGE('',*,*,#1396,.F.);
#1399=ORIENTED_EDGE('',*,*,#1398,.F.);
#1401=ORIENTED_EDGE('',*,*,#1400,.F.);
#1403=ORIENTED_EDGE('',*,*,#1402,.F.);
#1405=ORIENTED_EDGE('',*,*,#1404,.F.);
#1406=EDGE_LOOP('',(#1387,#1389,#1391,#1393,#1395,#1397,#1399,#1401,#1403,
#1405));
#1407=FACE_BOUND('',#1406,.F.);
#1408=ADVANCED_FACE('',(#1385,#1407),#1367,.T.);
#1409=CARTESIAN_POINT('',(-5.5E1,-4.720428446596E1,-5.834903627582E1));
#1410=DIRECTION('',(0.E0,0.E0,1.E0));
#1411=DIRECTION('',(0.E0,-1.E0,0.E0));
#1412=AXIS2_PLACEMENT_3D('',#1409,#1410,#1411);
#1413=PLANE('',#1412);
#1414=ORIENTED_EDGE('',*,*,#816,.F.);
#1416=ORIENTED_EDGE('',*,*,#1415,.T.);
#1417=ORIENTED_EDGE('',*,*,#1386,.T.);
#1419=ORIENTED_EDGE('',*,*,#1418,.F.);
#1420=EDGE_LOOP('',(#1414,#1416,#1417,#1419));
#1421=FACE_OUTER_BOUND('',#1420,.F.);
#1422=ADVANCED_FACE('',(#1421),#1413,.F.);
#1423=CARTESIAN_POINT('',(-5.5E1,-4.698553446596E1,-5.827456819959E1));
#1424=DIRECTION('',(0.E0,-3.222637633772E-1,9.466499177700E-1));
#1425=DIRECTION('',(0.E0,-9.466499177700E-1,-3.222637633772E-1));
#1426=AXIS2_PLACEMENT_3D('',#1423,#1424,#1425);
#1427=PLANE('',#1426);
#1428=ORIENTED_EDGE('',*,*,#834,.F.);
#1430=ORIENTED_EDGE('',*,*,#1429,.T.);
#1431=ORIENTED_EDGE('',*,*,#1388,.T.);
#1432=ORIENTED_EDGE('',*,*,#1415,.F.);
#1433=EDGE_LOOP('',(#1428,#1430,#1431,#1432));
#1434=FACE_OUTER_BOUND('',#1433,.F.);
#1435=ADVANCED_FACE('',(#1434),#1427,.F.);
#1436=CARTESIAN_POINT('',(-5.5E1,-4.683970106309E1,-5.812563204713E1));
#1437=DIRECTION('',(0.E0,-7.145102180353E-1,6.996250055017E-1));
#1438=DIRECTION('',(0.E0,-6.996250055017E-1,-7.145102180353E-1));
#1439=AXIS2_PLACEMENT_3D('',#1436,#1437,#1438);
#1440=PLANE('',#1439);
#1441=ORIENTED_EDGE('',*,*,#832,.F.);
#1443=ORIENTED_EDGE('',*,*,#1442,.T.);
#1444=ORIENTED_EDGE('',*,*,#1390,.T.);
#1445=ORIENTED_EDGE('',*,*,#1429,.F.);
#1446=EDGE_LOOP('',(#1441,#1443,#1444,#1445));
#1447=FACE_OUTER_BOUND('',#1446,.F.);
#1448=ADVANCED_FACE('',(#1447),#1440,.F.);
#1449=CARTESIAN_POINT('',(-5.5E1,-4.676678446596E1,-5.790222781844E1));
#1450=DIRECTION('',(0.E0,-9.506452793929E-1,3.102797975506E-1));
#1451=DIRECTION('',(0.E0,-3.102797975506E-1,-9.506452793929E-1));
#1452=AXIS2_PLACEMENT_3D('',#1449,#1450,#1451);
#1453=PLANE('',#1452);
#1454=ORIENTED_EDGE('',*,*,#830,.F.);
#1456=ORIENTED_EDGE('',*,*,#1455,.T.);
#1457=ORIENTED_EDGE('',*,*,#1392,.T.);
#1458=ORIENTED_EDGE('',*,*,#1442,.F.);
#1459=EDGE_LOOP('',(#1454,#1456,#1457,#1458));
#1460=FACE_OUTER_BOUND('',#1459,.F.);
#1461=ADVANCED_FACE('',(#1460),#1453,.F.);
#1462=CARTESIAN_POINT('',(-5.5E1,-4.676678446596E1,-5.767882338114E1));
#1463=DIRECTION('',(0.E0,-1.E0,0.E0));
#1464=DIRECTION('',(0.E0,0.E0,-1.E0));
#1465=AXIS2_PLACEMENT_3D('',#1462,#1463,#1464);
#1466=PLANE('',#1465);
#1467=ORIENTED_EDGE('',*,*,#828,.F.);
#1469=ORIENTED_EDGE('',*,*,#1468,.T.);
#1470=ORIENTED_EDGE('',*,*,#1394,.T.);
#1471=ORIENTED_EDGE('',*,*,#1455,.F.);
#1472=EDGE_LOOP('',(#1467,#1469,#1470,#1471));
#1473=FACE_OUTER_BOUND('',#1472,.F.);
#1474=ADVANCED_FACE('',(#1473),#1466,.F.);
#1475=CARTESIAN_POINT('',(-5.5E1,-4.683970106309E1,-5.745541915245E1));
#1476=DIRECTION('',(0.E0,-9.506452793929E-1,-3.102797975506E-1));
#1477=DIRECTION('',(0.E0,3.102797975506E-1,-9.506452793929E-1));
#1478=AXIS2_PLACEMENT_3D('',#1475,#1476,#1477);
#1479=PLANE('',#1478);
#1480=ORIENTED_EDGE('',*,*,#826,.F.);
#1482=ORIENTED_EDGE('',*,*,#1481,.T.);
#1483=ORIENTED_EDGE('',*,*,#1396,.T.);
#1484=ORIENTED_EDGE('',*,*,#1468,.F.);
#1485=EDGE_LOOP('',(#1480,#1482,#1483,#1484));
#1486=FACE_OUTER_BOUND('',#1485,.F.);
#1487=ADVANCED_FACE('',(#1486),#1479,.F.);
#1488=CARTESIAN_POINT('',(-5.5E1,-4.698553446596E1,-5.7306483E1));
#1489=DIRECTION('',(0.E0,-7.145102180353E-1,-6.996250055017E-1));
#1490=DIRECTION('',(0.E0,6.996250055017E-1,-7.145102180353E-1));
#1491=AXIS2_PLACEMENT_3D('',#1488,#1489,#1490);
#1492=PLANE('',#1491);
#1493=ORIENTED_EDGE('',*,*,#824,.F.);
#1495=ORIENTED_EDGE('',*,*,#1494,.T.);
#1496=ORIENTED_EDGE('',*,*,#1398,.T.);
#1497=ORIENTED_EDGE('',*,*,#1481,.F.);
#1498=EDGE_LOOP('',(#1493,#1495,#1496,#1497));
#1499=FACE_OUTER_BOUND('',#1498,.F.);
#1500=ADVANCED_FACE('',(#1499),#1492,.F.);
#1501=CARTESIAN_POINT('',(-5.5E1,-4.720428446596E1,-5.723201492377E1));
#1502=DIRECTION('',(0.E0,-3.222637633772E-1,-9.466499177700E-1));
#1503=DIRECTION('',(0.E0,9.466499177700E-1,-3.222637633772E-1));
#1504=AXIS2_PLACEMENT_3D('',#1501,#1502,#1503);
#1505=PLANE('',#1504);
#1506=ORIENTED_EDGE('',*,*,#822,.F.);
#1508=ORIENTED_EDGE('',*,*,#1507,.T.);
#1509=ORIENTED_EDGE('',*,*,#1400,.T.);
#1510=ORIENTED_EDGE('',*,*,#1494,.F.);
#1511=EDGE_LOOP('',(#1506,#1508,#1509,#1510));
#1512=FACE_OUTER_BOUND('',#1511,.F.);
#1513=ADVANCED_FACE('',(#1512),#1505,.F.);
#1514=CARTESIAN_POINT('',(-5.5E1,-4.858970106309E1,-5.723201492377E1));
#1515=DIRECTION('',(0.E0,0.E0,-1.E0));
#1516=DIRECTION('',(0.E0,1.E0,0.E0));
#1517=AXIS2_PLACEMENT_3D('',#1514,#1515,#1516);
#1518=PLANE('',#1517);
#1519=ORIENTED_EDGE('',*,*,#820,.F.);
#1521=ORIENTED_EDGE('',*,*,#1520,.T.);
#1522=ORIENTED_EDGE('',*,*,#1402,.T.);
#1523=ORIENTED_EDGE('',*,*,#1507,.F.);
#1524=EDGE_LOOP('',(#1519,#1521,#1522,#1523));
#1525=FACE_OUTER_BOUND('',#1524,.F.);
#1526=ADVANCED_FACE('',(#1525),#1518,.F.);
#1527=CARTESIAN_POINT('',(-5.5E1,-4.858970106309E1,-5.834903627582E1));
#1528=DIRECTION('',(0.E0,1.E0,0.E0));
#1529=DIRECTION('',(0.E0,0.E0,1.E0));
#1530=AXIS2_PLACEMENT_3D('',#1527,#1528,#1529);
#1531=PLANE('',#1530);
#1532=ORIENTED_EDGE('',*,*,#818,.F.);
#1533=ORIENTED_EDGE('',*,*,#1418,.T.);
#1534=ORIENTED_EDGE('',*,*,#1404,.T.);
#1535=ORIENTED_EDGE('',*,*,#1520,.F.);
#1536=EDGE_LOOP('',(#1532,#1533,#1534,#1535));
#1537=FACE_OUTER_BOUND('',#1536,.F.);
#1538=ADVANCED_FACE('',(#1537),#1531,.F.);
#1542=DIMENSIONAL_EXPONENTS(0.E0,0.E0,0.E0,0.E0,0.E0,0.E0,0.E0);
#1544=PLANE_ANGLE_MEASURE_WITH_UNIT(PLANE_ANGLE_MEASURE(1.745329251994E-2),
#1543);
#1545=(CONVERSION_BASED_UNIT('DEGREE',#1544)NAMED_UNIT(*)PLANE_ANGLE_UNIT());
#1547=UNCERTAINTY_MEASURE_WITH_UNIT(LENGTH_MEASURE(2.188401763948E-3),#1541,
'closure',
'Maximum model space distance between geometric entities at asserted connectivities');
#1548=(GEOMETRIC_REPRESENTATION_CONTEXT(3)GLOBAL_UNCERTAINTY_ASSIGNED_CONTEXT((
#1547))GLOBAL_UNIT_ASSIGNED_CONTEXT((#1541,#1545,#1546))REPRESENTATION_CONTEXT(
'ID1','3'));
#1550=APPLICATION_CONTEXT(
'CONFIGURATION CONTROLLED 3D DESIGNS OF MECHANICAL PARTS AND ASSEMBLIES');
#1551=APPLICATION_PROTOCOL_DEFINITION('international standard',
'config_control_design',1994,#1550);
#1552=DESIGN_CONTEXT('',#1550,'design');
#1553=MECHANICAL_CONTEXT('',#1550,'mechanical');
#1554=PRODUCT('KD-D-105R_1','KD-D-105R_1','NOT SPECIFIED',(#1553));
#1555=PRODUCT_DEFINITION_FORMATION_WITH_SPECIFIED_SOURCE('2','LAST_VERSION',
#1554,.MADE.);
#1559=PRODUCT_CATEGORY('part','');
#1560=PRODUCT_RELATED_PRODUCT_CATEGORY('detail','',(#1554));
#1561=PRODUCT_CATEGORY_RELATIONSHIP('','',#1559,#1560);
#1562=SECURITY_CLASSIFICATION_LEVEL('unclassified');
#1563=SECURITY_CLASSIFICATION('','',#1562);
#1564=CC_DESIGN_SECURITY_CLASSIFICATION(#1563,(#1555));
#1565=APPROVAL_STATUS('approved');
#1566=APPROVAL(#1565,'');
#1567=CC_DESIGN_APPROVAL(#1566,(#1563,#1555,#1556));
#1568=CALENDAR_DATE(125,13,7);
#1569=COORDINATED_UNIVERSAL_TIME_OFFSET(8,0,.AHEAD.);
#1570=LOCAL_TIME(9,56,5.8E1,#1569);
#1571=DATE_AND_TIME(#1568,#1570);
#1572=APPROVAL_DATE_TIME(#1571,#1566);
#1573=DATE_TIME_ROLE('creation_date');
#1574=CC_DESIGN_DATE_AND_TIME_ASSIGNMENT(#1571,#1573,(#1556));
#1575=DATE_TIME_ROLE('classification_date');
#1576=CC_DESIGN_DATE_AND_TIME_ASSIGNMENT(#1571,#1575,(#1563));
#1577=PERSON('UNSPECIFIED','UNSPECIFIED',$,$,$,$);
#1578=ORGANIZATION('UNSPECIFIED','UNSPECIFIED','UNSPECIFIED');
#1579=PERSON_AND_ORGANIZATION(#1577,#1578);
#1580=APPROVAL_ROLE('approver');
#1581=APPROVAL_PERSON_ORGANIZATION(#1579,#1566,#1580);
#1582=PERSON_AND_ORGANIZATION_ROLE('creator');
#1583=CC_DESIGN_PERSON_AND_ORGANIZATION_ASSIGNMENT(#1579,#1582,(#1555,#1556));
#1584=PERSON_AND_ORGANIZATION_ROLE('design_supplier');
#1585=CC_DESIGN_PERSON_AND_ORGANIZATION_ASSIGNMENT(#1579,#1584,(#1555));
#1586=PERSON_AND_ORGANIZATION_ROLE('classification_officer');
#1587=CC_DESIGN_PERSON_AND_ORGANIZATION_ASSIGNMENT(#1579,#1586,(#1563));
#1588=PERSON_AND_ORGANIZATION_ROLE('design_owner');
#1589=CC_DESIGN_PERSON_AND_ORGANIZATION_ASSIGNMENT(#1579,#1588,(#1554));
#5=CIRCLE('',#4,4.4E1);
#10=CIRCLE('',#9,4.E0);
#19=CIRCLE('',#18,2.E0);
#24=CIRCLE('',#23,2.E0);
#29=CIRCLE('',#28,5.8E1);
#34=CIRCLE('',#33,2.E0);
#39=CIRCLE('',#38,2.E0);
#48=CIRCLE('',#47,4.E0);
#53=CIRCLE('',#52,4.125E0);
#58=CIRCLE('',#57,4.125E0);
#63=CIRCLE('',#62,1.5E0);
#68=CIRCLE('',#67,1.5E0);
#189=CIRCLE('',#188,4.E0);
#194=CIRCLE('',#193,4.4E1);
#199=CIRCLE('',#198,4.E0);
#208=CIRCLE('',#207,2.E0);
#213=CIRCLE('',#212,2.E0);
#218=CIRCLE('',#217,5.8E1);
#223=CIRCLE('',#222,2.E0);
#228=CIRCLE('',#227,2.E0);
#233=CIRCLE('',#232,2.15E0);
#238=CIRCLE('',#237,2.15E0);
#243=CIRCLE('',#242,2.E0);
#248=CIRCLE('',#247,2.E0);
#281=CIRCLE('',#280,2.15E0);
#290=CIRCLE('',#289,2.15E0);
#299=CIRCLE('',#298,4.125E0);
#304=CIRCLE('',#303,4.125E0);
#309=CIRCLE('',#308,2.65E0);
#314=CIRCLE('',#313,2.65E0);
#339=CIRCLE('',#338,1.5E0);
#348=CIRCLE('',#347,1.5E0);
#742=EDGE_CURVE('',#563,#564,#5,.T.);
#744=EDGE_CURVE('',#564,#566,#10,.T.);
#746=EDGE_CURVE('',#566,#568,#14,.T.);
#748=EDGE_CURVE('',#568,#571,#19,.T.);
#750=EDGE_CURVE('',#571,#572,#24,.T.);
#752=EDGE_CURVE('',#572,#574,#29,.T.);
#754=EDGE_CURVE('',#574,#576,#34,.T.);
#756=EDGE_CURVE('',#576,#578,#39,.T.);
#758=EDGE_CURVE('',#578,#580,#43,.T.);
#760=EDGE_CURVE('',#580,#563,#48,.T.);
#764=EDGE_CURVE('',#583,#584,#53,.T.);
#766=EDGE_CURVE('',#584,#583,#58,.T.);
#770=EDGE_CURVE('',#587,#588,#63,.T.);
#772=EDGE_CURVE('',#588,#587,#68,.T.);
#776=EDGE_CURVE('',#671,#672,#72,.T.);
#778=EDGE_CURVE('',#672,#674,#76,.T.);
#780=EDGE_CURVE('',#674,#676,#80,.T.);
#782=EDGE_CURVE('',#676,#678,#84,.T.);
#784=EDGE_CURVE('',#678,#680,#88,.T.);
#786=EDGE_CURVE('',#680,#682,#92,.T.);
#788=EDGE_CURVE('',#682,#684,#96,.T.);
#790=EDGE_CURVE('',#684,#686,#100,.T.);
#792=EDGE_CURVE('',#686,#688,#104,.T.);
#794=EDGE_CURVE('',#688,#690,#108,.T.);
#796=EDGE_CURVE('',#690,#692,#112,.T.);
#798=EDGE_CURVE('',#692,#694,#116,.T.);
#800=EDGE_CURVE('',#694,#696,#120,.T.);
#802=EDGE_CURVE('',#696,#698,#124,.T.);
#804=EDGE_CURVE('',#698,#700,#128,.T.);
#806=EDGE_CURVE('',#700,#671,#132,.T.);
#816=EDGE_CURVE('',#703,#704,#136,.T.);
#818=EDGE_CURVE('',#704,#706,#140,.T.);
#820=EDGE_CURVE('',#706,#708,#144,.T.);
#822=EDGE_CURVE('',#708,#710,#148,.T.);
#824=EDGE_CURVE('',#710,#712,#152,.T.);
#826=EDGE_CURVE('',#712,#714,#156,.T.);
#828=EDGE_CURVE('',#714,#716,#160,.T.);
#830=EDGE_CURVE('',#716,#718,#164,.T.);
#832=EDGE_CURVE('',#718,#720,#168,.T.);
#834=EDGE_CURVE('',#720,#703,#172,.T.);
#844=EDGE_CURVE('',#594,#596,#194,.T.);
#846=EDGE_CURVE('',#594,#564,#176,.T.);
#849=EDGE_CURVE('',#563,#596,#180,.T.);
#859=EDGE_CURVE('',#591,#592,#184,.T.);
#861=EDGE_CURVE('',#592,#594,#189,.T.);
#864=EDGE_CURVE('',#596,#598,#199,.T.);
#866=EDGE_CURVE('',#598,#600,#203,.T.);
#868=EDGE_CURVE('',#600,#602,#208,.T.);
#870=EDGE_CURVE('',#602,#604,#213,.T.);
#872=EDGE_CURVE('',#604,#606,#218,.T.);
#874=EDGE_CURVE('',#606,#608,#223,.T.);
#876=EDGE_CURVE('',#608,#591,#228,.T.);
#880=EDGE_CURVE('',#611,#612,#233,.T.);
#882=EDGE_CURVE('',#612,#611,#238,.T.);
#886=EDGE_CURVE('',#723,#724,#243,.T.);
#888=EDGE_CURVE('',#724,#723,#248,.T.);
#899=EDGE_CURVE('',#592,#566,#252,.T.);
#902=EDGE_CURVE('',#568,#591,#256,.T.);
#929=EDGE_CURVE('',#572,#606,#260,.T.);
#942=EDGE_CURVE('',#604,#574,#264,.T.);
#956=EDGE_CURVE('',#600,#578,#268,.T.);
#968=EDGE_CURVE('',#580,#598,#272,.T.);
#992=EDGE_CURVE('',#611,#730,#276,.T.);
#994=EDGE_CURVE('',#730,#732,#281,.T.);
#996=EDGE_CURVE('',#612,#732,#285,.T.);
#1010=EDGE_CURVE('',#732,#730,#290,.T.);
#1020=EDGE_CURVE('',#735,#736,#309,.T.);
#1022=EDGE_CURVE('',#736,#730,#326,.T.);
#1025=EDGE_CURVE('',#735,#732,#294,.T.);
#1035=EDGE_CURVE('',#615,#616,#299,.T.);
#1037=EDGE_CURVE('',#616,#615,#304,.T.);
#1042=EDGE_CURVE('',#736,#735,#314,.T.);
#1053=EDGE_CURVE('',#615,#583,#318,.T.);
#1056=EDGE_CURVE('',#616,#584,#322,.T.);
#1091=EDGE_CURVE('',#724,#728,#334,.T.);
#1093=EDGE_CURVE('',#727,#728,#348,.T.);
#1095=EDGE_CURVE('',#723,#727,#330,.T.);
#1107=EDGE_CURVE('',#728,#727,#339,.T.);
#1119=EDGE_CURVE('',#727,#587,#343,.T.);
#1122=EDGE_CURVE('',#728,#588,#352,.T.);
#1145=EDGE_CURVE('',#671,#619,#356,.T.);
#1147=EDGE_CURVE('',#619,#620,#420,.T.);
#1149=EDGE_CURVE('',#672,#620,#416,.T.);
#1160=EDGE_CURVE('',#700,#648,#360,.T.);
#1162=EDGE_CURVE('',#648,#619,#424,.T.);
#1174=EDGE_CURVE('',#698,#646,#364,.T.);
#1176=EDGE_CURVE('',#646,#648,#428,.T.);
#1188=EDGE_CURVE('',#696,#644,#368,.T.);
#1190=EDGE_CURVE('',#644,#646,#432,.T.);
#1202=EDGE_CURVE('',#694,#642,#372,.T.);
#1204=EDGE_CURVE('',#642,#644,#436,.T.);
#1216=EDGE_CURVE('',#692,#640,#376,.T.);
#1218=EDGE_CURVE('',#640,#642,#440,.T.);
#1230=EDGE_CURVE('',#690,#638,#380,.T.);
#1232=EDGE_CURVE('',#638,#640,#444,.T.);
#1244=EDGE_CURVE('',#688,#636,#384,.T.);
#1246=EDGE_CURVE('',#636,#638,#448,.T.);
#1258=EDGE_CURVE('',#686,#634,#388,.T.);
#1260=EDGE_CURVE('',#634,#636,#452,.T.);
#1272=EDGE_CURVE('',#684,#632,#392,.T.);
#1274=EDGE_CURVE('',#632,#634,#456,.T.);
#1286=EDGE_CURVE('',#682,#630,#396,.T.);
#1288=EDGE_CURVE('',#630,#632,#460,.T.);
#1300=EDGE_CURVE('',#680,#628,#400,.T.);
#1302=EDGE_CURVE('',#628,#630,#464,.T.);
#1314=EDGE_CURVE('',#678,#626,#404,.T.);
#1316=EDGE_CURVE('',#626,#628,#468,.T.);
#1328=EDGE_CURVE('',#676,#624,#408,.T.);
#1330=EDGE_CURVE('',#624,#626,#472,.T.);
#1342=EDGE_CURVE('',#674,#622,#412,.T.);
#1344=EDGE_CURVE('',#622,#624,#476,.T.);
#1357=EDGE_CURVE('',#620,#622,#480,.T.);
#1386=EDGE_CURVE('',#651,#652,#484,.T.);
#1388=EDGE_CURVE('',#668,#651,#488,.T.);
#1390=EDGE_CURVE('',#666,#668,#492,.T.);
#1392=EDGE_CURVE('',#664,#666,#496,.T.);
#1394=EDGE_CURVE('',#662,#664,#500,.T.);
#1396=EDGE_CURVE('',#660,#662,#504,.T.);
#1398=EDGE_CURVE('',#658,#660,#508,.T.);
#1400=EDGE_CURVE('',#656,#658,#512,.T.);
#1402=EDGE_CURVE('',#654,#656,#516,.T.);
#1404=EDGE_CURVE('',#652,#654,#520,.T.);
#1415=EDGE_CURVE('',#703,#651,#524,.T.);
#1418=EDGE_CURVE('',#704,#652,#560,.T.);
#1429=EDGE_CURVE('',#720,#668,#528,.T.);
#1442=EDGE_CURVE('',#718,#666,#532,.T.);
#1455=EDGE_CURVE('',#716,#664,#536,.T.);
#1468=EDGE_CURVE('',#714,#662,#540,.T.);
#1481=EDGE_CURVE('',#712,#660,#544,.T.);
#1494=EDGE_CURVE('',#710,#658,#548,.T.);
#1507=EDGE_CURVE('',#708,#656,#552,.T.);
#1520=EDGE_CURVE('',#706,#654,#556,.T.);
#1539=CLOSED_SHELL('',(#810,#838,#853,#892,#906,#918,#933,#946,#961,#974,#986,
#1001,#1014,#1029,#1046,#1060,#1072,#1084,#1099,#1112,#1126,#1138,#1153,#1167,
#1181,#1195,#1209,#1223,#1237,#1251,#1265,#1279,#1293,#1307,#1321,#1335,#1349,
#1362,#1408,#1422,#1435,#1448,#1461,#1474,#1487,#1500,#1513,#1526,#1538));
#1540=MANIFOLD_SOLID_BREP('',#1539);
#1541=(LENGTH_UNIT()NAMED_UNIT(*)SI_UNIT(.MILLI.,.METRE.));
#1543=(NAMED_UNIT(*)PLANE_ANGLE_UNIT()SI_UNIT($,.RADIAN.));
#1546=(NAMED_UNIT(*)SI_UNIT($,.STERADIAN.)SOLID_ANGLE_UNIT());
#1549=ADVANCED_BREP_SHAPE_REPRESENTATION('',(#1540),#1548);
#1556=PRODUCT_DEFINITION('design','',#1555,#1552);
#1557=PRODUCT_DEFINITION_SHAPE('','SHAPE FOR KD-D-105R_1.',#1556);
#1558=SHAPE_DEFINITION_REPRESENTATION(#1557,#1549);
ENDSEC;
END-ISO-10303-21;
