ISO-10303-21;
HEADER;
FILE_DESCRIPTION((''),'2;1');
FILE_NAME('KD-D-503X_ANKLE_LINK-S_1','2025-07-12T16:44:04',('Administrator'),
(''),'CREO PARAMETRIC BY PTC INC, 2022073',
'CREO PARAMETRIC BY PTC INC, 2022073','');
FILE_SCHEMA(('CONFIG_CONTROL_DESIGN'));
ENDSEC;
DATA;
#1=DIRECTION('',(-7.071067811864E-1,7.066760308409E-1,-2.467767078087E-2));
#2=VECTOR('',#1,1.414213562373E0);
#3=CARTESIAN_POINT('',(1.09E2,1.881917067489E1,-5.415524052173E2));
#4=LINE('',#3,#2);
#5=CARTESIAN_POINT('',(1.08E2,2.481551563700E1,-5.417618021975E2));
#6=DIRECTION('',(1.E0,0.E0,0.E0));
#7=DIRECTION('',(0.E0,-9.993908270192E-1,3.489949670006E-2));
#8=AXIS2_PLACEMENT_3D('',#5,#6,#7);
#10=DIRECTION('',(0.E0,3.489947004295E-2,9.993908279501E-1));
#11=VECTOR('',#10,1.714754790289E2);
#12=CARTESIAN_POINT('',(1.09E2,1.455217936684E1,-7.210505696349E2));
#13=LINE('',#12,#11);
#14=CARTESIAN_POINT('',(1.09E2,2.481551563700E1,-5.417618021975E2));
#15=DIRECTION('',(-1.E0,0.E0,0.E0));
#16=DIRECTION('',(0.E0,-4.754368939745E-1,-8.797498279897E-1));
#17=AXIS2_PLACEMENT_3D('',#14,#15,#16);
#19=CARTESIAN_POINT('',(1.09E2,2.481551563700E1,-5.417618021975E2));
#20=DIRECTION('',(-1.E0,0.E0,0.E0));
#21=DIRECTION('',(0.E0,-9.993908270191E-1,3.489949670123E-2));
#22=AXIS2_PLACEMENT_3D('',#19,#20,#21);
#24=CARTESIAN_POINT('',(1.09E2,2.481551563700E1,-5.417618021975E2));
#25=DIRECTION('',(-1.E0,0.E0,0.E0));
#26=DIRECTION('',(0.E0,-4.129105078197E-1,9.107716028358E-1));
#27=AXIS2_PLACEMENT_3D('',#24,#25,#26);
#29=CARTESIAN_POINT('',(1.09E2,2.481551563700E1,-5.417618021975E2));
#30=DIRECTION('',(-1.E0,0.E0,0.E0));
#31=DIRECTION('',(0.E0,9.993908270191E-1,-3.489949670126E-2));
#32=AXIS2_PLACEMENT_3D('',#29,#30,#31);
#34=DIRECTION('',(0.E0,-3.489949670254E-2,-9.993908270191E-1));
#35=VECTOR('',#34,1.714754845034E2);
#36=CARTESIAN_POINT('',(1.09E2,2.853171020738E1,-5.499587466230E2));
#37=LINE('',#36,#35);
#38=CARTESIAN_POINT('',(1.09E2,1.826837005561E1,-7.292475213463E2));
#39=DIRECTION('',(-1.E0,0.E0,0.E0));
#40=DIRECTION('',(0.E0,4.754368939756E-1,8.797498279891E-1));
#41=AXIS2_PLACEMENT_3D('',#38,#39,#40);
#43=CARTESIAN_POINT('',(1.09E2,1.826837005561E1,-7.292475213463E2));
#44=DIRECTION('',(-1.E0,0.E0,0.E0));
#45=DIRECTION('',(0.E0,9.993908270191E-1,-3.489949670250E-2));
#46=AXIS2_PLACEMENT_3D('',#43,#44,#45);
#48=CARTESIAN_POINT('',(1.09E2,1.826837005561E1,-7.292475213463E2));
#49=DIRECTION('',(-1.E0,0.E0,0.E0));
#50=DIRECTION('',(0.E0,-4.754368939753E-1,-8.797498279892E-1));
#51=AXIS2_PLACEMENT_3D('',#48,#49,#50);
#53=CARTESIAN_POINT('',(1.09E2,1.826837005561E1,-7.292475213463E2));
#54=DIRECTION('',(-1.E0,0.E0,0.E0));
#55=DIRECTION('',(0.E0,-9.993908270191E-1,3.489949670250E-2));
#56=AXIS2_PLACEMENT_3D('',#53,#54,#55);
#58=CARTESIAN_POINT('',(1.09E2,2.481551563700E1,-5.417618021975E2));
#59=DIRECTION('',(1.E0,0.E0,0.E0));
#60=DIRECTION('',(0.E0,9.993908270191E-1,-3.489949670128E-2));
#61=AXIS2_PLACEMENT_3D('',#58,#59,#60);
#63=CARTESIAN_POINT('',(1.09E2,2.481551563700E1,-5.417618021975E2));
#64=DIRECTION('',(1.E0,0.E0,0.E0));
#65=DIRECTION('',(0.E0,-9.993908270191E-1,3.489949670124E-2));
#66=AXIS2_PLACEMENT_3D('',#63,#64,#65);
#68=CARTESIAN_POINT('',(1.09E2,1.826837005561E1,-7.292475213463E2));
#69=DIRECTION('',(1.E0,0.E0,0.E0));
#70=DIRECTION('',(0.E0,-9.993908270191E-1,3.489949670128E-2));
#71=AXIS2_PLACEMENT_3D('',#68,#69,#70);
#73=CARTESIAN_POINT('',(1.09E2,1.826837005561E1,-7.292475213463E2));
#74=DIRECTION('',(1.E0,0.E0,0.E0));
#75=DIRECTION('',(0.E0,9.993908270191E-1,-3.489949670124E-2));
#76=AXIS2_PLACEMENT_3D('',#73,#74,#75);
#78=DIRECTION('',(0.E0,3.489949670252E-2,9.993908270191E-1));
#79=VECTOR('',#78,1.702794919243E2);
#80=CARTESIAN_POINT('',(1.02E2,1.357365442776E1,-7.204180454177E2));
#81=LINE('',#80,#79);
#82=DIRECTION('',(0.E0,-3.489947673322E-2,-9.993908277164E-1));
#83=VECTOR('',#82,1.702794963469E2);
#84=CARTESIAN_POINT('',(1.08E2,1.951632045120E1,-5.502422772608E2));
#85=LINE('',#84,#83);
#86=CARTESIAN_POINT('',(1.02E2,1.357365442776E1,-7.204180454177E2));
#87=CARTESIAN_POINT('',(1.018883068398E2,1.368302901594E1,-7.204863902457E2));
#88=CARTESIAN_POINT('',(1.016652561134E2,1.390140354453E1,-7.206241923953E2));
#89=CARTESIAN_POINT('',(1.013319291874E2,1.422756793979E1,-7.208351186819E2));
#90=CARTESIAN_POINT('',(1.011104856311E2,1.444414848223E1,-7.209782424889E2));
#91=CARTESIAN_POINT('',(1.01E2,1.455217548524E1,-7.210505769208E2));
#93=CARTESIAN_POINT('',(1.01E2,2.053658359123E1,-5.496795506494E2));
#94=CARTESIAN_POINT('',(1.011104856311E2,2.042377394168E1,-5.497441732954E2));
#95=CARTESIAN_POINT('',(1.013319291874E2,2.019773716648E1,-5.498718405651E2));
#96=CARTESIAN_POINT('',(1.016652561133E2,1.985765381732E1,-5.500595009678E2));
#97=CARTESIAN_POINT('',(1.018883068398E2,1.963019864607E1,-5.501817344012E2));
#98=CARTESIAN_POINT('',(1.02E2,1.951632299468E1,-5.502422831591E2));
#100=CARTESIAN_POINT('',(1.02E2,1.826837005561E1,-7.292475213463E2));
#101=DIRECTION('',(1.E0,0.E0,0.E0));
#102=DIRECTION('',(0.E0,-4.694715627848E-1,8.829475928595E-1));
#103=AXIS2_PLACEMENT_3D('',#100,#101,#102);
#105=CARTESIAN_POINT('',(1.02E2,1.826837005561E1,-7.292475213463E2));
#106=DIRECTION('',(1.E0,0.E0,0.E0));
#107=DIRECTION('',(0.E0,-9.993908270191E-1,3.489949670248E-2));
#108=AXIS2_PLACEMENT_3D('',#105,#106,#107);
#110=CARTESIAN_POINT('',(1.02E2,1.826837005561E1,-7.292475213463E2));
#111=DIRECTION('',(1.E0,0.E0,0.E0));
#112=DIRECTION('',(0.E0,9.993908270191E-1,-3.489949670250E-2));
#113=AXIS2_PLACEMENT_3D('',#110,#111,#112);
#115=CARTESIAN_POINT('',(1.02E2,2.356756209197E1,-7.207670389794E2));
#116=CARTESIAN_POINT('',(1.018854138436E2,2.345073691428E1,-7.208291560509E2));
#117=CARTESIAN_POINT('',(1.016585421004E2,2.321938154728E1,-7.209536038391E2));
#118=CARTESIAN_POINT('',(1.013252208626E2,2.287930511434E1,-7.211412802408E2));
#119=CARTESIAN_POINT('',(1.011076224271E2,2.265718496024E1,-7.212668172868E2));
#120=CARTESIAN_POINT('',(1.01E2,2.254729873753E1,-7.213297653556E2));
#122=CARTESIAN_POINT('',(1.01E2,1.826837005561E1,-7.292475213463E2));
#123=DIRECTION('',(1.E0,0.E0,0.E0));
#124=DIRECTION('',(0.E0,-9.993908270191E-1,3.489949670126E-2));
#125=AXIS2_PLACEMENT_3D('',#122,#123,#124);
#127=CARTESIAN_POINT('',(1.01E2,1.826837005561E1,-7.292475213463E2));
#128=DIRECTION('',(1.E0,0.E0,0.E0));
#129=DIRECTION('',(0.E0,9.993908270191E-1,-3.489949670250E-2));
#130=AXIS2_PLACEMENT_3D('',#127,#128,#129);
#132=DIRECTION('',(0.E0,3.489952336260E-2,9.993908260881E-1));
#133=VECTOR('',#132,1.714754790293E2);
#134=CARTESIAN_POINT('',(1.01E2,2.254729873753E1,-7.213297653556E2));
#135=LINE('',#134,#133);
#136=CARTESIAN_POINT('',(1.01E2,2.481551563700E1,-5.417618021975E2));
#137=DIRECTION('',(1.E0,0.E0,0.E0));
#138=DIRECTION('',(0.E0,4.129105078199E-1,-9.107716028357E-1));
#139=AXIS2_PLACEMENT_3D('',#136,#137,#138);
#141=CARTESIAN_POINT('',(1.01E2,2.481551563700E1,-5.417618021975E2));
#142=DIRECTION('',(1.E0,0.E0,0.E0));
#143=DIRECTION('',(0.E0,9.993908270191E-1,-3.489949670125E-2));
#144=AXIS2_PLACEMENT_3D('',#141,#142,#143);
#146=CARTESIAN_POINT('',(1.01E2,2.481551563700E1,-5.417618021975E2));
#147=DIRECTION('',(1.E0,0.E0,0.E0));
#148=DIRECTION('',(0.E0,4.754368939755E-1,8.797498279892E-1));
#149=AXIS2_PLACEMENT_3D('',#146,#147,#148);
#151=CARTESIAN_POINT('',(1.01E2,2.481551563700E1,-5.417618021975E2));
#152=DIRECTION('',(1.E0,0.E0,0.E0));
#153=DIRECTION('',(0.E0,-9.993908270191E-1,3.489949670125E-2));
#154=AXIS2_PLACEMENT_3D('',#151,#152,#153);
#156=DIRECTION('',(0.E0,-3.489949670254E-2,-9.993908270191E-1));
#157=VECTOR('',#156,1.714754845034E2);
#158=CARTESIAN_POINT('',(1.01E2,2.053658359123E1,-5.496795506494E2));
#159=LINE('',#158,#157);
#160=CARTESIAN_POINT('',(1.01E2,1.826837005561E1,-7.292475213463E2));
#161=DIRECTION('',(1.E0,0.E0,0.E0));
#162=DIRECTION('',(0.E0,-4.129105078187E-1,9.107716028362E-1));
#163=AXIS2_PLACEMENT_3D('',#160,#161,#162);
#165=CARTESIAN_POINT('',(1.01E2,2.481551563700E1,-5.417618021975E2));
#166=DIRECTION('',(-1.E0,0.E0,0.E0));
#167=DIRECTION('',(0.E0,9.993908270191E-1,-3.489949670128E-2));
#168=AXIS2_PLACEMENT_3D('',#165,#166,#167);
#170=CARTESIAN_POINT('',(1.01E2,2.481551563700E1,-5.417618021975E2));
#171=DIRECTION('',(-1.E0,0.E0,0.E0));
#172=DIRECTION('',(0.E0,-9.993908270191E-1,3.489949670124E-2));
#173=AXIS2_PLACEMENT_3D('',#170,#171,#172);
#175=CARTESIAN_POINT('',(1.01E2,1.826837005561E1,-7.292475213463E2));
#176=DIRECTION('',(-1.E0,0.E0,0.E0));
#177=DIRECTION('',(0.E0,9.993908270191E-1,-3.489949670124E-2));
#178=AXIS2_PLACEMENT_3D('',#175,#176,#177);
#180=CARTESIAN_POINT('',(1.01E2,1.826837005561E1,-7.292475213463E2));
#181=DIRECTION('',(-1.E0,0.E0,0.E0));
#182=DIRECTION('',(0.E0,-9.993908270191E-1,3.489949670128E-2));
#183=AXIS2_PLACEMENT_3D('',#180,#181,#182);
#185=DIRECTION('',(0.E0,-3.489951667116E-2,-9.993908263218E-1));
#186=VECTOR('',#185,1.702794963467E2);
#187=CARTESIAN_POINT('',(1.02E2,2.951023421348E1,-5.505912724198E2));
#188=LINE('',#187,#186);
#189=DIRECTION('',(0.E0,3.489949670256E-2,9.993908270191E-1));
#190=VECTOR('',#189,1.702794919243E2);
#191=CARTESIAN_POINT('',(1.08E2,2.356756269794E1,-7.207670403847E2));
#192=LINE('',#191,#190);
#193=DIRECTION('',(-1.E0,-1.009941736167E-7,2.342117492541E-7));
#194=VECTOR('',#193,5.999999999999E0);
#195=CARTESIAN_POINT('',(1.08E2,2.356756269794E1,-7.207670403847E2));
#196=LINE('',#195,#194);
#197=DIRECTION('',(1.E0,1.170895339205E-7,2.266032386918E-7));
#198=VECTOR('',#197,6.000000000001E0);
#199=CARTESIAN_POINT('',(1.02E2,1.357365442776E1,-7.204180454177E2));
#200=LINE('',#199,#198);
#201=CARTESIAN_POINT('',(1.08E2,1.826837005561E1,-7.292475213463E2));
#202=DIRECTION('',(-1.E0,0.E0,0.E0));
#203=DIRECTION('',(0.E0,5.299192642322E-1,8.480480961571E-1));
#204=AXIS2_PLACEMENT_3D('',#201,#202,#203);
#206=CARTESIAN_POINT('',(1.08E2,1.826837005561E1,-7.292475213463E2));
#207=DIRECTION('',(-1.E0,0.E0,0.E0));
#208=DIRECTION('',(0.E0,9.993908270191E-1,-3.489949670250E-2));
#209=AXIS2_PLACEMENT_3D('',#206,#207,#208);
#211=CARTESIAN_POINT('',(1.08E2,1.826837005561E1,-7.292475213463E2));
#212=DIRECTION('',(-1.E0,0.E0,0.E0));
#213=DIRECTION('',(0.E0,-9.993908270192E-1,3.489949670063E-2));
#214=AXIS2_PLACEMENT_3D('',#211,#212,#213);
#216=CARTESIAN_POINT('',(1.08E2,1.357365513030E1,-7.204180440581E2));
#217=CARTESIAN_POINT('',(1.081145861564E2,1.368586265987E1,-7.204881591280E2));
#218=CARTESIAN_POINT('',(1.083414578997E2,1.390797341797E1,-7.206284423021E2));
#219=CARTESIAN_POINT('',(1.086747791374E2,1.423412979780E1,-7.208393840663E2));
#220=CARTESIAN_POINT('',(1.088923775730E2,1.444695185678E1,-7.209801096291E2));
#221=CARTESIAN_POINT('',(1.09E2,1.455217936684E1,-7.210505696349E2));
#223=CARTESIAN_POINT('',(1.08E2,2.356756269794E1,-7.207670403847E2));
#224=CARTESIAN_POINT('',(1.081116931602E2,2.345368704656E1,-7.208275891426E2));
#225=CARTESIAN_POINT('',(1.083347438866E2,2.322623187534E1,-7.209498225760E2));
#226=CARTESIAN_POINT('',(1.086680708126E2,2.288614852618E1,-7.211374829787E2));
#227=CARTESIAN_POINT('',(1.088895143689E2,2.266011175095E1,-7.212651502483E2));
#228=CARTESIAN_POINT('',(1.09E2,2.254730210139E1,-7.213297728944E2));
#230=CARTESIAN_POINT('',(1.09E2,2.853171020738E1,-5.499587466230E2));
#231=CARTESIAN_POINT('',(1.088895143689E2,2.863973721039E1,-5.500310810549E2));
#232=CARTESIAN_POINT('',(1.086680708126E2,2.885631775280E1,-5.501742048619E2));
#233=CARTESIAN_POINT('',(1.083347438867E2,2.918248214807E1,-5.503851311485E2));
#234=CARTESIAN_POINT('',(1.081116931602E2,2.940085667668E1,-5.505229332981E2));
#235=CARTESIAN_POINT('',(1.08E2,2.951023126486E1,-5.505912781261E2));
#237=CARTESIAN_POINT('',(1.09E2,2.053658271031E1,-5.496795486751E2));
#238=CARTESIAN_POINT('',(1.088923692516E2,2.042668799569E1,-5.497425014842E2));
#239=CARTESIAN_POINT('',(1.086747709467E2,2.020457327476E1,-5.498680659204E2));
#240=CARTESIAN_POINT('',(1.083414499142E2,1.986449634475E1,-5.500557422913E2));
#241=CARTESIAN_POINT('',(1.081145781174E2,1.963313742855E1,-5.501801646673E2));
#242=CARTESIAN_POINT('',(1.08E2,1.951632045120E1,-5.502422772608E2));
#244=CARTESIAN_POINT('',(1.08E2,2.481551563700E1,-5.417618021975E2));
#245=DIRECTION('',(-1.E0,0.E0,0.E0));
#246=DIRECTION('',(0.E0,-5.299192642315E-1,-8.480480961575E-1));
#247=AXIS2_PLACEMENT_3D('',#244,#245,#246);
#249=CARTESIAN_POINT('',(1.08E2,2.481551563700E1,-5.417618021975E2));
#250=DIRECTION('',(-1.E0,0.E0,0.E0));
#251=DIRECTION('',(0.E0,-9.993908270191E-1,3.489949670251E-2));
#252=AXIS2_PLACEMENT_3D('',#249,#250,#251);
#254=CARTESIAN_POINT('',(1.08E2,2.481551563700E1,-5.417618021975E2));
#255=DIRECTION('',(-1.E0,0.E0,0.E0));
#256=DIRECTION('',(0.E0,9.993908270191E-1,-3.489949670250E-2));
#257=AXIS2_PLACEMENT_3D('',#254,#255,#256);
#259=DIRECTION('',(-9.999999999994E-1,4.239132517605E-7,-9.830436245764E-7));
#260=VECTOR('',#259,6.000000000003E0);
#261=CARTESIAN_POINT('',(1.08E2,1.951632045120E1,-5.502422772608E2));
#262=LINE('',#261,#260);
#263=DIRECTION('',(9.999999999994E-1,-4.914363541293E-7,-9.510436029812E-7));
#264=VECTOR('',#263,6.000000000001E0);
#265=CARTESIAN_POINT('',(1.02E2,2.951023421348E1,-5.505912724198E2));
#266=LINE('',#265,#264);
#267=CARTESIAN_POINT('',(1.01E2,2.853171122403E1,-5.499587447147E2));
#268=CARTESIAN_POINT('',(1.011076307485E2,2.863694687475E1,-5.500292100418E2));
#269=CARTESIAN_POINT('',(1.013252290533E2,2.884976160280E1,-5.501699625492E2));
#270=CARTESIAN_POINT('',(1.016585500858E2,2.917591848076E1,-5.503809043175E2));
#271=CARTESIAN_POINT('',(1.018854218826E2,2.939803455185E1,-5.505211623890E2));
#272=CARTESIAN_POINT('',(1.02E2,2.951023421348E1,-5.505912724198E2));
#274=CARTESIAN_POINT('',(1.02E2,2.481551563700E1,-5.417618021975E2));
#275=DIRECTION('',(1.E0,0.E0,0.E0));
#276=DIRECTION('',(0.E0,4.694715627863E-1,-8.829475928587E-1));
#277=AXIS2_PLACEMENT_3D('',#274,#275,#276);
#279=CARTESIAN_POINT('',(1.02E2,2.481551563700E1,-5.417618021975E2));
#280=DIRECTION('',(1.E0,0.E0,0.E0));
#281=DIRECTION('',(0.E0,9.993908270191E-1,-3.489949670250E-2));
#282=AXIS2_PLACEMENT_3D('',#279,#280,#281);
#284=CARTESIAN_POINT('',(1.02E2,2.481551563700E1,-5.417618021975E2));
#285=DIRECTION('',(1.E0,0.E0,0.E0));
#286=DIRECTION('',(0.E0,-9.993908270191E-1,3.489949670126E-2));
#287=AXIS2_PLACEMENT_3D('',#284,#285,#286);
#289=DIRECTION('',(7.071067811867E-1,-7.066760308408E-1,2.467767077662E-2));
#290=VECTOR('',#289,1.414213562373E0);
#291=CARTESIAN_POINT('',(1.01E2,3.081186059911E1,-5.419711991777E2));
#292=LINE('',#291,#290);
#293=CARTESIAN_POINT('',(1.02E2,2.481551563700E1,-5.417618021975E2));
#294=DIRECTION('',(-1.E0,0.E0,0.E0));
#295=DIRECTION('',(0.E0,9.993908270191E-1,-3.489949670250E-2));
#296=AXIS2_PLACEMENT_3D('',#293,#294,#295);
#298=DIRECTION('',(7.071067811867E-1,7.066760308407E-1,-2.467767077855E-2));
#299=VECTOR('',#298,1.414213562373E0);
#300=CARTESIAN_POINT('',(1.01E2,1.881917067489E1,-5.415524052173E2));
#301=LINE('',#300,#299);
#302=CARTESIAN_POINT('',(1.02E2,2.481551563700E1,-5.417618021975E2));
#303=DIRECTION('',(-1.E0,0.E0,0.E0));
#304=DIRECTION('',(0.E0,-9.993908270192E-1,3.489949670006E-2));
#305=AXIS2_PLACEMENT_3D('',#302,#303,#304);
#307=DIRECTION('',(1.E0,3.138230416274E-14,9.094947017729E-13));
#308=VECTOR('',#307,6.E0);
#309=CARTESIAN_POINT('',(1.02E2,1.981856150190E1,-5.415873047140E2));
#310=LINE('',#309,#308);
#311=DIRECTION('',(1.E0,3.434289889507E-14,9.473903143468E-13));
#312=VECTOR('',#311,6.E0);
#313=CARTESIAN_POINT('',(1.02E2,2.981246977210E1,-5.419362996810E2));
#314=LINE('',#313,#312);
#315=DIRECTION('',(-7.071067811864E-1,-7.066760308411E-1,2.467767077412E-2));
#316=VECTOR('',#315,1.414213562373E0);
#317=CARTESIAN_POINT('',(1.09E2,3.081186059912E1,-5.419711991777E2));
#318=LINE('',#317,#316);
#319=CARTESIAN_POINT('',(1.08E2,2.481551563700E1,-5.417618021975E2));
#320=DIRECTION('',(1.E0,0.E0,0.E0));
#321=DIRECTION('',(0.E0,9.993908270191E-1,-3.489949670250E-2));
#322=AXIS2_PLACEMENT_3D('',#319,#320,#321);
#324=DIRECTION('',(7.071067811867E-1,-7.066760308408E-1,2.467767077670E-2));
#325=VECTOR('',#324,1.414213562373E0);
#326=CARTESIAN_POINT('',(1.01E2,2.426471501772E1,-7.294569183265E2));
#327=LINE('',#326,#325);
#328=CARTESIAN_POINT('',(1.02E2,1.826837005561E1,-7.292475213463E2));
#329=DIRECTION('',(-1.E0,0.E0,0.E0));
#330=DIRECTION('',(0.E0,9.993908270191E-1,-3.489949670250E-2));
#331=AXIS2_PLACEMENT_3D('',#328,#329,#330);
#333=DIRECTION('',(7.071067811867E-1,7.066760308407E-1,-2.467767077863E-2));
#334=VECTOR('',#333,1.414213562373E0);
#335=CARTESIAN_POINT('',(1.01E2,1.227202509350E1,-7.290381243661E2));
#336=LINE('',#335,#334);
#337=CARTESIAN_POINT('',(1.02E2,1.826837005561E1,-7.292475213463E2));
#338=DIRECTION('',(-1.E0,0.E0,0.E0));
#339=DIRECTION('',(0.E0,-9.993908270192E-1,3.489949670002E-2));
#340=AXIS2_PLACEMENT_3D('',#337,#338,#339);
#342=DIRECTION('',(1.E0,3.286260152890E-14,9.473903143468E-13));
#343=VECTOR('',#342,6.E0);
#344=CARTESIAN_POINT('',(1.02E2,1.327141592051E1,-7.290730238628E2));
#345=LINE('',#344,#343);
#346=DIRECTION('',(1.E0,3.375077994860E-14,9.473903143468E-13));
#347=VECTOR('',#346,6.E0);
#348=CARTESIAN_POINT('',(1.02E2,2.326532419071E1,-7.294220188298E2));
#349=LINE('',#348,#347);
#350=DIRECTION('',(-7.071067811864E-1,7.066760308408E-1,-2.467767078111E-2));
#351=VECTOR('',#350,1.414213562373E0);
#352=CARTESIAN_POINT('',(1.09E2,1.227202509350E1,-7.290381243661E2));
#353=LINE('',#352,#351);
#354=CARTESIAN_POINT('',(1.08E2,1.826837005561E1,-7.292475213463E2));
#355=DIRECTION('',(1.E0,0.E0,0.E0));
#356=DIRECTION('',(0.E0,-9.993908270192E-1,3.489949670002E-2));
#357=AXIS2_PLACEMENT_3D('',#354,#355,#356);
#359=DIRECTION('',(-7.071067811864E-1,-7.066760308411E-1,2.467767077412E-2));
#360=VECTOR('',#359,1.414213562373E0);
#361=CARTESIAN_POINT('',(1.09E2,2.426471501773E1,-7.294569183265E2));
#362=LINE('',#361,#360);
#363=CARTESIAN_POINT('',(1.08E2,1.826837005561E1,-7.292475213463E2));
#364=DIRECTION('',(1.E0,0.E0,0.E0));
#365=DIRECTION('',(0.E0,9.993908270191E-1,-3.489949670250E-2));
#366=AXIS2_PLACEMENT_3D('',#363,#364,#365);
#368=CARTESIAN_POINT('',(1.09E2,1.881917067489E1,-5.415524052173E2));
#369=CARTESIAN_POINT('',(1.09E2,3.081186059911E1,-5.419711991777E2));
#370=VERTEX_POINT('',#368);
#371=VERTEX_POINT('',#369);
#372=CARTESIAN_POINT('',(1.08E2,1.981856150190E1,-5.415873047140E2));
#373=VERTEX_POINT('',#372);
#374=CARTESIAN_POINT('',(1.08E2,2.981246977210E1,-5.419362996810E2));
#375=VERTEX_POINT('',#374);
#376=CARTESIAN_POINT('',(1.09E2,1.455217936684E1,-7.210505696349E2));
#377=CARTESIAN_POINT('',(1.09E2,2.053658271031E1,-5.496795486751E2));
#378=VERTEX_POINT('',#376);
#379=VERTEX_POINT('',#377);
#380=CARTESIAN_POINT('',(1.09E2,1.582099819383E1,-5.414477067272E2));
#381=VERTEX_POINT('',#380);
#382=CARTESIAN_POINT('',(1.09E2,2.109932106662E1,-5.335648577720E2));
#383=VERTEX_POINT('',#382);
#384=CARTESIAN_POINT('',(1.09E2,3.381003308017E1,-5.420758976678E2));
#385=VERTEX_POINT('',#384);
#386=CARTESIAN_POINT('',(1.09E2,2.853171020738E1,-5.499587466230E2));
#387=VERTEX_POINT('',#386);
#388=CARTESIAN_POINT('',(1.09E2,2.254730210139E1,-7.213297728944E2));
#389=VERTEX_POINT('',#388);
#390=CARTESIAN_POINT('',(1.09E2,2.726288749878E1,-7.295616168166E2));
#391=VERTEX_POINT('',#390);
#392=CARTESIAN_POINT('',(1.09E2,1.398943800983E1,-7.371652697982E2));
#393=VERTEX_POINT('',#392);
#394=CARTESIAN_POINT('',(1.09E2,9.273852612438E0,-7.289334258760E2));
#395=VERTEX_POINT('',#394);
#396=CARTESIAN_POINT('',(1.09E2,1.227202509350E1,-7.290381243661E2));
#397=CARTESIAN_POINT('',(1.09E2,2.426471501772E1,-7.294569183265E2));
#398=VERTEX_POINT('',#396);
#399=VERTEX_POINT('',#397);
#400=CARTESIAN_POINT('',(1.08E2,1.951632045120E1,-5.502422772608E2));
#401=CARTESIAN_POINT('',(1.08E2,1.357365513030E1,-7.204180440581E2));
#402=VERTEX_POINT('',#400);
#403=VERTEX_POINT('',#401);
#404=CARTESIAN_POINT('',(1.02E2,1.357365442776E1,-7.204180454177E2));
#405=CARTESIAN_POINT('',(1.02E2,1.951632299468E1,-5.502422831591E2));
#406=VERTEX_POINT('',#404);
#407=VERTEX_POINT('',#405);
#408=VERTEX_POINT('',#91);
#409=CARTESIAN_POINT('',(1.01E2,2.053658359123E1,-5.496795506494E2));
#410=VERTEX_POINT('',#409);
#411=CARTESIAN_POINT('',(1.01E2,9.273852612438E0,-7.289334258760E2));
#412=VERTEX_POINT('',#411);
#413=CARTESIAN_POINT('',(1.02E2,8.274461785419E0,-7.288985263793E2));
#414=VERTEX_POINT('',#413);
#415=CARTESIAN_POINT('',(1.02E2,2.826227832580E1,-7.295965163133E2));
#416=VERTEX_POINT('',#415);
#417=CARTESIAN_POINT('',(1.02E2,2.356756269793E1,-7.207670403847E2));
#418=VERTEX_POINT('',#417);
#419=VERTEX_POINT('',#120);
#420=CARTESIAN_POINT('',(1.01E2,2.726288749878E1,-7.295616168166E2));
#421=VERTEX_POINT('',#420);
#422=CARTESIAN_POINT('',(1.01E2,2.853171122403E1,-5.499587447147E2));
#423=VERTEX_POINT('',#422);
#424=CARTESIAN_POINT('',(1.01E2,3.381003308017E1,-5.420758976678E2));
#425=VERTEX_POINT('',#424);
#426=CARTESIAN_POINT('',(1.01E2,2.909444768278E1,-5.338440537456E2));
#427=VERTEX_POINT('',#426);
#428=CARTESIAN_POINT('',(1.01E2,1.582099819383E1,-5.414477067272E2));
#429=VERTEX_POINT('',#428);
#430=CARTESIAN_POINT('',(1.01E2,3.081186059911E1,-5.419711991777E2));
#431=CARTESIAN_POINT('',(1.01E2,1.881917067489E1,-5.415524052173E2));
#432=VERTEX_POINT('',#430);
#433=VERTEX_POINT('',#431);
#434=CARTESIAN_POINT('',(1.01E2,2.426471501772E1,-7.294569183265E2));
#435=CARTESIAN_POINT('',(1.01E2,1.227202509350E1,-7.290381243661E2));
#436=VERTEX_POINT('',#434);
#437=VERTEX_POINT('',#435);
#438=CARTESIAN_POINT('',(1.02E2,2.951023421348E1,-5.505912724198E2));
#439=VERTEX_POINT('',#438);
#440=CARTESIAN_POINT('',(1.08E2,2.356756269794E1,-7.207670403847E2));
#441=VERTEX_POINT('',#440);
#442=CARTESIAN_POINT('',(1.08E2,2.951023126486E1,-5.505912781261E2));
#443=VERTEX_POINT('',#442);
#444=CARTESIAN_POINT('',(1.08E2,2.826227832580E1,-7.295965163133E2));
#445=VERTEX_POINT('',#444);
#446=CARTESIAN_POINT('',(1.08E2,8.274461785418E0,-7.288985263793E2));
#447=VERTEX_POINT('',#446);
#448=CARTESIAN_POINT('',(1.08E2,1.482160736681E1,-5.414128072305E2));
#449=CARTESIAN_POINT('',(1.08E2,3.480942390719E1,-5.421107971645E2));
#450=VERTEX_POINT('',#448);
#451=VERTEX_POINT('',#449);
#452=CARTESIAN_POINT('',(1.02E2,1.482160736681E1,-5.414128072305E2));
#453=VERTEX_POINT('',#452);
#454=CARTESIAN_POINT('',(1.02E2,3.480942390719E1,-5.421107971645E2));
#455=VERTEX_POINT('',#454);
#456=CARTESIAN_POINT('',(1.02E2,2.981246977210E1,-5.419362996810E2));
#457=VERTEX_POINT('',#456);
#458=CARTESIAN_POINT('',(1.02E2,1.981856150190E1,-5.415873047140E2));
#459=VERTEX_POINT('',#458);
#460=CARTESIAN_POINT('',(1.02E2,2.326532419071E1,-7.294220188298E2));
#461=VERTEX_POINT('',#460);
#462=CARTESIAN_POINT('',(1.02E2,1.327141592051E1,-7.290730238628E2));
#463=VERTEX_POINT('',#462);
#464=CARTESIAN_POINT('',(1.08E2,1.327141592051E1,-7.290730238628E2));
#465=VERTEX_POINT('',#464);
#466=CARTESIAN_POINT('',(1.08E2,2.326532419071E1,-7.294220188298E2));
#467=VERTEX_POINT('',#466);
#468=CARTESIAN_POINT('',(1.085E2,2.481551563700E1,-5.417618021975E2));
#469=DIRECTION('',(1.E0,0.E0,0.E0));
#470=DIRECTION('',(0.E0,-9.993908270191E-1,3.489949670250E-2));
#471=AXIS2_PLACEMENT_3D('',#468,#469,#470);
#472=CONICAL_SURFACE('',#471,5.5E0,4.5E1);
#474=ORIENTED_EDGE('',*,*,#473,.F.);
#476=ORIENTED_EDGE('',*,*,#475,.T.);
#478=ORIENTED_EDGE('',*,*,#477,.T.);
#480=ORIENTED_EDGE('',*,*,#479,.F.);
#481=EDGE_LOOP('',(#474,#476,#478,#480));
#482=FACE_OUTER_BOUND('',#481,.F.);
#483=ADVANCED_FACE('',(#482),#472,.F.);
#484=CARTESIAN_POINT('',(1.09E2,1.826837005561E1,-7.292475213463E2));
#485=DIRECTION('',(1.E0,0.E0,0.E0));
#486=DIRECTION('',(0.E0,-9.993908270191E-1,3.489949670250E-2));
#487=AXIS2_PLACEMENT_3D('',#484,#485,#486);
#488=PLANE('',#487);
#490=ORIENTED_EDGE('',*,*,#489,.T.);
#492=ORIENTED_EDGE('',*,*,#491,.T.);
#494=ORIENTED_EDGE('',*,*,#493,.T.);
#496=ORIENTED_EDGE('',*,*,#495,.T.);
#498=ORIENTED_EDGE('',*,*,#497,.T.);
#500=ORIENTED_EDGE('',*,*,#499,.T.);
#502=ORIENTED_EDGE('',*,*,#501,.T.);
#504=ORIENTED_EDGE('',*,*,#503,.T.);
#506=ORIENTED_EDGE('',*,*,#505,.T.);
#508=ORIENTED_EDGE('',*,*,#507,.T.);
#509=EDGE_LOOP('',(#490,#492,#494,#496,#498,#500,#502,#504,#506,#508));
#510=FACE_OUTER_BOUND('',#509,.F.);
#512=ORIENTED_EDGE('',*,*,#511,.T.);
#513=ORIENTED_EDGE('',*,*,#473,.T.);
#514=EDGE_LOOP('',(#512,#513));
#515=FACE_BOUND('',#514,.F.);
#517=ORIENTED_EDGE('',*,*,#516,.T.);
#519=ORIENTED_EDGE('',*,*,#518,.T.);
#520=EDGE_LOOP('',(#517,#519));
#521=FACE_BOUND('',#520,.F.);
#522=ADVANCED_FACE('',(#510,#515,#521),#488,.T.);
#523=CARTESIAN_POINT('',(1.08E2,1.327141592052E1,-7.290730238628E2));
#524=DIRECTION('',(-7.071067811866E-1,7.066760308408E-1,-2.467767077833E-2));
#525=DIRECTION('',(0.E0,3.489949670250E-2,9.993908270191E-1));
#526=AXIS2_PLACEMENT_3D('',#523,#524,#525);
#527=PLANE('',#526);
#529=ORIENTED_EDGE('',*,*,#528,.F.);
#531=ORIENTED_EDGE('',*,*,#530,.F.);
#532=ORIENTED_EDGE('',*,*,#489,.F.);
#534=ORIENTED_EDGE('',*,*,#533,.F.);
#535=EDGE_LOOP('',(#529,#531,#532,#534));
#536=FACE_OUTER_BOUND('',#535,.F.);
#537=ADVANCED_FACE('',(#536),#527,.F.);
#538=CARTESIAN_POINT('',(1.09E2,1.327141592052E1,-7.290730238628E2));
#539=DIRECTION('',(0.E0,-9.993908270191E-1,3.489949670250E-2));
#540=DIRECTION('',(0.E0,-3.489949670250E-2,-9.993908270191E-1));
#541=AXIS2_PLACEMENT_3D('',#538,#539,#540);
#542=PLANE('',#541);
#544=ORIENTED_EDGE('',*,*,#543,.T.);
#546=ORIENTED_EDGE('',*,*,#545,.F.);
#547=ORIENTED_EDGE('',*,*,#528,.T.);
#549=ORIENTED_EDGE('',*,*,#548,.F.);
#550=EDGE_LOOP('',(#544,#546,#547,#549));
#551=FACE_OUTER_BOUND('',#550,.F.);
#552=ADVANCED_FACE('',(#551),#542,.T.);
#553=CARTESIAN_POINT('',(1.01E2,1.427080674754E1,-7.291079233595E2));
#554=DIRECTION('',(-7.071067811865E-1,-7.066760308409E-1,2.467767077834E-2));
#555=DIRECTION('',(0.E0,-3.489949670250E-2,-9.993908270191E-1));
#556=AXIS2_PLACEMENT_3D('',#553,#554,#555);
#557=PLANE('',#556);
#558=ORIENTED_EDGE('',*,*,#543,.F.);
#560=ORIENTED_EDGE('',*,*,#559,.T.);
#562=ORIENTED_EDGE('',*,*,#561,.F.);
#564=ORIENTED_EDGE('',*,*,#563,.T.);
#565=EDGE_LOOP('',(#558,#560,#562,#564));
#566=FACE_OUTER_BOUND('',#565,.F.);
#567=ADVANCED_FACE('',(#566),#557,.T.);
#568=CARTESIAN_POINT('',(1.015E2,1.826837005561E1,-7.292475213463E2));
#569=DIRECTION('',(1.E0,0.E0,0.E0));
#570=DIRECTION('',(0.E0,-9.993908270191E-1,3.489949670250E-2));
#571=AXIS2_PLACEMENT_3D('',#568,#569,#570);
#572=CONICAL_SURFACE('',#571,9.5E0,4.5E1);
#574=ORIENTED_EDGE('',*,*,#573,.F.);
#575=ORIENTED_EDGE('',*,*,#559,.F.);
#577=ORIENTED_EDGE('',*,*,#576,.T.);
#579=ORIENTED_EDGE('',*,*,#578,.T.);
#581=ORIENTED_EDGE('',*,*,#580,.T.);
#583=ORIENTED_EDGE('',*,*,#582,.T.);
#585=ORIENTED_EDGE('',*,*,#584,.F.);
#587=ORIENTED_EDGE('',*,*,#586,.F.);
#588=EDGE_LOOP('',(#574,#575,#577,#579,#581,#583,#585,#587));
#589=FACE_OUTER_BOUND('',#588,.F.);
#590=ADVANCED_FACE('',(#589),#572,.T.);
#591=CARTESIAN_POINT('',(1.01E2,1.826837005561E1,-7.292475213463E2));
#592=DIRECTION('',(1.E0,0.E0,0.E0));
#593=DIRECTION('',(0.E0,-9.993908270191E-1,3.489949670250E-2));
#594=AXIS2_PLACEMENT_3D('',#591,#592,#593);
#595=PLANE('',#594);
#596=ORIENTED_EDGE('',*,*,#586,.T.);
#597=ORIENTED_EDGE('',*,*,#584,.T.);
#599=ORIENTED_EDGE('',*,*,#598,.T.);
#601=ORIENTED_EDGE('',*,*,#600,.T.);
#603=ORIENTED_EDGE('',*,*,#602,.T.);
#605=ORIENTED_EDGE('',*,*,#604,.T.);
#607=ORIENTED_EDGE('',*,*,#606,.T.);
#608=ORIENTED_EDGE('',*,*,#561,.T.);
#609=ORIENTED_EDGE('',*,*,#573,.T.);
#610=EDGE_LOOP('',(#596,#597,#599,#601,#603,#605,#607,#608,#609));
#611=FACE_OUTER_BOUND('',#610,.F.);
#613=ORIENTED_EDGE('',*,*,#612,.T.);
#615=ORIENTED_EDGE('',*,*,#614,.T.);
#616=EDGE_LOOP('',(#613,#615));
#617=FACE_BOUND('',#616,.F.);
#619=ORIENTED_EDGE('',*,*,#618,.T.);
#621=ORIENTED_EDGE('',*,*,#620,.T.);
#622=EDGE_LOOP('',(#619,#621));
#623=FACE_BOUND('',#622,.F.);
#624=ADVANCED_FACE('',(#611,#617,#623),#595,.F.);
#625=CARTESIAN_POINT('',(1.02E2,2.326532419071E1,-7.294220188298E2));
#626=DIRECTION('',(7.071067811865E-1,-7.066760308409E-1,2.467767077834E-2));
#627=DIRECTION('',(0.E0,3.489949670250E-2,9.993908270191E-1));
#628=AXIS2_PLACEMENT_3D('',#625,#626,#627);
#629=PLANE('',#628);
#631=ORIENTED_EDGE('',*,*,#630,.F.);
#633=ORIENTED_EDGE('',*,*,#632,.F.);
#634=ORIENTED_EDGE('',*,*,#598,.F.);
#635=ORIENTED_EDGE('',*,*,#582,.F.);
#636=EDGE_LOOP('',(#631,#633,#634,#635));
#637=FACE_OUTER_BOUND('',#636,.F.);
#638=ADVANCED_FACE('',(#637),#629,.F.);
#639=CARTESIAN_POINT('',(1.09E2,2.326532419071E1,-7.294220188298E2));
#640=DIRECTION('',(0.E0,-9.993908270191E-1,3.489949670250E-2));
#641=DIRECTION('',(0.E0,-3.489949670250E-2,-9.993908270191E-1));
#642=AXIS2_PLACEMENT_3D('',#639,#640,#641);
#643=PLANE('',#642);
#644=ORIENTED_EDGE('',*,*,#630,.T.);
#646=ORIENTED_EDGE('',*,*,#645,.F.);
#648=ORIENTED_EDGE('',*,*,#647,.T.);
#650=ORIENTED_EDGE('',*,*,#649,.F.);
#651=EDGE_LOOP('',(#644,#646,#648,#650));
#652=FACE_OUTER_BOUND('',#651,.F.);
#653=ADVANCED_FACE('',(#652),#643,.F.);
#654=CARTESIAN_POINT('',(1.09E2,1.826837005561E1,-7.292475213463E2));
#655=DIRECTION('',(-1.E0,0.E0,0.E0));
#656=DIRECTION('',(0.E0,9.993908270191E-1,-3.489949670250E-2));
#657=AXIS2_PLACEMENT_3D('',#654,#655,#656);
#658=CYLINDRICAL_SURFACE('',#657,1.E1);
#660=ORIENTED_EDGE('',*,*,#659,.F.);
#661=ORIENTED_EDGE('',*,*,#645,.T.);
#662=ORIENTED_EDGE('',*,*,#580,.F.);
#663=ORIENTED_EDGE('',*,*,#578,.F.);
#664=ORIENTED_EDGE('',*,*,#576,.F.);
#665=ORIENTED_EDGE('',*,*,#548,.T.);
#667=ORIENTED_EDGE('',*,*,#666,.F.);
#669=ORIENTED_EDGE('',*,*,#668,.F.);
#670=EDGE_LOOP('',(#660,#661,#662,#663,#664,#665,#667,#669));
#671=FACE_OUTER_BOUND('',#670,.F.);
#672=ADVANCED_FACE('',(#671),#658,.T.);
#673=CARTESIAN_POINT('',(1.085E2,1.826837005561E1,-7.292475213463E2));
#674=DIRECTION('',(-1.E0,0.E0,0.E0));
#675=DIRECTION('',(0.E0,9.993908270191E-1,-3.489949670250E-2));
#676=AXIS2_PLACEMENT_3D('',#673,#674,#675);
#677=CONICAL_SURFACE('',#676,9.5E0,4.5E1);
#678=ORIENTED_EDGE('',*,*,#507,.F.);
#679=ORIENTED_EDGE('',*,*,#505,.F.);
#680=ORIENTED_EDGE('',*,*,#503,.F.);
#681=ORIENTED_EDGE('',*,*,#501,.F.);
#683=ORIENTED_EDGE('',*,*,#682,.F.);
#684=ORIENTED_EDGE('',*,*,#659,.T.);
#685=ORIENTED_EDGE('',*,*,#668,.T.);
#686=ORIENTED_EDGE('',*,*,#666,.T.);
#687=ORIENTED_EDGE('',*,*,#533,.T.);
#688=EDGE_LOOP('',(#678,#679,#680,#681,#683,#684,#685,#686,#687));
#689=FACE_OUTER_BOUND('',#688,.F.);
#690=ADVANCED_FACE('',(#689),#677,.T.);
#691=CARTESIAN_POINT('',(1.09E2,2.226593336369E1,-7.293871193331E2));
#692=DIRECTION('',(7.071067811866E-1,7.066760308408E-1,-2.467767077833E-2));
#693=DIRECTION('',(0.E0,-3.489949670250E-2,-9.993908270191E-1));
#694=AXIS2_PLACEMENT_3D('',#691,#692,#693);
#695=PLANE('',#694);
#696=ORIENTED_EDGE('',*,*,#647,.F.);
#697=ORIENTED_EDGE('',*,*,#682,.T.);
#698=ORIENTED_EDGE('',*,*,#499,.F.);
#700=ORIENTED_EDGE('',*,*,#699,.T.);
#701=EDGE_LOOP('',(#696,#697,#698,#700));
#702=FACE_OUTER_BOUND('',#701,.F.);
#703=ADVANCED_FACE('',(#702),#695,.T.);
#704=CARTESIAN_POINT('',(1.085E2,2.481551563700E1,-5.417618021975E2));
#705=DIRECTION('',(-1.E0,0.E0,0.E0));
#706=DIRECTION('',(0.E0,9.993908270191E-1,-3.489949670250E-2));
#707=AXIS2_PLACEMENT_3D('',#704,#705,#706);
#708=CONICAL_SURFACE('',#707,9.5E0,4.5E1);
#709=ORIENTED_EDGE('',*,*,#530,.T.);
#711=ORIENTED_EDGE('',*,*,#710,.T.);
#713=ORIENTED_EDGE('',*,*,#712,.T.);
#715=ORIENTED_EDGE('',*,*,#714,.T.);
#716=ORIENTED_EDGE('',*,*,#699,.F.);
#717=ORIENTED_EDGE('',*,*,#497,.F.);
#718=ORIENTED_EDGE('',*,*,#495,.F.);
#719=ORIENTED_EDGE('',*,*,#493,.F.);
#720=ORIENTED_EDGE('',*,*,#491,.F.);
#721=EDGE_LOOP('',(#709,#711,#713,#715,#716,#717,#718,#719,#720));
#722=FACE_OUTER_BOUND('',#721,.F.);
#723=ADVANCED_FACE('',(#722),#708,.T.);
#724=CARTESIAN_POINT('',(1.09E2,2.481551563700E1,-5.417618021975E2));
#725=DIRECTION('',(-1.E0,0.E0,0.E0));
#726=DIRECTION('',(0.E0,9.993908270191E-1,-3.489949670250E-2));
#727=AXIS2_PLACEMENT_3D('',#724,#725,#726);
#728=CYLINDRICAL_SURFACE('',#727,1.E1);
#729=ORIENTED_EDGE('',*,*,#712,.F.);
#730=ORIENTED_EDGE('',*,*,#710,.F.);
#731=ORIENTED_EDGE('',*,*,#545,.T.);
#733=ORIENTED_EDGE('',*,*,#732,.F.);
#735=ORIENTED_EDGE('',*,*,#734,.F.);
#737=ORIENTED_EDGE('',*,*,#736,.F.);
#738=ORIENTED_EDGE('',*,*,#649,.T.);
#739=ORIENTED_EDGE('',*,*,#714,.F.);
#740=EDGE_LOOP('',(#729,#730,#731,#733,#735,#737,#738,#739));
#741=FACE_OUTER_BOUND('',#740,.F.);
#742=ADVANCED_FACE('',(#741),#728,.T.);
#743=CARTESIAN_POINT('',(1.015E2,2.481551563700E1,-5.417618021975E2));
#744=DIRECTION('',(1.E0,0.E0,0.E0));
#745=DIRECTION('',(0.E0,-9.993908270191E-1,3.489949670250E-2));
#746=AXIS2_PLACEMENT_3D('',#743,#744,#745);
#747=CONICAL_SURFACE('',#746,9.5E0,4.5E1);
#748=ORIENTED_EDGE('',*,*,#600,.F.);
#749=ORIENTED_EDGE('',*,*,#632,.T.);
#750=ORIENTED_EDGE('',*,*,#736,.T.);
#751=ORIENTED_EDGE('',*,*,#734,.T.);
#752=ORIENTED_EDGE('',*,*,#732,.T.);
#753=ORIENTED_EDGE('',*,*,#563,.F.);
#754=ORIENTED_EDGE('',*,*,#606,.F.);
#755=ORIENTED_EDGE('',*,*,#604,.F.);
#756=ORIENTED_EDGE('',*,*,#602,.F.);
#757=EDGE_LOOP('',(#748,#749,#750,#751,#752,#753,#754,#755,#756));
#758=FACE_OUTER_BOUND('',#757,.F.);
#759=ADVANCED_FACE('',(#758),#747,.T.);
#760=CARTESIAN_POINT('',(1.015E2,2.481551563700E1,-5.417618021975E2));
#761=DIRECTION('',(-1.E0,0.E0,0.E0));
#762=DIRECTION('',(0.E0,9.993908270191E-1,-3.489949670250E-2));
#763=AXIS2_PLACEMENT_3D('',#760,#761,#762);
#764=CONICAL_SURFACE('',#763,5.5E0,4.5E1);
#765=ORIENTED_EDGE('',*,*,#612,.F.);
#767=ORIENTED_EDGE('',*,*,#766,.T.);
#769=ORIENTED_EDGE('',*,*,#768,.T.);
#771=ORIENTED_EDGE('',*,*,#770,.F.);
#772=EDGE_LOOP('',(#765,#767,#769,#771));
#773=FACE_OUTER_BOUND('',#772,.F.);
#774=ADVANCED_FACE('',(#773),#764,.F.);
#775=CARTESIAN_POINT('',(1.015E2,2.481551563700E1,-5.417618021975E2));
#776=DIRECTION('',(-1.E0,0.E0,0.E0));
#777=DIRECTION('',(0.E0,9.993908270191E-1,-3.489949670250E-2));
#778=AXIS2_PLACEMENT_3D('',#775,#776,#777);
#779=CONICAL_SURFACE('',#778,5.5E0,4.5E1);
#780=ORIENTED_EDGE('',*,*,#614,.F.);
#781=ORIENTED_EDGE('',*,*,#770,.T.);
#783=ORIENTED_EDGE('',*,*,#782,.T.);
#784=ORIENTED_EDGE('',*,*,#766,.F.);
#785=EDGE_LOOP('',(#780,#781,#783,#784));
#786=FACE_OUTER_BOUND('',#785,.F.);
#787=ADVANCED_FACE('',(#786),#779,.F.);
#788=CARTESIAN_POINT('',(1.09E2,2.481551563700E1,-5.417618021975E2));
#789=DIRECTION('',(-1.E0,0.E0,0.E0));
#790=DIRECTION('',(0.E0,9.993908270191E-1,-3.489949670250E-2));
#791=AXIS2_PLACEMENT_3D('',#788,#789,#790);
#792=CYLINDRICAL_SURFACE('',#791,5.E0);
#793=ORIENTED_EDGE('',*,*,#782,.F.);
#795=ORIENTED_EDGE('',*,*,#794,.T.);
#797=ORIENTED_EDGE('',*,*,#796,.F.);
#799=ORIENTED_EDGE('',*,*,#798,.F.);
#800=EDGE_LOOP('',(#793,#795,#797,#799));
#801=FACE_OUTER_BOUND('',#800,.F.);
#802=ADVANCED_FACE('',(#801),#792,.F.);
#803=CARTESIAN_POINT('',(1.09E2,2.481551563700E1,-5.417618021975E2));
#804=DIRECTION('',(-1.E0,0.E0,0.E0));
#805=DIRECTION('',(0.E0,9.993908270191E-1,-3.489949670250E-2));
#806=AXIS2_PLACEMENT_3D('',#803,#804,#805);
#807=CYLINDRICAL_SURFACE('',#806,5.E0);
#808=ORIENTED_EDGE('',*,*,#768,.F.);
#809=ORIENTED_EDGE('',*,*,#798,.T.);
#810=ORIENTED_EDGE('',*,*,#477,.F.);
#811=ORIENTED_EDGE('',*,*,#794,.F.);
#812=EDGE_LOOP('',(#808,#809,#810,#811));
#813=FACE_OUTER_BOUND('',#812,.F.);
#814=ADVANCED_FACE('',(#813),#807,.F.);
#815=CARTESIAN_POINT('',(1.085E2,2.481551563700E1,-5.417618021975E2));
#816=DIRECTION('',(1.E0,0.E0,0.E0));
#817=DIRECTION('',(0.E0,-9.993908270191E-1,3.489949670250E-2));
#818=AXIS2_PLACEMENT_3D('',#815,#816,#817);
#819=CONICAL_SURFACE('',#818,5.5E0,4.5E1);
#820=ORIENTED_EDGE('',*,*,#511,.F.);
#821=ORIENTED_EDGE('',*,*,#479,.T.);
#822=ORIENTED_EDGE('',*,*,#796,.T.);
#823=ORIENTED_EDGE('',*,*,#475,.F.);
#824=EDGE_LOOP('',(#820,#821,#822,#823));
#825=FACE_OUTER_BOUND('',#824,.F.);
#826=ADVANCED_FACE('',(#825),#819,.F.);
#827=CARTESIAN_POINT('',(1.015E2,1.826837005561E1,-7.292475213463E2));
#828=DIRECTION('',(-1.E0,0.E0,0.E0));
#829=DIRECTION('',(0.E0,9.993908270191E-1,-3.489949670250E-2));
#830=AXIS2_PLACEMENT_3D('',#827,#828,#829);
#831=CONICAL_SURFACE('',#830,5.5E0,4.5E1);
#832=ORIENTED_EDGE('',*,*,#618,.F.);
#834=ORIENTED_EDGE('',*,*,#833,.T.);
#836=ORIENTED_EDGE('',*,*,#835,.T.);
#838=ORIENTED_EDGE('',*,*,#837,.F.);
#839=EDGE_LOOP('',(#832,#834,#836,#838));
#840=FACE_OUTER_BOUND('',#839,.F.);
#841=ADVANCED_FACE('',(#840),#831,.F.);
#842=CARTESIAN_POINT('',(1.015E2,1.826837005561E1,-7.292475213463E2));
#843=DIRECTION('',(-1.E0,0.E0,0.E0));
#844=DIRECTION('',(0.E0,9.993908270191E-1,-3.489949670250E-2));
#845=AXIS2_PLACEMENT_3D('',#842,#843,#844);
#846=CONICAL_SURFACE('',#845,5.5E0,4.5E1);
#847=ORIENTED_EDGE('',*,*,#620,.F.);
#848=ORIENTED_EDGE('',*,*,#837,.T.);
#850=ORIENTED_EDGE('',*,*,#849,.T.);
#851=ORIENTED_EDGE('',*,*,#833,.F.);
#852=EDGE_LOOP('',(#847,#848,#850,#851));
#853=FACE_OUTER_BOUND('',#852,.F.);
#854=ADVANCED_FACE('',(#853),#846,.F.);
#855=CARTESIAN_POINT('',(1.09E2,1.826837005561E1,-7.292475213463E2));
#856=DIRECTION('',(-1.E0,0.E0,0.E0));
#857=DIRECTION('',(0.E0,9.993908270191E-1,-3.489949670250E-2));
#858=AXIS2_PLACEMENT_3D('',#855,#856,#857);
#859=CYLINDRICAL_SURFACE('',#858,5.E0);
#860=ORIENTED_EDGE('',*,*,#849,.F.);
#862=ORIENTED_EDGE('',*,*,#861,.T.);
#864=ORIENTED_EDGE('',*,*,#863,.F.);
#866=ORIENTED_EDGE('',*,*,#865,.F.);
#867=EDGE_LOOP('',(#860,#862,#864,#866));
#868=FACE_OUTER_BOUND('',#867,.F.);
#869=ADVANCED_FACE('',(#868),#859,.F.);
#870=CARTESIAN_POINT('',(1.09E2,1.826837005561E1,-7.292475213463E2));
#871=DIRECTION('',(-1.E0,0.E0,0.E0));
#872=DIRECTION('',(0.E0,9.993908270191E-1,-3.489949670250E-2));
#873=AXIS2_PLACEMENT_3D('',#870,#871,#872);
#874=CYLINDRICAL_SURFACE('',#873,5.E0);
#875=ORIENTED_EDGE('',*,*,#835,.F.);
#876=ORIENTED_EDGE('',*,*,#865,.T.);
#878=ORIENTED_EDGE('',*,*,#877,.F.);
#879=ORIENTED_EDGE('',*,*,#861,.F.);
#880=EDGE_LOOP('',(#875,#876,#878,#879));
#881=FACE_OUTER_BOUND('',#880,.F.);
#882=ADVANCED_FACE('',(#881),#874,.F.);
#883=CARTESIAN_POINT('',(1.085E2,1.826837005561E1,-7.292475213463E2));
#884=DIRECTION('',(1.E0,0.E0,0.E0));
#885=DIRECTION('',(0.E0,-9.993908270191E-1,3.489949670250E-2));
#886=AXIS2_PLACEMENT_3D('',#883,#884,#885);
#887=CONICAL_SURFACE('',#886,5.5E0,4.5E1);
#888=ORIENTED_EDGE('',*,*,#516,.F.);
#890=ORIENTED_EDGE('',*,*,#889,.T.);
#891=ORIENTED_EDGE('',*,*,#877,.T.);
#893=ORIENTED_EDGE('',*,*,#892,.F.);
#894=EDGE_LOOP('',(#888,#890,#891,#893));
#895=FACE_OUTER_BOUND('',#894,.F.);
#896=ADVANCED_FACE('',(#895),#887,.F.);
#897=CARTESIAN_POINT('',(1.085E2,1.826837005561E1,-7.292475213463E2));
#898=DIRECTION('',(1.E0,0.E0,0.E0));
#899=DIRECTION('',(0.E0,-9.993908270191E-1,3.489949670250E-2));
#900=AXIS2_PLACEMENT_3D('',#897,#898,#899);
#901=CONICAL_SURFACE('',#900,5.5E0,4.5E1);
#902=ORIENTED_EDGE('',*,*,#518,.F.);
#903=ORIENTED_EDGE('',*,*,#892,.T.);
#904=ORIENTED_EDGE('',*,*,#863,.T.);
#905=ORIENTED_EDGE('',*,*,#889,.F.);
#906=EDGE_LOOP('',(#902,#903,#904,#905));
#907=FACE_OUTER_BOUND('',#906,.F.);
#908=ADVANCED_FACE('',(#907),#901,.F.);
#912=DIMENSIONAL_EXPONENTS(0.E0,0.E0,0.E0,0.E0,0.E0,0.E0,0.E0);
#914=PLANE_ANGLE_MEASURE_WITH_UNIT(PLANE_ANGLE_MEASURE(1.745329251994E-2),#913);
#915=(CONVERSION_BASED_UNIT('DEGREE',#914)NAMED_UNIT(*)PLANE_ANGLE_UNIT());
#917=UNCERTAINTY_MEASURE_WITH_UNIT(LENGTH_MEASURE(2.093216893273E-2),#911,
'closure',
'Maximum model space distance between geometric entities at asserted connectivities');
#918=(GEOMETRIC_REPRESENTATION_CONTEXT(3)GLOBAL_UNCERTAINTY_ASSIGNED_CONTEXT((
#917))GLOBAL_UNIT_ASSIGNED_CONTEXT((#911,#915,#916))REPRESENTATION_CONTEXT
('ID1','3'));
#920=APPLICATION_CONTEXT(
'CONFIGURATION CONTROLLED 3D DESIGNS OF MECHANICAL PARTS AND ASSEMBLIES');
#921=APPLICATION_PROTOCOL_DEFINITION('international standard',
'config_control_design',1994,#920);
#922=DESIGN_CONTEXT('',#920,'design');
#923=MECHANICAL_CONTEXT('',#920,'mechanical');
#924=PRODUCT('KD-D-503X_ANKLE_LINK-S_1','KD-D-503X_ANKLE_LINK-S_1',
'NOT SPECIFIED',(#923));
#925=PRODUCT_DEFINITION_FORMATION_WITH_SPECIFIED_SOURCE('2','LAST_VERSION',#924,
.MADE.);
#929=PRODUCT_CATEGORY('part','');
#930=PRODUCT_RELATED_PRODUCT_CATEGORY('detail','',(#924));
#931=PRODUCT_CATEGORY_RELATIONSHIP('','',#929,#930);
#932=SECURITY_CLASSIFICATION_LEVEL('unclassified');
#933=SECURITY_CLASSIFICATION('','',#932);
#934=CC_DESIGN_SECURITY_CLASSIFICATION(#933,(#925));
#935=APPROVAL_STATUS('approved');
#936=APPROVAL(#935,'');
#937=CC_DESIGN_APPROVAL(#936,(#933,#925,#926));
#938=CALENDAR_DATE(125,12,7);
#939=COORDINATED_UNIVERSAL_TIME_OFFSET(8,0,.AHEAD.);
#940=LOCAL_TIME(16,44,4.E0,#939);
#941=DATE_AND_TIME(#938,#940);
#942=APPROVAL_DATE_TIME(#941,#936);
#943=DATE_TIME_ROLE('creation_date');
#944=CC_DESIGN_DATE_AND_TIME_ASSIGNMENT(#941,#943,(#926));
#945=DATE_TIME_ROLE('classification_date');
#946=CC_DESIGN_DATE_AND_TIME_ASSIGNMENT(#941,#945,(#933));
#947=PERSON('UNSPECIFIED','UNSPECIFIED',$,$,$,$);
#948=ORGANIZATION('UNSPECIFIED','UNSPECIFIED','UNSPECIFIED');
#949=PERSON_AND_ORGANIZATION(#947,#948);
#950=APPROVAL_ROLE('approver');
#951=APPROVAL_PERSON_ORGANIZATION(#949,#936,#950);
#952=PERSON_AND_ORGANIZATION_ROLE('creator');
#953=CC_DESIGN_PERSON_AND_ORGANIZATION_ASSIGNMENT(#949,#952,(#925,#926));
#954=PERSON_AND_ORGANIZATION_ROLE('design_supplier');
#955=CC_DESIGN_PERSON_AND_ORGANIZATION_ASSIGNMENT(#949,#954,(#925));
#956=PERSON_AND_ORGANIZATION_ROLE('classification_officer');
#957=CC_DESIGN_PERSON_AND_ORGANIZATION_ASSIGNMENT(#949,#956,(#933));
#958=PERSON_AND_ORGANIZATION_ROLE('design_owner');
#959=CC_DESIGN_PERSON_AND_ORGANIZATION_ASSIGNMENT(#949,#958,(#924));
#9=CIRCLE('',#8,5.E0);
#18=CIRCLE('',#17,9.E0);
#23=CIRCLE('',#22,9.E0);
#28=CIRCLE('',#27,9.E0);
#33=CIRCLE('',#32,9.E0);
#42=CIRCLE('',#41,9.E0);
#47=CIRCLE('',#46,9.E0);
#52=CIRCLE('',#51,9.E0);
#57=CIRCLE('',#56,9.E0);
#62=CIRCLE('',#61,6.E0);
#67=CIRCLE('',#66,6.E0);
#72=CIRCLE('',#71,6.E0);
#77=CIRCLE('',#76,6.E0);
#92=B_SPLINE_CURVE_WITH_KNOTS('',3,(#86,#87,#88,#89,#90,#91),.UNSPECIFIED.,.F.,
.F.,(4,1,1,4),(0.E0,3.333333333333E-1,6.666666666667E-1,1.E0),.UNSPECIFIED.);
#99=B_SPLINE_CURVE_WITH_KNOTS('',3,(#93,#94,#95,#96,#97,#98),.UNSPECIFIED.,.F.,
.F.,(4,1,1,4),(0.E0,3.333333333333E-1,6.666666666667E-1,1.E0),.UNSPECIFIED.);
#104=CIRCLE('',#103,1.E1);
#109=CIRCLE('',#108,1.E1);
#114=CIRCLE('',#113,1.E1);
#121=B_SPLINE_CURVE_WITH_KNOTS('',3,(#115,#116,#117,#118,#119,#120),
.UNSPECIFIED.,.F.,.F.,(4,1,1,4),(0.E0,3.333333333333E-1,6.666666666667E-1,1.E0),
.UNSPECIFIED.);
#126=CIRCLE('',#125,9.E0);
#131=CIRCLE('',#130,9.E0);
#140=CIRCLE('',#139,9.E0);
#145=CIRCLE('',#144,9.E0);
#150=CIRCLE('',#149,9.E0);
#155=CIRCLE('',#154,9.E0);
#164=CIRCLE('',#163,9.E0);
#169=CIRCLE('',#168,6.E0);
#174=CIRCLE('',#173,6.E0);
#179=CIRCLE('',#178,6.E0);
#184=CIRCLE('',#183,6.E0);
#205=CIRCLE('',#204,1.E1);
#210=CIRCLE('',#209,1.E1);
#215=CIRCLE('',#214,1.E1);
#222=B_SPLINE_CURVE_WITH_KNOTS('',3,(#216,#217,#218,#219,#220,#221),
.UNSPECIFIED.,.F.,.F.,(4,1,1,4),(0.E0,3.333333333333E-1,6.666666666667E-1,1.E0),
.UNSPECIFIED.);
#229=B_SPLINE_CURVE_WITH_KNOTS('',3,(#223,#224,#225,#226,#227,#228),
.UNSPECIFIED.,.F.,.F.,(4,1,1,4),(0.E0,3.333333333333E-1,6.666666666667E-1,1.E0),
.UNSPECIFIED.);
#236=B_SPLINE_CURVE_WITH_KNOTS('',3,(#230,#231,#232,#233,#234,#235),
.UNSPECIFIED.,.F.,.F.,(4,1,1,4),(0.E0,3.333333333333E-1,6.666666666667E-1,1.E0),
.UNSPECIFIED.);
#243=B_SPLINE_CURVE_WITH_KNOTS('',3,(#237,#238,#239,#240,#241,#242),
.UNSPECIFIED.,.F.,.F.,(4,1,1,4),(0.E0,3.333333333333E-1,6.666666666667E-1,1.E0),
.UNSPECIFIED.);
#248=CIRCLE('',#247,1.E1);
#253=CIRCLE('',#252,1.E1);
#258=CIRCLE('',#257,1.E1);
#273=B_SPLINE_CURVE_WITH_KNOTS('',3,(#267,#268,#269,#270,#271,#272),
.UNSPECIFIED.,.F.,.F.,(4,1,1,4),(0.E0,3.333333333333E-1,6.666666666667E-1,1.E0),
.UNSPECIFIED.);
#278=CIRCLE('',#277,1.E1);
#283=CIRCLE('',#282,1.E1);
#288=CIRCLE('',#287,1.E1);
#297=CIRCLE('',#296,5.E0);
#306=CIRCLE('',#305,5.E0);
#323=CIRCLE('',#322,5.E0);
#332=CIRCLE('',#331,5.E0);
#341=CIRCLE('',#340,5.E0);
#358=CIRCLE('',#357,5.E0);
#367=CIRCLE('',#366,5.E0);
#473=EDGE_CURVE('',#370,#371,#67,.T.);
#475=EDGE_CURVE('',#370,#373,#4,.T.);
#477=EDGE_CURVE('',#373,#375,#9,.T.);
#479=EDGE_CURVE('',#371,#375,#318,.T.);
#489=EDGE_CURVE('',#378,#379,#13,.T.);
#491=EDGE_CURVE('',#379,#381,#18,.T.);
#493=EDGE_CURVE('',#381,#383,#23,.T.);
#495=EDGE_CURVE('',#383,#385,#28,.T.);
#497=EDGE_CURVE('',#385,#387,#33,.T.);
#499=EDGE_CURVE('',#387,#389,#37,.T.);
#501=EDGE_CURVE('',#389,#391,#42,.T.);
#503=EDGE_CURVE('',#391,#393,#47,.T.);
#505=EDGE_CURVE('',#393,#395,#52,.T.);
#507=EDGE_CURVE('',#395,#378,#57,.T.);
#511=EDGE_CURVE('',#371,#370,#62,.T.);
#516=EDGE_CURVE('',#398,#399,#72,.T.);
#518=EDGE_CURVE('',#399,#398,#77,.T.);
#528=EDGE_CURVE('',#402,#403,#85,.T.);
#530=EDGE_CURVE('',#379,#402,#243,.T.);
#533=EDGE_CURVE('',#403,#378,#222,.T.);
#543=EDGE_CURVE('',#406,#407,#81,.T.);
#545=EDGE_CURVE('',#402,#407,#262,.T.);
#548=EDGE_CURVE('',#406,#403,#200,.T.);
#559=EDGE_CURVE('',#406,#408,#92,.T.);
#561=EDGE_CURVE('',#410,#408,#159,.T.);
#563=EDGE_CURVE('',#410,#407,#99,.T.);
#573=EDGE_CURVE('',#408,#412,#164,.T.);
#576=EDGE_CURVE('',#406,#414,#104,.T.);
#578=EDGE_CURVE('',#414,#416,#109,.T.);
#580=EDGE_CURVE('',#416,#418,#114,.T.);
#582=EDGE_CURVE('',#418,#419,#121,.T.);
#584=EDGE_CURVE('',#421,#419,#131,.T.);
#586=EDGE_CURVE('',#412,#421,#126,.T.);
#598=EDGE_CURVE('',#419,#423,#135,.T.);
#600=EDGE_CURVE('',#423,#425,#140,.T.);
#602=EDGE_CURVE('',#425,#427,#145,.T.);
#604=EDGE_CURVE('',#427,#429,#150,.T.);
#606=EDGE_CURVE('',#429,#410,#155,.T.);
#612=EDGE_CURVE('',#432,#433,#169,.T.);
#614=EDGE_CURVE('',#433,#432,#174,.T.);
#618=EDGE_CURVE('',#436,#437,#179,.T.);
#620=EDGE_CURVE('',#437,#436,#184,.T.);
#630=EDGE_CURVE('',#439,#418,#188,.T.);
#632=EDGE_CURVE('',#423,#439,#273,.T.);
#645=EDGE_CURVE('',#441,#418,#196,.T.);
#647=EDGE_CURVE('',#441,#443,#192,.T.);
#649=EDGE_CURVE('',#439,#443,#266,.T.);
#659=EDGE_CURVE('',#441,#445,#205,.T.);
#666=EDGE_CURVE('',#447,#403,#215,.T.);
#668=EDGE_CURVE('',#445,#447,#210,.T.);
#682=EDGE_CURVE('',#441,#389,#229,.T.);
#699=EDGE_CURVE('',#387,#443,#236,.T.);
#710=EDGE_CURVE('',#402,#450,#248,.T.);
#712=EDGE_CURVE('',#450,#451,#253,.T.);
#714=EDGE_CURVE('',#451,#443,#258,.T.);
#732=EDGE_CURVE('',#453,#407,#288,.T.);
#734=EDGE_CURVE('',#455,#453,#283,.T.);
#736=EDGE_CURVE('',#439,#455,#278,.T.);
#766=EDGE_CURVE('',#432,#457,#292,.T.);
#768=EDGE_CURVE('',#457,#459,#297,.T.);
#770=EDGE_CURVE('',#433,#459,#301,.T.);
#782=EDGE_CURVE('',#459,#457,#306,.T.);
#794=EDGE_CURVE('',#459,#373,#310,.T.);
#796=EDGE_CURVE('',#375,#373,#323,.T.);
#798=EDGE_CURVE('',#457,#375,#314,.T.);
#833=EDGE_CURVE('',#436,#461,#327,.T.);
#835=EDGE_CURVE('',#461,#463,#332,.T.);
#837=EDGE_CURVE('',#437,#463,#336,.T.);
#849=EDGE_CURVE('',#463,#461,#341,.T.);
#861=EDGE_CURVE('',#463,#465,#345,.T.);
#863=EDGE_CURVE('',#467,#465,#367,.T.);
#865=EDGE_CURVE('',#461,#467,#349,.T.);
#877=EDGE_CURVE('',#465,#467,#358,.T.);
#889=EDGE_CURVE('',#398,#465,#353,.T.);
#892=EDGE_CURVE('',#399,#467,#362,.T.);
#909=CLOSED_SHELL('',(#483,#522,#537,#552,#567,#590,#624,#638,#653,#672,#690,
#703,#723,#742,#759,#774,#787,#802,#814,#826,#841,#854,#869,#882,#896,#908));
#910=MANIFOLD_SOLID_BREP('',#909);
#911=(LENGTH_UNIT()NAMED_UNIT(*)SI_UNIT(.MILLI.,.METRE.));
#913=(NAMED_UNIT(*)PLANE_ANGLE_UNIT()SI_UNIT($,.RADIAN.));
#916=(NAMED_UNIT(*)SI_UNIT($,.STERADIAN.)SOLID_ANGLE_UNIT());
#919=ADVANCED_BREP_SHAPE_REPRESENTATION('',(#910),#918);
#926=PRODUCT_DEFINITION('design','',#925,#922);
#927=PRODUCT_DEFINITION_SHAPE('','SHAPE FOR KD-D-503X_ANKLE_LINK-S_1.',#926);
#928=SHAPE_DEFINITION_REPRESENTATION(#927,#919);
ENDSEC;
END-ISO-10303-21;
